M48
; DRILL file {KiCad 5.1.8} date Sat Feb 20 18:00:30 2021
; FORMAT={-:-/ absolute / inch / decimal}
; #@! TF.CreationDate,2021-02-20T18:00:30-06:00
; #@! TF.GenerationSoftware,Kicad,Pcbnew,5.1.8
; #@! TF.FileFunction,NonPlated,1,2,NPTH
FMAT,2
INCH
T1C0.0354
T2C0.0670
T3C0.0866
T4C0.1181
T5C0.1350
%
G90
G05
T1
X3.3426Y-0.8571
X3.4607Y-0.8571
X3.3426Y-0.8571
X3.4607Y-0.8571
T2
X4.6615Y-1.8984
X5.0946Y-1.8984
X5.3701Y-1.9921
X5.8032Y-1.9921
X3.4965Y-3.6366
X3.9149Y-3.5245
X6.0788Y-1.5098
X6.5119Y-1.5098
X3.9528Y-1.9921
X4.3859Y-1.9921
X4.6615Y-1.2291
X5.0946Y-1.2291
X3.9528Y-1.3228
X4.3859Y-1.3228
X5.3701Y-1.3228
X5.8032Y-1.3228
X6.0788Y-2.1791
X6.5119Y-2.1791
X2.6424Y-3.8656
X3.0607Y-3.7535
T3
X2.4142Y-3.9267
X4.1696Y-3.4562
X3.1064Y-2.4645
X6.5709Y-2.4645
X4.1694Y-2.7008
X6.5709Y-0.8504
X3.2889Y-3.6924
X3.1064Y-0.8504
T4
X3.9725Y-1.8445
X4.1694Y-1.7579
X4.3662Y-1.8445
X4.6812Y-1.0815
X4.878Y-0.9949
X5.0749Y-1.0815
X3.9725Y-1.1752
X4.1694Y-1.0886
X4.3662Y-1.1752
X5.3898Y-1.1752
X5.5867Y-1.0886
X5.7835Y-1.1752
X6.0985Y-2.0315
X6.2953Y-1.9449
X6.4922Y-2.0315
X2.6232Y-3.7179
X2.7909Y-3.5833
X3.0035Y-3.616
X4.6812Y-1.7508
X4.878Y-1.6642
X5.0749Y-1.7508
X5.3898Y-1.8445
X5.5867Y-1.7579
X5.7835Y-1.8445
X3.4773Y-3.4889
X3.6451Y-3.3543
X3.8576Y-3.387
X6.0985Y-1.3622
X6.2953Y-1.2756
X6.4922Y-1.3622
T5
X5.5867Y-1.9921
X3.7057Y-3.5805
X6.2953Y-1.5098
X4.1694Y-1.9921
X4.878Y-1.2291
X4.1694Y-1.3228
X5.5867Y-1.3228
X6.2953Y-2.1791
X2.8515Y-3.8096
X4.878Y-1.8984
T0
M30
