%TF.GenerationSoftware,KiCad,Pcbnew,5.1.8*%
%TF.CreationDate,2021-03-23T18:40:27-05:00*%
%TF.ProjectId,small-paintbrush-hotswap,736d616c-6c2d-4706-9169-6e7462727573,rev?*%
%TF.SameCoordinates,Original*%
%TF.FileFunction,Legend,Bot*%
%TF.FilePolarity,Positive*%
%FSLAX46Y46*%
G04 Gerber Fmt 4.6, Leading zero omitted, Abs format (unit mm)*
G04 Created by KiCad (PCBNEW 5.1.8) date 2021-03-23 18:40:27*
%MOMM*%
%LPD*%
G01*
G04 APERTURE LIST*
%ADD10C,0.120000*%
%ADD11C,0.381000*%
%ADD12C,0.150000*%
G04 APERTURE END LIST*
D10*
%TO.C,SW1*%
X161051737Y-21079425D02*
X161051737Y-21869425D01*
X154151737Y-21869425D02*
X154151737Y-21079425D01*
X156001737Y-22919425D02*
X157701737Y-22919425D01*
X154751737Y-20069425D02*
X160451737Y-20069425D01*
X157501737Y-18779425D02*
X157501737Y-20069425D01*
X156401737Y-18569425D02*
X157301737Y-18569425D01*
X156201737Y-20069425D02*
X156201737Y-18779425D01*
X157501737Y-18779425D02*
X157301737Y-18569425D01*
X156201737Y-18779425D02*
X156401737Y-18569425D01*
X159001737Y-22919425D02*
X159201737Y-22919425D01*
D11*
%TO.C,U2*%
X90951739Y-27359424D02*
X93491739Y-27359424D01*
X93491739Y-24819424D02*
X93491739Y-27359424D01*
X75711739Y-24819424D02*
X93491739Y-24819424D01*
X75711739Y-27359424D02*
X75711739Y-24819424D01*
D12*
G36*
X79670171Y-33838784D02*
G01*
X79670171Y-34038784D01*
X79770171Y-34038784D01*
X79770171Y-33838784D01*
X79670171Y-33838784D01*
G37*
X79670171Y-33838784D02*
X79670171Y-34038784D01*
X79770171Y-34038784D01*
X79770171Y-33838784D01*
X79670171Y-33838784D01*
G36*
X80070171Y-33238784D02*
G01*
X80070171Y-34038784D01*
X80170171Y-34038784D01*
X80170171Y-33238784D01*
X80070171Y-33238784D01*
G37*
X80070171Y-33238784D02*
X80070171Y-34038784D01*
X80170171Y-34038784D01*
X80170171Y-33238784D01*
X80070171Y-33238784D01*
G36*
X79670171Y-33238784D02*
G01*
X79670171Y-33338784D01*
X80170171Y-33338784D01*
X80170171Y-33238784D01*
X79670171Y-33238784D01*
G37*
X79670171Y-33238784D02*
X79670171Y-33338784D01*
X80170171Y-33338784D01*
X80170171Y-33238784D01*
X79670171Y-33238784D01*
G36*
X79870171Y-33638784D02*
G01*
X79870171Y-33738784D01*
X79970171Y-33738784D01*
X79970171Y-33638784D01*
X79870171Y-33638784D01*
G37*
X79870171Y-33638784D02*
X79870171Y-33738784D01*
X79970171Y-33738784D01*
X79970171Y-33638784D01*
X79870171Y-33638784D01*
G36*
X79670171Y-33238784D02*
G01*
X79670171Y-33538784D01*
X79770171Y-33538784D01*
X79770171Y-33238784D01*
X79670171Y-33238784D01*
G37*
X79670171Y-33238784D02*
X79670171Y-33538784D01*
X79770171Y-33538784D01*
X79770171Y-33238784D01*
X79670171Y-33238784D01*
D11*
X90951739Y-29899424D02*
X93491739Y-29899424D01*
X90951739Y-27359424D02*
X90951739Y-29899424D01*
X75711739Y-57839424D02*
X75711739Y-27359424D01*
X93491739Y-57839424D02*
X75711739Y-57839424D01*
X93491739Y-27359424D02*
X93491739Y-57839424D01*
D12*
%TO.C,KEY3*%
X135901739Y-40599426D02*
X134901739Y-40599426D01*
X134901739Y-40599426D02*
X134901739Y-39599426D01*
X148901739Y-40599426D02*
X147901739Y-40599426D01*
X148901739Y-39599426D02*
X148901739Y-40599426D01*
X147901739Y-26599426D02*
X148901739Y-26599426D01*
X148901739Y-26599426D02*
X148901739Y-27599426D01*
X134901739Y-27599426D02*
X134901739Y-26599426D01*
X134901739Y-26599426D02*
X135901739Y-26599426D01*
X148901739Y-32099426D02*
X148901739Y-31599426D01*
X140401739Y-25399426D02*
X143401739Y-25399426D01*
X139901739Y-25899426D02*
X140401739Y-25399426D01*
X140401739Y-29899426D02*
X142901739Y-29899426D01*
X148901739Y-27999426D02*
X148901739Y-27399426D01*
X139901739Y-29399426D02*
X140401739Y-29899426D01*
X148901739Y-27399426D02*
X144401739Y-27399426D01*
X143901739Y-26899426D02*
X143901739Y-25899426D01*
X143401739Y-25399426D02*
X143901739Y-25899426D01*
X144401739Y-32099426D02*
X148901739Y-32099426D01*
X144401739Y-31399426D02*
X144401739Y-32099426D01*
X142901739Y-29899426D02*
G75*
G02*
X144401739Y-31399426I0J-1500000D01*
G01*
X144401739Y-27399426D02*
G75*
G02*
X143901739Y-26899426I0J500000D01*
G01*
%TO.C,KEY8*%
X153901739Y-62349423D02*
X152901739Y-62349423D01*
X152901739Y-62349423D02*
X152901739Y-61349423D01*
X166901739Y-62349423D02*
X165901739Y-62349423D01*
X166901739Y-61349423D02*
X166901739Y-62349423D01*
X165901739Y-48349423D02*
X166901739Y-48349423D01*
X166901739Y-48349423D02*
X166901739Y-49349423D01*
X152901739Y-49349423D02*
X152901739Y-48349423D01*
X152901739Y-48349423D02*
X153901739Y-48349423D01*
X166901739Y-53849423D02*
X166901739Y-53349423D01*
X158401739Y-47149423D02*
X161401739Y-47149423D01*
X157901739Y-47649423D02*
X158401739Y-47149423D01*
X158401739Y-51649423D02*
X160901739Y-51649423D01*
X166901739Y-49749423D02*
X166901739Y-49149423D01*
X157901739Y-51149423D02*
X158401739Y-51649423D01*
X166901739Y-49149423D02*
X162401739Y-49149423D01*
X161901739Y-48649423D02*
X161901739Y-47649423D01*
X161401739Y-47149423D02*
X161901739Y-47649423D01*
X162401739Y-53849423D02*
X166901739Y-53849423D01*
X162401739Y-53149423D02*
X162401739Y-53849423D01*
X160901739Y-51649423D02*
G75*
G02*
X162401739Y-53149423I0J-1500000D01*
G01*
X162401739Y-49149423D02*
G75*
G02*
X161901739Y-48649423I0J500000D01*
G01*
%TO.C,KEY7*%
X135901739Y-57599426D02*
X134901739Y-57599426D01*
X134901739Y-57599426D02*
X134901739Y-56599426D01*
X148901739Y-57599426D02*
X147901739Y-57599426D01*
X148901739Y-56599426D02*
X148901739Y-57599426D01*
X147901739Y-43599426D02*
X148901739Y-43599426D01*
X148901739Y-43599426D02*
X148901739Y-44599426D01*
X134901739Y-44599426D02*
X134901739Y-43599426D01*
X134901739Y-43599426D02*
X135901739Y-43599426D01*
X148901739Y-49099426D02*
X148901739Y-48599426D01*
X140401739Y-42399426D02*
X143401739Y-42399426D01*
X139901739Y-42899426D02*
X140401739Y-42399426D01*
X140401739Y-46899426D02*
X142901739Y-46899426D01*
X148901739Y-44999426D02*
X148901739Y-44399426D01*
X139901739Y-46399426D02*
X140401739Y-46899426D01*
X148901739Y-44399426D02*
X144401739Y-44399426D01*
X143901739Y-43899426D02*
X143901739Y-42899426D01*
X143401739Y-42399426D02*
X143901739Y-42899426D01*
X144401739Y-49099426D02*
X148901739Y-49099426D01*
X144401739Y-48399426D02*
X144401739Y-49099426D01*
X142901739Y-46899426D02*
G75*
G02*
X144401739Y-48399426I0J-1500000D01*
G01*
X144401739Y-44399426D02*
G75*
G02*
X143901739Y-43899426I0J500000D01*
G01*
%TO.C,KEY6*%
X126401739Y-46019424D02*
X126401739Y-46719424D01*
X126401739Y-46719424D02*
X130901739Y-46719424D01*
X125401739Y-40019424D02*
X125901739Y-40519424D01*
X125901739Y-41519424D02*
X125901739Y-40519424D01*
X130901739Y-42019424D02*
X126401739Y-42019424D01*
X121901739Y-44019424D02*
X122401739Y-44519424D01*
X130901739Y-42619424D02*
X130901739Y-42019424D01*
X122401739Y-44519424D02*
X124901739Y-44519424D01*
X121901739Y-40519424D02*
X122401739Y-40019424D01*
X122401739Y-40019424D02*
X125401739Y-40019424D01*
X130901739Y-46719424D02*
X130901739Y-46219424D01*
X116901739Y-41219424D02*
X117901739Y-41219424D01*
X116901739Y-42219424D02*
X116901739Y-41219424D01*
X130901739Y-41219424D02*
X130901739Y-42219424D01*
X129901739Y-41219424D02*
X130901739Y-41219424D01*
X130901739Y-54219424D02*
X130901739Y-55219424D01*
X130901739Y-55219424D02*
X129901739Y-55219424D01*
X116901739Y-55219424D02*
X116901739Y-54219424D01*
X117901739Y-55219424D02*
X116901739Y-55219424D01*
X126401739Y-42019424D02*
G75*
G02*
X125901739Y-41519424I0J500000D01*
G01*
X124901739Y-44519424D02*
G75*
G02*
X126401739Y-46019424I0J-1500000D01*
G01*
%TO.C,KEY5*%
X99901736Y-57599424D02*
X98901736Y-57599424D01*
X98901736Y-57599424D02*
X98901736Y-56599424D01*
X112901736Y-57599424D02*
X111901736Y-57599424D01*
X112901736Y-56599424D02*
X112901736Y-57599424D01*
X111901736Y-43599424D02*
X112901736Y-43599424D01*
X112901736Y-43599424D02*
X112901736Y-44599424D01*
X98901736Y-44599424D02*
X98901736Y-43599424D01*
X98901736Y-43599424D02*
X99901736Y-43599424D01*
X112901736Y-49099424D02*
X112901736Y-48599424D01*
X104401736Y-42399424D02*
X107401736Y-42399424D01*
X103901736Y-42899424D02*
X104401736Y-42399424D01*
X104401736Y-46899424D02*
X106901736Y-46899424D01*
X112901736Y-44999424D02*
X112901736Y-44399424D01*
X103901736Y-46399424D02*
X104401736Y-46899424D01*
X112901736Y-44399424D02*
X108401736Y-44399424D01*
X107901736Y-43899424D02*
X107901736Y-42899424D01*
X107401736Y-42399424D02*
X107901736Y-42899424D01*
X108401736Y-49099424D02*
X112901736Y-49099424D01*
X108401736Y-48399424D02*
X108401736Y-49099424D01*
X106901736Y-46899424D02*
G75*
G02*
X108401736Y-48399424I0J-1500000D01*
G01*
X108401736Y-44399424D02*
G75*
G02*
X107901736Y-43899424I0J500000D01*
G01*
%TO.C,KEY4*%
X153901737Y-45349424D02*
X152901737Y-45349424D01*
X152901737Y-45349424D02*
X152901737Y-44349424D01*
X166901737Y-45349424D02*
X165901737Y-45349424D01*
X166901737Y-44349424D02*
X166901737Y-45349424D01*
X165901737Y-31349424D02*
X166901737Y-31349424D01*
X166901737Y-31349424D02*
X166901737Y-32349424D01*
X152901737Y-32349424D02*
X152901737Y-31349424D01*
X152901737Y-31349424D02*
X153901737Y-31349424D01*
X166901737Y-36849424D02*
X166901737Y-36349424D01*
X158401737Y-30149424D02*
X161401737Y-30149424D01*
X157901737Y-30649424D02*
X158401737Y-30149424D01*
X158401737Y-34649424D02*
X160901737Y-34649424D01*
X166901737Y-32749424D02*
X166901737Y-32149424D01*
X157901737Y-34149424D02*
X158401737Y-34649424D01*
X166901737Y-32149424D02*
X162401737Y-32149424D01*
X161901737Y-31649424D02*
X161901737Y-30649424D01*
X161401737Y-30149424D02*
X161901737Y-30649424D01*
X162401737Y-36849424D02*
X166901737Y-36849424D01*
X162401737Y-36149424D02*
X162401737Y-36849424D01*
X160901737Y-34649424D02*
G75*
G02*
X162401737Y-36149424I0J-1500000D01*
G01*
X162401737Y-32149424D02*
G75*
G02*
X161901737Y-31649424I0J500000D01*
G01*
%TO.C,KEY2*%
X126401737Y-29019424D02*
X126401737Y-29719424D01*
X126401737Y-29719424D02*
X130901737Y-29719424D01*
X125401737Y-23019424D02*
X125901737Y-23519424D01*
X125901737Y-24519424D02*
X125901737Y-23519424D01*
X130901737Y-25019424D02*
X126401737Y-25019424D01*
X121901737Y-27019424D02*
X122401737Y-27519424D01*
X130901737Y-25619424D02*
X130901737Y-25019424D01*
X122401737Y-27519424D02*
X124901737Y-27519424D01*
X121901737Y-23519424D02*
X122401737Y-23019424D01*
X122401737Y-23019424D02*
X125401737Y-23019424D01*
X130901737Y-29719424D02*
X130901737Y-29219424D01*
X116901737Y-24219424D02*
X117901737Y-24219424D01*
X116901737Y-25219424D02*
X116901737Y-24219424D01*
X130901737Y-24219424D02*
X130901737Y-25219424D01*
X129901737Y-24219424D02*
X130901737Y-24219424D01*
X130901737Y-37219424D02*
X130901737Y-38219424D01*
X130901737Y-38219424D02*
X129901737Y-38219424D01*
X116901737Y-38219424D02*
X116901737Y-37219424D01*
X117901737Y-38219424D02*
X116901737Y-38219424D01*
X126401737Y-25019424D02*
G75*
G02*
X125901737Y-24519424I0J500000D01*
G01*
X124901737Y-27519424D02*
G75*
G02*
X126401737Y-29019424I0J-1500000D01*
G01*
%TO.C,KEY1*%
X99901737Y-40599424D02*
X98901737Y-40599424D01*
X98901737Y-40599424D02*
X98901737Y-39599424D01*
X112901737Y-40599424D02*
X111901737Y-40599424D01*
X112901737Y-39599424D02*
X112901737Y-40599424D01*
X111901737Y-26599424D02*
X112901737Y-26599424D01*
X112901737Y-26599424D02*
X112901737Y-27599424D01*
X98901737Y-27599424D02*
X98901737Y-26599424D01*
X98901737Y-26599424D02*
X99901737Y-26599424D01*
X112901737Y-32099424D02*
X112901737Y-31599424D01*
X104401737Y-25399424D02*
X107401737Y-25399424D01*
X103901737Y-25899424D02*
X104401737Y-25399424D01*
X104401737Y-29899424D02*
X106901737Y-29899424D01*
X112901737Y-27999424D02*
X112901737Y-27399424D01*
X103901737Y-29399424D02*
X104401737Y-29899424D01*
X112901737Y-27399424D02*
X108401737Y-27399424D01*
X107901737Y-26899424D02*
X107901737Y-25899424D01*
X107401737Y-25399424D02*
X107901737Y-25899424D01*
X108401737Y-32099424D02*
X112901737Y-32099424D01*
X108401737Y-31399424D02*
X108401737Y-32099424D01*
X106901737Y-29899424D02*
G75*
G02*
X108401737Y-31399424I0J-1500000D01*
G01*
X108401737Y-27399424D02*
G75*
G02*
X107901737Y-26899424I0J500000D01*
G01*
D11*
%TO.C,U1*%
X80051737Y-28359424D02*
X77511737Y-28359424D01*
X95291737Y-25819424D02*
X77511737Y-25819424D01*
X77511737Y-25819424D02*
X77511737Y-58839424D01*
X77511737Y-58839424D02*
X95291737Y-58839424D01*
X95291737Y-58839424D02*
X95291737Y-25819424D01*
D12*
G36*
X92246372Y-34248454D02*
G01*
X92246372Y-34348454D01*
X92746372Y-34348454D01*
X92746372Y-34248454D01*
X92246372Y-34248454D01*
G37*
X92246372Y-34248454D02*
X92246372Y-34348454D01*
X92746372Y-34348454D01*
X92746372Y-34248454D01*
X92246372Y-34248454D01*
G36*
X92246372Y-34248454D02*
G01*
X92246372Y-34548454D01*
X92346372Y-34548454D01*
X92346372Y-34248454D01*
X92246372Y-34248454D01*
G37*
X92246372Y-34248454D02*
X92246372Y-34548454D01*
X92346372Y-34548454D01*
X92346372Y-34248454D01*
X92246372Y-34248454D01*
G36*
X92246372Y-34848454D02*
G01*
X92246372Y-35048454D01*
X92346372Y-35048454D01*
X92346372Y-34848454D01*
X92246372Y-34848454D01*
G37*
X92246372Y-34848454D02*
X92246372Y-35048454D01*
X92346372Y-35048454D01*
X92346372Y-34848454D01*
X92246372Y-34848454D01*
G36*
X92646372Y-34248454D02*
G01*
X92646372Y-35048454D01*
X92746372Y-35048454D01*
X92746372Y-34248454D01*
X92646372Y-34248454D01*
G37*
X92646372Y-34248454D02*
X92646372Y-35048454D01*
X92746372Y-35048454D01*
X92746372Y-34248454D01*
X92646372Y-34248454D01*
G36*
X92446372Y-34648454D02*
G01*
X92446372Y-34748454D01*
X92546372Y-34748454D01*
X92546372Y-34648454D01*
X92446372Y-34648454D01*
G37*
X92446372Y-34648454D02*
X92446372Y-34748454D01*
X92546372Y-34748454D01*
X92546372Y-34648454D01*
X92446372Y-34648454D01*
D11*
X80051737Y-28359424D02*
X80051737Y-30899424D01*
X80051737Y-30899424D02*
X77511737Y-30899424D01*
D10*
%TO.C,PUSH1*%
X92601735Y-64549425D02*
X92901735Y-64549425D01*
X92601735Y-61249425D02*
X92601735Y-64549425D01*
X92901735Y-61249425D02*
X92601735Y-61249425D01*
X95401735Y-64549425D02*
X95101735Y-64549425D01*
X95401735Y-61249425D02*
X95401735Y-64549425D01*
X95101735Y-61249425D02*
X95401735Y-61249425D01*
%TO.C,U2*%
D12*
X79464548Y-53972281D02*
X79350262Y-54010376D01*
X79312167Y-54048471D01*
X79274072Y-54124662D01*
X79274072Y-54238947D01*
X79312167Y-54315138D01*
X79350262Y-54353233D01*
X79426453Y-54391328D01*
X79731215Y-54391328D01*
X79731215Y-53591328D01*
X79464548Y-53591328D01*
X79388358Y-53629424D01*
X79350262Y-53667519D01*
X79312167Y-53743709D01*
X79312167Y-53819900D01*
X79350262Y-53896090D01*
X79388358Y-53934185D01*
X79464548Y-53972281D01*
X79731215Y-53972281D01*
X78969310Y-53667519D02*
X78931215Y-53629424D01*
X78855024Y-53591328D01*
X78664548Y-53591328D01*
X78588358Y-53629424D01*
X78550262Y-53667519D01*
X78512167Y-53743709D01*
X78512167Y-53819900D01*
X78550262Y-53934185D01*
X79007405Y-54391328D01*
X78512167Y-54391328D01*
X79407405Y-46352281D02*
X79674072Y-46352281D01*
X79674072Y-46771328D02*
X79674072Y-45971328D01*
X79293119Y-45971328D01*
X79064548Y-45971328D02*
X78531215Y-45971328D01*
X78874072Y-46771328D01*
X79407405Y-43812281D02*
X79674072Y-43812281D01*
X79674072Y-44231328D02*
X79674072Y-43431328D01*
X79293119Y-43431328D01*
X78645500Y-43431328D02*
X78797881Y-43431328D01*
X78874072Y-43469424D01*
X78912167Y-43507519D01*
X78988358Y-43621804D01*
X79026453Y-43774185D01*
X79026453Y-44078947D01*
X78988358Y-44155138D01*
X78950262Y-44193233D01*
X78874072Y-44231328D01*
X78721691Y-44231328D01*
X78645500Y-44193233D01*
X78607405Y-44155138D01*
X78569310Y-44078947D01*
X78569310Y-43888471D01*
X78607405Y-43812281D01*
X78645500Y-43774185D01*
X78721691Y-43736090D01*
X78874072Y-43736090D01*
X78950262Y-43774185D01*
X78988358Y-43812281D01*
X79026453Y-43888471D01*
X79407405Y-41272281D02*
X79674072Y-41272281D01*
X79674072Y-41691328D02*
X79674072Y-40891328D01*
X79293119Y-40891328D01*
X78607405Y-40891328D02*
X78988358Y-40891328D01*
X79026453Y-41272281D01*
X78988358Y-41234185D01*
X78912167Y-41196090D01*
X78721691Y-41196090D01*
X78645500Y-41234185D01*
X78607405Y-41272281D01*
X78569310Y-41348471D01*
X78569310Y-41538947D01*
X78607405Y-41615138D01*
X78645500Y-41653233D01*
X78721691Y-41691328D01*
X78912167Y-41691328D01*
X78988358Y-41653233D01*
X79026453Y-41615138D01*
X79693119Y-28991328D02*
X79959786Y-28610376D01*
X80150262Y-28991328D02*
X80150262Y-28191328D01*
X79845500Y-28191328D01*
X79769310Y-28229424D01*
X79731215Y-28267519D01*
X79693119Y-28343709D01*
X79693119Y-28457995D01*
X79731215Y-28534185D01*
X79769310Y-28572281D01*
X79845500Y-28610376D01*
X80150262Y-28610376D01*
X79388358Y-28762757D02*
X79007405Y-28762757D01*
X79464548Y-28991328D02*
X79197881Y-28191328D01*
X78931215Y-28991328D01*
X78740739Y-28191328D02*
X78550262Y-28991328D01*
X78397881Y-28419900D01*
X78245500Y-28991328D01*
X78055024Y-28191328D01*
X79750262Y-30769424D02*
X79826453Y-30731328D01*
X79940739Y-30731328D01*
X80055024Y-30769424D01*
X80131215Y-30845614D01*
X80169310Y-30921804D01*
X80207405Y-31074185D01*
X80207405Y-31188471D01*
X80169310Y-31340852D01*
X80131215Y-31417043D01*
X80055024Y-31493233D01*
X79940739Y-31531328D01*
X79864548Y-31531328D01*
X79750262Y-31493233D01*
X79712167Y-31455138D01*
X79712167Y-31188471D01*
X79864548Y-31188471D01*
X79369310Y-31531328D02*
X79369310Y-30731328D01*
X78912167Y-31531328D01*
X78912167Y-30731328D01*
X78531215Y-31531328D02*
X78531215Y-30731328D01*
X78340739Y-30731328D01*
X78226453Y-30769424D01*
X78150262Y-30845614D01*
X78112167Y-30921804D01*
X78074072Y-31074185D01*
X78074072Y-31188471D01*
X78112167Y-31340852D01*
X78150262Y-31417043D01*
X78226453Y-31493233D01*
X78340739Y-31531328D01*
X78531215Y-31531328D01*
X79401952Y-34003233D02*
X79287666Y-34041328D01*
X79097190Y-34041328D01*
X79020999Y-34003233D01*
X78982904Y-33965138D01*
X78944809Y-33888947D01*
X78944809Y-33812757D01*
X78982904Y-33736566D01*
X79020999Y-33698471D01*
X79097190Y-33660376D01*
X79249571Y-33622281D01*
X79325761Y-33584185D01*
X79363857Y-33546090D01*
X79401952Y-33469900D01*
X79401952Y-33393709D01*
X79363857Y-33317519D01*
X79325761Y-33279424D01*
X79249571Y-33241328D01*
X79059095Y-33241328D01*
X78944809Y-33279424D01*
X78716238Y-33241328D02*
X78259095Y-33241328D01*
X78487666Y-34041328D02*
X78487666Y-33241328D01*
X80207405Y-35811328D02*
X79940739Y-36611328D01*
X79674072Y-35811328D01*
X78950262Y-36535138D02*
X78988358Y-36573233D01*
X79102643Y-36611328D01*
X79178834Y-36611328D01*
X79293119Y-36573233D01*
X79369310Y-36497043D01*
X79407405Y-36420852D01*
X79445500Y-36268471D01*
X79445500Y-36154185D01*
X79407405Y-36001804D01*
X79369310Y-35925614D01*
X79293119Y-35849424D01*
X79178834Y-35811328D01*
X79102643Y-35811328D01*
X78988358Y-35849424D01*
X78950262Y-35887519D01*
X78150262Y-36535138D02*
X78188358Y-36573233D01*
X78302643Y-36611328D01*
X78378834Y-36611328D01*
X78493119Y-36573233D01*
X78569310Y-36497043D01*
X78607405Y-36420852D01*
X78645500Y-36268471D01*
X78645500Y-36154185D01*
X78607405Y-36001804D01*
X78569310Y-35925614D01*
X78493119Y-35849424D01*
X78378834Y-35811328D01*
X78302643Y-35811328D01*
X78188358Y-35849424D01*
X78150262Y-35887519D01*
X79407405Y-38732281D02*
X79674072Y-38732281D01*
X79674072Y-39151328D02*
X79674072Y-38351328D01*
X79293119Y-38351328D01*
X78645500Y-38617995D02*
X78645500Y-39151328D01*
X78835977Y-38313233D02*
X79026453Y-38884662D01*
X78531215Y-38884662D01*
X79464548Y-48892281D02*
X79350262Y-48930376D01*
X79312167Y-48968471D01*
X79274072Y-49044662D01*
X79274072Y-49158947D01*
X79312167Y-49235138D01*
X79350262Y-49273233D01*
X79426453Y-49311328D01*
X79731215Y-49311328D01*
X79731215Y-48511328D01*
X79464548Y-48511328D01*
X79388358Y-48549424D01*
X79350262Y-48587519D01*
X79312167Y-48663709D01*
X79312167Y-48739900D01*
X79350262Y-48816090D01*
X79388358Y-48854185D01*
X79464548Y-48892281D01*
X79731215Y-48892281D01*
X78512167Y-49311328D02*
X78969310Y-49311328D01*
X78740739Y-49311328D02*
X78740739Y-48511328D01*
X78816929Y-48625614D01*
X78893119Y-48701804D01*
X78969310Y-48739900D01*
X79464548Y-51432281D02*
X79350262Y-51470376D01*
X79312167Y-51508471D01*
X79274072Y-51584662D01*
X79274072Y-51698947D01*
X79312167Y-51775138D01*
X79350262Y-51813233D01*
X79426453Y-51851328D01*
X79731215Y-51851328D01*
X79731215Y-51051328D01*
X79464548Y-51051328D01*
X79388358Y-51089424D01*
X79350262Y-51127519D01*
X79312167Y-51203709D01*
X79312167Y-51279900D01*
X79350262Y-51356090D01*
X79388358Y-51394185D01*
X79464548Y-51432281D01*
X79731215Y-51432281D01*
X79007405Y-51051328D02*
X78512167Y-51051328D01*
X78778834Y-51356090D01*
X78664548Y-51356090D01*
X78588358Y-51394185D01*
X78550262Y-51432281D01*
X78512167Y-51508471D01*
X78512167Y-51698947D01*
X78550262Y-51775138D01*
X78588358Y-51813233D01*
X78664548Y-51851328D01*
X78893119Y-51851328D01*
X78969310Y-51813233D01*
X79007405Y-51775138D01*
X79464548Y-56512281D02*
X79350262Y-56550376D01*
X79312167Y-56588471D01*
X79274072Y-56664662D01*
X79274072Y-56778947D01*
X79312167Y-56855138D01*
X79350262Y-56893233D01*
X79426453Y-56931328D01*
X79731215Y-56931328D01*
X79731215Y-56131328D01*
X79464548Y-56131328D01*
X79388358Y-56169424D01*
X79350262Y-56207519D01*
X79312167Y-56283709D01*
X79312167Y-56359900D01*
X79350262Y-56436090D01*
X79388358Y-56474185D01*
X79464548Y-56512281D01*
X79731215Y-56512281D01*
X78588358Y-56131328D02*
X78740739Y-56131328D01*
X78816929Y-56169424D01*
X78855024Y-56207519D01*
X78931215Y-56321804D01*
X78969310Y-56474185D01*
X78969310Y-56778947D01*
X78931215Y-56855138D01*
X78893119Y-56893233D01*
X78816929Y-56931328D01*
X78664548Y-56931328D01*
X78588358Y-56893233D01*
X78550262Y-56855138D01*
X78512167Y-56778947D01*
X78512167Y-56588471D01*
X78550262Y-56512281D01*
X78588358Y-56474185D01*
X78664548Y-56436090D01*
X78816929Y-56436090D01*
X78893119Y-56474185D01*
X78931215Y-56512281D01*
X78969310Y-56588471D01*
X90386548Y-56512281D02*
X90272262Y-56550376D01*
X90234167Y-56588471D01*
X90196072Y-56664662D01*
X90196072Y-56778947D01*
X90234167Y-56855138D01*
X90272262Y-56893233D01*
X90348453Y-56931328D01*
X90653215Y-56931328D01*
X90653215Y-56131328D01*
X90386548Y-56131328D01*
X90310358Y-56169424D01*
X90272262Y-56207519D01*
X90234167Y-56283709D01*
X90234167Y-56359900D01*
X90272262Y-56436090D01*
X90310358Y-56474185D01*
X90386548Y-56512281D01*
X90653215Y-56512281D01*
X89472262Y-56131328D02*
X89853215Y-56131328D01*
X89891310Y-56512281D01*
X89853215Y-56474185D01*
X89777024Y-56436090D01*
X89586548Y-56436090D01*
X89510358Y-56474185D01*
X89472262Y-56512281D01*
X89434167Y-56588471D01*
X89434167Y-56778947D01*
X89472262Y-56855138D01*
X89510358Y-56893233D01*
X89586548Y-56931328D01*
X89777024Y-56931328D01*
X89853215Y-56893233D01*
X89891310Y-56855138D01*
X90386548Y-53972281D02*
X90272262Y-54010376D01*
X90234167Y-54048471D01*
X90196072Y-54124662D01*
X90196072Y-54238947D01*
X90234167Y-54315138D01*
X90272262Y-54353233D01*
X90348453Y-54391328D01*
X90653215Y-54391328D01*
X90653215Y-53591328D01*
X90386548Y-53591328D01*
X90310358Y-53629424D01*
X90272262Y-53667519D01*
X90234167Y-53743709D01*
X90234167Y-53819900D01*
X90272262Y-53896090D01*
X90310358Y-53934185D01*
X90386548Y-53972281D01*
X90653215Y-53972281D01*
X89510358Y-53857995D02*
X89510358Y-54391328D01*
X89700834Y-53553233D02*
X89891310Y-54124662D01*
X89396072Y-54124662D01*
X90615119Y-51432281D02*
X90348453Y-51432281D01*
X90234167Y-51851328D02*
X90615119Y-51851328D01*
X90615119Y-51051328D01*
X90234167Y-51051328D01*
X89548453Y-51051328D02*
X89700834Y-51051328D01*
X89777024Y-51089424D01*
X89815119Y-51127519D01*
X89891310Y-51241804D01*
X89929405Y-51394185D01*
X89929405Y-51698947D01*
X89891310Y-51775138D01*
X89853215Y-51813233D01*
X89777024Y-51851328D01*
X89624643Y-51851328D01*
X89548453Y-51813233D01*
X89510358Y-51775138D01*
X89472262Y-51698947D01*
X89472262Y-51508471D01*
X89510358Y-51432281D01*
X89548453Y-51394185D01*
X89624643Y-51356090D01*
X89777024Y-51356090D01*
X89853215Y-51394185D01*
X89891310Y-51432281D01*
X89929405Y-51508471D01*
X90653215Y-49311328D02*
X90653215Y-48511328D01*
X90462739Y-48511328D01*
X90348453Y-48549424D01*
X90272262Y-48625614D01*
X90234167Y-48701804D01*
X90196072Y-48854185D01*
X90196072Y-48968471D01*
X90234167Y-49120852D01*
X90272262Y-49197043D01*
X90348453Y-49273233D01*
X90462739Y-49311328D01*
X90653215Y-49311328D01*
X89929405Y-48511328D02*
X89396072Y-48511328D01*
X89738929Y-49311328D01*
X90196072Y-46695138D02*
X90234167Y-46733233D01*
X90348453Y-46771328D01*
X90424643Y-46771328D01*
X90538929Y-46733233D01*
X90615119Y-46657043D01*
X90653215Y-46580852D01*
X90691310Y-46428471D01*
X90691310Y-46314185D01*
X90653215Y-46161804D01*
X90615119Y-46085614D01*
X90538929Y-46009424D01*
X90424643Y-45971328D01*
X90348453Y-45971328D01*
X90234167Y-46009424D01*
X90196072Y-46047519D01*
X89510358Y-45971328D02*
X89662739Y-45971328D01*
X89738929Y-46009424D01*
X89777024Y-46047519D01*
X89853215Y-46161804D01*
X89891310Y-46314185D01*
X89891310Y-46618947D01*
X89853215Y-46695138D01*
X89815119Y-46733233D01*
X89738929Y-46771328D01*
X89586548Y-46771328D01*
X89510358Y-46733233D01*
X89472262Y-46695138D01*
X89434167Y-46618947D01*
X89434167Y-46428471D01*
X89472262Y-46352281D01*
X89510358Y-46314185D01*
X89586548Y-46276090D01*
X89738929Y-46276090D01*
X89815119Y-46314185D01*
X89853215Y-46352281D01*
X89891310Y-46428471D01*
X90653215Y-44231328D02*
X90653215Y-43431328D01*
X90462739Y-43431328D01*
X90348453Y-43469424D01*
X90272262Y-43545614D01*
X90234167Y-43621804D01*
X90196072Y-43774185D01*
X90196072Y-43888471D01*
X90234167Y-44040852D01*
X90272262Y-44117043D01*
X90348453Y-44193233D01*
X90462739Y-44231328D01*
X90653215Y-44231328D01*
X89510358Y-43697995D02*
X89510358Y-44231328D01*
X89700834Y-43393233D02*
X89891310Y-43964662D01*
X89396072Y-43964662D01*
X90672262Y-33309424D02*
X90748453Y-33271328D01*
X90862739Y-33271328D01*
X90977024Y-33309424D01*
X91053215Y-33385614D01*
X91091310Y-33461804D01*
X91129405Y-33614185D01*
X91129405Y-33728471D01*
X91091310Y-33880852D01*
X91053215Y-33957043D01*
X90977024Y-34033233D01*
X90862739Y-34071328D01*
X90786548Y-34071328D01*
X90672262Y-34033233D01*
X90634167Y-33995138D01*
X90634167Y-33728471D01*
X90786548Y-33728471D01*
X90291310Y-34071328D02*
X90291310Y-33271328D01*
X89834167Y-34071328D01*
X89834167Y-33271328D01*
X89453215Y-34071328D02*
X89453215Y-33271328D01*
X89262739Y-33271328D01*
X89148453Y-33309424D01*
X89072262Y-33385614D01*
X89034167Y-33461804D01*
X88996072Y-33614185D01*
X88996072Y-33728471D01*
X89034167Y-33880852D01*
X89072262Y-33957043D01*
X89148453Y-34033233D01*
X89262739Y-34071328D01*
X89453215Y-34071328D01*
X90672262Y-35849424D02*
X90748453Y-35811328D01*
X90862739Y-35811328D01*
X90977024Y-35849424D01*
X91053215Y-35925614D01*
X91091310Y-36001804D01*
X91129405Y-36154185D01*
X91129405Y-36268471D01*
X91091310Y-36420852D01*
X91053215Y-36497043D01*
X90977024Y-36573233D01*
X90862739Y-36611328D01*
X90786548Y-36611328D01*
X90672262Y-36573233D01*
X90634167Y-36535138D01*
X90634167Y-36268471D01*
X90786548Y-36268471D01*
X90291310Y-36611328D02*
X90291310Y-35811328D01*
X89834167Y-36611328D01*
X89834167Y-35811328D01*
X89453215Y-36611328D02*
X89453215Y-35811328D01*
X89262739Y-35811328D01*
X89148453Y-35849424D01*
X89072262Y-35925614D01*
X89034167Y-36001804D01*
X88996072Y-36154185D01*
X88996072Y-36268471D01*
X89034167Y-36420852D01*
X89072262Y-36497043D01*
X89148453Y-36573233D01*
X89262739Y-36611328D01*
X89453215Y-36611328D01*
X90653215Y-39151328D02*
X90653215Y-38351328D01*
X90462739Y-38351328D01*
X90348453Y-38389424D01*
X90272262Y-38465614D01*
X90234167Y-38541804D01*
X90196072Y-38694185D01*
X90196072Y-38808471D01*
X90234167Y-38960852D01*
X90272262Y-39037043D01*
X90348453Y-39113233D01*
X90462739Y-39151328D01*
X90653215Y-39151328D01*
X89434167Y-39151328D02*
X89891310Y-39151328D01*
X89662739Y-39151328D02*
X89662739Y-38351328D01*
X89738929Y-38465614D01*
X89815119Y-38541804D01*
X89891310Y-38579900D01*
X90653215Y-41691328D02*
X90653215Y-40891328D01*
X90462739Y-40891328D01*
X90348453Y-40929424D01*
X90272262Y-41005614D01*
X90234167Y-41081804D01*
X90196072Y-41234185D01*
X90196072Y-41348471D01*
X90234167Y-41500852D01*
X90272262Y-41577043D01*
X90348453Y-41653233D01*
X90462739Y-41691328D01*
X90653215Y-41691328D01*
X89700834Y-40891328D02*
X89624643Y-40891328D01*
X89548453Y-40929424D01*
X89510358Y-40967519D01*
X89472262Y-41043709D01*
X89434167Y-41196090D01*
X89434167Y-41386566D01*
X89472262Y-41538947D01*
X89510358Y-41615138D01*
X89548453Y-41653233D01*
X89624643Y-41691328D01*
X89700834Y-41691328D01*
X89777024Y-41653233D01*
X89815119Y-41615138D01*
X89853215Y-41538947D01*
X89891310Y-41386566D01*
X89891310Y-41196090D01*
X89853215Y-41043709D01*
X89815119Y-40967519D01*
X89777024Y-40929424D01*
X89700834Y-40891328D01*
X90653215Y-31531328D02*
X90653215Y-30731328D01*
X90462739Y-30731328D01*
X90348453Y-30769424D01*
X90272262Y-30845614D01*
X90234167Y-30921804D01*
X90196072Y-31074185D01*
X90196072Y-31188471D01*
X90234167Y-31340852D01*
X90272262Y-31417043D01*
X90348453Y-31493233D01*
X90462739Y-31531328D01*
X90653215Y-31531328D01*
X89891310Y-30807519D02*
X89853215Y-30769424D01*
X89777024Y-30731328D01*
X89586548Y-30731328D01*
X89510358Y-30769424D01*
X89472262Y-30807519D01*
X89434167Y-30883709D01*
X89434167Y-30959900D01*
X89472262Y-31074185D01*
X89929405Y-31531328D01*
X89434167Y-31531328D01*
X90364087Y-28191328D02*
X89906944Y-28191328D01*
X90135515Y-28991328D02*
X90135515Y-28191328D01*
X89716468Y-28191328D02*
X89183134Y-28991328D01*
X89183134Y-28191328D02*
X89716468Y-28991328D01*
X88725991Y-28191328D02*
X88649801Y-28191328D01*
X88573611Y-28229424D01*
X88535515Y-28267519D01*
X88497420Y-28343709D01*
X88459325Y-28496090D01*
X88459325Y-28686566D01*
X88497420Y-28838947D01*
X88535515Y-28915138D01*
X88573611Y-28953233D01*
X88649801Y-28991328D01*
X88725991Y-28991328D01*
X88802182Y-28953233D01*
X88840277Y-28915138D01*
X88878372Y-28838947D01*
X88916468Y-28686566D01*
X88916468Y-28496090D01*
X88878372Y-28343709D01*
X88840277Y-28267519D01*
X88802182Y-28229424D01*
X88725991Y-28191328D01*
X87545039Y-28153233D02*
X88230753Y-29181804D01*
X87278372Y-28991328D02*
X87278372Y-28191328D01*
X87087896Y-28191328D01*
X86973611Y-28229424D01*
X86897420Y-28305614D01*
X86859325Y-28381804D01*
X86821230Y-28534185D01*
X86821230Y-28648471D01*
X86859325Y-28800852D01*
X86897420Y-28877043D01*
X86973611Y-28953233D01*
X87087896Y-28991328D01*
X87278372Y-28991328D01*
X86554563Y-28191328D02*
X86059325Y-28191328D01*
X86325991Y-28496090D01*
X86211706Y-28496090D01*
X86135515Y-28534185D01*
X86097420Y-28572281D01*
X86059325Y-28648471D01*
X86059325Y-28838947D01*
X86097420Y-28915138D01*
X86135515Y-28953233D01*
X86211706Y-28991328D01*
X86440277Y-28991328D01*
X86516468Y-28953233D01*
X86554563Y-28915138D01*
%TO.C,U1*%
X91975070Y-35013233D02*
X91860784Y-35051328D01*
X91670308Y-35051328D01*
X91594117Y-35013233D01*
X91556022Y-34975138D01*
X91517927Y-34898947D01*
X91517927Y-34822757D01*
X91556022Y-34746566D01*
X91594117Y-34708471D01*
X91670308Y-34670376D01*
X91822689Y-34632281D01*
X91898879Y-34594185D01*
X91936975Y-34556090D01*
X91975070Y-34479900D01*
X91975070Y-34403709D01*
X91936975Y-34327519D01*
X91898879Y-34289424D01*
X91822689Y-34251328D01*
X91632213Y-34251328D01*
X91517927Y-34289424D01*
X91289356Y-34251328D02*
X90832213Y-34251328D01*
X91060784Y-35051328D02*
X91060784Y-34251328D01*
X85020341Y-29191328D02*
X84563198Y-29191328D01*
X84791769Y-29991328D02*
X84791769Y-29191328D01*
X84372722Y-29191328D02*
X83839388Y-29991328D01*
X83839388Y-29191328D02*
X84372722Y-29991328D01*
X83382245Y-29191328D02*
X83306055Y-29191328D01*
X83229865Y-29229424D01*
X83191769Y-29267519D01*
X83153674Y-29343709D01*
X83115579Y-29496090D01*
X83115579Y-29686566D01*
X83153674Y-29838947D01*
X83191769Y-29915138D01*
X83229865Y-29953233D01*
X83306055Y-29991328D01*
X83382245Y-29991328D01*
X83458436Y-29953233D01*
X83496531Y-29915138D01*
X83534626Y-29838947D01*
X83572722Y-29686566D01*
X83572722Y-29496090D01*
X83534626Y-29343709D01*
X83496531Y-29267519D01*
X83458436Y-29229424D01*
X83382245Y-29191328D01*
X82201293Y-29153233D02*
X82887007Y-30181804D01*
X81934626Y-29991328D02*
X81934626Y-29191328D01*
X81744150Y-29191328D01*
X81629865Y-29229424D01*
X81553674Y-29305614D01*
X81515579Y-29381804D01*
X81477484Y-29534185D01*
X81477484Y-29648471D01*
X81515579Y-29800852D01*
X81553674Y-29877043D01*
X81629865Y-29953233D01*
X81744150Y-29991328D01*
X81934626Y-29991328D01*
X81210817Y-29191328D02*
X80715579Y-29191328D01*
X80982245Y-29496090D01*
X80867960Y-29496090D01*
X80791769Y-29534185D01*
X80753674Y-29572281D01*
X80715579Y-29648471D01*
X80715579Y-29838947D01*
X80753674Y-29915138D01*
X80791769Y-29953233D01*
X80867960Y-29991328D01*
X81096531Y-29991328D01*
X81172722Y-29953233D01*
X81210817Y-29915138D01*
X92186546Y-54972281D02*
X92072260Y-55010376D01*
X92034165Y-55048471D01*
X91996070Y-55124662D01*
X91996070Y-55238947D01*
X92034165Y-55315138D01*
X92072260Y-55353233D01*
X92148451Y-55391328D01*
X92453213Y-55391328D01*
X92453213Y-54591328D01*
X92186546Y-54591328D01*
X92110356Y-54629424D01*
X92072260Y-54667519D01*
X92034165Y-54743709D01*
X92034165Y-54819900D01*
X92072260Y-54896090D01*
X92110356Y-54934185D01*
X92186546Y-54972281D01*
X92453213Y-54972281D01*
X91691308Y-54667519D02*
X91653213Y-54629424D01*
X91577022Y-54591328D01*
X91386546Y-54591328D01*
X91310356Y-54629424D01*
X91272260Y-54667519D01*
X91234165Y-54743709D01*
X91234165Y-54819900D01*
X91272260Y-54934185D01*
X91729403Y-55391328D01*
X91234165Y-55391328D01*
X92129403Y-47352281D02*
X92396070Y-47352281D01*
X92396070Y-47771328D02*
X92396070Y-46971328D01*
X92015117Y-46971328D01*
X91786546Y-46971328D02*
X91253213Y-46971328D01*
X91596070Y-47771328D01*
X92129403Y-44812281D02*
X92396070Y-44812281D01*
X92396070Y-45231328D02*
X92396070Y-44431328D01*
X92015117Y-44431328D01*
X91367498Y-44431328D02*
X91519879Y-44431328D01*
X91596070Y-44469424D01*
X91634165Y-44507519D01*
X91710356Y-44621804D01*
X91748451Y-44774185D01*
X91748451Y-45078947D01*
X91710356Y-45155138D01*
X91672260Y-45193233D01*
X91596070Y-45231328D01*
X91443689Y-45231328D01*
X91367498Y-45193233D01*
X91329403Y-45155138D01*
X91291308Y-45078947D01*
X91291308Y-44888471D01*
X91329403Y-44812281D01*
X91367498Y-44774185D01*
X91443689Y-44736090D01*
X91596070Y-44736090D01*
X91672260Y-44774185D01*
X91710356Y-44812281D01*
X91748451Y-44888471D01*
X92129403Y-42272281D02*
X92396070Y-42272281D01*
X92396070Y-42691328D02*
X92396070Y-41891328D01*
X92015117Y-41891328D01*
X91329403Y-41891328D02*
X91710356Y-41891328D01*
X91748451Y-42272281D01*
X91710356Y-42234185D01*
X91634165Y-42196090D01*
X91443689Y-42196090D01*
X91367498Y-42234185D01*
X91329403Y-42272281D01*
X91291308Y-42348471D01*
X91291308Y-42538947D01*
X91329403Y-42615138D01*
X91367498Y-42653233D01*
X91443689Y-42691328D01*
X91634165Y-42691328D01*
X91710356Y-42653233D01*
X91748451Y-42615138D01*
X92415117Y-29991328D02*
X92681784Y-29610376D01*
X92872260Y-29991328D02*
X92872260Y-29191328D01*
X92567498Y-29191328D01*
X92491308Y-29229424D01*
X92453213Y-29267519D01*
X92415117Y-29343709D01*
X92415117Y-29457995D01*
X92453213Y-29534185D01*
X92491308Y-29572281D01*
X92567498Y-29610376D01*
X92872260Y-29610376D01*
X92110356Y-29762757D02*
X91729403Y-29762757D01*
X92186546Y-29991328D02*
X91919879Y-29191328D01*
X91653213Y-29991328D01*
X91462737Y-29191328D02*
X91272260Y-29991328D01*
X91119879Y-29419900D01*
X90967498Y-29991328D01*
X90777022Y-29191328D01*
X92472260Y-31769424D02*
X92548451Y-31731328D01*
X92662737Y-31731328D01*
X92777022Y-31769424D01*
X92853213Y-31845614D01*
X92891308Y-31921804D01*
X92929403Y-32074185D01*
X92929403Y-32188471D01*
X92891308Y-32340852D01*
X92853213Y-32417043D01*
X92777022Y-32493233D01*
X92662737Y-32531328D01*
X92586546Y-32531328D01*
X92472260Y-32493233D01*
X92434165Y-32455138D01*
X92434165Y-32188471D01*
X92586546Y-32188471D01*
X92091308Y-32531328D02*
X92091308Y-31731328D01*
X91634165Y-32531328D01*
X91634165Y-31731328D01*
X91253213Y-32531328D02*
X91253213Y-31731328D01*
X91062737Y-31731328D01*
X90948451Y-31769424D01*
X90872260Y-31845614D01*
X90834165Y-31921804D01*
X90796070Y-32074185D01*
X90796070Y-32188471D01*
X90834165Y-32340852D01*
X90872260Y-32417043D01*
X90948451Y-32493233D01*
X91062737Y-32531328D01*
X91253213Y-32531328D01*
X92929403Y-36811328D02*
X92662737Y-37611328D01*
X92396070Y-36811328D01*
X91672260Y-37535138D02*
X91710356Y-37573233D01*
X91824641Y-37611328D01*
X91900832Y-37611328D01*
X92015117Y-37573233D01*
X92091308Y-37497043D01*
X92129403Y-37420852D01*
X92167498Y-37268471D01*
X92167498Y-37154185D01*
X92129403Y-37001804D01*
X92091308Y-36925614D01*
X92015117Y-36849424D01*
X91900832Y-36811328D01*
X91824641Y-36811328D01*
X91710356Y-36849424D01*
X91672260Y-36887519D01*
X90872260Y-37535138D02*
X90910356Y-37573233D01*
X91024641Y-37611328D01*
X91100832Y-37611328D01*
X91215117Y-37573233D01*
X91291308Y-37497043D01*
X91329403Y-37420852D01*
X91367498Y-37268471D01*
X91367498Y-37154185D01*
X91329403Y-37001804D01*
X91291308Y-36925614D01*
X91215117Y-36849424D01*
X91100832Y-36811328D01*
X91024641Y-36811328D01*
X90910356Y-36849424D01*
X90872260Y-36887519D01*
X92129403Y-39732281D02*
X92396070Y-39732281D01*
X92396070Y-40151328D02*
X92396070Y-39351328D01*
X92015117Y-39351328D01*
X91367498Y-39617995D02*
X91367498Y-40151328D01*
X91557975Y-39313233D02*
X91748451Y-39884662D01*
X91253213Y-39884662D01*
X92186546Y-49892281D02*
X92072260Y-49930376D01*
X92034165Y-49968471D01*
X91996070Y-50044662D01*
X91996070Y-50158947D01*
X92034165Y-50235138D01*
X92072260Y-50273233D01*
X92148451Y-50311328D01*
X92453213Y-50311328D01*
X92453213Y-49511328D01*
X92186546Y-49511328D01*
X92110356Y-49549424D01*
X92072260Y-49587519D01*
X92034165Y-49663709D01*
X92034165Y-49739900D01*
X92072260Y-49816090D01*
X92110356Y-49854185D01*
X92186546Y-49892281D01*
X92453213Y-49892281D01*
X91234165Y-50311328D02*
X91691308Y-50311328D01*
X91462737Y-50311328D02*
X91462737Y-49511328D01*
X91538927Y-49625614D01*
X91615117Y-49701804D01*
X91691308Y-49739900D01*
X92186546Y-52432281D02*
X92072260Y-52470376D01*
X92034165Y-52508471D01*
X91996070Y-52584662D01*
X91996070Y-52698947D01*
X92034165Y-52775138D01*
X92072260Y-52813233D01*
X92148451Y-52851328D01*
X92453213Y-52851328D01*
X92453213Y-52051328D01*
X92186546Y-52051328D01*
X92110356Y-52089424D01*
X92072260Y-52127519D01*
X92034165Y-52203709D01*
X92034165Y-52279900D01*
X92072260Y-52356090D01*
X92110356Y-52394185D01*
X92186546Y-52432281D01*
X92453213Y-52432281D01*
X91729403Y-52051328D02*
X91234165Y-52051328D01*
X91500832Y-52356090D01*
X91386546Y-52356090D01*
X91310356Y-52394185D01*
X91272260Y-52432281D01*
X91234165Y-52508471D01*
X91234165Y-52698947D01*
X91272260Y-52775138D01*
X91310356Y-52813233D01*
X91386546Y-52851328D01*
X91615117Y-52851328D01*
X91691308Y-52813233D01*
X91729403Y-52775138D01*
X92186546Y-57512281D02*
X92072260Y-57550376D01*
X92034165Y-57588471D01*
X91996070Y-57664662D01*
X91996070Y-57778947D01*
X92034165Y-57855138D01*
X92072260Y-57893233D01*
X92148451Y-57931328D01*
X92453213Y-57931328D01*
X92453213Y-57131328D01*
X92186546Y-57131328D01*
X92110356Y-57169424D01*
X92072260Y-57207519D01*
X92034165Y-57283709D01*
X92034165Y-57359900D01*
X92072260Y-57436090D01*
X92110356Y-57474185D01*
X92186546Y-57512281D01*
X92453213Y-57512281D01*
X91310356Y-57131328D02*
X91462737Y-57131328D01*
X91538927Y-57169424D01*
X91577022Y-57207519D01*
X91653213Y-57321804D01*
X91691308Y-57474185D01*
X91691308Y-57778947D01*
X91653213Y-57855138D01*
X91615117Y-57893233D01*
X91538927Y-57931328D01*
X91386546Y-57931328D01*
X91310356Y-57893233D01*
X91272260Y-57855138D01*
X91234165Y-57778947D01*
X91234165Y-57588471D01*
X91272260Y-57512281D01*
X91310356Y-57474185D01*
X91386546Y-57436090D01*
X91538927Y-57436090D01*
X91615117Y-57474185D01*
X91653213Y-57512281D01*
X91691308Y-57588471D01*
X81264546Y-57512281D02*
X81150260Y-57550376D01*
X81112165Y-57588471D01*
X81074070Y-57664662D01*
X81074070Y-57778947D01*
X81112165Y-57855138D01*
X81150260Y-57893233D01*
X81226451Y-57931328D01*
X81531213Y-57931328D01*
X81531213Y-57131328D01*
X81264546Y-57131328D01*
X81188356Y-57169424D01*
X81150260Y-57207519D01*
X81112165Y-57283709D01*
X81112165Y-57359900D01*
X81150260Y-57436090D01*
X81188356Y-57474185D01*
X81264546Y-57512281D01*
X81531213Y-57512281D01*
X80350260Y-57131328D02*
X80731213Y-57131328D01*
X80769308Y-57512281D01*
X80731213Y-57474185D01*
X80655022Y-57436090D01*
X80464546Y-57436090D01*
X80388356Y-57474185D01*
X80350260Y-57512281D01*
X80312165Y-57588471D01*
X80312165Y-57778947D01*
X80350260Y-57855138D01*
X80388356Y-57893233D01*
X80464546Y-57931328D01*
X80655022Y-57931328D01*
X80731213Y-57893233D01*
X80769308Y-57855138D01*
X81264546Y-54972281D02*
X81150260Y-55010376D01*
X81112165Y-55048471D01*
X81074070Y-55124662D01*
X81074070Y-55238947D01*
X81112165Y-55315138D01*
X81150260Y-55353233D01*
X81226451Y-55391328D01*
X81531213Y-55391328D01*
X81531213Y-54591328D01*
X81264546Y-54591328D01*
X81188356Y-54629424D01*
X81150260Y-54667519D01*
X81112165Y-54743709D01*
X81112165Y-54819900D01*
X81150260Y-54896090D01*
X81188356Y-54934185D01*
X81264546Y-54972281D01*
X81531213Y-54972281D01*
X80388356Y-54857995D02*
X80388356Y-55391328D01*
X80578832Y-54553233D02*
X80769308Y-55124662D01*
X80274070Y-55124662D01*
X81493117Y-52432281D02*
X81226451Y-52432281D01*
X81112165Y-52851328D02*
X81493117Y-52851328D01*
X81493117Y-52051328D01*
X81112165Y-52051328D01*
X80426451Y-52051328D02*
X80578832Y-52051328D01*
X80655022Y-52089424D01*
X80693117Y-52127519D01*
X80769308Y-52241804D01*
X80807403Y-52394185D01*
X80807403Y-52698947D01*
X80769308Y-52775138D01*
X80731213Y-52813233D01*
X80655022Y-52851328D01*
X80502641Y-52851328D01*
X80426451Y-52813233D01*
X80388356Y-52775138D01*
X80350260Y-52698947D01*
X80350260Y-52508471D01*
X80388356Y-52432281D01*
X80426451Y-52394185D01*
X80502641Y-52356090D01*
X80655022Y-52356090D01*
X80731213Y-52394185D01*
X80769308Y-52432281D01*
X80807403Y-52508471D01*
X81531213Y-50311328D02*
X81531213Y-49511328D01*
X81340737Y-49511328D01*
X81226451Y-49549424D01*
X81150260Y-49625614D01*
X81112165Y-49701804D01*
X81074070Y-49854185D01*
X81074070Y-49968471D01*
X81112165Y-50120852D01*
X81150260Y-50197043D01*
X81226451Y-50273233D01*
X81340737Y-50311328D01*
X81531213Y-50311328D01*
X80807403Y-49511328D02*
X80274070Y-49511328D01*
X80616927Y-50311328D01*
X81074070Y-47695138D02*
X81112165Y-47733233D01*
X81226451Y-47771328D01*
X81302641Y-47771328D01*
X81416927Y-47733233D01*
X81493117Y-47657043D01*
X81531213Y-47580852D01*
X81569308Y-47428471D01*
X81569308Y-47314185D01*
X81531213Y-47161804D01*
X81493117Y-47085614D01*
X81416927Y-47009424D01*
X81302641Y-46971328D01*
X81226451Y-46971328D01*
X81112165Y-47009424D01*
X81074070Y-47047519D01*
X80388356Y-46971328D02*
X80540737Y-46971328D01*
X80616927Y-47009424D01*
X80655022Y-47047519D01*
X80731213Y-47161804D01*
X80769308Y-47314185D01*
X80769308Y-47618947D01*
X80731213Y-47695138D01*
X80693117Y-47733233D01*
X80616927Y-47771328D01*
X80464546Y-47771328D01*
X80388356Y-47733233D01*
X80350260Y-47695138D01*
X80312165Y-47618947D01*
X80312165Y-47428471D01*
X80350260Y-47352281D01*
X80388356Y-47314185D01*
X80464546Y-47276090D01*
X80616927Y-47276090D01*
X80693117Y-47314185D01*
X80731213Y-47352281D01*
X80769308Y-47428471D01*
X81531213Y-45231328D02*
X81531213Y-44431328D01*
X81340737Y-44431328D01*
X81226451Y-44469424D01*
X81150260Y-44545614D01*
X81112165Y-44621804D01*
X81074070Y-44774185D01*
X81074070Y-44888471D01*
X81112165Y-45040852D01*
X81150260Y-45117043D01*
X81226451Y-45193233D01*
X81340737Y-45231328D01*
X81531213Y-45231328D01*
X80388356Y-44697995D02*
X80388356Y-45231328D01*
X80578832Y-44393233D02*
X80769308Y-44964662D01*
X80274070Y-44964662D01*
X81550260Y-34309424D02*
X81626451Y-34271328D01*
X81740737Y-34271328D01*
X81855022Y-34309424D01*
X81931213Y-34385614D01*
X81969308Y-34461804D01*
X82007403Y-34614185D01*
X82007403Y-34728471D01*
X81969308Y-34880852D01*
X81931213Y-34957043D01*
X81855022Y-35033233D01*
X81740737Y-35071328D01*
X81664546Y-35071328D01*
X81550260Y-35033233D01*
X81512165Y-34995138D01*
X81512165Y-34728471D01*
X81664546Y-34728471D01*
X81169308Y-35071328D02*
X81169308Y-34271328D01*
X80712165Y-35071328D01*
X80712165Y-34271328D01*
X80331213Y-35071328D02*
X80331213Y-34271328D01*
X80140737Y-34271328D01*
X80026451Y-34309424D01*
X79950260Y-34385614D01*
X79912165Y-34461804D01*
X79874070Y-34614185D01*
X79874070Y-34728471D01*
X79912165Y-34880852D01*
X79950260Y-34957043D01*
X80026451Y-35033233D01*
X80140737Y-35071328D01*
X80331213Y-35071328D01*
X81550260Y-36849424D02*
X81626451Y-36811328D01*
X81740737Y-36811328D01*
X81855022Y-36849424D01*
X81931213Y-36925614D01*
X81969308Y-37001804D01*
X82007403Y-37154185D01*
X82007403Y-37268471D01*
X81969308Y-37420852D01*
X81931213Y-37497043D01*
X81855022Y-37573233D01*
X81740737Y-37611328D01*
X81664546Y-37611328D01*
X81550260Y-37573233D01*
X81512165Y-37535138D01*
X81512165Y-37268471D01*
X81664546Y-37268471D01*
X81169308Y-37611328D02*
X81169308Y-36811328D01*
X80712165Y-37611328D01*
X80712165Y-36811328D01*
X80331213Y-37611328D02*
X80331213Y-36811328D01*
X80140737Y-36811328D01*
X80026451Y-36849424D01*
X79950260Y-36925614D01*
X79912165Y-37001804D01*
X79874070Y-37154185D01*
X79874070Y-37268471D01*
X79912165Y-37420852D01*
X79950260Y-37497043D01*
X80026451Y-37573233D01*
X80140737Y-37611328D01*
X80331213Y-37611328D01*
X81531213Y-40151328D02*
X81531213Y-39351328D01*
X81340737Y-39351328D01*
X81226451Y-39389424D01*
X81150260Y-39465614D01*
X81112165Y-39541804D01*
X81074070Y-39694185D01*
X81074070Y-39808471D01*
X81112165Y-39960852D01*
X81150260Y-40037043D01*
X81226451Y-40113233D01*
X81340737Y-40151328D01*
X81531213Y-40151328D01*
X80312165Y-40151328D02*
X80769308Y-40151328D01*
X80540737Y-40151328D02*
X80540737Y-39351328D01*
X80616927Y-39465614D01*
X80693117Y-39541804D01*
X80769308Y-39579900D01*
X81531213Y-42691328D02*
X81531213Y-41891328D01*
X81340737Y-41891328D01*
X81226451Y-41929424D01*
X81150260Y-42005614D01*
X81112165Y-42081804D01*
X81074070Y-42234185D01*
X81074070Y-42348471D01*
X81112165Y-42500852D01*
X81150260Y-42577043D01*
X81226451Y-42653233D01*
X81340737Y-42691328D01*
X81531213Y-42691328D01*
X80578832Y-41891328D02*
X80502641Y-41891328D01*
X80426451Y-41929424D01*
X80388356Y-41967519D01*
X80350260Y-42043709D01*
X80312165Y-42196090D01*
X80312165Y-42386566D01*
X80350260Y-42538947D01*
X80388356Y-42615138D01*
X80426451Y-42653233D01*
X80502641Y-42691328D01*
X80578832Y-42691328D01*
X80655022Y-42653233D01*
X80693117Y-42615138D01*
X80731213Y-42538947D01*
X80769308Y-42386566D01*
X80769308Y-42196090D01*
X80731213Y-42043709D01*
X80693117Y-41967519D01*
X80655022Y-41929424D01*
X80578832Y-41891328D01*
X81531213Y-32531328D02*
X81531213Y-31731328D01*
X81340737Y-31731328D01*
X81226451Y-31769424D01*
X81150260Y-31845614D01*
X81112165Y-31921804D01*
X81074070Y-32074185D01*
X81074070Y-32188471D01*
X81112165Y-32340852D01*
X81150260Y-32417043D01*
X81226451Y-32493233D01*
X81340737Y-32531328D01*
X81531213Y-32531328D01*
X80769308Y-31807519D02*
X80731213Y-31769424D01*
X80655022Y-31731328D01*
X80464546Y-31731328D01*
X80388356Y-31769424D01*
X80350260Y-31807519D01*
X80312165Y-31883709D01*
X80312165Y-31959900D01*
X80350260Y-32074185D01*
X80807403Y-32531328D01*
X80312165Y-32531328D01*
%TD*%
M02*
