%TF.GenerationSoftware,KiCad,Pcbnew,5.1.8*%
%TF.CreationDate,2021-02-04T11:53:21-06:00*%
%TF.ProjectId,small-paintbrush,736d616c-6c2d-4706-9169-6e7462727573,rev?*%
%TF.SameCoordinates,Original*%
%TF.FileFunction,Copper,L2,Bot*%
%TF.FilePolarity,Positive*%
%FSLAX46Y46*%
G04 Gerber Fmt 4.6, Leading zero omitted, Abs format (unit mm)*
G04 Created by KiCad (PCBNEW 5.1.8) date 2021-02-04 11:53:21*
%MOMM*%
%LPD*%
G01*
G04 APERTURE LIST*
%TA.AperFunction,ComponentPad*%
%ADD10C,1.752600*%
%TD*%
%TA.AperFunction,ComponentPad*%
%ADD11R,1.752600X1.752600*%
%TD*%
%TA.AperFunction,ComponentPad*%
%ADD12O,1.700000X1.700000*%
%TD*%
%TA.AperFunction,ComponentPad*%
%ADD13R,1.700000X1.700000*%
%TD*%
%TA.AperFunction,ComponentPad*%
%ADD14O,1.600000X1.600000*%
%TD*%
%TA.AperFunction,ComponentPad*%
%ADD15C,1.600000*%
%TD*%
%TA.AperFunction,ComponentPad*%
%ADD16C,2.000000*%
%TD*%
%TA.AperFunction,SMDPad,CuDef*%
%ADD17R,0.900000X1.700000*%
%TD*%
%TA.AperFunction,SMDPad,CuDef*%
%ADD18R,1.000000X0.800000*%
%TD*%
%TA.AperFunction,SMDPad,CuDef*%
%ADD19R,0.700000X1.500000*%
%TD*%
%TA.AperFunction,ViaPad*%
%ADD20C,0.800000*%
%TD*%
%TA.AperFunction,Conductor*%
%ADD21C,0.508000*%
%TD*%
G04 APERTURE END LIST*
D10*
%TO.P,U1,24*%
%TO.N,Net-(U1-Pad24)*%
X85120000Y-31030000D03*
%TO.P,U1,12*%
%TO.N,Net-(U1-Pad12)*%
X69880000Y-58970000D03*
%TO.P,U1,23*%
%TO.N,GND*%
X85120000Y-33570000D03*
%TO.P,U1,22*%
%TO.N,Net-(PUSH1-Pad1)*%
X85120000Y-36110000D03*
%TO.P,U1,21*%
%TO.N,VCC*%
X85120000Y-38650000D03*
%TO.P,U1,20*%
%TO.N,R1C1*%
X85120000Y-41190000D03*
%TO.P,U1,19*%
%TO.N,R1C2*%
X85120000Y-43730000D03*
%TO.P,U1,18*%
%TO.N,R1C3*%
X85120000Y-46270000D03*
%TO.P,U1,17*%
%TO.N,R1C4*%
X85120000Y-48810000D03*
%TO.P,U1,16*%
%TO.N,R2C4*%
X85120000Y-51350000D03*
%TO.P,U1,15*%
%TO.N,R2C3*%
X85120000Y-53890000D03*
%TO.P,U1,14*%
%TO.N,R2C2*%
X85120000Y-56430000D03*
%TO.P,U1,13*%
%TO.N,R2C1*%
X85120000Y-58970000D03*
%TO.P,U1,11*%
%TO.N,Net-(U1-Pad11)*%
X69880000Y-56430000D03*
%TO.P,U1,10*%
%TO.N,Net-(U1-Pad10)*%
X69880000Y-53890000D03*
%TO.P,U1,9*%
%TO.N,Net-(U1-Pad9)*%
X69880000Y-51350000D03*
%TO.P,U1,8*%
%TO.N,Net-(U1-Pad8)*%
X69880000Y-48810000D03*
%TO.P,U1,7*%
%TO.N,Net-(U1-Pad7)*%
X69880000Y-46270000D03*
%TO.P,U1,6*%
%TO.N,SCL*%
X69880000Y-43730000D03*
%TO.P,U1,5*%
%TO.N,SDA*%
X69880000Y-41190000D03*
%TO.P,U1,4*%
%TO.N,GND*%
X69880000Y-38650000D03*
%TO.P,U1,3*%
X69880000Y-36110000D03*
%TO.P,U1,2*%
%TO.N,Net-(U1-Pad2)*%
X69880000Y-33570000D03*
D11*
%TO.P,U1,1*%
%TO.N,Net-(U1-Pad1)*%
X69880000Y-31030000D03*
%TD*%
D12*
%TO.P,J3,4*%
%TO.N,SDA*%
X81320000Y-61400000D03*
%TO.P,J3,3*%
%TO.N,SCL*%
X78780000Y-61400000D03*
%TO.P,J3,2*%
%TO.N,VCC*%
X76240000Y-61400000D03*
D13*
%TO.P,J3,1*%
%TO.N,GND*%
X73700000Y-61400000D03*
%TD*%
D12*
%TO.P,J2,4*%
%TO.N,SDA*%
X73680000Y-63900000D03*
%TO.P,J2,3*%
%TO.N,SCL*%
X76220000Y-63900000D03*
%TO.P,J2,2*%
%TO.N,VCC*%
X78760000Y-63900000D03*
D13*
%TO.P,J2,1*%
%TO.N,GND*%
X81300000Y-63900000D03*
%TD*%
%TO.P,R3,2*%
%TO.N,VCC*%
%TA.AperFunction,SMDPad,CuDef*%
G36*
G01*
X87100000Y-23049999D02*
X87100000Y-23950001D01*
G75*
G02*
X86850001Y-24200000I-249999J0D01*
G01*
X86324999Y-24200000D01*
G75*
G02*
X86075000Y-23950001I0J249999D01*
G01*
X86075000Y-23049999D01*
G75*
G02*
X86324999Y-22800000I249999J0D01*
G01*
X86850001Y-22800000D01*
G75*
G02*
X87100000Y-23049999I0J-249999D01*
G01*
G37*
%TD.AperFunction*%
%TO.P,R3,1*%
%TO.N,Net-(PUSH1-Pad1)*%
%TA.AperFunction,SMDPad,CuDef*%
G36*
G01*
X88925000Y-23049999D02*
X88925000Y-23950001D01*
G75*
G02*
X88675001Y-24200000I-249999J0D01*
G01*
X88149999Y-24200000D01*
G75*
G02*
X87900000Y-23950001I0J249999D01*
G01*
X87900000Y-23049999D01*
G75*
G02*
X88149999Y-22800000I249999J0D01*
G01*
X88675001Y-22800000D01*
G75*
G02*
X88925000Y-23049999I0J-249999D01*
G01*
G37*
%TD.AperFunction*%
%TD*%
D14*
%TO.P,R2,2*%
%TO.N,VCC*%
X83880000Y-23500000D03*
D15*
%TO.P,R2,1*%
%TO.N,Net-(PUSH1-Pad1)*%
X91500000Y-23500000D03*
%TD*%
D16*
%TO.P,KEY8,2*%
%TO.N,R2C4*%
X146000000Y-55800000D03*
%TO.P,KEY8,1*%
%TO.N,GND*%
X151000000Y-57900000D03*
%TO.P,KEY8,2*%
%TO.N,R2C4*%
X156000000Y-55800000D03*
%TD*%
%TO.P,KEY7,2*%
%TO.N,R2C3*%
X128000000Y-55800000D03*
%TO.P,KEY7,1*%
%TO.N,GND*%
X133000000Y-57900000D03*
%TO.P,KEY7,2*%
%TO.N,R2C3*%
X138000000Y-55800000D03*
%TD*%
%TO.P,KEY6,2*%
%TO.N,R2C2*%
X110000000Y-55800000D03*
%TO.P,KEY6,1*%
%TO.N,GND*%
X115000000Y-57900000D03*
%TO.P,KEY6,2*%
%TO.N,R2C2*%
X120000000Y-55800000D03*
%TD*%
%TO.P,KEY5,2*%
%TO.N,R2C1*%
X92000000Y-55800000D03*
%TO.P,KEY5,1*%
%TO.N,GND*%
X97000000Y-57900000D03*
%TO.P,KEY5,2*%
%TO.N,R2C1*%
X102000000Y-55800000D03*
%TD*%
%TO.P,KEY4,2*%
%TO.N,R1C4*%
X146000000Y-38800000D03*
%TO.P,KEY4,1*%
%TO.N,GND*%
X151000000Y-40900000D03*
%TO.P,KEY4,2*%
%TO.N,R1C4*%
X156000000Y-38800000D03*
%TD*%
%TO.P,KEY3,2*%
%TO.N,R1C3*%
X128000000Y-38800000D03*
%TO.P,KEY3,1*%
%TO.N,GND*%
X133000000Y-40900000D03*
%TO.P,KEY3,2*%
%TO.N,R1C3*%
X138000000Y-38800000D03*
%TD*%
%TO.P,KEY2,2*%
%TO.N,R1C2*%
X110000000Y-38800000D03*
%TO.P,KEY2,1*%
%TO.N,GND*%
X115000000Y-40900000D03*
%TO.P,KEY2,2*%
%TO.N,R1C2*%
X120000000Y-38800000D03*
%TD*%
%TO.P,KEY1,2*%
%TO.N,R1C1*%
X92000000Y-38800000D03*
%TO.P,KEY1,1*%
%TO.N,GND*%
X97000000Y-40900000D03*
%TO.P,KEY1,2*%
%TO.N,R1C1*%
X102000000Y-38800000D03*
%TD*%
D17*
%TO.P,PUSH1,2*%
%TO.N,GND*%
X98200000Y-23500000D03*
%TO.P,PUSH1,1*%
%TO.N,Net-(PUSH1-Pad1)*%
X94800000Y-23500000D03*
%TD*%
D18*
%TO.P,SW1,*%
%TO.N,*%
X73850000Y-24280000D03*
X81150000Y-24280000D03*
X81150000Y-22070000D03*
X73850000Y-22070000D03*
D19*
%TO.P,SW1,3*%
%TO.N,Net-(SW1-Pad3)*%
X79750000Y-24930000D03*
%TO.P,SW1,2*%
%TO.N,Net-(J1-Pad2)*%
X78250000Y-24930000D03*
%TO.P,SW1,1*%
%TO.N,Net-(J1-Pad1)*%
X75250000Y-24930000D03*
%TD*%
D12*
%TO.P,J1,2*%
%TO.N,Net-(J1-Pad2)*%
X101960000Y-23500000D03*
D13*
%TO.P,J1,1*%
%TO.N,Net-(J1-Pad1)*%
X104500000Y-23500000D03*
%TD*%
D20*
%TO.N,GND*%
X96600000Y-25100000D03*
%TO.N,Net-(J1-Pad2)*%
X77500006Y-27000006D03*
%TO.N,Net-(J1-Pad1)*%
X78000000Y-28000000D03*
%TD*%
D21*
%TO.N,GND*%
X69880000Y-38650000D02*
X69880000Y-36110000D01*
X82580000Y-36110000D02*
X85120000Y-33570000D01*
X69880000Y-36110000D02*
X82580000Y-36110000D01*
X98200000Y-23500000D02*
X96600000Y-25100000D01*
X79700000Y-65500000D02*
X81300000Y-63900000D01*
X73700000Y-61400000D02*
X72000000Y-63100000D01*
X72000000Y-63100000D02*
X72000000Y-65000000D01*
X72000000Y-65000000D02*
X72500000Y-65500000D01*
X72500000Y-65500000D02*
X79700000Y-65500000D01*
X73700000Y-42470000D02*
X69880000Y-38650000D01*
X73700000Y-61400000D02*
X73700000Y-42470000D01*
%TO.N,R1C1*%
X102000000Y-38800000D02*
X92000000Y-38800000D01*
X87510000Y-38800000D02*
X85120000Y-41190000D01*
X92000000Y-38800000D02*
X87510000Y-38800000D01*
%TO.N,R1C2*%
X120000000Y-38800000D02*
X110000000Y-38800000D01*
X85850000Y-43000000D02*
X85120000Y-43730000D01*
X105800000Y-43000000D02*
X85850000Y-43000000D01*
X110000000Y-38800000D02*
X105800000Y-43000000D01*
%TO.N,R1C3*%
X138000000Y-38800000D02*
X128000000Y-38800000D01*
X122800000Y-44000000D02*
X87390000Y-44000000D01*
X87390000Y-44000000D02*
X85120000Y-46270000D01*
X128000000Y-38800000D02*
X122800000Y-44000000D01*
%TO.N,R1C4*%
X156000000Y-38800000D02*
X146000000Y-38800000D01*
X88930000Y-45000000D02*
X85120000Y-48810000D01*
X139800000Y-45000000D02*
X88930000Y-45000000D01*
X146000000Y-38800000D02*
X139800000Y-45000000D01*
%TO.N,R2C1*%
X102000000Y-55800000D02*
X92000000Y-55800000D01*
X88290000Y-55800000D02*
X85120000Y-58970000D01*
X92000000Y-55800000D02*
X88290000Y-55800000D01*
%TO.N,R2C2*%
X120000000Y-55800000D02*
X110000000Y-55800000D01*
X110000000Y-55800000D02*
X103700000Y-49500000D01*
X85140078Y-56430000D02*
X85120000Y-56430000D01*
X92070078Y-49500000D02*
X85140078Y-56430000D01*
X103700000Y-49500000D02*
X92070078Y-49500000D01*
%TO.N,R2C3*%
X128000000Y-55800000D02*
X138000000Y-55800000D01*
X128000000Y-55800000D02*
X120700000Y-48500000D01*
X90510000Y-48500000D02*
X85120000Y-53890000D01*
X120700000Y-48500000D02*
X90510000Y-48500000D01*
%TO.N,R2C4*%
X146000000Y-55800000D02*
X156000000Y-55800000D01*
X146000000Y-55800000D02*
X137700000Y-47500000D01*
X88970000Y-47500000D02*
X85120000Y-51350000D01*
X137700000Y-47500000D02*
X88970000Y-47500000D01*
%TO.N,Net-(PUSH1-Pad1)*%
X88412500Y-23500000D02*
X91500000Y-23500000D01*
X91500000Y-23500000D02*
X94800000Y-23500000D01*
%TO.N,VCC*%
X86587500Y-23500000D02*
X83880000Y-23500000D01*
X76260000Y-61400000D02*
X78760000Y-63900000D01*
X76240000Y-61400000D02*
X76260000Y-61400000D01*
X76240000Y-47530000D02*
X76240000Y-61400000D01*
X85120000Y-38650000D02*
X76240000Y-47530000D01*
%TO.N,Net-(J1-Pad2)*%
X78250000Y-24930000D02*
X78250000Y-26250012D01*
X78250000Y-26250012D02*
X77500006Y-27000006D01*
X98459994Y-27000006D02*
X101960000Y-23500000D01*
X77500006Y-27000006D02*
X98459994Y-27000006D01*
%TO.N,Net-(J1-Pad1)*%
X75250000Y-26315685D02*
X76934315Y-28000000D01*
X76934315Y-28000000D02*
X78000000Y-28000000D01*
X75250000Y-24930000D02*
X75250000Y-26315685D01*
X100000000Y-28000000D02*
X104500000Y-23500000D01*
X78000000Y-28000000D02*
X100000000Y-28000000D01*
%TD*%
M02*
