M48
; DRILL file {KiCad 5.1.8} date Sun Mar  7 13:16:53 2021
; FORMAT={-:-/ absolute / inch / decimal}
; #@! TF.CreationDate,2021-03-07T13:16:53-06:00
; #@! TF.GenerationSoftware,Kicad,Pcbnew,5.1.8
; #@! TF.FileFunction,NonPlated,1,2,NPTH
FMAT,2
INCH
T1C0.0354
T2C0.0670
T3C0.1181
T4C0.1350
%
G90
G05
T1
X4.319Y-0.8492
X4.4371Y-0.8492
X4.319Y-0.8492
X4.4371Y-0.8492
T2
X6.0788Y-1.5098
X6.5119Y-1.5098
X6.0788Y-2.1791
X6.5119Y-2.1791
X5.3701Y-1.9921
X5.8032Y-1.9921
X4.6615Y-1.8984
X5.0946Y-1.8984
X4.6615Y-1.2291
X5.0946Y-1.2291
X5.3701Y-1.3228
X5.8032Y-1.3228
X3.9528Y-1.9921
X4.3859Y-1.9921
X3.9528Y-1.3228
X4.3859Y-1.3228
T3
X4.6812Y-1.7508
X4.878Y-1.6642
X5.0749Y-1.7508
X4.6812Y-1.0815
X4.878Y-0.9949
X5.0749Y-1.0815
X5.3898Y-1.1752
X5.5867Y-1.0886
X5.7835Y-1.1752
X3.9725Y-1.8445
X4.1694Y-1.7579
X4.3662Y-1.8445
X3.9725Y-1.1752
X4.1694Y-1.0886
X4.3662Y-1.1752
X6.0985Y-1.3622
X6.2953Y-1.2756
X6.4922Y-1.3622
X6.0985Y-2.0315
X6.2953Y-1.9449
X6.4922Y-2.0315
X5.3898Y-1.8445
X5.5867Y-1.7579
X5.7835Y-1.8445
T4
X5.5867Y-1.3228
X6.2953Y-1.5098
X4.878Y-1.8984
X4.878Y-1.2291
X4.1694Y-1.9921
X4.1694Y-1.3228
X6.2953Y-2.1791
X5.5867Y-1.9921
T0
M30
