M48
; DRILL file {KiCad (5.1.8)-1} date 05/08/21 17:22:51
; FORMAT={-:-/ absolute / inch / decimal}
; #@! TF.CreationDate,2021-05-08T17:22:51-04:00
; #@! TF.GenerationSoftware,Kicad,Pcbnew,(5.1.8)-1
; #@! TF.FileFunction,Plated,1,2,PTH
FMAT,2
INCH
T1C0.0157
T2C0.0394
T3C0.0430
T4C0.0500
%
G90
G05
T1
X3.3032Y-2.2677
X3.441Y-1.5393
X3.5006Y-1.4798
X3.5207Y-1.7372
X3.7009Y-2.3504
X3.7009Y-2.4842
X4.1694Y-1.185
X4.1694Y-1.8543
X4.878Y-1.0913
X4.878Y-1.7606
X5.5867Y-1.185
X5.5867Y-1.8543
X6.2048Y-0.9645
X6.2934Y-0.9677
X6.2953Y-2.0413
X6.2953Y-1.372
T2
X3.2324Y-2.4212
X3.3324Y-2.4212
X3.4324Y-2.4212
X3.5324Y-2.4212
X3.4213Y-0.8307
X3.5213Y-0.8307
X3.1922Y-2.3425
X3.2922Y-2.3425
X3.3922Y-2.3425
X3.4922Y-2.3425
T3
X3.0308Y-1.1271
X3.0308Y-1.2271
X3.0308Y-1.3271
X3.0308Y-1.4271
X3.0308Y-1.5271
X3.0308Y-1.6271
X3.0308Y-1.7271
X3.0308Y-1.8271
X3.0308Y-1.9271
X3.0308Y-2.0271
X3.0308Y-2.1271
X3.0308Y-2.2271
X3.6308Y-1.1271
X3.6308Y-1.2271
X3.6308Y-1.3271
X3.6308Y-1.4271
X3.6308Y-1.5271
X3.6308Y-1.6271
X3.6308Y-1.7271
X3.6308Y-1.8271
X3.6308Y-1.9271
X3.6308Y-2.0271
X3.6308Y-2.1271
X3.6308Y-2.2271
X3.1016Y-1.1665
X3.1016Y-1.2665
X3.1016Y-1.3665
X3.1016Y-1.4665
X3.1016Y-1.5665
X3.1016Y-1.6665
X3.1016Y-1.7665
X3.1016Y-1.8665
X3.1016Y-1.9665
X3.1016Y-2.0665
X3.1016Y-2.1665
X3.1016Y-2.2665
X3.7016Y-1.1665
X3.7016Y-1.2665
X3.7016Y-1.3665
X3.7016Y-1.4665
X3.7016Y-1.5665
X3.7016Y-1.6665
X3.7016Y-1.7665
X3.7016Y-1.8665
X3.7016Y-1.9665
X3.7016Y-2.0665
X3.7016Y-2.1665
X3.7016Y-2.2665
T4
X4.6812Y-1.3787
X4.878Y-1.4614
X5.0749Y-1.3787
X5.3898Y-1.4724
X5.5867Y-1.5551
X5.7835Y-1.4724
X3.9725Y-1.4724
X4.1694Y-1.5551
X4.3662Y-1.4724
X3.9725Y-2.1417
X4.1694Y-2.2244
X4.3662Y-2.1417
X6.0985Y-1.6594
X6.2953Y-1.7421
X6.4922Y-1.6594
X6.0985Y-2.3287
X6.2953Y-2.4114
X6.4922Y-2.3287
X4.6812Y-2.048
X4.878Y-2.1307
X5.0749Y-2.048
X5.3898Y-2.1417
X5.5867Y-2.2244
X5.7835Y-2.1417
T0
M30
