M48
; DRILL file {KiCad 5.1.8} date Thu Feb  4 11:53:13 2021
; FORMAT={-:-/ absolute / inch / decimal}
; #@! TF.CreationDate,2021-02-04T11:53:13-06:00
; #@! TF.GenerationSoftware,Kicad,Pcbnew,5.1.8
; #@! TF.FileFunction,NonPlated,1,2,NPTH
FMAT,2
INCH
T1C0.0354
T2C0.0669
T3C0.0866
T4C0.1339
%
G90
G05
T1
X2.9921Y-0.9122
X3.1102Y-0.9122
X2.9921Y-0.9122
X3.1102Y-0.9122
T2
X5.0197Y-2.0472
X5.4528Y-2.0472
X4.311Y-1.378
X4.7441Y-1.378
X4.311Y-2.0472
X4.7441Y-2.0472
X3.6024Y-2.0472
X4.0354Y-2.0472
X3.6024Y-1.378
X4.0354Y-1.378
X5.7283Y-2.0472
X6.1614Y-2.0472
X5.0197Y-1.378
X5.4528Y-1.378
X5.7283Y-1.378
X6.1614Y-1.378
T3
X2.7559Y-2.5197
X2.7559Y-0.9055
X6.2205Y-2.5197
X6.2205Y-0.9055
T4
X5.2362Y-1.378
X5.9449Y-1.378
X5.2362Y-2.0472
X4.5276Y-1.378
X4.5276Y-2.0472
X3.8189Y-2.0472
X3.8189Y-1.378
X5.9449Y-2.0472
T0
M30
