%TF.GenerationSoftware,KiCad,Pcbnew,5.1.8*%
%TF.CreationDate,2021-03-23T18:40:27-05:00*%
%TF.ProjectId,small-paintbrush-hotswap,736d616c-6c2d-4706-9169-6e7462727573,rev?*%
%TF.SameCoordinates,Original*%
%TF.FileFunction,Copper,L1,Top*%
%TF.FilePolarity,Positive*%
%FSLAX46Y46*%
G04 Gerber Fmt 4.6, Leading zero omitted, Abs format (unit mm)*
G04 Created by KiCad (PCBNEW 5.1.8) date 2021-03-23 18:40:27*
%MOMM*%
%LPD*%
G01*
G04 APERTURE LIST*
%TA.AperFunction,SMDPad,CuDef*%
%ADD10R,1.000000X0.800000*%
%TD*%
%TA.AperFunction,SMDPad,CuDef*%
%ADD11R,0.700000X1.500000*%
%TD*%
%TA.AperFunction,ComponentPad*%
%ADD12C,1.752600*%
%TD*%
%TA.AperFunction,SMDPad,CuDef*%
%ADD13R,2.600000X2.600000*%
%TD*%
%TA.AperFunction,ComponentPad*%
%ADD14C,2.032000*%
%TD*%
%TA.AperFunction,ComponentPad*%
%ADD15O,1.700000X1.700000*%
%TD*%
%TA.AperFunction,ComponentPad*%
%ADD16R,1.700000X1.700000*%
%TD*%
%TA.AperFunction,SMDPad,CuDef*%
%ADD17R,1.700000X0.900000*%
%TD*%
%TA.AperFunction,ViaPad*%
%ADD18C,0.800000*%
%TD*%
%TA.AperFunction,Conductor*%
%ADD19C,0.508000*%
%TD*%
%TA.AperFunction,Conductor*%
%ADD20C,0.254000*%
%TD*%
G04 APERTURE END LIST*
D10*
%TO.P,SW2,*%
%TO.N,*%
X161251737Y-22579425D03*
X153951737Y-22579425D03*
X153951737Y-20369425D03*
X161251737Y-20369425D03*
D11*
%TO.P,SW2,3*%
%TO.N,Net-(SW2-Pad3)*%
X155351737Y-23229425D03*
%TO.P,SW2,2*%
%TO.N,Net-(J1-Pad2)*%
X156851737Y-23229425D03*
%TO.P,SW2,1*%
%TO.N,Net-(J1-Pad1)*%
X159851737Y-23229425D03*
%TD*%
D12*
%TO.P,U2,1*%
%TO.N,Net-(U2-Pad1)*%
X92221739Y-28629424D03*
%TO.P,U2,2*%
%TO.N,Net-(U2-Pad2)*%
X92221739Y-31169424D03*
%TO.P,U2,3*%
%TO.N,GND*%
X92221739Y-33709424D03*
%TO.P,U2,4*%
X92221739Y-36249424D03*
%TO.P,U2,5*%
%TO.N,SDA*%
X92221739Y-38789424D03*
%TO.P,U2,6*%
%TO.N,SCL*%
X92221739Y-41329424D03*
%TO.P,U2,7*%
%TO.N,Net-(U2-Pad7)*%
X92221739Y-43869424D03*
%TO.P,U2,8*%
%TO.N,Net-(U2-Pad8)*%
X92221739Y-46409424D03*
%TO.P,U2,9*%
%TO.N,Net-(U2-Pad9)*%
X92221739Y-48949424D03*
%TO.P,U2,10*%
%TO.N,Net-(U2-Pad10)*%
X92221739Y-51489424D03*
%TO.P,U2,11*%
%TO.N,Net-(U2-Pad11)*%
X92221739Y-54029424D03*
%TO.P,U2,13*%
%TO.N,R2C4*%
X76981739Y-56569424D03*
%TO.P,U2,14*%
%TO.N,R2C3*%
X76981739Y-54029424D03*
%TO.P,U2,15*%
%TO.N,R2C2*%
X76981739Y-51489424D03*
%TO.P,U2,16*%
%TO.N,R2C1*%
X76981739Y-48949424D03*
%TO.P,U2,17*%
%TO.N,R1C4*%
X76981739Y-46409424D03*
%TO.P,U2,18*%
%TO.N,R1C3*%
X76981739Y-43869424D03*
%TO.P,U2,19*%
%TO.N,R1C2*%
X76981739Y-41329424D03*
%TO.P,U2,20*%
%TO.N,R1C1*%
X76981739Y-38789424D03*
%TO.P,U2,21*%
%TO.N,VCC*%
X76981739Y-36249424D03*
%TO.P,U2,22*%
%TO.N,RST*%
X76981739Y-33709424D03*
%TO.P,U2,23*%
%TO.N,GND*%
X76981739Y-31169424D03*
%TO.P,U2,12*%
%TO.N,Net-(U2-Pad12)*%
X92221739Y-56569424D03*
%TO.P,U2,24*%
%TO.N,Net-(U2-Pad24)*%
X76981739Y-28629424D03*
%TD*%
D13*
%TO.P,KEY3,1*%
%TO.N,GND*%
X145176739Y-27649426D03*
D14*
%TO.P,KEY3,2*%
%TO.N,R1C3*%
X146901739Y-37399426D03*
%TO.P,KEY3,1*%
%TO.N,GND*%
X141901739Y-39499426D03*
D13*
%TO.P,KEY3,2*%
%TO.N,R1C3*%
X133626739Y-29849426D03*
D14*
X136901739Y-37399426D03*
%TD*%
D13*
%TO.P,KEY8,1*%
%TO.N,GND*%
X163176739Y-49399423D03*
D14*
%TO.P,KEY8,2*%
%TO.N,R2C4*%
X164901739Y-59149423D03*
%TO.P,KEY8,1*%
%TO.N,GND*%
X159901739Y-61249423D03*
D13*
%TO.P,KEY8,2*%
%TO.N,R2C4*%
X151626739Y-51599423D03*
D14*
X154901739Y-59149423D03*
%TD*%
D13*
%TO.P,KEY7,1*%
%TO.N,GND*%
X145176739Y-44649426D03*
D14*
%TO.P,KEY7,2*%
%TO.N,R2C3*%
X146901739Y-54399426D03*
%TO.P,KEY7,1*%
%TO.N,GND*%
X141901739Y-56499426D03*
D13*
%TO.P,KEY7,2*%
%TO.N,R2C3*%
X133626739Y-46849426D03*
D14*
X136901739Y-54399426D03*
%TD*%
%TO.P,KEY6,2*%
%TO.N,R2C2*%
X118901739Y-52019424D03*
D13*
X115626739Y-44469424D03*
D14*
%TO.P,KEY6,1*%
%TO.N,GND*%
X123901739Y-54119424D03*
%TO.P,KEY6,2*%
%TO.N,R2C2*%
X128901739Y-52019424D03*
D13*
%TO.P,KEY6,1*%
%TO.N,GND*%
X127176739Y-42269424D03*
%TD*%
%TO.P,KEY5,1*%
%TO.N,GND*%
X109176736Y-44649424D03*
D14*
%TO.P,KEY5,2*%
%TO.N,R2C1*%
X110901736Y-54399424D03*
%TO.P,KEY5,1*%
%TO.N,GND*%
X105901736Y-56499424D03*
D13*
%TO.P,KEY5,2*%
%TO.N,R2C1*%
X97626736Y-46849424D03*
D14*
X100901736Y-54399424D03*
%TD*%
D13*
%TO.P,KEY4,1*%
%TO.N,GND*%
X163176737Y-32399424D03*
D14*
%TO.P,KEY4,2*%
%TO.N,R1C4*%
X164901737Y-42149424D03*
%TO.P,KEY4,1*%
%TO.N,GND*%
X159901737Y-44249424D03*
D13*
%TO.P,KEY4,2*%
%TO.N,R1C4*%
X151626737Y-34599424D03*
D14*
X154901737Y-42149424D03*
%TD*%
%TO.P,KEY2,2*%
%TO.N,R1C2*%
X118901737Y-35019424D03*
D13*
X115626737Y-27469424D03*
D14*
%TO.P,KEY2,1*%
%TO.N,GND*%
X123901737Y-37119424D03*
%TO.P,KEY2,2*%
%TO.N,R1C2*%
X128901737Y-35019424D03*
D13*
%TO.P,KEY2,1*%
%TO.N,GND*%
X127176737Y-25269424D03*
%TD*%
%TO.P,KEY1,1*%
%TO.N,GND*%
X109176737Y-27649424D03*
D14*
%TO.P,KEY1,2*%
%TO.N,R1C1*%
X110901737Y-37399424D03*
%TO.P,KEY1,1*%
%TO.N,GND*%
X105901737Y-39499424D03*
D13*
%TO.P,KEY1,2*%
%TO.N,R1C1*%
X97626737Y-29849424D03*
D14*
X100901737Y-37399424D03*
%TD*%
D12*
%TO.P,U1,24*%
%TO.N,Net-(U1-Pad24)*%
X94021737Y-29629424D03*
%TO.P,U1,12*%
%TO.N,Net-(U1-Pad12)*%
X78781737Y-57569424D03*
%TO.P,U1,23*%
%TO.N,GND*%
X94021737Y-32169424D03*
%TO.P,U1,22*%
%TO.N,RST*%
X94021737Y-34709424D03*
%TO.P,U1,21*%
%TO.N,VCC*%
X94021737Y-37249424D03*
%TO.P,U1,20*%
%TO.N,R1C1*%
X94021737Y-39789424D03*
%TO.P,U1,19*%
%TO.N,R1C2*%
X94021737Y-42329424D03*
%TO.P,U1,18*%
%TO.N,R1C3*%
X94021737Y-44869424D03*
%TO.P,U1,17*%
%TO.N,R1C4*%
X94021737Y-47409424D03*
%TO.P,U1,16*%
%TO.N,R2C1*%
X94021737Y-49949424D03*
%TO.P,U1,15*%
%TO.N,R2C2*%
X94021737Y-52489424D03*
%TO.P,U1,14*%
%TO.N,R2C3*%
X94021737Y-55029424D03*
%TO.P,U1,13*%
%TO.N,R2C4*%
X94021737Y-57569424D03*
%TO.P,U1,11*%
%TO.N,Net-(U1-Pad11)*%
X78781737Y-55029424D03*
%TO.P,U1,10*%
%TO.N,Net-(U1-Pad10)*%
X78781737Y-52489424D03*
%TO.P,U1,9*%
%TO.N,Net-(U1-Pad9)*%
X78781737Y-49949424D03*
%TO.P,U1,8*%
%TO.N,Net-(U1-Pad8)*%
X78781737Y-47409424D03*
%TO.P,U1,7*%
%TO.N,Net-(U1-Pad7)*%
X78781737Y-44869424D03*
%TO.P,U1,6*%
%TO.N,SCL*%
X78781737Y-42329424D03*
%TO.P,U1,5*%
%TO.N,SDA*%
X78781737Y-39789424D03*
%TO.P,U1,4*%
%TO.N,GND*%
X78781737Y-37249424D03*
%TO.P,U1,3*%
X78781737Y-34709424D03*
%TO.P,U1,2*%
%TO.N,Net-(U1-Pad2)*%
X78781737Y-32169424D03*
%TO.P,U1,1*%
%TO.N,Net-(U1-Pad1)*%
X78781737Y-29629424D03*
%TD*%
D15*
%TO.P,J3,4*%
%TO.N,SDA*%
X89721739Y-61499424D03*
%TO.P,J3,3*%
%TO.N,SCL*%
X87181739Y-61499424D03*
%TO.P,J3,2*%
%TO.N,VCC*%
X84641739Y-61499424D03*
D16*
%TO.P,J3,1*%
%TO.N,GND*%
X82101739Y-61499424D03*
%TD*%
D15*
%TO.P,J2,4*%
%TO.N,SDA*%
X81081737Y-59499424D03*
%TO.P,J2,3*%
%TO.N,SCL*%
X83621737Y-59499424D03*
%TO.P,J2,2*%
%TO.N,VCC*%
X86161737Y-59499424D03*
D16*
%TO.P,J2,1*%
%TO.N,GND*%
X88701737Y-59499424D03*
%TD*%
D17*
%TO.P,PUSH2,2*%
%TO.N,GND*%
X94001735Y-64599425D03*
%TO.P,PUSH2,1*%
%TO.N,RST*%
X94001735Y-61199425D03*
%TD*%
D15*
%TO.P,J1,2*%
%TO.N,Net-(J1-Pad2)*%
X89441736Y-21099424D03*
D16*
%TO.P,J1,1*%
%TO.N,Net-(J1-Pad1)*%
X86901736Y-21099424D03*
%TD*%
D18*
%TO.N,GND*%
X159901739Y-34849425D03*
X141901739Y-30099424D03*
X123901737Y-27719424D03*
X105901739Y-30099426D03*
X105901739Y-47099426D03*
X123901738Y-44719424D03*
X141901739Y-47099424D03*
X159901738Y-51849425D03*
X94001736Y-63099424D03*
%TO.N,VCC*%
X83901738Y-57599424D03*
X88915038Y-37586123D03*
%TO.N,Net-(J1-Pad2)*%
X157601739Y-24499424D03*
%TO.N,Net-(J1-Pad1)*%
X159851737Y-24579443D03*
%TO.N,SDA*%
X87401739Y-39099424D03*
%TO.N,SCL*%
X89426738Y-44124425D03*
%TO.N,RST*%
X94001736Y-59699426D03*
%TD*%
D19*
%TO.N,GND*%
X159901739Y-34849425D02*
X160726739Y-34849424D01*
X160726739Y-34849424D02*
X163176739Y-32399424D01*
X141901739Y-30099424D02*
X142726736Y-30099424D01*
X142726736Y-30099424D02*
X145176737Y-27649424D01*
X123901737Y-27719424D02*
X124726739Y-27719425D01*
X124726739Y-27719425D02*
X127176739Y-25269423D01*
X105901739Y-47099426D02*
X106726739Y-47099424D01*
X106726739Y-47099424D02*
X109176739Y-44649424D01*
X123901738Y-44719424D02*
X124726739Y-44719425D01*
X124726739Y-44719425D02*
X127176737Y-42269424D01*
X141901739Y-47099424D02*
X142726739Y-47099423D01*
X142726739Y-47099423D02*
X145176739Y-44649424D01*
X108401737Y-45424425D02*
X109176739Y-44649424D01*
X108401737Y-53999423D02*
X108401737Y-45424425D01*
X105901738Y-56499424D02*
X108401737Y-53999423D01*
X160726738Y-51849424D02*
X163176738Y-49399424D01*
X159901738Y-51849425D02*
X160726738Y-51849424D01*
X132901737Y-22599424D02*
X134901738Y-24599424D01*
X150401738Y-24599423D02*
X155901737Y-30099424D01*
X160876739Y-30099426D02*
X163176739Y-32399424D01*
X155901737Y-30099424D02*
X160876739Y-30099426D01*
X145176737Y-24874424D02*
X144901739Y-24599424D01*
X145176737Y-27649424D02*
X145176737Y-24874424D01*
X144901739Y-24599424D02*
X150401738Y-24599423D01*
X134901738Y-24599424D02*
X144901739Y-24599424D01*
X127176737Y-22874425D02*
X126901737Y-22599424D01*
X127176739Y-25269423D02*
X127176737Y-22874425D01*
X126901737Y-22599424D02*
X132901737Y-22599424D01*
X107401739Y-30099423D02*
X105901739Y-30099426D01*
X108901739Y-31599424D02*
X107401739Y-30099423D01*
X108901737Y-36499424D02*
X108901739Y-31599424D01*
X105901739Y-39499424D02*
X108901737Y-36499424D01*
X78781738Y-37249425D02*
X78781739Y-34709423D01*
X92221736Y-36249424D02*
X92221739Y-33709424D01*
X92481737Y-33709424D02*
X94021739Y-32169424D01*
X92221739Y-33709424D02*
X92481737Y-33709424D01*
X91221738Y-34709423D02*
X92221739Y-33709424D01*
X80511737Y-34709424D02*
X91221738Y-34709423D01*
X78781739Y-34709423D02*
X80511737Y-34709424D01*
D20*
X80268436Y-30966123D02*
X80511739Y-31209425D01*
X80511739Y-31209425D02*
X80511737Y-34709424D01*
X77185037Y-30966123D02*
X80268436Y-30966123D01*
X76981739Y-31169424D02*
X77185037Y-30966123D01*
D19*
X105901739Y-30099426D02*
X106726737Y-30099426D01*
X106726735Y-30099426D02*
X105901739Y-30099426D01*
X109176737Y-27649424D02*
X106726735Y-30099426D01*
X118901737Y-22599425D02*
X126901737Y-22599424D01*
X113901736Y-25599424D02*
X115901738Y-25599424D01*
X111851736Y-27649424D02*
X113901736Y-25599424D01*
X115901738Y-25599424D02*
X118901737Y-22599425D01*
X109176737Y-27649424D02*
X111851736Y-27649424D01*
D20*
X95601735Y-63099425D02*
X95601736Y-63099424D01*
X94001735Y-63099425D02*
X94001736Y-63099424D01*
X94001735Y-64599425D02*
X94001735Y-63099425D01*
D19*
%TO.N,R1C1*%
X97626738Y-34124424D02*
X100901739Y-37399423D01*
X97626737Y-29849425D02*
X97626738Y-34124424D01*
D20*
X96411739Y-37399424D02*
X94021736Y-39789425D01*
X100901739Y-37399423D02*
X96411739Y-37399424D01*
D19*
%TO.N,R1C2*%
X115626737Y-31744424D02*
X118901739Y-35019424D01*
X115626739Y-27469423D02*
X115626737Y-31744424D01*
D20*
X95251738Y-41099424D02*
X94021737Y-42329424D01*
X112821739Y-41099425D02*
X95251738Y-41099424D01*
X118901739Y-35019424D02*
X112821739Y-41099425D01*
D19*
%TO.N,R1C3*%
X133626739Y-34124423D02*
X136901737Y-37399425D01*
X133626737Y-29849424D02*
X133626739Y-34124423D01*
D20*
X97291736Y-41599425D02*
X94021739Y-44869424D01*
X97291736Y-41599425D02*
X114901738Y-41599424D01*
X114901738Y-41599424D02*
X117401737Y-39099424D01*
X135201737Y-39099424D02*
X136901737Y-37399425D01*
X117401737Y-39099424D02*
X135201737Y-39099424D01*
D19*
%TO.N,R1C4*%
X151626739Y-38874425D02*
X154901738Y-42149423D01*
X151626738Y-34599424D02*
X151626739Y-38874425D01*
D20*
X94021738Y-46979424D02*
X94021737Y-47409423D01*
X98901737Y-42099424D02*
X94021738Y-46979424D01*
X98901737Y-42099424D02*
X116901736Y-42099424D01*
X116901736Y-42099424D02*
X118901737Y-40099424D01*
X118901737Y-40099424D02*
X136401739Y-40099425D01*
X138451738Y-42149424D02*
X154901738Y-42149423D01*
X136401739Y-40099425D02*
X138451738Y-42149424D01*
D19*
%TO.N,R2C1*%
X97626739Y-51124425D02*
X100901738Y-54399424D01*
X97626737Y-46849425D02*
X97626739Y-51124425D01*
D20*
X95196737Y-51124424D02*
X94021737Y-49949424D01*
X97626739Y-51124425D02*
X95196737Y-51124424D01*
D19*
%TO.N,R2C2*%
X115626736Y-48744424D02*
X118901738Y-52019424D01*
X115626739Y-44469423D02*
X115626736Y-48744424D01*
D20*
X112821738Y-58099425D02*
X118901738Y-52019424D01*
X99631739Y-58099424D02*
X112821738Y-58099425D01*
X94021737Y-52489425D02*
X99631739Y-58099424D01*
D19*
%TO.N,R2C3*%
X133626737Y-51124424D02*
X136901737Y-54399425D01*
X133626737Y-46849424D02*
X133626737Y-51124424D01*
D20*
X94021738Y-55029423D02*
X97591737Y-58599423D01*
X132701737Y-58599424D02*
X136901737Y-54399425D01*
X97591737Y-58599423D02*
X132701737Y-58599424D01*
D19*
%TO.N,R2C4*%
X151626737Y-55874425D02*
X154901737Y-59149424D01*
X151626739Y-51599424D02*
X151626737Y-55874425D01*
D20*
X154851739Y-59099424D02*
X154901737Y-59149424D01*
X95551737Y-59099423D02*
X154851739Y-59099424D01*
X94021739Y-57569424D02*
X95551737Y-59099423D01*
D19*
%TO.N,VCC*%
X83901738Y-57599424D02*
X83901737Y-45099424D01*
X88915040Y-40086123D02*
X88915038Y-37586123D01*
X83901737Y-45099424D02*
X88915040Y-40086123D01*
%TO.N,Net-(J1-Pad2)*%
X156851739Y-23749424D02*
X157601739Y-24499424D01*
X156851739Y-23229424D02*
X156851739Y-23749424D01*
X92941736Y-24599424D02*
X89441736Y-21099424D01*
X112401736Y-24599424D02*
X92941736Y-24599424D01*
X116401736Y-20599424D02*
X112401736Y-24599424D01*
X133901736Y-20599424D02*
X116401736Y-20599424D01*
X135901736Y-22599424D02*
X133901736Y-20599424D01*
X151402374Y-22599424D02*
X135901736Y-22599424D01*
X153902374Y-25099424D02*
X151402374Y-22599424D01*
X157001739Y-25099424D02*
X153902374Y-25099424D01*
X157601739Y-24499424D02*
X157001739Y-25099424D01*
%TO.N,Net-(J1-Pad1)*%
X159851737Y-23229423D02*
X159851737Y-24579443D01*
X158931756Y-25499424D02*
X159851737Y-24579443D01*
X91401736Y-25599424D02*
X112531756Y-25599424D01*
X86901736Y-21099424D02*
X91401736Y-25599424D01*
X112531756Y-25599424D02*
X116531756Y-21599424D01*
X116531756Y-21599424D02*
X133401736Y-21599424D01*
X133401736Y-21599424D02*
X135401736Y-23599424D01*
X135401736Y-23599424D02*
X150901736Y-23599424D01*
X150901736Y-23599424D02*
X153401736Y-26099424D01*
X158331756Y-26099424D02*
X158931756Y-25499424D01*
X153401736Y-26099424D02*
X158331756Y-26099424D01*
D20*
%TO.N,SDA*%
X81081736Y-42089426D02*
X78781739Y-39789424D01*
X81081738Y-59499423D02*
X81081736Y-42089426D01*
X80231740Y-61929427D02*
X80231740Y-60349423D01*
X86711739Y-39789424D02*
X87401739Y-39099424D01*
X81401737Y-63099424D02*
X80231740Y-61929427D01*
X78781739Y-39789424D02*
X86711739Y-39789424D01*
X80231740Y-60349423D02*
X81081738Y-59499423D01*
X88121738Y-63099424D02*
X81401737Y-63099424D01*
X89721739Y-61499424D02*
X88121738Y-63099424D01*
%TO.N,SCL*%
X83621736Y-59499426D02*
X85021737Y-58099424D01*
X85021737Y-58099424D02*
X87401739Y-58099424D01*
X87401738Y-61279425D02*
X87181736Y-61499424D01*
X87401739Y-58099424D02*
X87401738Y-61279425D01*
X87401739Y-58099424D02*
X87401737Y-46149424D01*
X89426738Y-44124425D02*
X92221739Y-41329423D01*
X87401737Y-46149424D02*
X89426738Y-44124425D01*
%TO.N,R2C4*%
X94001735Y-58399425D02*
X94001736Y-58399424D01*
%TO.N,RST*%
X94001736Y-59699426D02*
X94001735Y-59699425D01*
X94001735Y-59699427D02*
X94001736Y-59699426D01*
X94001735Y-61199425D02*
X94001735Y-59699427D01*
%TD*%
M02*
