<?xml version="1.0" standalone="no"?>
 <!DOCTYPE svg PUBLIC "-//W3C//DTD SVG 1.1//EN" 
 "http://www.w3.org/Graphics/SVG/1.1/DTD/svg11.dtd"> 
<svg
  xmlns:svg="http://www.w3.org/2000/svg"
  xmlns="http://www.w3.org/2000/svg"
  xmlns:xlink="http://www.w3.org/1999/xlink"
  version="1.1"
  width="10.002520cm" height="5.196840cm" viewBox="0 0 39380 20460">
<title>SVG Picture created as small-paintbrush-hotswap-mxplate-brd.svg date 2021/09/15 13:04:07 </title>
  <desc>Picture generated by PCBNEW </desc>
<g style="fill:#000000; fill-opacity:1;stroke:#000000; stroke-opacity:1;
stroke-linecap:round; stroke-linejoin:round;"
 transform="translate(0 0) scale(1 1)">
</g>
<g style="fill:#000000; fill-opacity:0.0; 
stroke:#000000; stroke-width:-0.000393701; stroke-opacity:1; 
stroke-linecap:round; stroke-linejoin:round;">
</g>
<g style="fill:#C22D42; fill-opacity:0.0; 
stroke:#C22D42; stroke-width:-0.000393701; stroke-opacity:1; 
stroke-linecap:round; stroke-linejoin:round;">
</g>
<g style="fill:#C22D42; fill-opacity:0.0; 
stroke:#C22D42; stroke-width:19.685; stroke-opacity:1; 
stroke-linecap:round; stroke-linejoin:round;">
<path d="M2765 14550
L9 14550
" />
<path d="M2765 16321
L2765 14550
" />
<path d="M7490 16321
L2765 16321
" />
<path d="M7490 14550
L7490 16321
" />
<path d="M8671 14550
L7490 14550
" />
<path d="M5127.95 17463.6 A196.85 196.85 0.0 0 0 5127.95 17069.9" />
<path d="M4734.25 17069.9 A196.85 196.85 0.0 0 0 4734.25 17463.6" />
<path d="M5127 17069
L4734 17069
" />
<path d="M4734 17463
L5127 17463
" />
<path d="M9 19274
L9 14550
" />
<path d="M13001 770
L8671 770
" />
<path d="M8671 14550
L8671 770
" />
<path d="M39379 1951
L39379 19274
" />
<path d="M38198 20455
L1190 20455
" />
<path d="M13001 770
L38198 770
" />
<path d="M38198.8 20455.7 A1181.1 1181.1 0.0 0 0 39379.9 19274.6" />
<path d="M39379.9 1951.77 A1181.1 1181.1 0.0 0 0 38198.8 770.669" />
<path d="M9.84291 19274.6 A1181.1 1181.1 0.0 0 0 1190.95 20455.7" />
<path d="M32687 18585
L32687 13467
" />
<path d="M38001 18782
L32883 18782
" />
<path d="M38198 13467
L38198 18585
" />
<path d="M32883 13270
L38001 13270
" />
<path d="M32883.9 13270.7 A196.85 196.85 0.0 0 0 32687 13467.5" />
<path d="M32687 18585.6 A196.85 196.85 0.0 0 0 32883.9 18782.5" />
<path d="M38002 18782.5 A196.85 196.85 0.0 0 0 38198.8 18585.6" />
<path d="M38198.8 13467.5 A196.85 196.85 0.0 0 0 38002 13270.7" />
<path d="M32687 11105
L32687 5987
" />
<path d="M38001 11302
L32883 11302
" />
<path d="M38198 5987
L38198 11105
" />
<path d="M32883 5790
L38001 5790
" />
<path d="M32883.9 5790.35 A196.85 196.85 0.0 0 0 32687 5987.2" />
<path d="M32687 11105.3 A196.85 196.85 0.0 0 0 32883.9 11302.2" />
<path d="M38002 11302.2 A196.85 196.85 0.0 0 0 38198.8 11105.3" />
<path d="M38198.8 5987.2 A196.85 196.85 0.0 0 0 38002 5790.35" />
<path d="M25206 16715
L25206 11597
" />
<path d="M30521 16912
L25403 16912
" />
<path d="M30718 11597
L30718 16715
" />
<path d="M25403 11400
L30521 11400
" />
<path d="M25403.5 11400.6 A196.85 196.85 0.0 0 0 25206.7 11597.4" />
<path d="M25206.7 16715.6 A196.85 196.85 0.0 0 0 25403.5 16912.4" />
<path d="M30521.7 16912.4 A196.85 196.85 0.0 0 0 30718.5 16715.6" />
<path d="M30718.5 11597.4 A196.85 196.85 0.0 0 0 30521.7 11400.6" />
<path d="M10246 9235
L10246 4117
" />
<path d="M15561 9432
L10442 9432
" />
<path d="M15757 4117
L15757 9235
" />
<path d="M10442 3920
L15561 3920
" />
<path d="M10442.9 3920.28 A196.85 196.85 0.0 0 0 10246.1 4117.13" />
<path d="M10246.1 9235.24 A196.85 196.85 0.0 0 0 10442.9 9432.09" />
<path d="M15561 9432.09 A196.85 196.85 0.0 0 0 15757.9 9235.24" />
<path d="M15757.9 4117.13 A196.85 196.85 0.0 0 0 15561 3920.28" />
<path d="M10246 16715
L10246 11597
" />
<path d="M15561 16912
L10442 16912
" />
<path d="M15757 11597
L15757 16715
" />
<path d="M10442 11400
L15561 11400
" />
<path d="M10442.9 11400.6 A196.85 196.85 0.0 0 0 10246.1 11597.4" />
<path d="M10246.1 16715.6 A196.85 196.85 0.0 0 0 10442.9 16912.4" />
<path d="M15561 16912.4 A196.85 196.85 0.0 0 0 15757.9 16715.6" />
<path d="M15757.9 11597.4 A196.85 196.85 0.0 0 0 15561 11400.6" />
<path d="M17726 15778
L17726 10660
" />
<path d="M23041 15975
L17923 15975
" />
<path d="M23238 10660
L23238 15778
" />
<path d="M17923 10463
L23041 10463
" />
<path d="M17923.2 10463.6 A196.85 196.85 0.0 0 0 17726.4 10660.4" />
<path d="M17726.4 15778.5 A196.85 196.85 0.0 0 0 17923.2 15975.4" />
<path d="M23041.3 15975.4 A196.85 196.85 0.0 0 0 23238.2 15778.5" />
<path d="M23238.2 10660.4 A196.85 196.85 0.0 0 0 23041.3 10463.6" />
<path d="M25206 9235
L25206 4117
" />
<path d="M30521 9432
L25403 9432
" />
<path d="M30718 4117
L30718 9235
" />
<path d="M25403 3920
L30521 3920
" />
<path d="M25403.5 3920.28 A196.85 196.85 0.0 0 0 25206.7 4117.13" />
<path d="M25206.7 9235.24 A196.85 196.85 0.0 0 0 25403.5 9432.09" />
<path d="M30521.7 9432.09 A196.85 196.85 0.0 0 0 30718.5 9235.24" />
<path d="M30718.5 4117.13 A196.85 196.85 0.0 0 0 30521.7 3920.28" />
<path d="M17726 8298
L17726 3180
" />
<path d="M23041 8495
L17923 8495
" />
<path d="M23238 3180
L23238 8298
" />
<path d="M17923 2983
L23041 2983
" />
<path d="M17923.2 2983.27 A196.85 196.85 0.0 0 0 17726.4 3180.12" />
<path d="M17726.4 8298.23 A196.85 196.85 0.0 0 0 17923.2 8495.08" />
<path d="M23041.3 8495.08 A196.85 196.85 0.0 0 0 23238.2 8298.23" />
<path d="M23238.2 3180.12 A196.85 196.85 0.0 0 0 23041.3 2983.27" />
<g >
</g>
<g >
</g>
<g >
</g>
<g >
</g>
<g >
</g>
<g >
</g>
<g >
</g>
<g >
</g>
<g >
</g>
<g >
</g>
</g> 
</svg>
