<?xml version="1.0" standalone="no"?>
 <!DOCTYPE svg PUBLIC "-//W3C//DTD SVG 1.1//EN" 
 "http://www.w3.org/Graphics/SVG/1.1/DTD/svg11.dtd"> 
<svg
  xmlns:svg="http://www.w3.org/2000/svg"
  xmlns="http://www.w3.org/2000/svg"
  xmlns:xlink="http://www.w3.org/1999/xlink"
  version="1.1"
  width="10.447020cm" height="5.387340cm" viewBox="0 0 41130 21210">
<title>SVG Picture created as small-paintbrush-hotswap-bottom-brd.svg date 2021/09/01 18:35:13 </title>
  <desc>Picture generated by PCBNEW </desc>
<g style="fill:#000000; fill-opacity:1;stroke:#000000; stroke-opacity:1;
stroke-linecap:round; stroke-linejoin:round;"
 transform="translate(0 0) scale(1 1)">
</g>
<g style="fill:#000000; fill-opacity:0.0; 
stroke:#000000; stroke-width:-0.000393701; stroke-opacity:1; 
stroke-linecap:round; stroke-linejoin:round;">
</g>
<g style="fill:#008400; fill-opacity:0.0; 
stroke:#008400; stroke-width:-0.000393701; stroke-opacity:1; 
stroke-linecap:round; stroke-linejoin:round;">
</g>
<g style="fill:#008400; fill-opacity:0.0; 
stroke:#008400; stroke-width:59.0551; stroke-opacity:1; 
stroke-linecap:round; stroke-linejoin:round;">
<circle cx="11794.3" cy="1558.07" r="433.071" /> 
<circle cx="31085.6" cy="1558.07" r="433.071" /> 
<circle cx="31085.6" cy="18880.9" r="433.071" /> 
<circle cx="11794.3" cy="18880.9" r="433.071" /> 
<g >
</g>
<g >
</g>
<g >
</g>
<g >
</g>
<g >
</g>
</g>
<g style="fill:#000000; fill-opacity:0.0; 
stroke:#000000; stroke-width:59.0551; stroke-opacity:1; 
stroke-linecap:round; stroke-linejoin:round;">
</g>
<g style="fill:#C22D42; fill-opacity:0.0; 
stroke:#C22D42; stroke-width:59.0551; stroke-opacity:1; 
stroke-linecap:round; stroke-linejoin:round;">
</g>
<g style="fill:#C22D42; fill-opacity:0.0; 
stroke:#C22D42; stroke-width:19.685; stroke-opacity:1; 
stroke-linecap:round; stroke-linejoin:round;">
<path d="M1754 18880
L1754 1558
" />
<path d="M1754.92 18880.9 A1181.1 1181.1 0.0 0 0 2936.02 20062" />
<path d="M39943.9 20062 A1181.1 1181.1 0.0 0 0 41125 18880.9" />
<path d="M2936.02 376.969 A1181.1 1181.1 0.0 0 0 1754.92 1558.07" />
<path d="M41124 1558
L41124 18880
" />
<path d="M41125 1558.07 A1181.1 1181.1 0.0 0 0 39943.9 376.968" />
<path d="M2936 376
L39943 376
" />
<path d="M39943 20062
L2936 20062
" />
<g >
</g>
<g >
</g>
<g >
</g>
<g >
</g>
<g >
</g>
</g> 
</svg>
