<?xml version="1.0" standalone="no"?>
 <!DOCTYPE svg PUBLIC "-//W3C//DTD SVG 1.1//EN" 
 "http://www.w3.org/Graphics/SVG/1.1/DTD/svg11.dtd"> 
<svg
  xmlns:svg="http://www.w3.org/2000/svg"
  xmlns="http://www.w3.org/2000/svg"
  xmlns:xlink="http://www.w3.org/1999/xlink"
  version="1.1"
  width="10.985500cm" height="5.204460cm" viewBox="0 0 43250 20490">
<title>SVG Picture created as small-paintbrush-hotswap-bottom-brd.svg date 2021/07/22 21:09:41 </title>
  <desc>Picture generated by PCBNEW </desc>
<g style="fill:#000000; fill-opacity:1;stroke:#000000; stroke-opacity:1;
stroke-linecap:round; stroke-linejoin:round;"
 transform="translate(0 0) scale(1 1)">
</g>
<g style="fill:#000000; fill-opacity:0.0; 
stroke:#000000; stroke-width:-0.000393701; stroke-opacity:1; 
stroke-linecap:round; stroke-linejoin:round;">
</g>
<g style="fill:#C22D42; fill-opacity:0.0; 
stroke:#C22D42; stroke-width:-0.000393701; stroke-opacity:1; 
stroke-linecap:round; stroke-linejoin:round;">
</g>
<g style="fill:#C22D42; fill-opacity:0.0; 
stroke:#C22D42; stroke-width:19.685; stroke-opacity:1; 
stroke-linecap:round; stroke-linejoin:round;">
<circle cx="3713.44" cy="18880.9" r="433.071" /> 
<circle cx="39540.2" cy="18880.9" r="433.071" /> 
<circle cx="39540.2" cy="1558.07" r="433.071" /> 
<circle cx="12571.7" cy="1558.07" r="433.071" /> 
<path d="M2532 18880
L2532 1558
" />
<path d="M2532.34 18880.9 A1181.1 1181.1 0.0 0 0 3713.44 20062" />
<path d="M39540.2 20062 A1181.1 1181.1 0.0 0 0 40721.3 18880.9" />
<path d="M3713.44 376.969 A1181.1 1181.1 0.0 0 0 2532.34 1558.07" />
<path d="M40721 1558
L40721 18880
" />
<path d="M40721.3 1558.07 A1181.1 1181.1 0.0 0 0 39540.2 376.968" />
<path d="M3713 376
L39540 376
" />
<path d="M39540 20062
L3713 20062
" />
<g >
</g>
<g >
</g>
<g >
</g>
<g >
</g>
<g >
</g>
</g> 
</svg>
