%TF.GenerationSoftware,KiCad,Pcbnew,(5.1.10)-1*%
%TF.CreationDate,2021-09-06T23:09:44-04:00*%
%TF.ProjectId,small-paintbrush-hotswap-mxplate,736d616c-6c2d-4706-9169-6e7462727573,rev?*%
%TF.SameCoordinates,Original*%
%TF.FileFunction,Profile,NP*%
%FSLAX46Y46*%
G04 Gerber Fmt 4.6, Leading zero omitted, Abs format (unit mm)*
G04 Created by KiCad (PCBNEW (5.1.10)-1) date 2021-09-06 23:09:44*
%MOMM*%
%LPD*%
G01*
G04 APERTURE LIST*
%TA.AperFunction,Profile*%
%ADD10C,0.050000*%
%TD*%
G04 APERTURE END LIST*
D10*
X72901737Y-65599424D02*
X72901737Y-53599424D01*
X105901737Y-18599424D02*
X94901737Y-18599424D01*
X94901737Y-53599424D02*
X72901737Y-53599424D01*
X94901737Y-53599424D02*
X94901737Y-18599424D01*
%TO.C,H1*%
X172901737Y-21599424D02*
X172901737Y-65599424D01*
X169901737Y-68599424D02*
X75901737Y-68599424D01*
X105901737Y-18599424D02*
X169901737Y-18599424D01*
X172901737Y-65599424D02*
G75*
G02*
X169901737Y-68599424I-3000000J0D01*
G01*
X169901737Y-18599424D02*
G75*
G02*
X172901737Y-21599424I0J-3000000D01*
G01*
X75901737Y-68599424D02*
G75*
G02*
X72901737Y-65599424I0J3000000D01*
G01*
%TO.C,H12*%
X155901737Y-63849424D02*
X155901737Y-50849424D01*
X169401737Y-64349424D02*
X156401737Y-64349424D01*
X169901737Y-50849424D02*
X169901737Y-63849424D01*
X156401737Y-50349424D02*
X169401737Y-50349424D01*
X155901737Y-50849424D02*
G75*
G02*
X156401737Y-50349424I500000J0D01*
G01*
X156401737Y-64349424D02*
G75*
G02*
X155901737Y-63849424I0J500000D01*
G01*
X169901737Y-63849424D02*
G75*
G02*
X169401737Y-64349424I-500000J0D01*
G01*
X169401737Y-50349424D02*
G75*
G02*
X169901737Y-50849424I0J-500000D01*
G01*
%TO.C,H11*%
X155901737Y-44849424D02*
X155901737Y-31849424D01*
X169401737Y-45349424D02*
X156401737Y-45349424D01*
X169901737Y-31849424D02*
X169901737Y-44849424D01*
X156401737Y-31349424D02*
X169401737Y-31349424D01*
X155901737Y-31849424D02*
G75*
G02*
X156401737Y-31349424I500000J0D01*
G01*
X156401737Y-45349424D02*
G75*
G02*
X155901737Y-44849424I0J500000D01*
G01*
X169901737Y-44849424D02*
G75*
G02*
X169401737Y-45349424I-500000J0D01*
G01*
X169401737Y-31349424D02*
G75*
G02*
X169901737Y-31849424I0J-500000D01*
G01*
%TO.C,H9*%
X136901737Y-59099424D02*
X136901737Y-46099424D01*
X150401737Y-59599424D02*
X137401737Y-59599424D01*
X150901737Y-46099424D02*
X150901737Y-59099424D01*
X137401737Y-45599424D02*
X150401737Y-45599424D01*
X136901737Y-46099424D02*
G75*
G02*
X137401737Y-45599424I500000J0D01*
G01*
X137401737Y-59599424D02*
G75*
G02*
X136901737Y-59099424I0J500000D01*
G01*
X150901737Y-59099424D02*
G75*
G02*
X150401737Y-59599424I-500000J0D01*
G01*
X150401737Y-45599424D02*
G75*
G02*
X150901737Y-46099424I0J-500000D01*
G01*
%TO.C,H8*%
X98901737Y-40099424D02*
X98901737Y-27099424D01*
X112401737Y-40599424D02*
X99401737Y-40599424D01*
X112901737Y-27099424D02*
X112901737Y-40099424D01*
X99401737Y-26599424D02*
X112401737Y-26599424D01*
X98901737Y-27099424D02*
G75*
G02*
X99401737Y-26599424I500000J0D01*
G01*
X99401737Y-40599424D02*
G75*
G02*
X98901737Y-40099424I0J500000D01*
G01*
X112901737Y-40099424D02*
G75*
G02*
X112401737Y-40599424I-500000J0D01*
G01*
X112401737Y-26599424D02*
G75*
G02*
X112901737Y-27099424I0J-500000D01*
G01*
%TO.C,H6*%
X98901737Y-59099424D02*
X98901737Y-46099424D01*
X112401737Y-59599424D02*
X99401737Y-59599424D01*
X112901737Y-46099424D02*
X112901737Y-59099424D01*
X99401737Y-45599424D02*
X112401737Y-45599424D01*
X98901737Y-46099424D02*
G75*
G02*
X99401737Y-45599424I500000J0D01*
G01*
X99401737Y-59599424D02*
G75*
G02*
X98901737Y-59099424I0J500000D01*
G01*
X112901737Y-59099424D02*
G75*
G02*
X112401737Y-59599424I-500000J0D01*
G01*
X112401737Y-45599424D02*
G75*
G02*
X112901737Y-46099424I0J-500000D01*
G01*
%TO.C,H5*%
X117901737Y-56719424D02*
X117901737Y-43719424D01*
X131401737Y-57219424D02*
X118401737Y-57219424D01*
X131901737Y-43719424D02*
X131901737Y-56719424D01*
X118401737Y-43219424D02*
X131401737Y-43219424D01*
X117901737Y-43719424D02*
G75*
G02*
X118401737Y-43219424I500000J0D01*
G01*
X118401737Y-57219424D02*
G75*
G02*
X117901737Y-56719424I0J500000D01*
G01*
X131901737Y-56719424D02*
G75*
G02*
X131401737Y-57219424I-500000J0D01*
G01*
X131401737Y-43219424D02*
G75*
G02*
X131901737Y-43719424I0J-500000D01*
G01*
%TO.C,H3*%
X136901737Y-40099424D02*
X136901737Y-27099424D01*
X150401737Y-40599424D02*
X137401737Y-40599424D01*
X150901737Y-27099424D02*
X150901737Y-40099424D01*
X137401737Y-26599424D02*
X150401737Y-26599424D01*
X136901737Y-27099424D02*
G75*
G02*
X137401737Y-26599424I500000J0D01*
G01*
X137401737Y-40599424D02*
G75*
G02*
X136901737Y-40099424I0J500000D01*
G01*
X150901737Y-40099424D02*
G75*
G02*
X150401737Y-40599424I-500000J0D01*
G01*
X150401737Y-26599424D02*
G75*
G02*
X150901737Y-27099424I0J-500000D01*
G01*
%TO.C,H2*%
X117901737Y-37719424D02*
X117901737Y-24719424D01*
X131401737Y-38219424D02*
X118401737Y-38219424D01*
X131901737Y-24719424D02*
X131901737Y-37719424D01*
X118401737Y-24219424D02*
X131401737Y-24219424D01*
X117901737Y-24719424D02*
G75*
G02*
X118401737Y-24219424I500000J0D01*
G01*
X118401737Y-38219424D02*
G75*
G02*
X117901737Y-37719424I0J500000D01*
G01*
X131901737Y-37719424D02*
G75*
G02*
X131401737Y-38219424I-500000J0D01*
G01*
X131401737Y-24219424D02*
G75*
G02*
X131901737Y-24719424I0J-500000D01*
G01*
%TD*%
M02*
