%TF.GenerationSoftware,KiCad,Pcbnew,5.1.10*%
%TF.CreationDate,2021-07-08T20:07:14-05:00*%
%TF.ProjectId,small-paintbrush-hotswap,736d616c-6c2d-4706-9169-6e7462727573,rev?*%
%TF.SameCoordinates,Original*%
%TF.FileFunction,Copper,L1,Top*%
%TF.FilePolarity,Positive*%
%FSLAX46Y46*%
G04 Gerber Fmt 4.6, Leading zero omitted, Abs format (unit mm)*
G04 Created by KiCad (PCBNEW 5.1.10) date 2021-07-08 20:07:14*
%MOMM*%
%LPD*%
G01*
G04 APERTURE LIST*
%TA.AperFunction,ComponentPad*%
%ADD10C,2.032000*%
%TD*%
%TA.AperFunction,SMDPad,CuDef*%
%ADD11R,2.600000X2.600000*%
%TD*%
%TA.AperFunction,ComponentPad*%
%ADD12O,1.700000X1.700000*%
%TD*%
%TA.AperFunction,ComponentPad*%
%ADD13R,1.700000X1.700000*%
%TD*%
%TA.AperFunction,SMDPad,CuDef*%
%ADD14R,0.900000X1.700000*%
%TD*%
%TA.AperFunction,SMDPad,CuDef*%
%ADD15R,1.000000X0.800000*%
%TD*%
%TA.AperFunction,SMDPad,CuDef*%
%ADD16R,0.700000X1.500000*%
%TD*%
%TA.AperFunction,ComponentPad*%
%ADD17C,1.752600*%
%TD*%
%TA.AperFunction,ComponentPad*%
%ADD18R,1.752600X1.752600*%
%TD*%
%TA.AperFunction,ViaPad*%
%ADD19C,0.800000*%
%TD*%
%TA.AperFunction,Conductor*%
%ADD20C,0.508000*%
%TD*%
%TA.AperFunction,Conductor*%
%ADD21C,0.254000*%
%TD*%
%TA.AperFunction,Conductor*%
%ADD22C,0.250000*%
%TD*%
G04 APERTURE END LIST*
D10*
%TO.P,KEY2,2*%
%TO.N,R1C2*%
X118901737Y-35019424D03*
X128901737Y-35019424D03*
D11*
X115626737Y-27469424D03*
D10*
%TO.P,KEY2,1*%
%TO.N,GND*%
X123901737Y-37119424D03*
D11*
X127176737Y-25269424D03*
%TD*%
D10*
%TO.P,KEY3,2*%
%TO.N,R1C3*%
X136901739Y-37399426D03*
X146901739Y-37399426D03*
D11*
X133626739Y-29849426D03*
D10*
%TO.P,KEY3,1*%
%TO.N,GND*%
X141901739Y-39499426D03*
D11*
X145176739Y-27649426D03*
%TD*%
D10*
%TO.P,KEY4,2*%
%TO.N,R1C4*%
X154901737Y-42149424D03*
X164901737Y-42149424D03*
D11*
X151626737Y-34599424D03*
D10*
%TO.P,KEY4,1*%
%TO.N,GND*%
X159901737Y-44249424D03*
D11*
X163176737Y-32399424D03*
%TD*%
D10*
%TO.P,KEY6,2*%
%TO.N,R2C2*%
X118901739Y-52019424D03*
X128901739Y-52019424D03*
D11*
X115626739Y-44469424D03*
D10*
%TO.P,KEY6,1*%
%TO.N,GND*%
X123901739Y-54119424D03*
D11*
X127176739Y-42269424D03*
%TD*%
D10*
%TO.P,KEY7,2*%
%TO.N,R2C3*%
X136901739Y-54399426D03*
X146901739Y-54399426D03*
D11*
X133626739Y-46849426D03*
D10*
%TO.P,KEY7,1*%
%TO.N,GND*%
X141901739Y-56499426D03*
D11*
X145176739Y-44649426D03*
%TD*%
D10*
%TO.P,KEY8,2*%
%TO.N,R2C4*%
X154901739Y-59149423D03*
X164901739Y-59149423D03*
D11*
X151626739Y-51599423D03*
D10*
%TO.P,KEY8,1*%
%TO.N,GND*%
X159901739Y-61249423D03*
D11*
X163176739Y-49399423D03*
%TD*%
D10*
%TO.P,KEY1,2*%
%TO.N,R1C1*%
X100901737Y-37399424D03*
X110901737Y-37399424D03*
D11*
X97626737Y-29849424D03*
D10*
%TO.P,KEY1,1*%
%TO.N,GND*%
X105901737Y-39499424D03*
D11*
X109176737Y-27649424D03*
%TD*%
D10*
%TO.P,KEY5,2*%
%TO.N,R2C1*%
X100901736Y-54399424D03*
X110901736Y-54399424D03*
D11*
X97626736Y-46849424D03*
D10*
%TO.P,KEY5,1*%
%TO.N,GND*%
X105901736Y-56499424D03*
D11*
X109176736Y-44649424D03*
%TD*%
D12*
%TO.P,J1,2*%
%TO.N,Net-(J1-Pad2)*%
X105941736Y-20599424D03*
D13*
%TO.P,J1,1*%
%TO.N,Net-(J1-Pad1)*%
X103401736Y-20599424D03*
%TD*%
D14*
%TO.P,PUSH2,2*%
%TO.N,GND*%
X83201736Y-59349424D03*
%TO.P,PUSH2,1*%
%TO.N,RST*%
X86601736Y-59349424D03*
%TD*%
D15*
%TO.P,SW2,*%
%TO.N,*%
X163051737Y-22879425D03*
X155751737Y-22879425D03*
X155751737Y-20669425D03*
X163051737Y-20669425D03*
D16*
%TO.P,SW2,3*%
%TO.N,Net-(SW2-Pad3)*%
X157151737Y-23529425D03*
%TO.P,SW2,2*%
%TO.N,Net-(J1-Pad2)*%
X158651737Y-23529425D03*
%TO.P,SW2,1*%
%TO.N,Net-(J1-Pad1)*%
X161651737Y-23529425D03*
%TD*%
D12*
%TO.P,J2,4*%
%TO.N,SDA*%
X81081737Y-52249424D03*
%TO.P,J2,3*%
%TO.N,SCL*%
X83621737Y-52249424D03*
%TO.P,J2,2*%
%TO.N,VCC*%
X86161737Y-52249424D03*
D13*
%TO.P,J2,1*%
%TO.N,GND*%
X88701737Y-52249424D03*
%TD*%
D17*
%TO.P,U1,24*%
%TO.N,Net-(U1-Pad24)*%
X94021737Y-22379424D03*
%TO.P,U1,12*%
%TO.N,Net-(U1-Pad12)*%
X78781737Y-50319424D03*
%TO.P,U1,23*%
%TO.N,GND*%
X94021737Y-24919424D03*
%TO.P,U1,22*%
%TO.N,RST*%
X94021737Y-27459424D03*
%TO.P,U1,21*%
%TO.N,VCC*%
X94021737Y-29999424D03*
%TO.P,U1,20*%
%TO.N,R1C1*%
X94021737Y-32539424D03*
%TO.P,U1,19*%
%TO.N,R1C2*%
X94021737Y-35079424D03*
%TO.P,U1,18*%
%TO.N,R1C3*%
X94021737Y-37619424D03*
%TO.P,U1,17*%
%TO.N,R1C4*%
X94021737Y-40159424D03*
%TO.P,U1,16*%
%TO.N,R2C1*%
X94021737Y-42699424D03*
%TO.P,U1,15*%
%TO.N,R2C2*%
X94021737Y-45239424D03*
%TO.P,U1,14*%
%TO.N,R2C3*%
X94021737Y-47779424D03*
%TO.P,U1,13*%
%TO.N,R2C4*%
X94021737Y-50319424D03*
%TO.P,U1,11*%
%TO.N,Net-(U1-Pad11)*%
X78781737Y-47779424D03*
%TO.P,U1,10*%
%TO.N,Net-(U1-Pad10)*%
X78781737Y-45239424D03*
%TO.P,U1,9*%
%TO.N,Net-(U1-Pad9)*%
X78781737Y-42699424D03*
%TO.P,U1,8*%
%TO.N,Net-(U1-Pad8)*%
X78781737Y-40159424D03*
%TO.P,U1,7*%
%TO.N,Net-(U1-Pad7)*%
X78781737Y-37619424D03*
%TO.P,U1,6*%
%TO.N,SCL*%
X78781737Y-35079424D03*
%TO.P,U1,5*%
%TO.N,SDA*%
X78781737Y-32539424D03*
%TO.P,U1,4*%
%TO.N,GND*%
X78781737Y-29999424D03*
%TO.P,U1,3*%
X78781737Y-27459424D03*
%TO.P,U1,2*%
%TO.N,Net-(U1-Pad2)*%
X78781737Y-24919424D03*
D18*
%TO.P,U1,1*%
%TO.N,Net-(U1-Pad1)*%
X78781737Y-22379424D03*
%TD*%
D12*
%TO.P,J3,4*%
%TO.N,SDA*%
X89721739Y-54249424D03*
%TO.P,J3,3*%
%TO.N,SCL*%
X87181739Y-54249424D03*
%TO.P,J3,2*%
%TO.N,VCC*%
X84641739Y-54249424D03*
D13*
%TO.P,J3,1*%
%TO.N,GND*%
X82101739Y-54249424D03*
%TD*%
D17*
%TO.P,U2,24*%
%TO.N,Net-(U2-Pad24)*%
X76781736Y-22379424D03*
%TO.P,U2,12*%
%TO.N,Net-(U2-Pad12)*%
X92021736Y-50319424D03*
%TO.P,U2,23*%
%TO.N,GND*%
X76781736Y-24919424D03*
%TO.P,U2,22*%
%TO.N,RST*%
X76781736Y-27459424D03*
%TO.P,U2,21*%
%TO.N,VCC*%
X76781736Y-29999424D03*
%TO.P,U2,20*%
%TO.N,R1C1*%
X76781736Y-32539424D03*
%TO.P,U2,19*%
%TO.N,R1C2*%
X76781736Y-35079424D03*
%TO.P,U2,18*%
%TO.N,R1C3*%
X76781736Y-37619424D03*
%TO.P,U2,17*%
%TO.N,R1C4*%
X76781736Y-40159424D03*
%TO.P,U2,16*%
%TO.N,R2C1*%
X76781736Y-42699424D03*
%TO.P,U2,15*%
%TO.N,R2C2*%
X76781736Y-45239424D03*
%TO.P,U2,14*%
%TO.N,R2C3*%
X76781736Y-47779424D03*
%TO.P,U2,13*%
%TO.N,R2C4*%
X76781736Y-50319424D03*
%TO.P,U2,11*%
%TO.N,Net-(U2-Pad11)*%
X92021736Y-47779424D03*
%TO.P,U2,10*%
%TO.N,Net-(U2-Pad10)*%
X92021736Y-45239424D03*
%TO.P,U2,9*%
%TO.N,Net-(U2-Pad9)*%
X92021736Y-42699424D03*
%TO.P,U2,8*%
%TO.N,Net-(U2-Pad8)*%
X92021736Y-40159424D03*
%TO.P,U2,7*%
%TO.N,Net-(U2-Pad7)*%
X92021736Y-37619424D03*
%TO.P,U2,6*%
%TO.N,SCL*%
X92021736Y-35079424D03*
%TO.P,U2,5*%
%TO.N,SDA*%
X92021736Y-32539424D03*
%TO.P,U2,4*%
%TO.N,GND*%
X92021736Y-29999424D03*
%TO.P,U2,3*%
X92021736Y-27459424D03*
%TO.P,U2,2*%
%TO.N,Net-(U2-Pad2)*%
X92021736Y-24919424D03*
D18*
%TO.P,U2,1*%
%TO.N,Net-(U2-Pad1)*%
X92021736Y-22379424D03*
%TD*%
D19*
%TO.N,GND*%
X159901739Y-34849425D03*
X123901738Y-44719424D03*
X83201736Y-57749424D03*
X105901739Y-30099426D03*
X105901739Y-47099426D03*
X159901738Y-51849425D03*
X123901737Y-27719424D03*
X141901739Y-30099424D03*
X141901739Y-47099424D03*
%TO.N,VCC*%
X83901738Y-50349424D03*
X90151736Y-28849424D03*
%TO.N,Net-(J1-Pad2)*%
X159401739Y-24799424D03*
%TO.N,Net-(J1-Pad1)*%
X161651737Y-24879443D03*
%TO.N,SDA*%
X81091736Y-32539424D03*
%TO.N,SCL*%
X87401736Y-35099424D03*
%TO.N,RST*%
X93301736Y-54649424D03*
X88701736Y-59349424D03*
%TD*%
D20*
%TO.N,GND*%
X141901739Y-30099424D02*
X142726736Y-30099424D01*
X142726736Y-30099424D02*
X145176737Y-27649424D01*
X108401737Y-53999423D02*
X108401737Y-45424425D01*
X160726738Y-51849424D02*
X163176738Y-49399424D01*
X113901736Y-25599424D02*
X115901738Y-25599424D01*
X160876739Y-30099426D02*
X163176739Y-32399424D01*
X108401737Y-45424425D02*
X109176739Y-44649424D01*
X109176737Y-27649424D02*
X106726735Y-30099426D01*
D21*
X163176737Y-32399424D02*
X163176737Y-31424423D01*
D20*
X132901737Y-22599424D02*
X134901738Y-24599424D01*
X124726739Y-27719425D02*
X127176739Y-25269423D01*
X105901738Y-56499424D02*
X108401737Y-53999423D01*
X106726739Y-47099424D02*
X109176739Y-44649424D01*
X118901737Y-22599425D02*
X126901737Y-22599424D01*
X107401739Y-30099423D02*
X105901739Y-30099426D01*
X127176737Y-22874425D02*
X126901737Y-22599424D01*
X148401736Y-24599424D02*
X153901738Y-30099426D01*
X163176739Y-32399424D02*
X160726739Y-34849424D01*
X109176737Y-27649424D02*
X111851736Y-27649424D01*
X127176739Y-25269423D02*
X127176737Y-22874425D01*
X145176737Y-24874424D02*
X144901739Y-24599424D01*
X108901739Y-31599424D02*
X107401739Y-30099423D01*
D21*
X83201736Y-57749424D02*
X83201736Y-59349424D01*
D20*
X123901737Y-27719424D02*
X124726739Y-27719425D01*
X105901739Y-30099426D02*
X106726737Y-30099426D01*
X108901737Y-36499424D02*
X108901739Y-31599424D01*
X104901738Y-30099426D02*
X105901739Y-30099426D01*
X102471736Y-27669424D02*
X104901738Y-30099426D01*
X126901737Y-22599424D02*
X132901737Y-22599424D01*
X153901738Y-30099426D02*
X160876739Y-30099426D01*
X141901739Y-47099424D02*
X142726739Y-47099423D01*
X105901739Y-47099426D02*
X106726739Y-47099424D01*
X134901738Y-24599424D02*
X144901739Y-24599424D01*
X78781738Y-29999425D02*
X78781739Y-27459423D01*
X123901738Y-44719424D02*
X124726739Y-44719425D01*
X105901739Y-39499424D02*
X108901737Y-36499424D01*
X159901738Y-51849425D02*
X160726738Y-51849424D01*
X78781739Y-27459423D02*
X80511737Y-27459424D01*
X111851736Y-27649424D02*
X113901736Y-25599424D01*
X142726739Y-47099423D02*
X145176739Y-44649424D01*
X145176737Y-27649424D02*
X145176737Y-24874424D01*
X115901738Y-25599424D02*
X118901737Y-22599425D01*
X144901739Y-24599424D02*
X148401736Y-24599424D01*
X160726739Y-34849424D02*
X159901739Y-34849425D01*
X106726735Y-30099426D02*
X105901739Y-30099426D01*
X124726739Y-44719425D02*
X127176737Y-42269424D01*
X99721736Y-24919424D02*
X102471736Y-27669424D01*
X94021737Y-24919424D02*
X99721736Y-24919424D01*
X80511737Y-27459424D02*
X92021736Y-27459424D01*
X92021736Y-26919427D02*
X94021739Y-24919424D01*
X92021736Y-27459424D02*
X92021736Y-26919427D01*
X92021736Y-27459424D02*
X92021736Y-29999424D01*
D22*
X76781736Y-25459423D02*
X76781736Y-24919424D01*
X78781737Y-27459424D02*
X76781736Y-25459423D01*
D20*
%TO.N,R1C1*%
X97626738Y-34124424D02*
X100901739Y-37399423D01*
X97626737Y-29849425D02*
X97626738Y-34124424D01*
D21*
X97626738Y-32539424D02*
X97626738Y-34124424D01*
X94021737Y-32539424D02*
X97626738Y-32539424D01*
D20*
%TO.N,R1C2*%
X115626739Y-27469423D02*
X115626737Y-31744424D01*
X115626737Y-31744424D02*
X118901739Y-35019424D01*
D21*
X100041738Y-41099425D02*
X94021737Y-35079424D01*
X112821739Y-41099425D02*
X100041738Y-41099425D01*
X118901739Y-35019424D02*
X112821739Y-41099425D01*
D20*
%TO.N,R1C3*%
X133626737Y-29849424D02*
X133626739Y-34124423D01*
X133626739Y-34124423D02*
X136901737Y-37399425D01*
D21*
X114901737Y-41599424D02*
X99651736Y-41599424D01*
X117401737Y-39099424D02*
X114901737Y-41599424D01*
X135201737Y-39099424D02*
X117401737Y-39099424D01*
X136901737Y-37399425D02*
X135201737Y-39099424D01*
D22*
X98001737Y-41599424D02*
X94021737Y-37619424D01*
X99651736Y-41599424D02*
X98001737Y-41599424D01*
D20*
%TO.N,R1C4*%
X151626739Y-38874425D02*
X154901738Y-42149423D01*
D21*
X94021738Y-39729424D02*
X94021737Y-40159423D01*
X136401739Y-40099425D02*
X118901737Y-40099424D01*
X118901737Y-40099424D02*
X116901736Y-42099424D01*
D20*
X151626738Y-34599424D02*
X151626739Y-38874425D01*
D21*
X154901738Y-42149423D02*
X138451738Y-42149424D01*
X138451738Y-42149424D02*
X136401739Y-40099425D01*
D22*
X95961737Y-42099424D02*
X116901736Y-42099424D01*
X94021737Y-40159424D02*
X95961737Y-42099424D01*
D20*
%TO.N,R2C1*%
X97626737Y-46849425D02*
X97626739Y-51124425D01*
X97626739Y-51124425D02*
X100901738Y-54399424D01*
D21*
X97626736Y-46304423D02*
X97626736Y-46849424D01*
X94021737Y-42699424D02*
X97626736Y-46304423D01*
D20*
%TO.N,R2C2*%
X115626736Y-48744424D02*
X118901738Y-52019424D01*
X115626739Y-44469423D02*
X115626736Y-48744424D01*
D22*
X95651736Y-48599424D02*
X96651736Y-49599424D01*
X95651736Y-46869423D02*
X95651736Y-48599424D01*
X94021737Y-45239424D02*
X95651736Y-46869423D01*
D21*
X96651736Y-54267354D02*
X96651736Y-49599424D01*
X100483807Y-58099425D02*
X96651736Y-54267354D01*
X112821738Y-58099425D02*
X100483807Y-58099425D01*
X118901738Y-52019424D02*
X112821738Y-58099425D01*
D20*
%TO.N,R2C3*%
X133626737Y-46849424D02*
X133626737Y-51124424D01*
X133626737Y-51124424D02*
X136901737Y-54399425D01*
D21*
X132701737Y-58599424D02*
X136901737Y-54399425D01*
X100341738Y-58599424D02*
X132701737Y-58599424D01*
X95401736Y-53659422D02*
X100341738Y-58599424D01*
X95401736Y-49159423D02*
X95401736Y-53659422D01*
X94021737Y-47779424D02*
X95401736Y-49159423D01*
D20*
%TO.N,R2C4*%
X151626737Y-55874425D02*
X154901737Y-59149424D01*
D21*
X154851739Y-59099424D02*
X154901737Y-59149424D01*
X94001735Y-51149425D02*
X94001736Y-51149424D01*
D20*
X151626739Y-51599424D02*
X151626737Y-55874425D01*
D21*
X94021737Y-53219425D02*
X94021737Y-50319424D01*
X99951735Y-59149423D02*
X94021737Y-53219425D01*
X154901739Y-59149423D02*
X99951735Y-59149423D01*
D20*
%TO.N,VCC*%
X83901738Y-35099422D02*
X90151736Y-28849424D01*
X83901738Y-50349424D02*
X83901738Y-35099422D01*
%TO.N,Net-(J1-Pad2)*%
X158801739Y-25399424D02*
X152202374Y-25399424D01*
X149402374Y-22599424D02*
X135901736Y-22599424D01*
X158651739Y-24049424D02*
X159401739Y-24799424D01*
X158651739Y-23529424D02*
X158651739Y-24049424D01*
X152202374Y-25399424D02*
X149402374Y-22599424D01*
X135901736Y-22599424D02*
X133901736Y-20599424D01*
X159401739Y-24799424D02*
X158801739Y-25399424D01*
X133901736Y-20599424D02*
X105941736Y-20599424D01*
%TO.N,Net-(J1-Pad1)*%
X160731756Y-25799424D02*
X161651737Y-24879443D01*
X160131756Y-26399424D02*
X161651737Y-24879443D01*
X135401736Y-23599424D02*
X148901736Y-23599424D01*
X116531756Y-21599424D02*
X133401736Y-21599424D01*
X161651737Y-23529423D02*
X161651737Y-24879443D01*
X148901736Y-23599424D02*
X151701736Y-26399424D01*
X133401736Y-21599424D02*
X135401736Y-23599424D01*
X103401736Y-20599424D02*
X105901736Y-23099424D01*
X105901736Y-23099424D02*
X115031756Y-23099424D01*
X115031756Y-23099424D02*
X116531756Y-21599424D01*
X151701736Y-26399424D02*
X160131756Y-26399424D01*
D21*
%TO.N,SDA*%
X81401737Y-55849424D02*
X80231740Y-54679427D01*
X80231740Y-54679427D02*
X80231740Y-53099423D01*
X89721739Y-54249424D02*
X88121738Y-55849424D01*
X88121738Y-55849424D02*
X81401737Y-55849424D01*
X80231740Y-53099423D02*
X81081738Y-52249423D01*
D22*
X81081737Y-32549423D02*
X81091736Y-32539424D01*
X81081737Y-52249424D02*
X81081737Y-32549423D01*
X78781737Y-32539424D02*
X81091736Y-32539424D01*
D21*
%TO.N,SCL*%
X87401738Y-54029425D02*
X87181736Y-54249424D01*
X85021737Y-50849424D02*
X87401739Y-50849424D01*
X83621736Y-52249426D02*
X85021737Y-50849424D01*
X87401739Y-50849424D02*
X87401738Y-54029425D01*
X87401739Y-35099427D02*
X87401736Y-35099424D01*
X87401739Y-50849424D02*
X87401739Y-35099427D01*
X92021736Y-35079424D02*
X87421736Y-35079424D01*
X87421736Y-35079424D02*
X87401736Y-35099424D01*
D22*
%TO.N,RST*%
X86601736Y-59349424D02*
X88701736Y-59349424D01*
X88701736Y-59349424D02*
X93301736Y-54749424D01*
X93301736Y-54749424D02*
X93301736Y-54649424D01*
%TD*%
M02*
