%TF.GenerationSoftware,KiCad,Pcbnew,(5.1.10)-1*%
%TF.CreationDate,2021-09-16T21:08:08-04:00*%
%TF.ProjectId,small-paintbrush-hotswap,736d616c-6c2d-4706-9169-6e7462727573,rev?*%
%TF.SameCoordinates,Original*%
%TF.FileFunction,Legend,Top*%
%TF.FilePolarity,Positive*%
%FSLAX46Y46*%
G04 Gerber Fmt 4.6, Leading zero omitted, Abs format (unit mm)*
G04 Created by KiCad (PCBNEW (5.1.10)-1) date 2021-09-16 21:08:08*
%MOMM*%
%LPD*%
G01*
G04 APERTURE LIST*
%ADD10C,0.150000*%
%ADD11C,0.120000*%
%ADD12C,0.200000*%
%ADD13C,0.750000*%
%ADD14C,2.100000*%
%ADD15C,0.100000*%
%ADD16C,3.000000*%
%ADD17C,0.100000*%
%ADD18R,1.800000X2.000000*%
%ADD19R,2.000000X2.000000*%
%ADD20C,4.000000*%
%ADD21C,1.900000*%
%ADD22C,1.700000*%
%ADD23C,1.752600*%
%ADD24O,1.700000X1.700000*%
%ADD25R,1.700000X1.700000*%
%ADD26R,0.900000X1.700000*%
%ADD27R,1.000000X0.800000*%
%ADD28R,0.700000X1.500000*%
%ADD29C,0.900000*%
G04 APERTURE END LIST*
D10*
X81560212Y-39124185D02*
X81464974Y-39171804D01*
X81274497Y-39171804D01*
X81179259Y-39124185D01*
X81131640Y-39076566D01*
X81084021Y-38981328D01*
X81084021Y-38695614D01*
X81131640Y-38600376D01*
X81179259Y-38552757D01*
X81274497Y-38505138D01*
X81464974Y-38505138D01*
X81560212Y-38552757D01*
X81988783Y-39171804D02*
X81988783Y-38171804D01*
X82417355Y-39171804D02*
X82417355Y-38647995D01*
X82369736Y-38552757D01*
X82274497Y-38505138D01*
X82131640Y-38505138D01*
X82036402Y-38552757D01*
X81988783Y-38600376D01*
X82893545Y-39171804D02*
X82893545Y-38505138D01*
X82893545Y-38171804D02*
X82845926Y-38219424D01*
X82893545Y-38267043D01*
X82941164Y-38219424D01*
X82893545Y-38171804D01*
X82893545Y-38267043D01*
X83369736Y-38505138D02*
X83369736Y-39505138D01*
X83369736Y-38552757D02*
X83464974Y-38505138D01*
X83655450Y-38505138D01*
X83750688Y-38552757D01*
X83798307Y-38600376D01*
X83845926Y-38695614D01*
X83845926Y-38981328D01*
X83798307Y-39076566D01*
X83750688Y-39124185D01*
X83655450Y-39171804D01*
X83464974Y-39171804D01*
X83369736Y-39124185D01*
X84988783Y-39124185D02*
X85084021Y-39171804D01*
X85274497Y-39171804D01*
X85369736Y-39124185D01*
X85417355Y-39028947D01*
X85417355Y-38981328D01*
X85369736Y-38886090D01*
X85274497Y-38838471D01*
X85131640Y-38838471D01*
X85036402Y-38790852D01*
X84988783Y-38695614D01*
X84988783Y-38647995D01*
X85036402Y-38552757D01*
X85131640Y-38505138D01*
X85274497Y-38505138D01*
X85369736Y-38552757D01*
X85845926Y-39171804D02*
X85845926Y-38505138D01*
X85845926Y-38171804D02*
X85798307Y-38219424D01*
X85845926Y-38267043D01*
X85893545Y-38219424D01*
X85845926Y-38171804D01*
X85845926Y-38267043D01*
X86750688Y-39171804D02*
X86750688Y-38171804D01*
X86750688Y-39124185D02*
X86655450Y-39171804D01*
X86464974Y-39171804D01*
X86369736Y-39124185D01*
X86322116Y-39076566D01*
X86274497Y-38981328D01*
X86274497Y-38695614D01*
X86322116Y-38600376D01*
X86369736Y-38552757D01*
X86464974Y-38505138D01*
X86655450Y-38505138D01*
X86750688Y-38552757D01*
X87607831Y-39124185D02*
X87512593Y-39171804D01*
X87322116Y-39171804D01*
X87226878Y-39124185D01*
X87179259Y-39028947D01*
X87179259Y-38647995D01*
X87226878Y-38552757D01*
X87322116Y-38505138D01*
X87512593Y-38505138D01*
X87607831Y-38552757D01*
X87655450Y-38647995D01*
X87655450Y-38743233D01*
X87179259Y-38838471D01*
X83155450Y-40821804D02*
X83155450Y-39821804D01*
X83155450Y-40774185D02*
X83060212Y-40821804D01*
X82869736Y-40821804D01*
X82774497Y-40774185D01*
X82726878Y-40726566D01*
X82679259Y-40631328D01*
X82679259Y-40345614D01*
X82726878Y-40250376D01*
X82774497Y-40202757D01*
X82869736Y-40155138D01*
X83060212Y-40155138D01*
X83155450Y-40202757D01*
X83774497Y-40821804D02*
X83679259Y-40774185D01*
X83631640Y-40726566D01*
X83584021Y-40631328D01*
X83584021Y-40345614D01*
X83631640Y-40250376D01*
X83679259Y-40202757D01*
X83774497Y-40155138D01*
X83917355Y-40155138D01*
X84012593Y-40202757D01*
X84060212Y-40250376D01*
X84107831Y-40345614D01*
X84107831Y-40631328D01*
X84060212Y-40726566D01*
X84012593Y-40774185D01*
X83917355Y-40821804D01*
X83774497Y-40821804D01*
X84441164Y-40155138D02*
X84631640Y-40821804D01*
X84822116Y-40345614D01*
X85012593Y-40821804D01*
X85203069Y-40155138D01*
X85584021Y-40155138D02*
X85584021Y-40821804D01*
X85584021Y-40250376D02*
X85631640Y-40202757D01*
X85726878Y-40155138D01*
X85869736Y-40155138D01*
X85964974Y-40202757D01*
X86012593Y-40297995D01*
X86012593Y-40821804D01*
X100290783Y-23591804D02*
X100290783Y-22591804D01*
X100624116Y-23306090D01*
X100957450Y-22591804D01*
X100957450Y-23591804D01*
X102005069Y-23496566D02*
X101957450Y-23544185D01*
X101814593Y-23591804D01*
X101719355Y-23591804D01*
X101576497Y-23544185D01*
X101481259Y-23448947D01*
X101433640Y-23353709D01*
X101386021Y-23163233D01*
X101386021Y-23020376D01*
X101433640Y-22829900D01*
X101481259Y-22734662D01*
X101576497Y-22639424D01*
X101719355Y-22591804D01*
X101814593Y-22591804D01*
X101957450Y-22639424D01*
X102005069Y-22687043D01*
X102433640Y-22591804D02*
X102433640Y-23401328D01*
X102481259Y-23496566D01*
X102528878Y-23544185D01*
X102624116Y-23591804D01*
X102814593Y-23591804D01*
X102909831Y-23544185D01*
X102957450Y-23496566D01*
X103005069Y-23401328D01*
X103005069Y-22591804D01*
X104576497Y-23067995D02*
X104719355Y-23115614D01*
X104766974Y-23163233D01*
X104814593Y-23258471D01*
X104814593Y-23401328D01*
X104766974Y-23496566D01*
X104719355Y-23544185D01*
X104624116Y-23591804D01*
X104243164Y-23591804D01*
X104243164Y-22591804D01*
X104576497Y-22591804D01*
X104671736Y-22639424D01*
X104719355Y-22687043D01*
X104766974Y-22782281D01*
X104766974Y-22877519D01*
X104719355Y-22972757D01*
X104671736Y-23020376D01*
X104576497Y-23067995D01*
X104243164Y-23067995D01*
X105671736Y-23591804D02*
X105671736Y-23067995D01*
X105624116Y-22972757D01*
X105528878Y-22925138D01*
X105338402Y-22925138D01*
X105243164Y-22972757D01*
X105671736Y-23544185D02*
X105576497Y-23591804D01*
X105338402Y-23591804D01*
X105243164Y-23544185D01*
X105195545Y-23448947D01*
X105195545Y-23353709D01*
X105243164Y-23258471D01*
X105338402Y-23210852D01*
X105576497Y-23210852D01*
X105671736Y-23163233D01*
X106005069Y-22925138D02*
X106386021Y-22925138D01*
X106147926Y-22591804D02*
X106147926Y-23448947D01*
X106195545Y-23544185D01*
X106290783Y-23591804D01*
X106386021Y-23591804D01*
X106576497Y-22925138D02*
X106957450Y-22925138D01*
X106719355Y-22591804D02*
X106719355Y-23448947D01*
X106766974Y-23544185D01*
X106862212Y-23591804D01*
X106957450Y-23591804D01*
X107671736Y-23544185D02*
X107576497Y-23591804D01*
X107386021Y-23591804D01*
X107290783Y-23544185D01*
X107243164Y-23448947D01*
X107243164Y-23067995D01*
X107290783Y-22972757D01*
X107386021Y-22925138D01*
X107576497Y-22925138D01*
X107671736Y-22972757D01*
X107719355Y-23067995D01*
X107719355Y-23163233D01*
X107243164Y-23258471D01*
X108147926Y-23591804D02*
X108147926Y-22925138D01*
X108147926Y-23115614D02*
X108195545Y-23020376D01*
X108243164Y-22972757D01*
X108338402Y-22925138D01*
X108433640Y-22925138D01*
X108671736Y-22925138D02*
X108909831Y-23591804D01*
X109147926Y-22925138D02*
X108909831Y-23591804D01*
X108814593Y-23829900D01*
X108766974Y-23877519D01*
X108671736Y-23925138D01*
X80854116Y-63944804D02*
X80520783Y-63468614D01*
X80282688Y-63944804D02*
X80282688Y-62944804D01*
X80663640Y-62944804D01*
X80758878Y-62992424D01*
X80806497Y-63040043D01*
X80854116Y-63135281D01*
X80854116Y-63278138D01*
X80806497Y-63373376D01*
X80758878Y-63420995D01*
X80663640Y-63468614D01*
X80282688Y-63468614D01*
X81663640Y-63897185D02*
X81568402Y-63944804D01*
X81377926Y-63944804D01*
X81282688Y-63897185D01*
X81235069Y-63801947D01*
X81235069Y-63420995D01*
X81282688Y-63325757D01*
X81377926Y-63278138D01*
X81568402Y-63278138D01*
X81663640Y-63325757D01*
X81711259Y-63420995D01*
X81711259Y-63516233D01*
X81235069Y-63611471D01*
X82092212Y-63897185D02*
X82187450Y-63944804D01*
X82377926Y-63944804D01*
X82473164Y-63897185D01*
X82520783Y-63801947D01*
X82520783Y-63754328D01*
X82473164Y-63659090D01*
X82377926Y-63611471D01*
X82235069Y-63611471D01*
X82139831Y-63563852D01*
X82092212Y-63468614D01*
X82092212Y-63420995D01*
X82139831Y-63325757D01*
X82235069Y-63278138D01*
X82377926Y-63278138D01*
X82473164Y-63325757D01*
X83330307Y-63897185D02*
X83235069Y-63944804D01*
X83044593Y-63944804D01*
X82949355Y-63897185D01*
X82901736Y-63801947D01*
X82901736Y-63420995D01*
X82949355Y-63325757D01*
X83044593Y-63278138D01*
X83235069Y-63278138D01*
X83330307Y-63325757D01*
X83377926Y-63420995D01*
X83377926Y-63516233D01*
X82901736Y-63611471D01*
X83663640Y-63278138D02*
X84044593Y-63278138D01*
X83806497Y-62944804D02*
X83806497Y-63801947D01*
X83854116Y-63897185D01*
X83949355Y-63944804D01*
X84044593Y-63944804D01*
X85473164Y-63420995D02*
X85616021Y-63468614D01*
X85663640Y-63516233D01*
X85711259Y-63611471D01*
X85711259Y-63754328D01*
X85663640Y-63849566D01*
X85616021Y-63897185D01*
X85520783Y-63944804D01*
X85139831Y-63944804D01*
X85139831Y-62944804D01*
X85473164Y-62944804D01*
X85568402Y-62992424D01*
X85616021Y-63040043D01*
X85663640Y-63135281D01*
X85663640Y-63230519D01*
X85616021Y-63325757D01*
X85568402Y-63373376D01*
X85473164Y-63420995D01*
X85139831Y-63420995D01*
X86568402Y-63278138D02*
X86568402Y-63944804D01*
X86139831Y-63278138D02*
X86139831Y-63801947D01*
X86187450Y-63897185D01*
X86282688Y-63944804D01*
X86425545Y-63944804D01*
X86520783Y-63897185D01*
X86568402Y-63849566D01*
X86901736Y-63278138D02*
X87282688Y-63278138D01*
X87044593Y-62944804D02*
X87044593Y-63801947D01*
X87092212Y-63897185D01*
X87187450Y-63944804D01*
X87282688Y-63944804D01*
X87473164Y-63278138D02*
X87854116Y-63278138D01*
X87616021Y-62944804D02*
X87616021Y-63801947D01*
X87663640Y-63897185D01*
X87758878Y-63944804D01*
X87854116Y-63944804D01*
X88330307Y-63944804D02*
X88235069Y-63897185D01*
X88187450Y-63849566D01*
X88139831Y-63754328D01*
X88139831Y-63468614D01*
X88187450Y-63373376D01*
X88235069Y-63325757D01*
X88330307Y-63278138D01*
X88473164Y-63278138D01*
X88568402Y-63325757D01*
X88616021Y-63373376D01*
X88663640Y-63468614D01*
X88663640Y-63754328D01*
X88616021Y-63849566D01*
X88568402Y-63897185D01*
X88473164Y-63944804D01*
X88330307Y-63944804D01*
X89092212Y-63278138D02*
X89092212Y-63944804D01*
X89092212Y-63373376D02*
X89139831Y-63325757D01*
X89235069Y-63278138D01*
X89377926Y-63278138D01*
X89473164Y-63325757D01*
X89520783Y-63420995D01*
X89520783Y-63944804D01*
X158139832Y-26551805D02*
X158139832Y-25551805D01*
X158520784Y-25551805D01*
X158616022Y-25599425D01*
X158663641Y-25647044D01*
X158711260Y-25742282D01*
X158711260Y-25885139D01*
X158663641Y-25980377D01*
X158616022Y-26027996D01*
X158520784Y-26075615D01*
X158139832Y-26075615D01*
X159282689Y-26551805D02*
X159187451Y-26504186D01*
X159139832Y-26456567D01*
X159092213Y-26361329D01*
X159092213Y-26075615D01*
X159139832Y-25980377D01*
X159187451Y-25932758D01*
X159282689Y-25885139D01*
X159425546Y-25885139D01*
X159520784Y-25932758D01*
X159568403Y-25980377D01*
X159616022Y-26075615D01*
X159616022Y-26361329D01*
X159568403Y-26456567D01*
X159520784Y-26504186D01*
X159425546Y-26551805D01*
X159282689Y-26551805D01*
X159949356Y-25885139D02*
X160139832Y-26551805D01*
X160330308Y-26075615D01*
X160520784Y-26551805D01*
X160711260Y-25885139D01*
X161473165Y-26504186D02*
X161377927Y-26551805D01*
X161187451Y-26551805D01*
X161092213Y-26504186D01*
X161044594Y-26408948D01*
X161044594Y-26027996D01*
X161092213Y-25932758D01*
X161187451Y-25885139D01*
X161377927Y-25885139D01*
X161473165Y-25932758D01*
X161520784Y-26027996D01*
X161520784Y-26123234D01*
X161044594Y-26218472D01*
X161949356Y-26551805D02*
X161949356Y-25885139D01*
X161949356Y-26075615D02*
X161996975Y-25980377D01*
X162044594Y-25932758D01*
X162139832Y-25885139D01*
X162235070Y-25885139D01*
X163282689Y-26504186D02*
X163425546Y-26551805D01*
X163663641Y-26551805D01*
X163758879Y-26504186D01*
X163806498Y-26456567D01*
X163854117Y-26361329D01*
X163854117Y-26266091D01*
X163806498Y-26170853D01*
X163758879Y-26123234D01*
X163663641Y-26075615D01*
X163473165Y-26027996D01*
X163377927Y-25980377D01*
X163330308Y-25932758D01*
X163282689Y-25837520D01*
X163282689Y-25742282D01*
X163330308Y-25647044D01*
X163377927Y-25599425D01*
X163473165Y-25551805D01*
X163711260Y-25551805D01*
X163854117Y-25599425D01*
X164187451Y-25885139D02*
X164377927Y-26551805D01*
X164568403Y-26075615D01*
X164758879Y-26551805D01*
X164949356Y-25885139D01*
X165330308Y-26551805D02*
X165330308Y-25885139D01*
X165330308Y-25551805D02*
X165282689Y-25599425D01*
X165330308Y-25647044D01*
X165377927Y-25599425D01*
X165330308Y-25551805D01*
X165330308Y-25647044D01*
X165663641Y-25885139D02*
X166044594Y-25885139D01*
X165806498Y-25551805D02*
X165806498Y-26408948D01*
X165854117Y-26504186D01*
X165949356Y-26551805D01*
X166044594Y-26551805D01*
X166806498Y-26504186D02*
X166711260Y-26551805D01*
X166520784Y-26551805D01*
X166425546Y-26504186D01*
X166377927Y-26456567D01*
X166330308Y-26361329D01*
X166330308Y-26075615D01*
X166377927Y-25980377D01*
X166425546Y-25932758D01*
X166520784Y-25885139D01*
X166711260Y-25885139D01*
X166806498Y-25932758D01*
X167235070Y-26551805D02*
X167235070Y-25551805D01*
X167663641Y-26551805D02*
X167663641Y-26027996D01*
X167616022Y-25932758D01*
X167520784Y-25885139D01*
X167377927Y-25885139D01*
X167282689Y-25932758D01*
X167235070Y-25980377D01*
X92172259Y-53204804D02*
X91838926Y-52728614D01*
X91600831Y-53204804D02*
X91600831Y-52204804D01*
X91981783Y-52204804D01*
X92077021Y-52252424D01*
X92124640Y-52300043D01*
X92172259Y-52395281D01*
X92172259Y-52538138D01*
X92124640Y-52633376D01*
X92077021Y-52680995D01*
X91981783Y-52728614D01*
X91600831Y-52728614D01*
X76805259Y-53204804D02*
X76471926Y-52728614D01*
X76233831Y-53204804D02*
X76233831Y-52204804D01*
X76614783Y-52204804D01*
X76710021Y-52252424D01*
X76757640Y-52300043D01*
X76805259Y-52395281D01*
X76805259Y-52538138D01*
X76757640Y-52633376D01*
X76710021Y-52680995D01*
X76614783Y-52728614D01*
X76233831Y-52728614D01*
D11*
X77511736Y-51609424D02*
X75479736Y-51609424D01*
X77511736Y-21129424D02*
X77511736Y-51609424D01*
X75479736Y-21129424D02*
X77511736Y-21129424D01*
X75479736Y-51609424D02*
X75479736Y-21129424D01*
X90846736Y-51609424D02*
X92878736Y-51609424D01*
X90846736Y-21129424D02*
X90846736Y-51609424D01*
X92878736Y-21129424D02*
X90846736Y-21129424D01*
X92878736Y-51609424D02*
X92878736Y-21129424D01*
D10*
X76186355Y-53855804D02*
X76376831Y-53855804D01*
X76472069Y-53903424D01*
X76567307Y-53998662D01*
X76614926Y-54189138D01*
X76614926Y-54522471D01*
X76567307Y-54712947D01*
X76472069Y-54808185D01*
X76376831Y-54855804D01*
X76186355Y-54855804D01*
X76091116Y-54808185D01*
X75995878Y-54712947D01*
X75948259Y-54522471D01*
X75948259Y-54189138D01*
X75995878Y-53998662D01*
X76091116Y-53903424D01*
X76186355Y-53855804D01*
X77519688Y-54855804D02*
X77043497Y-54855804D01*
X77043497Y-53855804D01*
X77853021Y-54331995D02*
X78186355Y-54331995D01*
X78329212Y-54855804D02*
X77853021Y-54855804D01*
X77853021Y-53855804D01*
X78329212Y-53855804D01*
X78757783Y-54855804D02*
X78757783Y-53855804D01*
X78995878Y-53855804D01*
X79138736Y-53903424D01*
X79233974Y-53998662D01*
X79281593Y-54093900D01*
X79329212Y-54284376D01*
X79329212Y-54427233D01*
X79281593Y-54617709D01*
X79233974Y-54712947D01*
X79138736Y-54808185D01*
X78995878Y-54855804D01*
X78757783Y-54855804D01*
D12*
X79924736Y-52879424D02*
X79924736Y-55419424D01*
X90084736Y-52879424D02*
X79924736Y-52879424D01*
X90084736Y-55419424D02*
X79924736Y-55419424D01*
X90084736Y-52879424D02*
X90084736Y-55419424D01*
D13*
X86409402Y-37361328D02*
X84076069Y-34980376D01*
X82409402Y-37361328D02*
X82409402Y-32361328D01*
X85076069Y-32361328D01*
X85742736Y-32599424D01*
X86076069Y-32837519D01*
X86409402Y-33313709D01*
X86409402Y-34027995D01*
X86076069Y-34504185D01*
X85742736Y-34742281D01*
X85076069Y-34980376D01*
X82409402Y-34980376D01*
D10*
%TO.C,KEY4*%
X165181737Y-45849424D02*
X165181737Y-46549424D01*
X170176737Y-39749424D02*
X170201737Y-44349423D01*
X160601738Y-41949424D02*
X160601738Y-46549424D01*
X166401737Y-44374424D02*
X170176737Y-44374424D01*
X165476737Y-39724424D02*
X170176737Y-39724424D01*
X160626737Y-41924424D02*
X163176737Y-41924424D01*
X160626737Y-46574424D02*
X165176737Y-46574424D01*
X158101737Y-35499424D02*
X163151737Y-35545424D01*
X158101737Y-35453424D02*
X158101737Y-31545424D01*
X158101737Y-31545424D02*
X166726737Y-31545424D01*
X169001737Y-33499424D02*
X169001737Y-37444424D01*
X169001737Y-37453424D02*
X165391737Y-37453424D01*
X168990737Y-33429424D02*
G75*
G03*
X166726737Y-31545424I-2074000J-190000D01*
G01*
X165386738Y-37429423D02*
G75*
G03*
X163126737Y-35549424I-2070000J-190001D01*
G01*
X165471737Y-39749424D02*
G75*
G02*
X163101737Y-41919424I-2270000J100000D01*
G01*
X165181736Y-45799423D02*
G75*
G02*
X166401737Y-44379424I1320000J99999D01*
G01*
%TO.C,KEY8*%
X165181739Y-64849423D02*
X165181739Y-65549423D01*
X170176739Y-58749423D02*
X170201739Y-63349422D01*
X160601740Y-60949423D02*
X160601740Y-65549423D01*
X166401739Y-63374423D02*
X170176739Y-63374423D01*
X165476739Y-58724423D02*
X170176739Y-58724423D01*
X160626739Y-60924423D02*
X163176739Y-60924423D01*
X160626739Y-65574423D02*
X165176739Y-65574423D01*
X158101739Y-54499423D02*
X163151739Y-54545423D01*
X158101739Y-54453423D02*
X158101739Y-50545423D01*
X158101739Y-50545423D02*
X166726739Y-50545423D01*
X169001739Y-52499423D02*
X169001739Y-56444423D01*
X169001739Y-56453423D02*
X165391739Y-56453423D01*
X168990739Y-52429423D02*
G75*
G03*
X166726739Y-50545423I-2074000J-190000D01*
G01*
X165386740Y-56429422D02*
G75*
G03*
X163126739Y-54549423I-2070000J-190001D01*
G01*
X165471739Y-58749423D02*
G75*
G02*
X163101739Y-60919423I-2270000J100000D01*
G01*
X165181738Y-64799422D02*
G75*
G02*
X166401739Y-63379423I1320000J99999D01*
G01*
%TO.C,KEY7*%
X146181739Y-60099426D02*
X146181739Y-60799426D01*
X151176739Y-53999426D02*
X151201739Y-58599425D01*
X141601740Y-56199426D02*
X141601740Y-60799426D01*
X147401739Y-58624426D02*
X151176739Y-58624426D01*
X146476739Y-53974426D02*
X151176739Y-53974426D01*
X141626739Y-56174426D02*
X144176739Y-56174426D01*
X141626739Y-60824426D02*
X146176739Y-60824426D01*
X139101739Y-49749426D02*
X144151739Y-49795426D01*
X139101739Y-49703426D02*
X139101739Y-45795426D01*
X139101739Y-45795426D02*
X147726739Y-45795426D01*
X150001739Y-47749426D02*
X150001739Y-51694426D01*
X150001739Y-51703426D02*
X146391739Y-51703426D01*
X149990739Y-47679426D02*
G75*
G03*
X147726739Y-45795426I-2074000J-190000D01*
G01*
X146386740Y-51679425D02*
G75*
G03*
X144126739Y-49799426I-2070000J-190001D01*
G01*
X146471739Y-53999426D02*
G75*
G02*
X144101739Y-56169426I-2270000J100000D01*
G01*
X146181738Y-60049425D02*
G75*
G02*
X147401739Y-58629426I1320000J99999D01*
G01*
%TO.C,KEY6*%
X127181739Y-57719424D02*
X127181739Y-58419424D01*
X132176739Y-51619424D02*
X132201739Y-56219423D01*
X122601740Y-53819424D02*
X122601740Y-58419424D01*
X128401739Y-56244424D02*
X132176739Y-56244424D01*
X127476739Y-51594424D02*
X132176739Y-51594424D01*
X122626739Y-53794424D02*
X125176739Y-53794424D01*
X122626739Y-58444424D02*
X127176739Y-58444424D01*
X120101739Y-47369424D02*
X125151739Y-47415424D01*
X120101739Y-47323424D02*
X120101739Y-43415424D01*
X120101739Y-43415424D02*
X128726739Y-43415424D01*
X131001739Y-45369424D02*
X131001739Y-49314424D01*
X131001739Y-49323424D02*
X127391739Y-49323424D01*
X130990739Y-45299424D02*
G75*
G03*
X128726739Y-43415424I-2074000J-190000D01*
G01*
X127386740Y-49299423D02*
G75*
G03*
X125126739Y-47419424I-2070000J-190001D01*
G01*
X127471739Y-51619424D02*
G75*
G02*
X125101739Y-53789424I-2270000J100000D01*
G01*
X127181738Y-57669423D02*
G75*
G02*
X128401739Y-56249424I1320000J99999D01*
G01*
%TO.C,KEY5*%
X108181736Y-60099424D02*
X108181736Y-60799424D01*
X113176736Y-53999424D02*
X113201736Y-58599423D01*
X103601737Y-56199424D02*
X103601737Y-60799424D01*
X109401736Y-58624424D02*
X113176736Y-58624424D01*
X108476736Y-53974424D02*
X113176736Y-53974424D01*
X103626736Y-56174424D02*
X106176736Y-56174424D01*
X103626736Y-60824424D02*
X108176736Y-60824424D01*
X101101736Y-49749424D02*
X106151736Y-49795424D01*
X101101736Y-49703424D02*
X101101736Y-45795424D01*
X101101736Y-45795424D02*
X109726736Y-45795424D01*
X112001736Y-47749424D02*
X112001736Y-51694424D01*
X112001736Y-51703424D02*
X108391736Y-51703424D01*
X111990736Y-47679424D02*
G75*
G03*
X109726736Y-45795424I-2074000J-190000D01*
G01*
X108386737Y-51679423D02*
G75*
G03*
X106126736Y-49799424I-2070000J-190001D01*
G01*
X108471736Y-53999424D02*
G75*
G02*
X106101736Y-56169424I-2270000J100000D01*
G01*
X108181735Y-60049423D02*
G75*
G02*
X109401736Y-58629424I1320000J99999D01*
G01*
%TO.C,KEY3*%
X146181739Y-41099426D02*
X146181739Y-41799426D01*
X151176739Y-34999426D02*
X151201739Y-39599425D01*
X141601740Y-37199426D02*
X141601740Y-41799426D01*
X147401739Y-39624426D02*
X151176739Y-39624426D01*
X146476739Y-34974426D02*
X151176739Y-34974426D01*
X141626739Y-37174426D02*
X144176739Y-37174426D01*
X141626739Y-41824426D02*
X146176739Y-41824426D01*
X139101739Y-30749426D02*
X144151739Y-30795426D01*
X139101739Y-30703426D02*
X139101739Y-26795426D01*
X139101739Y-26795426D02*
X147726739Y-26795426D01*
X150001739Y-28749426D02*
X150001739Y-32694426D01*
X150001739Y-32703426D02*
X146391739Y-32703426D01*
X149990739Y-28679426D02*
G75*
G03*
X147726739Y-26795426I-2074000J-190000D01*
G01*
X146386740Y-32679425D02*
G75*
G03*
X144126739Y-30799426I-2070000J-190001D01*
G01*
X146471739Y-34999426D02*
G75*
G02*
X144101739Y-37169426I-2270000J100000D01*
G01*
X146181738Y-41049425D02*
G75*
G02*
X147401739Y-39629426I1320000J99999D01*
G01*
%TO.C,KEY2*%
X127181737Y-38719424D02*
X127181737Y-39419424D01*
X132176737Y-32619424D02*
X132201737Y-37219423D01*
X122601738Y-34819424D02*
X122601738Y-39419424D01*
X128401737Y-37244424D02*
X132176737Y-37244424D01*
X127476737Y-32594424D02*
X132176737Y-32594424D01*
X122626737Y-34794424D02*
X125176737Y-34794424D01*
X122626737Y-39444424D02*
X127176737Y-39444424D01*
X120101737Y-28369424D02*
X125151737Y-28415424D01*
X120101737Y-28323424D02*
X120101737Y-24415424D01*
X120101737Y-24415424D02*
X128726737Y-24415424D01*
X131001737Y-26369424D02*
X131001737Y-30314424D01*
X131001737Y-30323424D02*
X127391737Y-30323424D01*
X130990737Y-26299424D02*
G75*
G03*
X128726737Y-24415424I-2074000J-190000D01*
G01*
X127386738Y-30299423D02*
G75*
G03*
X125126737Y-28419424I-2070000J-190001D01*
G01*
X127471737Y-32619424D02*
G75*
G02*
X125101737Y-34789424I-2270000J100000D01*
G01*
X127181736Y-38669423D02*
G75*
G02*
X128401737Y-37249424I1320000J99999D01*
G01*
%TO.C,KEY1*%
X108181737Y-41099424D02*
X108181737Y-41799424D01*
X113176737Y-34999424D02*
X113201737Y-39599423D01*
X103601738Y-37199424D02*
X103601738Y-41799424D01*
X109401737Y-39624424D02*
X113176737Y-39624424D01*
X108476737Y-34974424D02*
X113176737Y-34974424D01*
X103626737Y-37174424D02*
X106176737Y-37174424D01*
X103626737Y-41824424D02*
X108176737Y-41824424D01*
X101101737Y-30749424D02*
X106151737Y-30795424D01*
X101101737Y-30703424D02*
X101101737Y-26795424D01*
X101101737Y-26795424D02*
X109726737Y-26795424D01*
X112001737Y-28749424D02*
X112001737Y-32694424D01*
X112001737Y-32703424D02*
X108391737Y-32703424D01*
X111990737Y-28679424D02*
G75*
G03*
X109726737Y-26795424I-2074000J-190000D01*
G01*
X108386738Y-32679423D02*
G75*
G03*
X106126737Y-30799424I-2070000J-190001D01*
G01*
X108471737Y-34999424D02*
G75*
G02*
X106101737Y-37169424I-2270000J100000D01*
G01*
X108181736Y-41049423D02*
G75*
G02*
X109401737Y-39629424I1320000J99999D01*
G01*
D11*
%TO.C,J1*%
X108501737Y-21929424D02*
X108501737Y-19269424D01*
X105901737Y-21929424D02*
X108501737Y-21929424D01*
X105901737Y-19269424D02*
X108501737Y-19269424D01*
X105901737Y-21929424D02*
X105901737Y-19269424D01*
X104631737Y-21929424D02*
X103301737Y-21929424D01*
X103301737Y-21929424D02*
X103301737Y-20599424D01*
%TO.C,PUSH2*%
X86551736Y-59392424D02*
X86551736Y-59092424D01*
X86551736Y-59092424D02*
X83251736Y-59092424D01*
X83251736Y-59092424D02*
X83251736Y-59392424D01*
X86551736Y-61592424D02*
X86551736Y-61892424D01*
X86551736Y-61892424D02*
X83251736Y-61892424D01*
X83251736Y-61892424D02*
X83251736Y-61592424D01*
%TO.C,SW2*%
X161501737Y-23219424D02*
X161301737Y-23219424D01*
X164301737Y-19079424D02*
X164101737Y-18869424D01*
X163001737Y-19079424D02*
X163201737Y-18869424D01*
X164301737Y-20369424D02*
X164301737Y-19079424D01*
X164101737Y-18869424D02*
X163201737Y-18869424D01*
X163001737Y-19079424D02*
X163001737Y-20369424D01*
X165751737Y-20369424D02*
X160051737Y-20369424D01*
X164501737Y-23219424D02*
X162801737Y-23219424D01*
X166351737Y-22169424D02*
X166351737Y-21379424D01*
X159451737Y-21379424D02*
X159451737Y-22169424D01*
%TO.C,U2*%
D10*
X74266926Y-47742281D02*
X74381212Y-47780376D01*
X74419307Y-47818471D01*
X74457402Y-47894662D01*
X74457402Y-48008947D01*
X74419307Y-48085138D01*
X74381212Y-48123233D01*
X74305021Y-48161328D01*
X74000259Y-48161328D01*
X74000259Y-47361328D01*
X74266926Y-47361328D01*
X74343116Y-47399424D01*
X74381212Y-47437519D01*
X74419307Y-47513709D01*
X74419307Y-47589900D01*
X74381212Y-47666090D01*
X74343116Y-47704185D01*
X74266926Y-47742281D01*
X74000259Y-47742281D01*
X74762164Y-47437519D02*
X74800259Y-47399424D01*
X74876450Y-47361328D01*
X75066926Y-47361328D01*
X75143116Y-47399424D01*
X75181212Y-47437519D01*
X75219307Y-47513709D01*
X75219307Y-47589900D01*
X75181212Y-47704185D01*
X74724069Y-48161328D01*
X75219307Y-48161328D01*
X74324069Y-40122281D02*
X74057402Y-40122281D01*
X74057402Y-40541328D02*
X74057402Y-39741328D01*
X74438355Y-39741328D01*
X74666926Y-39741328D02*
X75200259Y-39741328D01*
X74857402Y-40541328D01*
X74324069Y-37582281D02*
X74057402Y-37582281D01*
X74057402Y-38001328D02*
X74057402Y-37201328D01*
X74438355Y-37201328D01*
X75085974Y-37201328D02*
X74933593Y-37201328D01*
X74857402Y-37239424D01*
X74819307Y-37277519D01*
X74743116Y-37391804D01*
X74705021Y-37544185D01*
X74705021Y-37848947D01*
X74743116Y-37925138D01*
X74781212Y-37963233D01*
X74857402Y-38001328D01*
X75009783Y-38001328D01*
X75085974Y-37963233D01*
X75124069Y-37925138D01*
X75162164Y-37848947D01*
X75162164Y-37658471D01*
X75124069Y-37582281D01*
X75085974Y-37544185D01*
X75009783Y-37506090D01*
X74857402Y-37506090D01*
X74781212Y-37544185D01*
X74743116Y-37582281D01*
X74705021Y-37658471D01*
X74324069Y-35042281D02*
X74057402Y-35042281D01*
X74057402Y-35461328D02*
X74057402Y-34661328D01*
X74438355Y-34661328D01*
X75124069Y-34661328D02*
X74743116Y-34661328D01*
X74705021Y-35042281D01*
X74743116Y-35004185D01*
X74819307Y-34966090D01*
X75009783Y-34966090D01*
X75085974Y-35004185D01*
X75124069Y-35042281D01*
X75162164Y-35118471D01*
X75162164Y-35308947D01*
X75124069Y-35385138D01*
X75085974Y-35423233D01*
X75009783Y-35461328D01*
X74819307Y-35461328D01*
X74743116Y-35423233D01*
X74705021Y-35385138D01*
X73657355Y-22761328D02*
X73390688Y-22380376D01*
X73200212Y-22761328D02*
X73200212Y-21961328D01*
X73504974Y-21961328D01*
X73581164Y-21999424D01*
X73619259Y-22037519D01*
X73657355Y-22113709D01*
X73657355Y-22227995D01*
X73619259Y-22304185D01*
X73581164Y-22342281D01*
X73504974Y-22380376D01*
X73200212Y-22380376D01*
X73962116Y-22532757D02*
X74343069Y-22532757D01*
X73885926Y-22761328D02*
X74152593Y-21961328D01*
X74419259Y-22761328D01*
X74609736Y-21961328D02*
X74800212Y-22761328D01*
X74952593Y-22189900D01*
X75104974Y-22761328D01*
X75295450Y-21961328D01*
X73600212Y-24666424D02*
X73524021Y-24628328D01*
X73409736Y-24628328D01*
X73295450Y-24666424D01*
X73219259Y-24742614D01*
X73181164Y-24818804D01*
X73143069Y-24971185D01*
X73143069Y-25085471D01*
X73181164Y-25237852D01*
X73219259Y-25314043D01*
X73295450Y-25390233D01*
X73409736Y-25428328D01*
X73485926Y-25428328D01*
X73600212Y-25390233D01*
X73638307Y-25352138D01*
X73638307Y-25085471D01*
X73485926Y-25085471D01*
X73981164Y-25428328D02*
X73981164Y-24628328D01*
X74438307Y-25428328D01*
X74438307Y-24628328D01*
X74819259Y-25428328D02*
X74819259Y-24628328D01*
X75009736Y-24628328D01*
X75124021Y-24666424D01*
X75200212Y-24742614D01*
X75238307Y-24818804D01*
X75276402Y-24971185D01*
X75276402Y-25085471D01*
X75238307Y-25237852D01*
X75200212Y-25314043D01*
X75124021Y-25390233D01*
X75009736Y-25428328D01*
X74819259Y-25428328D01*
X73771640Y-27841328D02*
X73504974Y-27460376D01*
X73314497Y-27841328D02*
X73314497Y-27041328D01*
X73619259Y-27041328D01*
X73695450Y-27079424D01*
X73733545Y-27117519D01*
X73771640Y-27193709D01*
X73771640Y-27307995D01*
X73733545Y-27384185D01*
X73695450Y-27422281D01*
X73619259Y-27460376D01*
X73314497Y-27460376D01*
X74076402Y-27803233D02*
X74190688Y-27841328D01*
X74381164Y-27841328D01*
X74457355Y-27803233D01*
X74495450Y-27765138D01*
X74533545Y-27688947D01*
X74533545Y-27612757D01*
X74495450Y-27536566D01*
X74457355Y-27498471D01*
X74381164Y-27460376D01*
X74228783Y-27422281D01*
X74152593Y-27384185D01*
X74114497Y-27346090D01*
X74076402Y-27269900D01*
X74076402Y-27193709D01*
X74114497Y-27117519D01*
X74152593Y-27079424D01*
X74228783Y-27041328D01*
X74419259Y-27041328D01*
X74533545Y-27079424D01*
X74762116Y-27041328D02*
X75219259Y-27041328D01*
X74990688Y-27841328D02*
X74990688Y-27041328D01*
X73143069Y-29581328D02*
X73409736Y-30381328D01*
X73676402Y-29581328D01*
X74400212Y-30305138D02*
X74362116Y-30343233D01*
X74247831Y-30381328D01*
X74171640Y-30381328D01*
X74057355Y-30343233D01*
X73981164Y-30267043D01*
X73943069Y-30190852D01*
X73904974Y-30038471D01*
X73904974Y-29924185D01*
X73943069Y-29771804D01*
X73981164Y-29695614D01*
X74057355Y-29619424D01*
X74171640Y-29581328D01*
X74247831Y-29581328D01*
X74362116Y-29619424D01*
X74400212Y-29657519D01*
X75200212Y-30305138D02*
X75162116Y-30343233D01*
X75047831Y-30381328D01*
X74971640Y-30381328D01*
X74857355Y-30343233D01*
X74781164Y-30267043D01*
X74743069Y-30190852D01*
X74704974Y-30038471D01*
X74704974Y-29924185D01*
X74743069Y-29771804D01*
X74781164Y-29695614D01*
X74857355Y-29619424D01*
X74971640Y-29581328D01*
X75047831Y-29581328D01*
X75162116Y-29619424D01*
X75200212Y-29657519D01*
X74324069Y-32502281D02*
X74057402Y-32502281D01*
X74057402Y-32921328D02*
X74057402Y-32121328D01*
X74438355Y-32121328D01*
X75085974Y-32387995D02*
X75085974Y-32921328D01*
X74895497Y-32083233D02*
X74705021Y-32654662D01*
X75200259Y-32654662D01*
X74266926Y-42662281D02*
X74381212Y-42700376D01*
X74419307Y-42738471D01*
X74457402Y-42814662D01*
X74457402Y-42928947D01*
X74419307Y-43005138D01*
X74381212Y-43043233D01*
X74305021Y-43081328D01*
X74000259Y-43081328D01*
X74000259Y-42281328D01*
X74266926Y-42281328D01*
X74343116Y-42319424D01*
X74381212Y-42357519D01*
X74419307Y-42433709D01*
X74419307Y-42509900D01*
X74381212Y-42586090D01*
X74343116Y-42624185D01*
X74266926Y-42662281D01*
X74000259Y-42662281D01*
X75219307Y-43081328D02*
X74762164Y-43081328D01*
X74990736Y-43081328D02*
X74990736Y-42281328D01*
X74914545Y-42395614D01*
X74838355Y-42471804D01*
X74762164Y-42509900D01*
X74266926Y-45202281D02*
X74381212Y-45240376D01*
X74419307Y-45278471D01*
X74457402Y-45354662D01*
X74457402Y-45468947D01*
X74419307Y-45545138D01*
X74381212Y-45583233D01*
X74305021Y-45621328D01*
X74000259Y-45621328D01*
X74000259Y-44821328D01*
X74266926Y-44821328D01*
X74343116Y-44859424D01*
X74381212Y-44897519D01*
X74419307Y-44973709D01*
X74419307Y-45049900D01*
X74381212Y-45126090D01*
X74343116Y-45164185D01*
X74266926Y-45202281D01*
X74000259Y-45202281D01*
X74724069Y-44821328D02*
X75219307Y-44821328D01*
X74952640Y-45126090D01*
X75066926Y-45126090D01*
X75143116Y-45164185D01*
X75181212Y-45202281D01*
X75219307Y-45278471D01*
X75219307Y-45468947D01*
X75181212Y-45545138D01*
X75143116Y-45583233D01*
X75066926Y-45621328D01*
X74838355Y-45621328D01*
X74762164Y-45583233D01*
X74724069Y-45545138D01*
X74266926Y-50282281D02*
X74381212Y-50320376D01*
X74419307Y-50358471D01*
X74457402Y-50434662D01*
X74457402Y-50548947D01*
X74419307Y-50625138D01*
X74381212Y-50663233D01*
X74305021Y-50701328D01*
X74000259Y-50701328D01*
X74000259Y-49901328D01*
X74266926Y-49901328D01*
X74343116Y-49939424D01*
X74381212Y-49977519D01*
X74419307Y-50053709D01*
X74419307Y-50129900D01*
X74381212Y-50206090D01*
X74343116Y-50244185D01*
X74266926Y-50282281D01*
X74000259Y-50282281D01*
X75143116Y-49901328D02*
X74990736Y-49901328D01*
X74914545Y-49939424D01*
X74876450Y-49977519D01*
X74800259Y-50091804D01*
X74762164Y-50244185D01*
X74762164Y-50548947D01*
X74800259Y-50625138D01*
X74838355Y-50663233D01*
X74914545Y-50701328D01*
X75066926Y-50701328D01*
X75143116Y-50663233D01*
X75181212Y-50625138D01*
X75219307Y-50548947D01*
X75219307Y-50358471D01*
X75181212Y-50282281D01*
X75143116Y-50244185D01*
X75066926Y-50206090D01*
X74914545Y-50206090D01*
X74838355Y-50244185D01*
X74800259Y-50282281D01*
X74762164Y-50358471D01*
X89506926Y-50282281D02*
X89621212Y-50320376D01*
X89659307Y-50358471D01*
X89697402Y-50434662D01*
X89697402Y-50548947D01*
X89659307Y-50625138D01*
X89621212Y-50663233D01*
X89545021Y-50701328D01*
X89240259Y-50701328D01*
X89240259Y-49901328D01*
X89506926Y-49901328D01*
X89583116Y-49939424D01*
X89621212Y-49977519D01*
X89659307Y-50053709D01*
X89659307Y-50129900D01*
X89621212Y-50206090D01*
X89583116Y-50244185D01*
X89506926Y-50282281D01*
X89240259Y-50282281D01*
X90421212Y-49901328D02*
X90040259Y-49901328D01*
X90002164Y-50282281D01*
X90040259Y-50244185D01*
X90116450Y-50206090D01*
X90306926Y-50206090D01*
X90383116Y-50244185D01*
X90421212Y-50282281D01*
X90459307Y-50358471D01*
X90459307Y-50548947D01*
X90421212Y-50625138D01*
X90383116Y-50663233D01*
X90306926Y-50701328D01*
X90116450Y-50701328D01*
X90040259Y-50663233D01*
X90002164Y-50625138D01*
X89506926Y-47742281D02*
X89621212Y-47780376D01*
X89659307Y-47818471D01*
X89697402Y-47894662D01*
X89697402Y-48008947D01*
X89659307Y-48085138D01*
X89621212Y-48123233D01*
X89545021Y-48161328D01*
X89240259Y-48161328D01*
X89240259Y-47361328D01*
X89506926Y-47361328D01*
X89583116Y-47399424D01*
X89621212Y-47437519D01*
X89659307Y-47513709D01*
X89659307Y-47589900D01*
X89621212Y-47666090D01*
X89583116Y-47704185D01*
X89506926Y-47742281D01*
X89240259Y-47742281D01*
X90383116Y-47627995D02*
X90383116Y-48161328D01*
X90192640Y-47323233D02*
X90002164Y-47894662D01*
X90497402Y-47894662D01*
X89278355Y-45202281D02*
X89545021Y-45202281D01*
X89659307Y-45621328D02*
X89278355Y-45621328D01*
X89278355Y-44821328D01*
X89659307Y-44821328D01*
X90345021Y-44821328D02*
X90192640Y-44821328D01*
X90116450Y-44859424D01*
X90078355Y-44897519D01*
X90002164Y-45011804D01*
X89964069Y-45164185D01*
X89964069Y-45468947D01*
X90002164Y-45545138D01*
X90040259Y-45583233D01*
X90116450Y-45621328D01*
X90268831Y-45621328D01*
X90345021Y-45583233D01*
X90383116Y-45545138D01*
X90421212Y-45468947D01*
X90421212Y-45278471D01*
X90383116Y-45202281D01*
X90345021Y-45164185D01*
X90268831Y-45126090D01*
X90116450Y-45126090D01*
X90040259Y-45164185D01*
X90002164Y-45202281D01*
X89964069Y-45278471D01*
X89240259Y-43081328D02*
X89240259Y-42281328D01*
X89430736Y-42281328D01*
X89545021Y-42319424D01*
X89621212Y-42395614D01*
X89659307Y-42471804D01*
X89697402Y-42624185D01*
X89697402Y-42738471D01*
X89659307Y-42890852D01*
X89621212Y-42967043D01*
X89545021Y-43043233D01*
X89430736Y-43081328D01*
X89240259Y-43081328D01*
X89964069Y-42281328D02*
X90497402Y-42281328D01*
X90154545Y-43081328D01*
X89697402Y-40465138D02*
X89659307Y-40503233D01*
X89545021Y-40541328D01*
X89468831Y-40541328D01*
X89354545Y-40503233D01*
X89278355Y-40427043D01*
X89240259Y-40350852D01*
X89202164Y-40198471D01*
X89202164Y-40084185D01*
X89240259Y-39931804D01*
X89278355Y-39855614D01*
X89354545Y-39779424D01*
X89468831Y-39741328D01*
X89545021Y-39741328D01*
X89659307Y-39779424D01*
X89697402Y-39817519D01*
X90383116Y-39741328D02*
X90230736Y-39741328D01*
X90154545Y-39779424D01*
X90116450Y-39817519D01*
X90040259Y-39931804D01*
X90002164Y-40084185D01*
X90002164Y-40388947D01*
X90040259Y-40465138D01*
X90078355Y-40503233D01*
X90154545Y-40541328D01*
X90306926Y-40541328D01*
X90383116Y-40503233D01*
X90421212Y-40465138D01*
X90459307Y-40388947D01*
X90459307Y-40198471D01*
X90421212Y-40122281D01*
X90383116Y-40084185D01*
X90306926Y-40046090D01*
X90154545Y-40046090D01*
X90078355Y-40084185D01*
X90040259Y-40122281D01*
X90002164Y-40198471D01*
X89240259Y-38001328D02*
X89240259Y-37201328D01*
X89430736Y-37201328D01*
X89545021Y-37239424D01*
X89621212Y-37315614D01*
X89659307Y-37391804D01*
X89697402Y-37544185D01*
X89697402Y-37658471D01*
X89659307Y-37810852D01*
X89621212Y-37887043D01*
X89545021Y-37963233D01*
X89430736Y-38001328D01*
X89240259Y-38001328D01*
X90383116Y-37467995D02*
X90383116Y-38001328D01*
X90192640Y-37163233D02*
X90002164Y-37734662D01*
X90497402Y-37734662D01*
X88840212Y-27079424D02*
X88764021Y-27041328D01*
X88649736Y-27041328D01*
X88535450Y-27079424D01*
X88459259Y-27155614D01*
X88421164Y-27231804D01*
X88383069Y-27384185D01*
X88383069Y-27498471D01*
X88421164Y-27650852D01*
X88459259Y-27727043D01*
X88535450Y-27803233D01*
X88649736Y-27841328D01*
X88725926Y-27841328D01*
X88840212Y-27803233D01*
X88878307Y-27765138D01*
X88878307Y-27498471D01*
X88725926Y-27498471D01*
X89221164Y-27841328D02*
X89221164Y-27041328D01*
X89678307Y-27841328D01*
X89678307Y-27041328D01*
X90059259Y-27841328D02*
X90059259Y-27041328D01*
X90249736Y-27041328D01*
X90364021Y-27079424D01*
X90440212Y-27155614D01*
X90478307Y-27231804D01*
X90516402Y-27384185D01*
X90516402Y-27498471D01*
X90478307Y-27650852D01*
X90440212Y-27727043D01*
X90364021Y-27803233D01*
X90249736Y-27841328D01*
X90059259Y-27841328D01*
X88840212Y-29619424D02*
X88764021Y-29581328D01*
X88649736Y-29581328D01*
X88535450Y-29619424D01*
X88459259Y-29695614D01*
X88421164Y-29771804D01*
X88383069Y-29924185D01*
X88383069Y-30038471D01*
X88421164Y-30190852D01*
X88459259Y-30267043D01*
X88535450Y-30343233D01*
X88649736Y-30381328D01*
X88725926Y-30381328D01*
X88840212Y-30343233D01*
X88878307Y-30305138D01*
X88878307Y-30038471D01*
X88725926Y-30038471D01*
X89221164Y-30381328D02*
X89221164Y-29581328D01*
X89678307Y-30381328D01*
X89678307Y-29581328D01*
X90059259Y-30381328D02*
X90059259Y-29581328D01*
X90249736Y-29581328D01*
X90364021Y-29619424D01*
X90440212Y-29695614D01*
X90478307Y-29771804D01*
X90516402Y-29924185D01*
X90516402Y-30038471D01*
X90478307Y-30190852D01*
X90440212Y-30267043D01*
X90364021Y-30343233D01*
X90249736Y-30381328D01*
X90059259Y-30381328D01*
X89240259Y-32921328D02*
X89240259Y-32121328D01*
X89430736Y-32121328D01*
X89545021Y-32159424D01*
X89621212Y-32235614D01*
X89659307Y-32311804D01*
X89697402Y-32464185D01*
X89697402Y-32578471D01*
X89659307Y-32730852D01*
X89621212Y-32807043D01*
X89545021Y-32883233D01*
X89430736Y-32921328D01*
X89240259Y-32921328D01*
X90459307Y-32921328D02*
X90002164Y-32921328D01*
X90230736Y-32921328D02*
X90230736Y-32121328D01*
X90154545Y-32235614D01*
X90078355Y-32311804D01*
X90002164Y-32349900D01*
X89240259Y-35461328D02*
X89240259Y-34661328D01*
X89430736Y-34661328D01*
X89545021Y-34699424D01*
X89621212Y-34775614D01*
X89659307Y-34851804D01*
X89697402Y-35004185D01*
X89697402Y-35118471D01*
X89659307Y-35270852D01*
X89621212Y-35347043D01*
X89545021Y-35423233D01*
X89430736Y-35461328D01*
X89240259Y-35461328D01*
X90192640Y-34661328D02*
X90268831Y-34661328D01*
X90345021Y-34699424D01*
X90383116Y-34737519D01*
X90421212Y-34813709D01*
X90459307Y-34966090D01*
X90459307Y-35156566D01*
X90421212Y-35308947D01*
X90383116Y-35385138D01*
X90345021Y-35423233D01*
X90268831Y-35461328D01*
X90192640Y-35461328D01*
X90116450Y-35423233D01*
X90078355Y-35385138D01*
X90040259Y-35308947D01*
X90002164Y-35156566D01*
X90002164Y-34966090D01*
X90040259Y-34813709D01*
X90078355Y-34737519D01*
X90116450Y-34699424D01*
X90192640Y-34661328D01*
X89240259Y-25301328D02*
X89240259Y-24501328D01*
X89430736Y-24501328D01*
X89545021Y-24539424D01*
X89621212Y-24615614D01*
X89659307Y-24691804D01*
X89697402Y-24844185D01*
X89697402Y-24958471D01*
X89659307Y-25110852D01*
X89621212Y-25187043D01*
X89545021Y-25263233D01*
X89430736Y-25301328D01*
X89240259Y-25301328D01*
X90002164Y-24577519D02*
X90040259Y-24539424D01*
X90116450Y-24501328D01*
X90306926Y-24501328D01*
X90383116Y-24539424D01*
X90421212Y-24577519D01*
X90459307Y-24653709D01*
X90459307Y-24729900D01*
X90421212Y-24844185D01*
X89964069Y-25301328D01*
X90459307Y-25301328D01*
X89240259Y-22761328D02*
X89240259Y-21961328D01*
X89430736Y-21961328D01*
X89545021Y-21999424D01*
X89621212Y-22075614D01*
X89659307Y-22151804D01*
X89697402Y-22304185D01*
X89697402Y-22418471D01*
X89659307Y-22570852D01*
X89621212Y-22647043D01*
X89545021Y-22723233D01*
X89430736Y-22761328D01*
X89240259Y-22761328D01*
X89964069Y-21961328D02*
X90459307Y-21961328D01*
X90192640Y-22266090D01*
X90306926Y-22266090D01*
X90383116Y-22304185D01*
X90421212Y-22342281D01*
X90459307Y-22418471D01*
X90459307Y-22608947D01*
X90421212Y-22685138D01*
X90383116Y-22723233D01*
X90306926Y-22761328D01*
X90078355Y-22761328D01*
X90002164Y-22723233D01*
X89964069Y-22685138D01*
%TD*%
%LPC*%
D14*
%TO.C,REF\u002A\u002A*%
X98401737Y-65599424D03*
%TD*%
%TO.C,REF\u002A\u002A*%
X147401737Y-65599424D03*
%TD*%
%TO.C,REF\u002A\u002A*%
X147401737Y-21599424D03*
%TD*%
%TO.C,REF\u002A\u002A*%
X98401737Y-21599424D03*
%TD*%
D15*
%TO.C,KEY4*%
G36*
X158401737Y-34469424D02*
G01*
X156001737Y-34469424D01*
X156001737Y-34019424D01*
X155351737Y-34019424D01*
X155351737Y-32519424D01*
X156001737Y-32519424D01*
X156001737Y-32069424D01*
X158401737Y-32069424D01*
X158401737Y-34469424D01*
G37*
D16*
X166711737Y-35809424D03*
X166711737Y-35809424D03*
X160361737Y-33269424D03*
D15*
G36*
X168551737Y-34559423D02*
G01*
X171051737Y-34559423D01*
X171051737Y-35059423D01*
X171751737Y-35059423D01*
X171751737Y-36559423D01*
X171051737Y-36559423D01*
X171051737Y-37059423D01*
X168551737Y-37059423D01*
X168551737Y-34559423D01*
G37*
D17*
X166726737Y-35769424D03*
D16*
X167901737Y-42049424D03*
D18*
X160101737Y-44249424D03*
D19*
X171001737Y-42049424D03*
D16*
X157901737Y-42049424D03*
X162901737Y-44249424D03*
D17*
X159076737Y-35769424D03*
D16*
X165441737Y-33269424D03*
D20*
X162901737Y-38349424D03*
D21*
X157401737Y-38349424D03*
X168401737Y-38349424D03*
D22*
X167981737Y-38349424D03*
X157821737Y-38349424D03*
D16*
X159091737Y-35809423D03*
%TD*%
D15*
%TO.C,KEY8*%
G36*
X158401739Y-53469423D02*
G01*
X156001739Y-53469423D01*
X156001739Y-53019423D01*
X155351739Y-53019423D01*
X155351739Y-51519423D01*
X156001739Y-51519423D01*
X156001739Y-51069423D01*
X158401739Y-51069423D01*
X158401739Y-53469423D01*
G37*
D16*
X166711739Y-54809423D03*
X166711739Y-54809423D03*
X160361739Y-52269423D03*
D15*
G36*
X168551739Y-53559422D02*
G01*
X171051739Y-53559422D01*
X171051739Y-54059422D01*
X171751739Y-54059422D01*
X171751739Y-55559422D01*
X171051739Y-55559422D01*
X171051739Y-56059422D01*
X168551739Y-56059422D01*
X168551739Y-53559422D01*
G37*
D17*
X166726739Y-54769423D03*
D16*
X167901739Y-61049423D03*
D18*
X160101739Y-63249423D03*
D19*
X171001739Y-61049423D03*
D16*
X157901739Y-61049423D03*
X162901739Y-63249423D03*
D17*
X159076739Y-54769423D03*
D16*
X165441739Y-52269423D03*
D20*
X162901739Y-57349423D03*
D21*
X157401739Y-57349423D03*
X168401739Y-57349423D03*
D22*
X167981739Y-57349423D03*
X157821739Y-57349423D03*
D16*
X159091739Y-54809422D03*
%TD*%
D15*
%TO.C,KEY7*%
G36*
X139401739Y-48719426D02*
G01*
X137001739Y-48719426D01*
X137001739Y-48269426D01*
X136351739Y-48269426D01*
X136351739Y-46769426D01*
X137001739Y-46769426D01*
X137001739Y-46319426D01*
X139401739Y-46319426D01*
X139401739Y-48719426D01*
G37*
D16*
X147711739Y-50059426D03*
X147711739Y-50059426D03*
X141361739Y-47519426D03*
D15*
G36*
X149551739Y-48809425D02*
G01*
X152051739Y-48809425D01*
X152051739Y-49309425D01*
X152751739Y-49309425D01*
X152751739Y-50809425D01*
X152051739Y-50809425D01*
X152051739Y-51309425D01*
X149551739Y-51309425D01*
X149551739Y-48809425D01*
G37*
D17*
X147726739Y-50019426D03*
D16*
X148901739Y-56299426D03*
D18*
X141101739Y-58499426D03*
D19*
X152001739Y-56299426D03*
D16*
X138901739Y-56299426D03*
X143901739Y-58499426D03*
D17*
X140076739Y-50019426D03*
D16*
X146441739Y-47519426D03*
D20*
X143901739Y-52599426D03*
D21*
X138401739Y-52599426D03*
X149401739Y-52599426D03*
D22*
X148981739Y-52599426D03*
X138821739Y-52599426D03*
D16*
X140091739Y-50059425D03*
%TD*%
D15*
%TO.C,KEY6*%
G36*
X120401739Y-46339424D02*
G01*
X118001739Y-46339424D01*
X118001739Y-45889424D01*
X117351739Y-45889424D01*
X117351739Y-44389424D01*
X118001739Y-44389424D01*
X118001739Y-43939424D01*
X120401739Y-43939424D01*
X120401739Y-46339424D01*
G37*
D16*
X128711739Y-47679424D03*
X128711739Y-47679424D03*
X122361739Y-45139424D03*
D15*
G36*
X130551739Y-46429423D02*
G01*
X133051739Y-46429423D01*
X133051739Y-46929423D01*
X133751739Y-46929423D01*
X133751739Y-48429423D01*
X133051739Y-48429423D01*
X133051739Y-48929423D01*
X130551739Y-48929423D01*
X130551739Y-46429423D01*
G37*
D17*
X128726739Y-47639424D03*
D16*
X129901739Y-53919424D03*
D18*
X122101739Y-56119424D03*
D19*
X133001739Y-53919424D03*
D16*
X119901739Y-53919424D03*
X124901739Y-56119424D03*
D17*
X121076739Y-47639424D03*
D16*
X127441739Y-45139424D03*
D20*
X124901739Y-50219424D03*
D21*
X119401739Y-50219424D03*
X130401739Y-50219424D03*
D22*
X129981739Y-50219424D03*
X119821739Y-50219424D03*
D16*
X121091739Y-47679423D03*
%TD*%
D15*
%TO.C,KEY5*%
G36*
X101401736Y-48719424D02*
G01*
X99001736Y-48719424D01*
X99001736Y-48269424D01*
X98351736Y-48269424D01*
X98351736Y-46769424D01*
X99001736Y-46769424D01*
X99001736Y-46319424D01*
X101401736Y-46319424D01*
X101401736Y-48719424D01*
G37*
D16*
X109711736Y-50059424D03*
X109711736Y-50059424D03*
X103361736Y-47519424D03*
D15*
G36*
X111551736Y-48809423D02*
G01*
X114051736Y-48809423D01*
X114051736Y-49309423D01*
X114751736Y-49309423D01*
X114751736Y-50809423D01*
X114051736Y-50809423D01*
X114051736Y-51309423D01*
X111551736Y-51309423D01*
X111551736Y-48809423D01*
G37*
D17*
X109726736Y-50019424D03*
D16*
X110901736Y-56299424D03*
D18*
X103101736Y-58499424D03*
D19*
X114001736Y-56299424D03*
D16*
X100901736Y-56299424D03*
X105901736Y-58499424D03*
D17*
X102076736Y-50019424D03*
D16*
X108441736Y-47519424D03*
D20*
X105901736Y-52599424D03*
D21*
X100401736Y-52599424D03*
X111401736Y-52599424D03*
D22*
X110981736Y-52599424D03*
X100821736Y-52599424D03*
D16*
X102091736Y-50059423D03*
%TD*%
D15*
%TO.C,KEY3*%
G36*
X139401739Y-29719426D02*
G01*
X137001739Y-29719426D01*
X137001739Y-29269426D01*
X136351739Y-29269426D01*
X136351739Y-27769426D01*
X137001739Y-27769426D01*
X137001739Y-27319426D01*
X139401739Y-27319426D01*
X139401739Y-29719426D01*
G37*
D16*
X147711739Y-31059426D03*
X147711739Y-31059426D03*
X141361739Y-28519426D03*
D15*
G36*
X149551739Y-29809425D02*
G01*
X152051739Y-29809425D01*
X152051739Y-30309425D01*
X152751739Y-30309425D01*
X152751739Y-31809425D01*
X152051739Y-31809425D01*
X152051739Y-32309425D01*
X149551739Y-32309425D01*
X149551739Y-29809425D01*
G37*
D17*
X147726739Y-31019426D03*
D16*
X148901739Y-37299426D03*
D18*
X141101739Y-39499426D03*
D19*
X152001739Y-37299426D03*
D16*
X138901739Y-37299426D03*
X143901739Y-39499426D03*
D17*
X140076739Y-31019426D03*
D16*
X146441739Y-28519426D03*
D20*
X143901739Y-33599426D03*
D21*
X138401739Y-33599426D03*
X149401739Y-33599426D03*
D22*
X148981739Y-33599426D03*
X138821739Y-33599426D03*
D16*
X140091739Y-31059425D03*
%TD*%
D15*
%TO.C,KEY2*%
G36*
X120401737Y-27339424D02*
G01*
X118001737Y-27339424D01*
X118001737Y-26889424D01*
X117351737Y-26889424D01*
X117351737Y-25389424D01*
X118001737Y-25389424D01*
X118001737Y-24939424D01*
X120401737Y-24939424D01*
X120401737Y-27339424D01*
G37*
D16*
X128711737Y-28679424D03*
X128711737Y-28679424D03*
X122361737Y-26139424D03*
D15*
G36*
X130551737Y-27429423D02*
G01*
X133051737Y-27429423D01*
X133051737Y-27929423D01*
X133751737Y-27929423D01*
X133751737Y-29429423D01*
X133051737Y-29429423D01*
X133051737Y-29929423D01*
X130551737Y-29929423D01*
X130551737Y-27429423D01*
G37*
D17*
X128726737Y-28639424D03*
D16*
X129901737Y-34919424D03*
D18*
X122101737Y-37119424D03*
D19*
X133001737Y-34919424D03*
D16*
X119901737Y-34919424D03*
X124901737Y-37119424D03*
D17*
X121076737Y-28639424D03*
D16*
X127441737Y-26139424D03*
D20*
X124901737Y-31219424D03*
D21*
X119401737Y-31219424D03*
X130401737Y-31219424D03*
D22*
X129981737Y-31219424D03*
X119821737Y-31219424D03*
D16*
X121091737Y-28679423D03*
%TD*%
D15*
%TO.C,KEY1*%
G36*
X101401737Y-29719424D02*
G01*
X99001737Y-29719424D01*
X99001737Y-29269424D01*
X98351737Y-29269424D01*
X98351737Y-27769424D01*
X99001737Y-27769424D01*
X99001737Y-27319424D01*
X101401737Y-27319424D01*
X101401737Y-29719424D01*
G37*
D16*
X109711737Y-31059424D03*
X109711737Y-31059424D03*
X103361737Y-28519424D03*
D15*
G36*
X111551737Y-29809423D02*
G01*
X114051737Y-29809423D01*
X114051737Y-30309423D01*
X114751737Y-30309423D01*
X114751737Y-31809423D01*
X114051737Y-31809423D01*
X114051737Y-32309423D01*
X111551737Y-32309423D01*
X111551737Y-29809423D01*
G37*
D17*
X109726737Y-31019424D03*
D16*
X110901737Y-37299424D03*
D18*
X103101737Y-39499424D03*
D19*
X114001737Y-37299424D03*
D16*
X100901737Y-37299424D03*
X105901737Y-39499424D03*
D17*
X102076737Y-31019424D03*
D16*
X108441737Y-28519424D03*
D20*
X105901737Y-33599424D03*
D21*
X100401737Y-33599424D03*
X111401737Y-33599424D03*
D22*
X110981737Y-33599424D03*
X100821737Y-33599424D03*
D16*
X102091737Y-31059423D03*
%TD*%
D23*
%TO.C,U1*%
X93640736Y-46529424D03*
X93640736Y-49069424D03*
X93640736Y-51609424D03*
X78400736Y-49069424D03*
X78400736Y-46529424D03*
X78400736Y-43989424D03*
X78400736Y-41449424D03*
X78400736Y-38909424D03*
X78400736Y-36369424D03*
X78400736Y-33829424D03*
X78400736Y-31289424D03*
X78400736Y-28749424D03*
X78400736Y-26209424D03*
X78400736Y-23669424D03*
X93640736Y-23669424D03*
X78400736Y-51609424D03*
X93640736Y-26209424D03*
X93640736Y-28749424D03*
X93640736Y-31289424D03*
X93640736Y-33829424D03*
X93640736Y-36369424D03*
X93640736Y-38909424D03*
X93640736Y-41449424D03*
X93640736Y-43989424D03*
%TD*%
%TO.C,U2*%
X76749736Y-42719424D03*
X76749736Y-40179424D03*
X76749736Y-37639424D03*
X76749736Y-35099424D03*
X76749736Y-32559424D03*
X76749736Y-30019424D03*
X76749736Y-27479424D03*
X76749736Y-24939424D03*
X91989736Y-50339424D03*
X76749736Y-22399424D03*
X91989736Y-22399424D03*
X91989736Y-24939424D03*
X91989736Y-27479424D03*
X91989736Y-30019424D03*
X91989736Y-32559424D03*
X91989736Y-35099424D03*
X91989736Y-37639424D03*
X91989736Y-40179424D03*
X91989736Y-42719424D03*
X91989736Y-45259424D03*
X91989736Y-47799424D03*
X76749736Y-50339424D03*
X76749736Y-47799424D03*
X76749736Y-45259424D03*
%TD*%
D24*
%TO.C,J3*%
X89721739Y-56281424D03*
X87181739Y-56281424D03*
X84641739Y-56281424D03*
D25*
X82101739Y-56281424D03*
%TD*%
D24*
%TO.C,J1*%
X107171737Y-20599424D03*
D25*
X104631737Y-20599424D03*
%TD*%
D26*
%TO.C,PUSH2*%
X83201736Y-60492424D03*
X86601736Y-60492424D03*
%TD*%
D27*
%TO.C,SW2*%
X166551737Y-22879424D03*
X159251737Y-22879424D03*
X159251737Y-20669424D03*
X166551737Y-20669424D03*
D28*
X160651737Y-23529424D03*
X162151737Y-23529424D03*
X165151737Y-23529424D03*
D29*
X161401737Y-21769424D03*
X164401737Y-21769424D03*
%TD*%
%TO.C,SW1*%
X164401737Y-21769424D03*
X161401737Y-21769424D03*
%TD*%
M02*
