%TF.GenerationSoftware,KiCad,Pcbnew,5.1.10*%
%TF.CreationDate,2021-07-08T20:07:14-05:00*%
%TF.ProjectId,small-paintbrush-hotswap,736d616c-6c2d-4706-9169-6e7462727573,rev?*%
%TF.SameCoordinates,Original*%
%TF.FileFunction,Legend,Top*%
%TF.FilePolarity,Positive*%
%FSLAX46Y46*%
G04 Gerber Fmt 4.6, Leading zero omitted, Abs format (unit mm)*
G04 Created by KiCad (PCBNEW 5.1.10) date 2021-07-08 20:07:14*
%MOMM*%
%LPD*%
G01*
G04 APERTURE LIST*
%ADD10C,0.150000*%
%ADD11C,0.120000*%
%ADD12C,0.381000*%
G04 APERTURE END LIST*
D10*
%TO.C,KEY2*%
X116901737Y-24219424D02*
X117901737Y-24219424D01*
X116901737Y-29719424D02*
X116901737Y-29219424D01*
X116901737Y-25219424D02*
X116901737Y-24219424D01*
X117901737Y-38219424D02*
X116901737Y-38219424D01*
X121401737Y-29019424D02*
X121401737Y-29719424D01*
X121401737Y-29719424D02*
X116901737Y-29719424D01*
X130901737Y-38219424D02*
X129901737Y-38219424D01*
X129901737Y-24219424D02*
X130901737Y-24219424D01*
X125901737Y-27019424D02*
X125401737Y-27519424D01*
X116901737Y-38219424D02*
X116901737Y-37219424D01*
X116901737Y-25619424D02*
X116901737Y-25019424D01*
X116901737Y-25019424D02*
X121401737Y-25019424D01*
X122401737Y-23019424D02*
X121901737Y-23519424D01*
X125901737Y-23519424D02*
X125401737Y-23019424D01*
X121901737Y-24519424D02*
X121901737Y-23519424D01*
X125401737Y-27519424D02*
X122901737Y-27519424D01*
X130901737Y-24219424D02*
X130901737Y-25219424D01*
X125401737Y-23019424D02*
X122401737Y-23019424D01*
X130901737Y-37219424D02*
X130901737Y-38219424D01*
X121401737Y-25019424D02*
G75*
G03*
X121901737Y-24519424I0J500000D01*
G01*
X122901737Y-27519424D02*
G75*
G03*
X121401737Y-29019424I0J-1500000D01*
G01*
%TO.C,KEY3*%
X134901739Y-26599426D02*
X135901739Y-26599426D01*
X134901739Y-32099426D02*
X134901739Y-31599426D01*
X134901739Y-27599426D02*
X134901739Y-26599426D01*
X135901739Y-40599426D02*
X134901739Y-40599426D01*
X139401739Y-31399426D02*
X139401739Y-32099426D01*
X139401739Y-32099426D02*
X134901739Y-32099426D01*
X148901739Y-40599426D02*
X147901739Y-40599426D01*
X147901739Y-26599426D02*
X148901739Y-26599426D01*
X143901739Y-29399426D02*
X143401739Y-29899426D01*
X134901739Y-40599426D02*
X134901739Y-39599426D01*
X134901739Y-27999426D02*
X134901739Y-27399426D01*
X134901739Y-27399426D02*
X139401739Y-27399426D01*
X140401739Y-25399426D02*
X139901739Y-25899426D01*
X143901739Y-25899426D02*
X143401739Y-25399426D01*
X139901739Y-26899426D02*
X139901739Y-25899426D01*
X143401739Y-29899426D02*
X140901739Y-29899426D01*
X148901739Y-26599426D02*
X148901739Y-27599426D01*
X143401739Y-25399426D02*
X140401739Y-25399426D01*
X148901739Y-39599426D02*
X148901739Y-40599426D01*
X139401739Y-27399426D02*
G75*
G03*
X139901739Y-26899426I0J500000D01*
G01*
X140901739Y-29899426D02*
G75*
G03*
X139401739Y-31399426I0J-1500000D01*
G01*
%TO.C,KEY4*%
X152901737Y-31349424D02*
X153901737Y-31349424D01*
X152901737Y-36849424D02*
X152901737Y-36349424D01*
X152901737Y-32349424D02*
X152901737Y-31349424D01*
X153901737Y-45349424D02*
X152901737Y-45349424D01*
X157401737Y-36149424D02*
X157401737Y-36849424D01*
X157401737Y-36849424D02*
X152901737Y-36849424D01*
X166901737Y-45349424D02*
X165901737Y-45349424D01*
X165901737Y-31349424D02*
X166901737Y-31349424D01*
X161901737Y-34149424D02*
X161401737Y-34649424D01*
X152901737Y-45349424D02*
X152901737Y-44349424D01*
X152901737Y-32749424D02*
X152901737Y-32149424D01*
X152901737Y-32149424D02*
X157401737Y-32149424D01*
X158401737Y-30149424D02*
X157901737Y-30649424D01*
X161901737Y-30649424D02*
X161401737Y-30149424D01*
X157901737Y-31649424D02*
X157901737Y-30649424D01*
X161401737Y-34649424D02*
X158901737Y-34649424D01*
X166901737Y-31349424D02*
X166901737Y-32349424D01*
X161401737Y-30149424D02*
X158401737Y-30149424D01*
X166901737Y-44349424D02*
X166901737Y-45349424D01*
X157401737Y-32149424D02*
G75*
G03*
X157901737Y-31649424I0J500000D01*
G01*
X158901737Y-34649424D02*
G75*
G03*
X157401737Y-36149424I0J-1500000D01*
G01*
%TO.C,KEY6*%
X116901739Y-41219424D02*
X117901739Y-41219424D01*
X116901739Y-46719424D02*
X116901739Y-46219424D01*
X116901739Y-42219424D02*
X116901739Y-41219424D01*
X117901739Y-55219424D02*
X116901739Y-55219424D01*
X121401739Y-46019424D02*
X121401739Y-46719424D01*
X121401739Y-46719424D02*
X116901739Y-46719424D01*
X130901739Y-55219424D02*
X129901739Y-55219424D01*
X129901739Y-41219424D02*
X130901739Y-41219424D01*
X125901739Y-44019424D02*
X125401739Y-44519424D01*
X116901739Y-55219424D02*
X116901739Y-54219424D01*
X116901739Y-42619424D02*
X116901739Y-42019424D01*
X116901739Y-42019424D02*
X121401739Y-42019424D01*
X122401739Y-40019424D02*
X121901739Y-40519424D01*
X125901739Y-40519424D02*
X125401739Y-40019424D01*
X121901739Y-41519424D02*
X121901739Y-40519424D01*
X125401739Y-44519424D02*
X122901739Y-44519424D01*
X130901739Y-41219424D02*
X130901739Y-42219424D01*
X125401739Y-40019424D02*
X122401739Y-40019424D01*
X130901739Y-54219424D02*
X130901739Y-55219424D01*
X121401739Y-42019424D02*
G75*
G03*
X121901739Y-41519424I0J500000D01*
G01*
X122901739Y-44519424D02*
G75*
G03*
X121401739Y-46019424I0J-1500000D01*
G01*
%TO.C,KEY7*%
X134901739Y-43599426D02*
X135901739Y-43599426D01*
X134901739Y-49099426D02*
X134901739Y-48599426D01*
X134901739Y-44599426D02*
X134901739Y-43599426D01*
X135901739Y-57599426D02*
X134901739Y-57599426D01*
X139401739Y-48399426D02*
X139401739Y-49099426D01*
X139401739Y-49099426D02*
X134901739Y-49099426D01*
X148901739Y-57599426D02*
X147901739Y-57599426D01*
X147901739Y-43599426D02*
X148901739Y-43599426D01*
X143901739Y-46399426D02*
X143401739Y-46899426D01*
X134901739Y-57599426D02*
X134901739Y-56599426D01*
X134901739Y-44999426D02*
X134901739Y-44399426D01*
X134901739Y-44399426D02*
X139401739Y-44399426D01*
X140401739Y-42399426D02*
X139901739Y-42899426D01*
X143901739Y-42899426D02*
X143401739Y-42399426D01*
X139901739Y-43899426D02*
X139901739Y-42899426D01*
X143401739Y-46899426D02*
X140901739Y-46899426D01*
X148901739Y-43599426D02*
X148901739Y-44599426D01*
X143401739Y-42399426D02*
X140401739Y-42399426D01*
X148901739Y-56599426D02*
X148901739Y-57599426D01*
X139401739Y-44399426D02*
G75*
G03*
X139901739Y-43899426I0J500000D01*
G01*
X140901739Y-46899426D02*
G75*
G03*
X139401739Y-48399426I0J-1500000D01*
G01*
%TO.C,KEY8*%
X152901739Y-48349423D02*
X153901739Y-48349423D01*
X152901739Y-53849423D02*
X152901739Y-53349423D01*
X152901739Y-49349423D02*
X152901739Y-48349423D01*
X153901739Y-62349423D02*
X152901739Y-62349423D01*
X157401739Y-53149423D02*
X157401739Y-53849423D01*
X157401739Y-53849423D02*
X152901739Y-53849423D01*
X166901739Y-62349423D02*
X165901739Y-62349423D01*
X165901739Y-48349423D02*
X166901739Y-48349423D01*
X161901739Y-51149423D02*
X161401739Y-51649423D01*
X152901739Y-62349423D02*
X152901739Y-61349423D01*
X152901739Y-49749423D02*
X152901739Y-49149423D01*
X152901739Y-49149423D02*
X157401739Y-49149423D01*
X158401739Y-47149423D02*
X157901739Y-47649423D01*
X161901739Y-47649423D02*
X161401739Y-47149423D01*
X157901739Y-48649423D02*
X157901739Y-47649423D01*
X161401739Y-51649423D02*
X158901739Y-51649423D01*
X166901739Y-48349423D02*
X166901739Y-49349423D01*
X161401739Y-47149423D02*
X158401739Y-47149423D01*
X166901739Y-61349423D02*
X166901739Y-62349423D01*
X157401739Y-49149423D02*
G75*
G03*
X157901739Y-48649423I0J500000D01*
G01*
X158901739Y-51649423D02*
G75*
G03*
X157401739Y-53149423I0J-1500000D01*
G01*
%TO.C,KEY1*%
X98901737Y-26599424D02*
X99901737Y-26599424D01*
X98901737Y-32099424D02*
X98901737Y-31599424D01*
X98901737Y-27599424D02*
X98901737Y-26599424D01*
X99901737Y-40599424D02*
X98901737Y-40599424D01*
X103401737Y-31399424D02*
X103401737Y-32099424D01*
X103401737Y-32099424D02*
X98901737Y-32099424D01*
X112901737Y-40599424D02*
X111901737Y-40599424D01*
X111901737Y-26599424D02*
X112901737Y-26599424D01*
X107901737Y-29399424D02*
X107401737Y-29899424D01*
X98901737Y-40599424D02*
X98901737Y-39599424D01*
X98901737Y-27999424D02*
X98901737Y-27399424D01*
X98901737Y-27399424D02*
X103401737Y-27399424D01*
X104401737Y-25399424D02*
X103901737Y-25899424D01*
X107901737Y-25899424D02*
X107401737Y-25399424D01*
X103901737Y-26899424D02*
X103901737Y-25899424D01*
X107401737Y-29899424D02*
X104901737Y-29899424D01*
X112901737Y-26599424D02*
X112901737Y-27599424D01*
X107401737Y-25399424D02*
X104401737Y-25399424D01*
X112901737Y-39599424D02*
X112901737Y-40599424D01*
X103401737Y-27399424D02*
G75*
G03*
X103901737Y-26899424I0J500000D01*
G01*
X104901737Y-29899424D02*
G75*
G03*
X103401737Y-31399424I0J-1500000D01*
G01*
%TO.C,KEY5*%
X98901736Y-43599424D02*
X99901736Y-43599424D01*
X98901736Y-49099424D02*
X98901736Y-48599424D01*
X98901736Y-44599424D02*
X98901736Y-43599424D01*
X99901736Y-57599424D02*
X98901736Y-57599424D01*
X103401736Y-48399424D02*
X103401736Y-49099424D01*
X103401736Y-49099424D02*
X98901736Y-49099424D01*
X112901736Y-57599424D02*
X111901736Y-57599424D01*
X111901736Y-43599424D02*
X112901736Y-43599424D01*
X107901736Y-46399424D02*
X107401736Y-46899424D01*
X98901736Y-57599424D02*
X98901736Y-56599424D01*
X98901736Y-44999424D02*
X98901736Y-44399424D01*
X98901736Y-44399424D02*
X103401736Y-44399424D01*
X104401736Y-42399424D02*
X103901736Y-42899424D01*
X107901736Y-42899424D02*
X107401736Y-42399424D01*
X103901736Y-43899424D02*
X103901736Y-42899424D01*
X107401736Y-46899424D02*
X104901736Y-46899424D01*
X112901736Y-43599424D02*
X112901736Y-44599424D01*
X107401736Y-42399424D02*
X104401736Y-42399424D01*
X112901736Y-56599424D02*
X112901736Y-57599424D01*
X103401736Y-44399424D02*
G75*
G03*
X103901736Y-43899424I0J500000D01*
G01*
X104901736Y-46899424D02*
G75*
G03*
X103401736Y-48399424I0J-1500000D01*
G01*
D11*
%TO.C,J1*%
X102071736Y-21929424D02*
X102071736Y-20599424D01*
X103401736Y-21929424D02*
X102071736Y-21929424D01*
X104671736Y-21929424D02*
X104671736Y-19269424D01*
X104671736Y-19269424D02*
X107271736Y-19269424D01*
X104671736Y-21929424D02*
X107271736Y-21929424D01*
X107271736Y-21929424D02*
X107271736Y-19269424D01*
%TO.C,PUSH2*%
X83251736Y-60749424D02*
X83251736Y-60449424D01*
X86551736Y-60749424D02*
X83251736Y-60749424D01*
X86551736Y-60449424D02*
X86551736Y-60749424D01*
X83251736Y-57949424D02*
X83251736Y-58249424D01*
X86551736Y-57949424D02*
X83251736Y-57949424D01*
X86551736Y-58249424D02*
X86551736Y-57949424D01*
%TO.C,SW2*%
X155951737Y-21379425D02*
X155951737Y-22169425D01*
X162851737Y-22169425D02*
X162851737Y-21379425D01*
X161001737Y-23219425D02*
X159301737Y-23219425D01*
X162251737Y-20369425D02*
X156551737Y-20369425D01*
X159501737Y-19079425D02*
X159501737Y-20369425D01*
X160601737Y-18869425D02*
X159701737Y-18869425D01*
X160801737Y-20369425D02*
X160801737Y-19079425D01*
X159501737Y-19079425D02*
X159701737Y-18869425D01*
X160801737Y-19079425D02*
X160601737Y-18869425D01*
X158001737Y-23219425D02*
X157801737Y-23219425D01*
D12*
%TO.C,U1*%
X80051737Y-21109424D02*
X77511737Y-21109424D01*
X77511737Y-18569424D02*
X77511737Y-21109424D01*
X95291737Y-18569424D02*
X77511737Y-18569424D01*
X95291737Y-21109424D02*
X95291737Y-18569424D01*
D10*
G36*
X91333305Y-27588784D02*
G01*
X91333305Y-27788784D01*
X91233305Y-27788784D01*
X91233305Y-27588784D01*
X91333305Y-27588784D01*
G37*
X91333305Y-27588784D02*
X91333305Y-27788784D01*
X91233305Y-27788784D01*
X91233305Y-27588784D01*
X91333305Y-27588784D01*
G36*
X90933305Y-26988784D02*
G01*
X90933305Y-27788784D01*
X90833305Y-27788784D01*
X90833305Y-26988784D01*
X90933305Y-26988784D01*
G37*
X90933305Y-26988784D02*
X90933305Y-27788784D01*
X90833305Y-27788784D01*
X90833305Y-26988784D01*
X90933305Y-26988784D01*
G36*
X91333305Y-26988784D02*
G01*
X91333305Y-27088784D01*
X90833305Y-27088784D01*
X90833305Y-26988784D01*
X91333305Y-26988784D01*
G37*
X91333305Y-26988784D02*
X91333305Y-27088784D01*
X90833305Y-27088784D01*
X90833305Y-26988784D01*
X91333305Y-26988784D01*
G36*
X91133305Y-27388784D02*
G01*
X91133305Y-27488784D01*
X91033305Y-27488784D01*
X91033305Y-27388784D01*
X91133305Y-27388784D01*
G37*
X91133305Y-27388784D02*
X91133305Y-27488784D01*
X91033305Y-27488784D01*
X91033305Y-27388784D01*
X91133305Y-27388784D01*
G36*
X91333305Y-26988784D02*
G01*
X91333305Y-27288784D01*
X91233305Y-27288784D01*
X91233305Y-26988784D01*
X91333305Y-26988784D01*
G37*
X91333305Y-26988784D02*
X91333305Y-27288784D01*
X91233305Y-27288784D01*
X91233305Y-26988784D01*
X91333305Y-26988784D01*
D12*
X80051737Y-23649424D02*
X77511737Y-23649424D01*
X80051737Y-21109424D02*
X80051737Y-23649424D01*
X95291737Y-51589424D02*
X95291737Y-21109424D01*
X77511737Y-51589424D02*
X95291737Y-51589424D01*
X77511737Y-21109424D02*
X77511737Y-51589424D01*
%TO.C,U2*%
X90751736Y-21109424D02*
X93291736Y-21109424D01*
X75511736Y-18569424D02*
X93291736Y-18569424D01*
X93291736Y-18569424D02*
X93291736Y-51589424D01*
X93291736Y-51589424D02*
X75511736Y-51589424D01*
X75511736Y-51589424D02*
X75511736Y-18569424D01*
D10*
G36*
X78557101Y-26998454D02*
G01*
X78557101Y-27098454D01*
X78057101Y-27098454D01*
X78057101Y-26998454D01*
X78557101Y-26998454D01*
G37*
X78557101Y-26998454D02*
X78557101Y-27098454D01*
X78057101Y-27098454D01*
X78057101Y-26998454D01*
X78557101Y-26998454D01*
G36*
X78557101Y-26998454D02*
G01*
X78557101Y-27298454D01*
X78457101Y-27298454D01*
X78457101Y-26998454D01*
X78557101Y-26998454D01*
G37*
X78557101Y-26998454D02*
X78557101Y-27298454D01*
X78457101Y-27298454D01*
X78457101Y-26998454D01*
X78557101Y-26998454D01*
G36*
X78557101Y-27598454D02*
G01*
X78557101Y-27798454D01*
X78457101Y-27798454D01*
X78457101Y-27598454D01*
X78557101Y-27598454D01*
G37*
X78557101Y-27598454D02*
X78557101Y-27798454D01*
X78457101Y-27798454D01*
X78457101Y-27598454D01*
X78557101Y-27598454D01*
G36*
X78157101Y-26998454D02*
G01*
X78157101Y-27798454D01*
X78057101Y-27798454D01*
X78057101Y-26998454D01*
X78157101Y-26998454D01*
G37*
X78157101Y-26998454D02*
X78157101Y-27798454D01*
X78057101Y-27798454D01*
X78057101Y-26998454D01*
X78157101Y-26998454D01*
G36*
X78357101Y-27398454D02*
G01*
X78357101Y-27498454D01*
X78257101Y-27498454D01*
X78257101Y-27398454D01*
X78357101Y-27398454D01*
G37*
X78357101Y-27398454D02*
X78357101Y-27498454D01*
X78257101Y-27498454D01*
X78257101Y-27398454D01*
X78357101Y-27398454D01*
D12*
X90751736Y-21109424D02*
X90751736Y-23649424D01*
X90751736Y-23649424D02*
X93291736Y-23649424D01*
%TO.C,U1*%
D10*
X80639388Y-21941328D02*
X81096531Y-21941328D01*
X80867960Y-22741328D02*
X80867960Y-21941328D01*
X81287007Y-21941328D02*
X81820341Y-22741328D01*
X81820341Y-21941328D02*
X81287007Y-22741328D01*
X82277484Y-21941328D02*
X82353674Y-21941328D01*
X82429865Y-21979424D01*
X82467960Y-22017519D01*
X82506055Y-22093709D01*
X82544150Y-22246090D01*
X82544150Y-22436566D01*
X82506055Y-22588947D01*
X82467960Y-22665138D01*
X82429865Y-22703233D01*
X82353674Y-22741328D01*
X82277484Y-22741328D01*
X82201293Y-22703233D01*
X82163198Y-22665138D01*
X82125103Y-22588947D01*
X82087007Y-22436566D01*
X82087007Y-22246090D01*
X82125103Y-22093709D01*
X82163198Y-22017519D01*
X82201293Y-21979424D01*
X82277484Y-21941328D01*
X83458436Y-21903233D02*
X82772722Y-22931804D01*
X83725103Y-22741328D02*
X83725103Y-21941328D01*
X83915579Y-21941328D01*
X84029865Y-21979424D01*
X84106055Y-22055614D01*
X84144150Y-22131804D01*
X84182245Y-22284185D01*
X84182245Y-22398471D01*
X84144150Y-22550852D01*
X84106055Y-22627043D01*
X84029865Y-22703233D01*
X83915579Y-22741328D01*
X83725103Y-22741328D01*
X84448912Y-21941328D02*
X84944150Y-21941328D01*
X84677484Y-22246090D01*
X84791769Y-22246090D01*
X84867960Y-22284185D01*
X84906055Y-22322281D01*
X84944150Y-22398471D01*
X84944150Y-22588947D01*
X84906055Y-22665138D01*
X84867960Y-22703233D01*
X84791769Y-22741328D01*
X84563198Y-22741328D01*
X84487007Y-22703233D01*
X84448912Y-22665138D01*
X80350260Y-25281328D02*
X80350260Y-24481328D01*
X80540737Y-24481328D01*
X80655022Y-24519424D01*
X80731213Y-24595614D01*
X80769308Y-24671804D01*
X80807403Y-24824185D01*
X80807403Y-24938471D01*
X80769308Y-25090852D01*
X80731213Y-25167043D01*
X80655022Y-25243233D01*
X80540737Y-25281328D01*
X80350260Y-25281328D01*
X81112165Y-24557519D02*
X81150260Y-24519424D01*
X81226451Y-24481328D01*
X81416927Y-24481328D01*
X81493117Y-24519424D01*
X81531213Y-24557519D01*
X81569308Y-24633709D01*
X81569308Y-24709900D01*
X81531213Y-24824185D01*
X81074070Y-25281328D01*
X81569308Y-25281328D01*
X80350260Y-35441328D02*
X80350260Y-34641328D01*
X80540737Y-34641328D01*
X80655022Y-34679424D01*
X80731213Y-34755614D01*
X80769308Y-34831804D01*
X80807403Y-34984185D01*
X80807403Y-35098471D01*
X80769308Y-35250852D01*
X80731213Y-35327043D01*
X80655022Y-35403233D01*
X80540737Y-35441328D01*
X80350260Y-35441328D01*
X81302641Y-34641328D02*
X81378832Y-34641328D01*
X81455022Y-34679424D01*
X81493117Y-34717519D01*
X81531213Y-34793709D01*
X81569308Y-34946090D01*
X81569308Y-35136566D01*
X81531213Y-35288947D01*
X81493117Y-35365138D01*
X81455022Y-35403233D01*
X81378832Y-35441328D01*
X81302641Y-35441328D01*
X81226451Y-35403233D01*
X81188356Y-35365138D01*
X81150260Y-35288947D01*
X81112165Y-35136566D01*
X81112165Y-34946090D01*
X81150260Y-34793709D01*
X81188356Y-34717519D01*
X81226451Y-34679424D01*
X81302641Y-34641328D01*
X80350260Y-32901328D02*
X80350260Y-32101328D01*
X80540737Y-32101328D01*
X80655022Y-32139424D01*
X80731213Y-32215614D01*
X80769308Y-32291804D01*
X80807403Y-32444185D01*
X80807403Y-32558471D01*
X80769308Y-32710852D01*
X80731213Y-32787043D01*
X80655022Y-32863233D01*
X80540737Y-32901328D01*
X80350260Y-32901328D01*
X81569308Y-32901328D02*
X81112165Y-32901328D01*
X81340737Y-32901328D02*
X81340737Y-32101328D01*
X81264546Y-32215614D01*
X81188356Y-32291804D01*
X81112165Y-32329900D01*
X80331213Y-29599424D02*
X80255022Y-29561328D01*
X80140737Y-29561328D01*
X80026451Y-29599424D01*
X79950260Y-29675614D01*
X79912165Y-29751804D01*
X79874070Y-29904185D01*
X79874070Y-30018471D01*
X79912165Y-30170852D01*
X79950260Y-30247043D01*
X80026451Y-30323233D01*
X80140737Y-30361328D01*
X80216927Y-30361328D01*
X80331213Y-30323233D01*
X80369308Y-30285138D01*
X80369308Y-30018471D01*
X80216927Y-30018471D01*
X80712165Y-30361328D02*
X80712165Y-29561328D01*
X81169308Y-30361328D01*
X81169308Y-29561328D01*
X81550260Y-30361328D02*
X81550260Y-29561328D01*
X81740737Y-29561328D01*
X81855022Y-29599424D01*
X81931213Y-29675614D01*
X81969308Y-29751804D01*
X82007403Y-29904185D01*
X82007403Y-30018471D01*
X81969308Y-30170852D01*
X81931213Y-30247043D01*
X81855022Y-30323233D01*
X81740737Y-30361328D01*
X81550260Y-30361328D01*
X80331213Y-27059424D02*
X80255022Y-27021328D01*
X80140737Y-27021328D01*
X80026451Y-27059424D01*
X79950260Y-27135614D01*
X79912165Y-27211804D01*
X79874070Y-27364185D01*
X79874070Y-27478471D01*
X79912165Y-27630852D01*
X79950260Y-27707043D01*
X80026451Y-27783233D01*
X80140737Y-27821328D01*
X80216927Y-27821328D01*
X80331213Y-27783233D01*
X80369308Y-27745138D01*
X80369308Y-27478471D01*
X80216927Y-27478471D01*
X80712165Y-27821328D02*
X80712165Y-27021328D01*
X81169308Y-27821328D01*
X81169308Y-27021328D01*
X81550260Y-27821328D02*
X81550260Y-27021328D01*
X81740737Y-27021328D01*
X81855022Y-27059424D01*
X81931213Y-27135614D01*
X81969308Y-27211804D01*
X82007403Y-27364185D01*
X82007403Y-27478471D01*
X81969308Y-27630852D01*
X81931213Y-27707043D01*
X81855022Y-27783233D01*
X81740737Y-27821328D01*
X81550260Y-27821328D01*
X80350260Y-37981328D02*
X80350260Y-37181328D01*
X80540737Y-37181328D01*
X80655022Y-37219424D01*
X80731213Y-37295614D01*
X80769308Y-37371804D01*
X80807403Y-37524185D01*
X80807403Y-37638471D01*
X80769308Y-37790852D01*
X80731213Y-37867043D01*
X80655022Y-37943233D01*
X80540737Y-37981328D01*
X80350260Y-37981328D01*
X81493117Y-37447995D02*
X81493117Y-37981328D01*
X81302641Y-37143233D02*
X81112165Y-37714662D01*
X81607403Y-37714662D01*
X80807403Y-40445138D02*
X80769308Y-40483233D01*
X80655022Y-40521328D01*
X80578832Y-40521328D01*
X80464546Y-40483233D01*
X80388356Y-40407043D01*
X80350260Y-40330852D01*
X80312165Y-40178471D01*
X80312165Y-40064185D01*
X80350260Y-39911804D01*
X80388356Y-39835614D01*
X80464546Y-39759424D01*
X80578832Y-39721328D01*
X80655022Y-39721328D01*
X80769308Y-39759424D01*
X80807403Y-39797519D01*
X81493117Y-39721328D02*
X81340737Y-39721328D01*
X81264546Y-39759424D01*
X81226451Y-39797519D01*
X81150260Y-39911804D01*
X81112165Y-40064185D01*
X81112165Y-40368947D01*
X81150260Y-40445138D01*
X81188356Y-40483233D01*
X81264546Y-40521328D01*
X81416927Y-40521328D01*
X81493117Y-40483233D01*
X81531213Y-40445138D01*
X81569308Y-40368947D01*
X81569308Y-40178471D01*
X81531213Y-40102281D01*
X81493117Y-40064185D01*
X81416927Y-40026090D01*
X81264546Y-40026090D01*
X81188356Y-40064185D01*
X81150260Y-40102281D01*
X81112165Y-40178471D01*
X80350260Y-43061328D02*
X80350260Y-42261328D01*
X80540737Y-42261328D01*
X80655022Y-42299424D01*
X80731213Y-42375614D01*
X80769308Y-42451804D01*
X80807403Y-42604185D01*
X80807403Y-42718471D01*
X80769308Y-42870852D01*
X80731213Y-42947043D01*
X80655022Y-43023233D01*
X80540737Y-43061328D01*
X80350260Y-43061328D01*
X81074070Y-42261328D02*
X81607403Y-42261328D01*
X81264546Y-43061328D01*
X80388356Y-45182281D02*
X80655022Y-45182281D01*
X80769308Y-45601328D02*
X80388356Y-45601328D01*
X80388356Y-44801328D01*
X80769308Y-44801328D01*
X81455022Y-44801328D02*
X81302641Y-44801328D01*
X81226451Y-44839424D01*
X81188356Y-44877519D01*
X81112165Y-44991804D01*
X81074070Y-45144185D01*
X81074070Y-45448947D01*
X81112165Y-45525138D01*
X81150260Y-45563233D01*
X81226451Y-45601328D01*
X81378832Y-45601328D01*
X81455022Y-45563233D01*
X81493117Y-45525138D01*
X81531213Y-45448947D01*
X81531213Y-45258471D01*
X81493117Y-45182281D01*
X81455022Y-45144185D01*
X81378832Y-45106090D01*
X81226451Y-45106090D01*
X81150260Y-45144185D01*
X81112165Y-45182281D01*
X81074070Y-45258471D01*
X80616927Y-47722281D02*
X80731213Y-47760376D01*
X80769308Y-47798471D01*
X80807403Y-47874662D01*
X80807403Y-47988947D01*
X80769308Y-48065138D01*
X80731213Y-48103233D01*
X80655022Y-48141328D01*
X80350260Y-48141328D01*
X80350260Y-47341328D01*
X80616927Y-47341328D01*
X80693117Y-47379424D01*
X80731213Y-47417519D01*
X80769308Y-47493709D01*
X80769308Y-47569900D01*
X80731213Y-47646090D01*
X80693117Y-47684185D01*
X80616927Y-47722281D01*
X80350260Y-47722281D01*
X81493117Y-47607995D02*
X81493117Y-48141328D01*
X81302641Y-47303233D02*
X81112165Y-47874662D01*
X81607403Y-47874662D01*
X80616927Y-50262281D02*
X80731213Y-50300376D01*
X80769308Y-50338471D01*
X80807403Y-50414662D01*
X80807403Y-50528947D01*
X80769308Y-50605138D01*
X80731213Y-50643233D01*
X80655022Y-50681328D01*
X80350260Y-50681328D01*
X80350260Y-49881328D01*
X80616927Y-49881328D01*
X80693117Y-49919424D01*
X80731213Y-49957519D01*
X80769308Y-50033709D01*
X80769308Y-50109900D01*
X80731213Y-50186090D01*
X80693117Y-50224185D01*
X80616927Y-50262281D01*
X80350260Y-50262281D01*
X81531213Y-49881328D02*
X81150260Y-49881328D01*
X81112165Y-50262281D01*
X81150260Y-50224185D01*
X81226451Y-50186090D01*
X81416927Y-50186090D01*
X81493117Y-50224185D01*
X81531213Y-50262281D01*
X81569308Y-50338471D01*
X81569308Y-50528947D01*
X81531213Y-50605138D01*
X81493117Y-50643233D01*
X81416927Y-50681328D01*
X81226451Y-50681328D01*
X81150260Y-50643233D01*
X81112165Y-50605138D01*
X91538927Y-50262281D02*
X91653213Y-50300376D01*
X91691308Y-50338471D01*
X91729403Y-50414662D01*
X91729403Y-50528947D01*
X91691308Y-50605138D01*
X91653213Y-50643233D01*
X91577022Y-50681328D01*
X91272260Y-50681328D01*
X91272260Y-49881328D01*
X91538927Y-49881328D01*
X91615117Y-49919424D01*
X91653213Y-49957519D01*
X91691308Y-50033709D01*
X91691308Y-50109900D01*
X91653213Y-50186090D01*
X91615117Y-50224185D01*
X91538927Y-50262281D01*
X91272260Y-50262281D01*
X92415117Y-49881328D02*
X92262737Y-49881328D01*
X92186546Y-49919424D01*
X92148451Y-49957519D01*
X92072260Y-50071804D01*
X92034165Y-50224185D01*
X92034165Y-50528947D01*
X92072260Y-50605138D01*
X92110356Y-50643233D01*
X92186546Y-50681328D01*
X92338927Y-50681328D01*
X92415117Y-50643233D01*
X92453213Y-50605138D01*
X92491308Y-50528947D01*
X92491308Y-50338471D01*
X92453213Y-50262281D01*
X92415117Y-50224185D01*
X92338927Y-50186090D01*
X92186546Y-50186090D01*
X92110356Y-50224185D01*
X92072260Y-50262281D01*
X92034165Y-50338471D01*
X91538927Y-45182281D02*
X91653213Y-45220376D01*
X91691308Y-45258471D01*
X91729403Y-45334662D01*
X91729403Y-45448947D01*
X91691308Y-45525138D01*
X91653213Y-45563233D01*
X91577022Y-45601328D01*
X91272260Y-45601328D01*
X91272260Y-44801328D01*
X91538927Y-44801328D01*
X91615117Y-44839424D01*
X91653213Y-44877519D01*
X91691308Y-44953709D01*
X91691308Y-45029900D01*
X91653213Y-45106090D01*
X91615117Y-45144185D01*
X91538927Y-45182281D01*
X91272260Y-45182281D01*
X91996070Y-44801328D02*
X92491308Y-44801328D01*
X92224641Y-45106090D01*
X92338927Y-45106090D01*
X92415117Y-45144185D01*
X92453213Y-45182281D01*
X92491308Y-45258471D01*
X92491308Y-45448947D01*
X92453213Y-45525138D01*
X92415117Y-45563233D01*
X92338927Y-45601328D01*
X92110356Y-45601328D01*
X92034165Y-45563233D01*
X91996070Y-45525138D01*
X91538927Y-42642281D02*
X91653213Y-42680376D01*
X91691308Y-42718471D01*
X91729403Y-42794662D01*
X91729403Y-42908947D01*
X91691308Y-42985138D01*
X91653213Y-43023233D01*
X91577022Y-43061328D01*
X91272260Y-43061328D01*
X91272260Y-42261328D01*
X91538927Y-42261328D01*
X91615117Y-42299424D01*
X91653213Y-42337519D01*
X91691308Y-42413709D01*
X91691308Y-42489900D01*
X91653213Y-42566090D01*
X91615117Y-42604185D01*
X91538927Y-42642281D01*
X91272260Y-42642281D01*
X92491308Y-43061328D02*
X92034165Y-43061328D01*
X92262737Y-43061328D02*
X92262737Y-42261328D01*
X92186546Y-42375614D01*
X92110356Y-42451804D01*
X92034165Y-42489900D01*
X91596070Y-32482281D02*
X91329403Y-32482281D01*
X91329403Y-32901328D02*
X91329403Y-32101328D01*
X91710356Y-32101328D01*
X92357975Y-32367995D02*
X92357975Y-32901328D01*
X92167498Y-32063233D02*
X91977022Y-32634662D01*
X92472260Y-32634662D01*
X90796070Y-29561328D02*
X91062737Y-30361328D01*
X91329403Y-29561328D01*
X92053213Y-30285138D02*
X92015117Y-30323233D01*
X91900832Y-30361328D01*
X91824641Y-30361328D01*
X91710356Y-30323233D01*
X91634165Y-30247043D01*
X91596070Y-30170852D01*
X91557975Y-30018471D01*
X91557975Y-29904185D01*
X91596070Y-29751804D01*
X91634165Y-29675614D01*
X91710356Y-29599424D01*
X91824641Y-29561328D01*
X91900832Y-29561328D01*
X92015117Y-29599424D01*
X92053213Y-29637519D01*
X92853213Y-30285138D02*
X92815117Y-30323233D01*
X92700832Y-30361328D01*
X92624641Y-30361328D01*
X92510356Y-30323233D01*
X92434165Y-30247043D01*
X92396070Y-30170852D01*
X92357975Y-30018471D01*
X92357975Y-29904185D01*
X92396070Y-29751804D01*
X92434165Y-29675614D01*
X92510356Y-29599424D01*
X92624641Y-29561328D01*
X92700832Y-29561328D01*
X92815117Y-29599424D01*
X92853213Y-29637519D01*
X91601523Y-27753233D02*
X91715809Y-27791328D01*
X91906285Y-27791328D01*
X91982476Y-27753233D01*
X92020571Y-27715138D01*
X92058666Y-27638947D01*
X92058666Y-27562757D01*
X92020571Y-27486566D01*
X91982476Y-27448471D01*
X91906285Y-27410376D01*
X91753904Y-27372281D01*
X91677714Y-27334185D01*
X91639618Y-27296090D01*
X91601523Y-27219900D01*
X91601523Y-27143709D01*
X91639618Y-27067519D01*
X91677714Y-27029424D01*
X91753904Y-26991328D01*
X91944380Y-26991328D01*
X92058666Y-27029424D01*
X92287237Y-26991328D02*
X92744380Y-26991328D01*
X92515809Y-27791328D02*
X92515809Y-26991328D01*
X91253213Y-24519424D02*
X91177022Y-24481328D01*
X91062737Y-24481328D01*
X90948451Y-24519424D01*
X90872260Y-24595614D01*
X90834165Y-24671804D01*
X90796070Y-24824185D01*
X90796070Y-24938471D01*
X90834165Y-25090852D01*
X90872260Y-25167043D01*
X90948451Y-25243233D01*
X91062737Y-25281328D01*
X91138927Y-25281328D01*
X91253213Y-25243233D01*
X91291308Y-25205138D01*
X91291308Y-24938471D01*
X91138927Y-24938471D01*
X91634165Y-25281328D02*
X91634165Y-24481328D01*
X92091308Y-25281328D01*
X92091308Y-24481328D01*
X92472260Y-25281328D02*
X92472260Y-24481328D01*
X92662737Y-24481328D01*
X92777022Y-24519424D01*
X92853213Y-24595614D01*
X92891308Y-24671804D01*
X92929403Y-24824185D01*
X92929403Y-24938471D01*
X92891308Y-25090852D01*
X92853213Y-25167043D01*
X92777022Y-25243233D01*
X92662737Y-25281328D01*
X92472260Y-25281328D01*
X91310356Y-22741328D02*
X91043689Y-22360376D01*
X90853213Y-22741328D02*
X90853213Y-21941328D01*
X91157975Y-21941328D01*
X91234165Y-21979424D01*
X91272260Y-22017519D01*
X91310356Y-22093709D01*
X91310356Y-22207995D01*
X91272260Y-22284185D01*
X91234165Y-22322281D01*
X91157975Y-22360376D01*
X90853213Y-22360376D01*
X91615117Y-22512757D02*
X91996070Y-22512757D01*
X91538927Y-22741328D02*
X91805594Y-21941328D01*
X92072260Y-22741328D01*
X92262737Y-21941328D02*
X92453213Y-22741328D01*
X92605594Y-22169900D01*
X92757975Y-22741328D01*
X92948451Y-21941328D01*
X91596070Y-35022281D02*
X91329403Y-35022281D01*
X91329403Y-35441328D02*
X91329403Y-34641328D01*
X91710356Y-34641328D01*
X92396070Y-34641328D02*
X92015117Y-34641328D01*
X91977022Y-35022281D01*
X92015117Y-34984185D01*
X92091308Y-34946090D01*
X92281784Y-34946090D01*
X92357975Y-34984185D01*
X92396070Y-35022281D01*
X92434165Y-35098471D01*
X92434165Y-35288947D01*
X92396070Y-35365138D01*
X92357975Y-35403233D01*
X92281784Y-35441328D01*
X92091308Y-35441328D01*
X92015117Y-35403233D01*
X91977022Y-35365138D01*
X91596070Y-37562281D02*
X91329403Y-37562281D01*
X91329403Y-37981328D02*
X91329403Y-37181328D01*
X91710356Y-37181328D01*
X92357975Y-37181328D02*
X92205594Y-37181328D01*
X92129403Y-37219424D01*
X92091308Y-37257519D01*
X92015117Y-37371804D01*
X91977022Y-37524185D01*
X91977022Y-37828947D01*
X92015117Y-37905138D01*
X92053213Y-37943233D01*
X92129403Y-37981328D01*
X92281784Y-37981328D01*
X92357975Y-37943233D01*
X92396070Y-37905138D01*
X92434165Y-37828947D01*
X92434165Y-37638471D01*
X92396070Y-37562281D01*
X92357975Y-37524185D01*
X92281784Y-37486090D01*
X92129403Y-37486090D01*
X92053213Y-37524185D01*
X92015117Y-37562281D01*
X91977022Y-37638471D01*
X91596070Y-40102281D02*
X91329403Y-40102281D01*
X91329403Y-40521328D02*
X91329403Y-39721328D01*
X91710356Y-39721328D01*
X91938927Y-39721328D02*
X92472260Y-39721328D01*
X92129403Y-40521328D01*
X91538927Y-47722281D02*
X91653213Y-47760376D01*
X91691308Y-47798471D01*
X91729403Y-47874662D01*
X91729403Y-47988947D01*
X91691308Y-48065138D01*
X91653213Y-48103233D01*
X91577022Y-48141328D01*
X91272260Y-48141328D01*
X91272260Y-47341328D01*
X91538927Y-47341328D01*
X91615117Y-47379424D01*
X91653213Y-47417519D01*
X91691308Y-47493709D01*
X91691308Y-47569900D01*
X91653213Y-47646090D01*
X91615117Y-47684185D01*
X91538927Y-47722281D01*
X91272260Y-47722281D01*
X92034165Y-47417519D02*
X92072260Y-47379424D01*
X92148451Y-47341328D01*
X92338927Y-47341328D01*
X92415117Y-47379424D01*
X92453213Y-47417519D01*
X92491308Y-47493709D01*
X92491308Y-47569900D01*
X92453213Y-47684185D01*
X91996070Y-48141328D01*
X92491308Y-48141328D01*
%TO.C,U2*%
X78828402Y-27763233D02*
X78942688Y-27801328D01*
X79133164Y-27801328D01*
X79209355Y-27763233D01*
X79247450Y-27725138D01*
X79285545Y-27648947D01*
X79285545Y-27572757D01*
X79247450Y-27496566D01*
X79209355Y-27458471D01*
X79133164Y-27420376D01*
X78980783Y-27382281D01*
X78904593Y-27344185D01*
X78866497Y-27306090D01*
X78828402Y-27229900D01*
X78828402Y-27153709D01*
X78866497Y-27077519D01*
X78904593Y-27039424D01*
X78980783Y-27001328D01*
X79171259Y-27001328D01*
X79285545Y-27039424D01*
X79514116Y-27001328D02*
X79971259Y-27001328D01*
X79742688Y-27801328D02*
X79742688Y-27001328D01*
X85783131Y-21941328D02*
X86240274Y-21941328D01*
X86011703Y-22741328D02*
X86011703Y-21941328D01*
X86430750Y-21941328D02*
X86964084Y-22741328D01*
X86964084Y-21941328D02*
X86430750Y-22741328D01*
X87421227Y-21941328D02*
X87497417Y-21941328D01*
X87573608Y-21979424D01*
X87611703Y-22017519D01*
X87649798Y-22093709D01*
X87687893Y-22246090D01*
X87687893Y-22436566D01*
X87649798Y-22588947D01*
X87611703Y-22665138D01*
X87573608Y-22703233D01*
X87497417Y-22741328D01*
X87421227Y-22741328D01*
X87345036Y-22703233D01*
X87306941Y-22665138D01*
X87268846Y-22588947D01*
X87230750Y-22436566D01*
X87230750Y-22246090D01*
X87268846Y-22093709D01*
X87306941Y-22017519D01*
X87345036Y-21979424D01*
X87421227Y-21941328D01*
X88602179Y-21903233D02*
X87916465Y-22931804D01*
X88868846Y-22741328D02*
X88868846Y-21941328D01*
X89059322Y-21941328D01*
X89173608Y-21979424D01*
X89249798Y-22055614D01*
X89287893Y-22131804D01*
X89325988Y-22284185D01*
X89325988Y-22398471D01*
X89287893Y-22550852D01*
X89249798Y-22627043D01*
X89173608Y-22703233D01*
X89059322Y-22741328D01*
X88868846Y-22741328D01*
X89592655Y-21941328D02*
X90087893Y-21941328D01*
X89821227Y-22246090D01*
X89935512Y-22246090D01*
X90011703Y-22284185D01*
X90049798Y-22322281D01*
X90087893Y-22398471D01*
X90087893Y-22588947D01*
X90049798Y-22665138D01*
X90011703Y-22703233D01*
X89935512Y-22741328D01*
X89706941Y-22741328D01*
X89630750Y-22703233D01*
X89592655Y-22665138D01*
X78616926Y-47722281D02*
X78731212Y-47760376D01*
X78769307Y-47798471D01*
X78807402Y-47874662D01*
X78807402Y-47988947D01*
X78769307Y-48065138D01*
X78731212Y-48103233D01*
X78655021Y-48141328D01*
X78350259Y-48141328D01*
X78350259Y-47341328D01*
X78616926Y-47341328D01*
X78693116Y-47379424D01*
X78731212Y-47417519D01*
X78769307Y-47493709D01*
X78769307Y-47569900D01*
X78731212Y-47646090D01*
X78693116Y-47684185D01*
X78616926Y-47722281D01*
X78350259Y-47722281D01*
X79112164Y-47417519D02*
X79150259Y-47379424D01*
X79226450Y-47341328D01*
X79416926Y-47341328D01*
X79493116Y-47379424D01*
X79531212Y-47417519D01*
X79569307Y-47493709D01*
X79569307Y-47569900D01*
X79531212Y-47684185D01*
X79074069Y-48141328D01*
X79569307Y-48141328D01*
X78674069Y-40102281D02*
X78407402Y-40102281D01*
X78407402Y-40521328D02*
X78407402Y-39721328D01*
X78788355Y-39721328D01*
X79016926Y-39721328D02*
X79550259Y-39721328D01*
X79207402Y-40521328D01*
X78674069Y-37562281D02*
X78407402Y-37562281D01*
X78407402Y-37981328D02*
X78407402Y-37181328D01*
X78788355Y-37181328D01*
X79435974Y-37181328D02*
X79283593Y-37181328D01*
X79207402Y-37219424D01*
X79169307Y-37257519D01*
X79093116Y-37371804D01*
X79055021Y-37524185D01*
X79055021Y-37828947D01*
X79093116Y-37905138D01*
X79131212Y-37943233D01*
X79207402Y-37981328D01*
X79359783Y-37981328D01*
X79435974Y-37943233D01*
X79474069Y-37905138D01*
X79512164Y-37828947D01*
X79512164Y-37638471D01*
X79474069Y-37562281D01*
X79435974Y-37524185D01*
X79359783Y-37486090D01*
X79207402Y-37486090D01*
X79131212Y-37524185D01*
X79093116Y-37562281D01*
X79055021Y-37638471D01*
X78674069Y-35022281D02*
X78407402Y-35022281D01*
X78407402Y-35441328D02*
X78407402Y-34641328D01*
X78788355Y-34641328D01*
X79474069Y-34641328D02*
X79093116Y-34641328D01*
X79055021Y-35022281D01*
X79093116Y-34984185D01*
X79169307Y-34946090D01*
X79359783Y-34946090D01*
X79435974Y-34984185D01*
X79474069Y-35022281D01*
X79512164Y-35098471D01*
X79512164Y-35288947D01*
X79474069Y-35365138D01*
X79435974Y-35403233D01*
X79359783Y-35441328D01*
X79169307Y-35441328D01*
X79093116Y-35403233D01*
X79055021Y-35365138D01*
X78388355Y-22741328D02*
X78121688Y-22360376D01*
X77931212Y-22741328D02*
X77931212Y-21941328D01*
X78235974Y-21941328D01*
X78312164Y-21979424D01*
X78350259Y-22017519D01*
X78388355Y-22093709D01*
X78388355Y-22207995D01*
X78350259Y-22284185D01*
X78312164Y-22322281D01*
X78235974Y-22360376D01*
X77931212Y-22360376D01*
X78693116Y-22512757D02*
X79074069Y-22512757D01*
X78616926Y-22741328D02*
X78883593Y-21941328D01*
X79150259Y-22741328D01*
X79340736Y-21941328D02*
X79531212Y-22741328D01*
X79683593Y-22169900D01*
X79835974Y-22741328D01*
X80026450Y-21941328D01*
X78331212Y-24519424D02*
X78255021Y-24481328D01*
X78140736Y-24481328D01*
X78026450Y-24519424D01*
X77950259Y-24595614D01*
X77912164Y-24671804D01*
X77874069Y-24824185D01*
X77874069Y-24938471D01*
X77912164Y-25090852D01*
X77950259Y-25167043D01*
X78026450Y-25243233D01*
X78140736Y-25281328D01*
X78216926Y-25281328D01*
X78331212Y-25243233D01*
X78369307Y-25205138D01*
X78369307Y-24938471D01*
X78216926Y-24938471D01*
X78712164Y-25281328D02*
X78712164Y-24481328D01*
X79169307Y-25281328D01*
X79169307Y-24481328D01*
X79550259Y-25281328D02*
X79550259Y-24481328D01*
X79740736Y-24481328D01*
X79855021Y-24519424D01*
X79931212Y-24595614D01*
X79969307Y-24671804D01*
X80007402Y-24824185D01*
X80007402Y-24938471D01*
X79969307Y-25090852D01*
X79931212Y-25167043D01*
X79855021Y-25243233D01*
X79740736Y-25281328D01*
X79550259Y-25281328D01*
X77874069Y-29561328D02*
X78140736Y-30361328D01*
X78407402Y-29561328D01*
X79131212Y-30285138D02*
X79093116Y-30323233D01*
X78978831Y-30361328D01*
X78902640Y-30361328D01*
X78788355Y-30323233D01*
X78712164Y-30247043D01*
X78674069Y-30170852D01*
X78635974Y-30018471D01*
X78635974Y-29904185D01*
X78674069Y-29751804D01*
X78712164Y-29675614D01*
X78788355Y-29599424D01*
X78902640Y-29561328D01*
X78978831Y-29561328D01*
X79093116Y-29599424D01*
X79131212Y-29637519D01*
X79931212Y-30285138D02*
X79893116Y-30323233D01*
X79778831Y-30361328D01*
X79702640Y-30361328D01*
X79588355Y-30323233D01*
X79512164Y-30247043D01*
X79474069Y-30170852D01*
X79435974Y-30018471D01*
X79435974Y-29904185D01*
X79474069Y-29751804D01*
X79512164Y-29675614D01*
X79588355Y-29599424D01*
X79702640Y-29561328D01*
X79778831Y-29561328D01*
X79893116Y-29599424D01*
X79931212Y-29637519D01*
X78674069Y-32482281D02*
X78407402Y-32482281D01*
X78407402Y-32901328D02*
X78407402Y-32101328D01*
X78788355Y-32101328D01*
X79435974Y-32367995D02*
X79435974Y-32901328D01*
X79245497Y-32063233D02*
X79055021Y-32634662D01*
X79550259Y-32634662D01*
X78616926Y-42642281D02*
X78731212Y-42680376D01*
X78769307Y-42718471D01*
X78807402Y-42794662D01*
X78807402Y-42908947D01*
X78769307Y-42985138D01*
X78731212Y-43023233D01*
X78655021Y-43061328D01*
X78350259Y-43061328D01*
X78350259Y-42261328D01*
X78616926Y-42261328D01*
X78693116Y-42299424D01*
X78731212Y-42337519D01*
X78769307Y-42413709D01*
X78769307Y-42489900D01*
X78731212Y-42566090D01*
X78693116Y-42604185D01*
X78616926Y-42642281D01*
X78350259Y-42642281D01*
X79569307Y-43061328D02*
X79112164Y-43061328D01*
X79340736Y-43061328D02*
X79340736Y-42261328D01*
X79264545Y-42375614D01*
X79188355Y-42451804D01*
X79112164Y-42489900D01*
X78616926Y-45182281D02*
X78731212Y-45220376D01*
X78769307Y-45258471D01*
X78807402Y-45334662D01*
X78807402Y-45448947D01*
X78769307Y-45525138D01*
X78731212Y-45563233D01*
X78655021Y-45601328D01*
X78350259Y-45601328D01*
X78350259Y-44801328D01*
X78616926Y-44801328D01*
X78693116Y-44839424D01*
X78731212Y-44877519D01*
X78769307Y-44953709D01*
X78769307Y-45029900D01*
X78731212Y-45106090D01*
X78693116Y-45144185D01*
X78616926Y-45182281D01*
X78350259Y-45182281D01*
X79074069Y-44801328D02*
X79569307Y-44801328D01*
X79302640Y-45106090D01*
X79416926Y-45106090D01*
X79493116Y-45144185D01*
X79531212Y-45182281D01*
X79569307Y-45258471D01*
X79569307Y-45448947D01*
X79531212Y-45525138D01*
X79493116Y-45563233D01*
X79416926Y-45601328D01*
X79188355Y-45601328D01*
X79112164Y-45563233D01*
X79074069Y-45525138D01*
X78616926Y-50262281D02*
X78731212Y-50300376D01*
X78769307Y-50338471D01*
X78807402Y-50414662D01*
X78807402Y-50528947D01*
X78769307Y-50605138D01*
X78731212Y-50643233D01*
X78655021Y-50681328D01*
X78350259Y-50681328D01*
X78350259Y-49881328D01*
X78616926Y-49881328D01*
X78693116Y-49919424D01*
X78731212Y-49957519D01*
X78769307Y-50033709D01*
X78769307Y-50109900D01*
X78731212Y-50186090D01*
X78693116Y-50224185D01*
X78616926Y-50262281D01*
X78350259Y-50262281D01*
X79493116Y-49881328D02*
X79340736Y-49881328D01*
X79264545Y-49919424D01*
X79226450Y-49957519D01*
X79150259Y-50071804D01*
X79112164Y-50224185D01*
X79112164Y-50528947D01*
X79150259Y-50605138D01*
X79188355Y-50643233D01*
X79264545Y-50681328D01*
X79416926Y-50681328D01*
X79493116Y-50643233D01*
X79531212Y-50605138D01*
X79569307Y-50528947D01*
X79569307Y-50338471D01*
X79531212Y-50262281D01*
X79493116Y-50224185D01*
X79416926Y-50186090D01*
X79264545Y-50186090D01*
X79188355Y-50224185D01*
X79150259Y-50262281D01*
X79112164Y-50338471D01*
X89538926Y-50262281D02*
X89653212Y-50300376D01*
X89691307Y-50338471D01*
X89729402Y-50414662D01*
X89729402Y-50528947D01*
X89691307Y-50605138D01*
X89653212Y-50643233D01*
X89577021Y-50681328D01*
X89272259Y-50681328D01*
X89272259Y-49881328D01*
X89538926Y-49881328D01*
X89615116Y-49919424D01*
X89653212Y-49957519D01*
X89691307Y-50033709D01*
X89691307Y-50109900D01*
X89653212Y-50186090D01*
X89615116Y-50224185D01*
X89538926Y-50262281D01*
X89272259Y-50262281D01*
X90453212Y-49881328D02*
X90072259Y-49881328D01*
X90034164Y-50262281D01*
X90072259Y-50224185D01*
X90148450Y-50186090D01*
X90338926Y-50186090D01*
X90415116Y-50224185D01*
X90453212Y-50262281D01*
X90491307Y-50338471D01*
X90491307Y-50528947D01*
X90453212Y-50605138D01*
X90415116Y-50643233D01*
X90338926Y-50681328D01*
X90148450Y-50681328D01*
X90072259Y-50643233D01*
X90034164Y-50605138D01*
X89538926Y-47722281D02*
X89653212Y-47760376D01*
X89691307Y-47798471D01*
X89729402Y-47874662D01*
X89729402Y-47988947D01*
X89691307Y-48065138D01*
X89653212Y-48103233D01*
X89577021Y-48141328D01*
X89272259Y-48141328D01*
X89272259Y-47341328D01*
X89538926Y-47341328D01*
X89615116Y-47379424D01*
X89653212Y-47417519D01*
X89691307Y-47493709D01*
X89691307Y-47569900D01*
X89653212Y-47646090D01*
X89615116Y-47684185D01*
X89538926Y-47722281D01*
X89272259Y-47722281D01*
X90415116Y-47607995D02*
X90415116Y-48141328D01*
X90224640Y-47303233D02*
X90034164Y-47874662D01*
X90529402Y-47874662D01*
X89310355Y-45182281D02*
X89577021Y-45182281D01*
X89691307Y-45601328D02*
X89310355Y-45601328D01*
X89310355Y-44801328D01*
X89691307Y-44801328D01*
X90377021Y-44801328D02*
X90224640Y-44801328D01*
X90148450Y-44839424D01*
X90110355Y-44877519D01*
X90034164Y-44991804D01*
X89996069Y-45144185D01*
X89996069Y-45448947D01*
X90034164Y-45525138D01*
X90072259Y-45563233D01*
X90148450Y-45601328D01*
X90300831Y-45601328D01*
X90377021Y-45563233D01*
X90415116Y-45525138D01*
X90453212Y-45448947D01*
X90453212Y-45258471D01*
X90415116Y-45182281D01*
X90377021Y-45144185D01*
X90300831Y-45106090D01*
X90148450Y-45106090D01*
X90072259Y-45144185D01*
X90034164Y-45182281D01*
X89996069Y-45258471D01*
X89272259Y-43061328D02*
X89272259Y-42261328D01*
X89462736Y-42261328D01*
X89577021Y-42299424D01*
X89653212Y-42375614D01*
X89691307Y-42451804D01*
X89729402Y-42604185D01*
X89729402Y-42718471D01*
X89691307Y-42870852D01*
X89653212Y-42947043D01*
X89577021Y-43023233D01*
X89462736Y-43061328D01*
X89272259Y-43061328D01*
X89996069Y-42261328D02*
X90529402Y-42261328D01*
X90186545Y-43061328D01*
X89729402Y-40445138D02*
X89691307Y-40483233D01*
X89577021Y-40521328D01*
X89500831Y-40521328D01*
X89386545Y-40483233D01*
X89310355Y-40407043D01*
X89272259Y-40330852D01*
X89234164Y-40178471D01*
X89234164Y-40064185D01*
X89272259Y-39911804D01*
X89310355Y-39835614D01*
X89386545Y-39759424D01*
X89500831Y-39721328D01*
X89577021Y-39721328D01*
X89691307Y-39759424D01*
X89729402Y-39797519D01*
X90415116Y-39721328D02*
X90262736Y-39721328D01*
X90186545Y-39759424D01*
X90148450Y-39797519D01*
X90072259Y-39911804D01*
X90034164Y-40064185D01*
X90034164Y-40368947D01*
X90072259Y-40445138D01*
X90110355Y-40483233D01*
X90186545Y-40521328D01*
X90338926Y-40521328D01*
X90415116Y-40483233D01*
X90453212Y-40445138D01*
X90491307Y-40368947D01*
X90491307Y-40178471D01*
X90453212Y-40102281D01*
X90415116Y-40064185D01*
X90338926Y-40026090D01*
X90186545Y-40026090D01*
X90110355Y-40064185D01*
X90072259Y-40102281D01*
X90034164Y-40178471D01*
X89272259Y-37981328D02*
X89272259Y-37181328D01*
X89462736Y-37181328D01*
X89577021Y-37219424D01*
X89653212Y-37295614D01*
X89691307Y-37371804D01*
X89729402Y-37524185D01*
X89729402Y-37638471D01*
X89691307Y-37790852D01*
X89653212Y-37867043D01*
X89577021Y-37943233D01*
X89462736Y-37981328D01*
X89272259Y-37981328D01*
X90415116Y-37447995D02*
X90415116Y-37981328D01*
X90224640Y-37143233D02*
X90034164Y-37714662D01*
X90529402Y-37714662D01*
X89253212Y-27059424D02*
X89177021Y-27021328D01*
X89062736Y-27021328D01*
X88948450Y-27059424D01*
X88872259Y-27135614D01*
X88834164Y-27211804D01*
X88796069Y-27364185D01*
X88796069Y-27478471D01*
X88834164Y-27630852D01*
X88872259Y-27707043D01*
X88948450Y-27783233D01*
X89062736Y-27821328D01*
X89138926Y-27821328D01*
X89253212Y-27783233D01*
X89291307Y-27745138D01*
X89291307Y-27478471D01*
X89138926Y-27478471D01*
X89634164Y-27821328D02*
X89634164Y-27021328D01*
X90091307Y-27821328D01*
X90091307Y-27021328D01*
X90472259Y-27821328D02*
X90472259Y-27021328D01*
X90662736Y-27021328D01*
X90777021Y-27059424D01*
X90853212Y-27135614D01*
X90891307Y-27211804D01*
X90929402Y-27364185D01*
X90929402Y-27478471D01*
X90891307Y-27630852D01*
X90853212Y-27707043D01*
X90777021Y-27783233D01*
X90662736Y-27821328D01*
X90472259Y-27821328D01*
X89253212Y-29599424D02*
X89177021Y-29561328D01*
X89062736Y-29561328D01*
X88948450Y-29599424D01*
X88872259Y-29675614D01*
X88834164Y-29751804D01*
X88796069Y-29904185D01*
X88796069Y-30018471D01*
X88834164Y-30170852D01*
X88872259Y-30247043D01*
X88948450Y-30323233D01*
X89062736Y-30361328D01*
X89138926Y-30361328D01*
X89253212Y-30323233D01*
X89291307Y-30285138D01*
X89291307Y-30018471D01*
X89138926Y-30018471D01*
X89634164Y-30361328D02*
X89634164Y-29561328D01*
X90091307Y-30361328D01*
X90091307Y-29561328D01*
X90472259Y-30361328D02*
X90472259Y-29561328D01*
X90662736Y-29561328D01*
X90777021Y-29599424D01*
X90853212Y-29675614D01*
X90891307Y-29751804D01*
X90929402Y-29904185D01*
X90929402Y-30018471D01*
X90891307Y-30170852D01*
X90853212Y-30247043D01*
X90777021Y-30323233D01*
X90662736Y-30361328D01*
X90472259Y-30361328D01*
X89272259Y-32901328D02*
X89272259Y-32101328D01*
X89462736Y-32101328D01*
X89577021Y-32139424D01*
X89653212Y-32215614D01*
X89691307Y-32291804D01*
X89729402Y-32444185D01*
X89729402Y-32558471D01*
X89691307Y-32710852D01*
X89653212Y-32787043D01*
X89577021Y-32863233D01*
X89462736Y-32901328D01*
X89272259Y-32901328D01*
X90491307Y-32901328D02*
X90034164Y-32901328D01*
X90262736Y-32901328D02*
X90262736Y-32101328D01*
X90186545Y-32215614D01*
X90110355Y-32291804D01*
X90034164Y-32329900D01*
X89272259Y-35441328D02*
X89272259Y-34641328D01*
X89462736Y-34641328D01*
X89577021Y-34679424D01*
X89653212Y-34755614D01*
X89691307Y-34831804D01*
X89729402Y-34984185D01*
X89729402Y-35098471D01*
X89691307Y-35250852D01*
X89653212Y-35327043D01*
X89577021Y-35403233D01*
X89462736Y-35441328D01*
X89272259Y-35441328D01*
X90224640Y-34641328D02*
X90300831Y-34641328D01*
X90377021Y-34679424D01*
X90415116Y-34717519D01*
X90453212Y-34793709D01*
X90491307Y-34946090D01*
X90491307Y-35136566D01*
X90453212Y-35288947D01*
X90415116Y-35365138D01*
X90377021Y-35403233D01*
X90300831Y-35441328D01*
X90224640Y-35441328D01*
X90148450Y-35403233D01*
X90110355Y-35365138D01*
X90072259Y-35288947D01*
X90034164Y-35136566D01*
X90034164Y-34946090D01*
X90072259Y-34793709D01*
X90110355Y-34717519D01*
X90148450Y-34679424D01*
X90224640Y-34641328D01*
X89272259Y-25281328D02*
X89272259Y-24481328D01*
X89462736Y-24481328D01*
X89577021Y-24519424D01*
X89653212Y-24595614D01*
X89691307Y-24671804D01*
X89729402Y-24824185D01*
X89729402Y-24938471D01*
X89691307Y-25090852D01*
X89653212Y-25167043D01*
X89577021Y-25243233D01*
X89462736Y-25281328D01*
X89272259Y-25281328D01*
X90034164Y-24557519D02*
X90072259Y-24519424D01*
X90148450Y-24481328D01*
X90338926Y-24481328D01*
X90415116Y-24519424D01*
X90453212Y-24557519D01*
X90491307Y-24633709D01*
X90491307Y-24709900D01*
X90453212Y-24824185D01*
X89996069Y-25281328D01*
X90491307Y-25281328D01*
%TD*%
M02*
