M48
; DRILL file {KiCad 5.1.10} date Thu Jul  8 20:07:16 2021
; FORMAT={-:-/ absolute / inch / decimal}
; #@! TF.CreationDate,2021-07-08T20:07:16-05:00
; #@! TF.GenerationSoftware,Kicad,Pcbnew,5.1.10
; #@! TF.FileFunction,NonPlated,1,2,NPTH
FMAT,2
INCH
T1C0.0354
T2C0.0670
T3C0.0866
T4C0.1181
T5C0.1350
%
G90
G05
T1
X6.2166Y-0.8571
X6.2166Y-0.8571
X6.3347Y-0.8571
X6.3347Y-0.8571
T2
X3.9528Y-1.9921
X3.9528Y-1.3228
X4.3859Y-1.9921
X4.3859Y-1.3228
X4.6615Y-1.2291
X4.6615Y-1.8984
X5.0946Y-1.2291
X5.0946Y-1.8984
X5.3701Y-1.3228
X5.3701Y-1.9921
X5.8032Y-1.3228
X5.8032Y-1.9921
X6.0788Y-1.5098
X6.0788Y-2.1791
X6.5119Y-1.5098
X6.5119Y-2.1791
T3
X2.9883Y-2.5827
X3.8741Y-0.8504
X6.5709Y-0.8504
X6.5709Y-2.5827
T4
X3.9725Y-1.8445
X3.9725Y-1.1752
X4.1694Y-1.7579
X4.1694Y-1.0886
X4.3662Y-1.8445
X4.3662Y-1.1752
X4.6812Y-1.0815
X4.6812Y-1.7508
X4.878Y-0.9949
X4.878Y-1.6642
X5.0749Y-1.0815
X5.0749Y-1.7508
X5.3898Y-1.1752
X5.3898Y-1.8445
X5.5867Y-1.0886
X5.5867Y-1.7579
X5.7835Y-1.1752
X5.7835Y-1.8445
X6.0985Y-1.3622
X6.0985Y-2.0315
X6.2953Y-1.2756
X6.2953Y-1.9449
X6.4922Y-1.3622
X6.4922Y-2.0315
T5
X4.1694Y-1.9921
X4.1694Y-1.3228
X4.878Y-1.2291
X4.878Y-1.8984
X5.5867Y-1.3228
X5.5867Y-1.9921
X6.2953Y-1.5098
X6.2953Y-2.1791
T0
M30
