%TF.GenerationSoftware,KiCad,Pcbnew,5.1.10*%
%TF.CreationDate,2021-09-01T18:29:14-05:00*%
%TF.ProjectId,small-paintbrush-hotswap,736d616c-6c2d-4706-9169-6e7462727573,rev?*%
%TF.SameCoordinates,Original*%
%TF.FileFunction,Legend,Bot*%
%TF.FilePolarity,Positive*%
%FSLAX46Y46*%
G04 Gerber Fmt 4.6, Leading zero omitted, Abs format (unit mm)*
G04 Created by KiCad (PCBNEW 5.1.10) date 2021-09-01 18:29:14*
%MOMM*%
%LPD*%
G01*
G04 APERTURE LIST*
%ADD10C,0.150000*%
%ADD11C,0.120000*%
%ADD12C,0.200000*%
%ADD13C,0.750000*%
%ADD14C,0.100000*%
%ADD15C,3.000000*%
%ADD16C,0.100000*%
%ADD17R,2.000000X2.000000*%
%ADD18R,1.900000X2.000000*%
%ADD19C,4.000000*%
%ADD20C,1.900000*%
%ADD21C,1.700000*%
%ADD22C,1.752600*%
%ADD23O,1.700000X1.700000*%
%ADD24R,1.700000X1.700000*%
%ADD25C,0.900000*%
%ADD26C,2.200000*%
%ADD27R,0.900000X1.700000*%
%ADD28R,1.000000X0.800000*%
%ADD29R,0.700000X1.500000*%
G04 APERTURE END LIST*
D10*
X88703259Y-39124185D02*
X88798497Y-39171804D01*
X88988974Y-39171804D01*
X89084212Y-39124185D01*
X89131831Y-39076566D01*
X89179450Y-38981328D01*
X89179450Y-38695614D01*
X89131831Y-38600376D01*
X89084212Y-38552757D01*
X88988974Y-38505138D01*
X88798497Y-38505138D01*
X88703259Y-38552757D01*
X88274688Y-39171804D02*
X88274688Y-38171804D01*
X87846116Y-39171804D02*
X87846116Y-38647995D01*
X87893736Y-38552757D01*
X87988974Y-38505138D01*
X88131831Y-38505138D01*
X88227069Y-38552757D01*
X88274688Y-38600376D01*
X87369926Y-39171804D02*
X87369926Y-38505138D01*
X87369926Y-38171804D02*
X87417545Y-38219424D01*
X87369926Y-38267043D01*
X87322307Y-38219424D01*
X87369926Y-38171804D01*
X87369926Y-38267043D01*
X86893736Y-38505138D02*
X86893736Y-39505138D01*
X86893736Y-38552757D02*
X86798497Y-38505138D01*
X86608021Y-38505138D01*
X86512783Y-38552757D01*
X86465164Y-38600376D01*
X86417545Y-38695614D01*
X86417545Y-38981328D01*
X86465164Y-39076566D01*
X86512783Y-39124185D01*
X86608021Y-39171804D01*
X86798497Y-39171804D01*
X86893736Y-39124185D01*
X85274688Y-39124185D02*
X85179450Y-39171804D01*
X84988974Y-39171804D01*
X84893736Y-39124185D01*
X84846116Y-39028947D01*
X84846116Y-38981328D01*
X84893736Y-38886090D01*
X84988974Y-38838471D01*
X85131831Y-38838471D01*
X85227069Y-38790852D01*
X85274688Y-38695614D01*
X85274688Y-38647995D01*
X85227069Y-38552757D01*
X85131831Y-38505138D01*
X84988974Y-38505138D01*
X84893736Y-38552757D01*
X84417545Y-39171804D02*
X84417545Y-38505138D01*
X84417545Y-38171804D02*
X84465164Y-38219424D01*
X84417545Y-38267043D01*
X84369926Y-38219424D01*
X84417545Y-38171804D01*
X84417545Y-38267043D01*
X83512783Y-39171804D02*
X83512783Y-38171804D01*
X83512783Y-39124185D02*
X83608021Y-39171804D01*
X83798497Y-39171804D01*
X83893736Y-39124185D01*
X83941355Y-39076566D01*
X83988974Y-38981328D01*
X83988974Y-38695614D01*
X83941355Y-38600376D01*
X83893736Y-38552757D01*
X83798497Y-38505138D01*
X83608021Y-38505138D01*
X83512783Y-38552757D01*
X82655640Y-39124185D02*
X82750878Y-39171804D01*
X82941355Y-39171804D01*
X83036593Y-39124185D01*
X83084212Y-39028947D01*
X83084212Y-38647995D01*
X83036593Y-38552757D01*
X82941355Y-38505138D01*
X82750878Y-38505138D01*
X82655640Y-38552757D01*
X82608021Y-38647995D01*
X82608021Y-38743233D01*
X83084212Y-38838471D01*
X87108021Y-40821804D02*
X87108021Y-39821804D01*
X87108021Y-40774185D02*
X87203259Y-40821804D01*
X87393735Y-40821804D01*
X87488974Y-40774185D01*
X87536593Y-40726566D01*
X87584212Y-40631328D01*
X87584212Y-40345614D01*
X87536593Y-40250376D01*
X87488974Y-40202757D01*
X87393735Y-40155138D01*
X87203259Y-40155138D01*
X87108021Y-40202757D01*
X86488974Y-40821804D02*
X86584212Y-40774185D01*
X86631831Y-40726566D01*
X86679450Y-40631328D01*
X86679450Y-40345614D01*
X86631831Y-40250376D01*
X86584212Y-40202757D01*
X86488974Y-40155138D01*
X86346116Y-40155138D01*
X86250878Y-40202757D01*
X86203259Y-40250376D01*
X86155640Y-40345614D01*
X86155640Y-40631328D01*
X86203259Y-40726566D01*
X86250878Y-40774185D01*
X86346116Y-40821804D01*
X86488974Y-40821804D01*
X85822307Y-40155138D02*
X85631831Y-40821804D01*
X85441355Y-40345614D01*
X85250878Y-40821804D01*
X85060402Y-40155138D01*
X84679450Y-40155138D02*
X84679450Y-40821804D01*
X84679450Y-40250376D02*
X84631831Y-40202757D01*
X84536593Y-40155138D01*
X84393735Y-40155138D01*
X84298497Y-40202757D01*
X84250878Y-40297995D01*
X84250878Y-40821804D01*
X109052688Y-23591804D02*
X109052688Y-22591804D01*
X108719355Y-23306090D01*
X108386021Y-22591804D01*
X108386021Y-23591804D01*
X107338402Y-23496566D02*
X107386021Y-23544185D01*
X107528878Y-23591804D01*
X107624116Y-23591804D01*
X107766974Y-23544185D01*
X107862212Y-23448947D01*
X107909831Y-23353709D01*
X107957450Y-23163233D01*
X107957450Y-23020376D01*
X107909831Y-22829900D01*
X107862212Y-22734662D01*
X107766974Y-22639424D01*
X107624116Y-22591804D01*
X107528878Y-22591804D01*
X107386021Y-22639424D01*
X107338402Y-22687043D01*
X106909831Y-22591804D02*
X106909831Y-23401328D01*
X106862212Y-23496566D01*
X106814593Y-23544185D01*
X106719355Y-23591804D01*
X106528878Y-23591804D01*
X106433640Y-23544185D01*
X106386021Y-23496566D01*
X106338402Y-23401328D01*
X106338402Y-22591804D01*
X104766974Y-23067995D02*
X104624116Y-23115614D01*
X104576497Y-23163233D01*
X104528878Y-23258471D01*
X104528878Y-23401328D01*
X104576497Y-23496566D01*
X104624116Y-23544185D01*
X104719355Y-23591804D01*
X105100307Y-23591804D01*
X105100307Y-22591804D01*
X104766974Y-22591804D01*
X104671736Y-22639424D01*
X104624116Y-22687043D01*
X104576497Y-22782281D01*
X104576497Y-22877519D01*
X104624116Y-22972757D01*
X104671736Y-23020376D01*
X104766974Y-23067995D01*
X105100307Y-23067995D01*
X103671736Y-23591804D02*
X103671736Y-23067995D01*
X103719355Y-22972757D01*
X103814593Y-22925138D01*
X104005069Y-22925138D01*
X104100307Y-22972757D01*
X103671736Y-23544185D02*
X103766974Y-23591804D01*
X104005069Y-23591804D01*
X104100307Y-23544185D01*
X104147926Y-23448947D01*
X104147926Y-23353709D01*
X104100307Y-23258471D01*
X104005069Y-23210852D01*
X103766974Y-23210852D01*
X103671736Y-23163233D01*
X103338402Y-22925138D02*
X102957450Y-22925138D01*
X103195545Y-22591804D02*
X103195545Y-23448947D01*
X103147926Y-23544185D01*
X103052688Y-23591804D01*
X102957450Y-23591804D01*
X102766974Y-22925138D02*
X102386021Y-22925138D01*
X102624116Y-22591804D02*
X102624116Y-23448947D01*
X102576497Y-23544185D01*
X102481259Y-23591804D01*
X102386021Y-23591804D01*
X101671736Y-23544185D02*
X101766974Y-23591804D01*
X101957450Y-23591804D01*
X102052688Y-23544185D01*
X102100307Y-23448947D01*
X102100307Y-23067995D01*
X102052688Y-22972757D01*
X101957450Y-22925138D01*
X101766974Y-22925138D01*
X101671736Y-22972757D01*
X101624116Y-23067995D01*
X101624116Y-23163233D01*
X102100307Y-23258471D01*
X101195545Y-23591804D02*
X101195545Y-22925138D01*
X101195545Y-23115614D02*
X101147926Y-23020376D01*
X101100307Y-22972757D01*
X101005069Y-22925138D01*
X100909831Y-22925138D01*
X100671736Y-22925138D02*
X100433640Y-23591804D01*
X100195545Y-22925138D02*
X100433640Y-23591804D01*
X100528878Y-23829900D01*
X100576497Y-23877519D01*
X100671736Y-23925138D01*
X89949355Y-63944804D02*
X90282688Y-63468614D01*
X90520783Y-63944804D02*
X90520783Y-62944804D01*
X90139831Y-62944804D01*
X90044593Y-62992424D01*
X89996974Y-63040043D01*
X89949355Y-63135281D01*
X89949355Y-63278138D01*
X89996974Y-63373376D01*
X90044593Y-63420995D01*
X90139831Y-63468614D01*
X90520783Y-63468614D01*
X89139831Y-63897185D02*
X89235069Y-63944804D01*
X89425545Y-63944804D01*
X89520783Y-63897185D01*
X89568402Y-63801947D01*
X89568402Y-63420995D01*
X89520783Y-63325757D01*
X89425545Y-63278138D01*
X89235069Y-63278138D01*
X89139831Y-63325757D01*
X89092212Y-63420995D01*
X89092212Y-63516233D01*
X89568402Y-63611471D01*
X88711259Y-63897185D02*
X88616021Y-63944804D01*
X88425545Y-63944804D01*
X88330307Y-63897185D01*
X88282688Y-63801947D01*
X88282688Y-63754328D01*
X88330307Y-63659090D01*
X88425545Y-63611471D01*
X88568402Y-63611471D01*
X88663640Y-63563852D01*
X88711259Y-63468614D01*
X88711259Y-63420995D01*
X88663640Y-63325757D01*
X88568402Y-63278138D01*
X88425545Y-63278138D01*
X88330307Y-63325757D01*
X87473164Y-63897185D02*
X87568402Y-63944804D01*
X87758878Y-63944804D01*
X87854116Y-63897185D01*
X87901736Y-63801947D01*
X87901736Y-63420995D01*
X87854116Y-63325757D01*
X87758878Y-63278138D01*
X87568402Y-63278138D01*
X87473164Y-63325757D01*
X87425545Y-63420995D01*
X87425545Y-63516233D01*
X87901736Y-63611471D01*
X87139831Y-63278138D02*
X86758878Y-63278138D01*
X86996974Y-62944804D02*
X86996974Y-63801947D01*
X86949355Y-63897185D01*
X86854116Y-63944804D01*
X86758878Y-63944804D01*
X85330307Y-63420995D02*
X85187450Y-63468614D01*
X85139831Y-63516233D01*
X85092212Y-63611471D01*
X85092212Y-63754328D01*
X85139831Y-63849566D01*
X85187450Y-63897185D01*
X85282688Y-63944804D01*
X85663640Y-63944804D01*
X85663640Y-62944804D01*
X85330307Y-62944804D01*
X85235069Y-62992424D01*
X85187450Y-63040043D01*
X85139831Y-63135281D01*
X85139831Y-63230519D01*
X85187450Y-63325757D01*
X85235069Y-63373376D01*
X85330307Y-63420995D01*
X85663640Y-63420995D01*
X84235069Y-63278138D02*
X84235069Y-63944804D01*
X84663640Y-63278138D02*
X84663640Y-63801947D01*
X84616021Y-63897185D01*
X84520783Y-63944804D01*
X84377926Y-63944804D01*
X84282688Y-63897185D01*
X84235069Y-63849566D01*
X83901736Y-63278138D02*
X83520783Y-63278138D01*
X83758878Y-62944804D02*
X83758878Y-63801947D01*
X83711259Y-63897185D01*
X83616021Y-63944804D01*
X83520783Y-63944804D01*
X83330307Y-63278138D02*
X82949355Y-63278138D01*
X83187450Y-62944804D02*
X83187450Y-63801947D01*
X83139831Y-63897185D01*
X83044593Y-63944804D01*
X82949355Y-63944804D01*
X82473164Y-63944804D02*
X82568402Y-63897185D01*
X82616021Y-63849566D01*
X82663640Y-63754328D01*
X82663640Y-63468614D01*
X82616021Y-63373376D01*
X82568402Y-63325757D01*
X82473164Y-63278138D01*
X82330307Y-63278138D01*
X82235069Y-63325757D01*
X82187450Y-63373376D01*
X82139831Y-63468614D01*
X82139831Y-63754328D01*
X82187450Y-63849566D01*
X82235069Y-63897185D01*
X82330307Y-63944804D01*
X82473164Y-63944804D01*
X81711259Y-63278138D02*
X81711259Y-63944804D01*
X81711259Y-63373376D02*
X81663640Y-63325757D01*
X81568402Y-63278138D01*
X81425545Y-63278138D01*
X81330307Y-63325757D01*
X81282688Y-63420995D01*
X81282688Y-63944804D01*
X167663641Y-26551805D02*
X167663641Y-25551805D01*
X167282689Y-25551805D01*
X167187451Y-25599425D01*
X167139832Y-25647044D01*
X167092213Y-25742282D01*
X167092213Y-25885139D01*
X167139832Y-25980377D01*
X167187451Y-26027996D01*
X167282689Y-26075615D01*
X167663641Y-26075615D01*
X166520784Y-26551805D02*
X166616022Y-26504186D01*
X166663641Y-26456567D01*
X166711260Y-26361329D01*
X166711260Y-26075615D01*
X166663641Y-25980377D01*
X166616022Y-25932758D01*
X166520784Y-25885139D01*
X166377927Y-25885139D01*
X166282689Y-25932758D01*
X166235070Y-25980377D01*
X166187451Y-26075615D01*
X166187451Y-26361329D01*
X166235070Y-26456567D01*
X166282689Y-26504186D01*
X166377927Y-26551805D01*
X166520784Y-26551805D01*
X165854117Y-25885139D02*
X165663641Y-26551805D01*
X165473165Y-26075615D01*
X165282689Y-26551805D01*
X165092213Y-25885139D01*
X164330308Y-26504186D02*
X164425546Y-26551805D01*
X164616022Y-26551805D01*
X164711260Y-26504186D01*
X164758879Y-26408948D01*
X164758879Y-26027996D01*
X164711260Y-25932758D01*
X164616022Y-25885139D01*
X164425546Y-25885139D01*
X164330308Y-25932758D01*
X164282689Y-26027996D01*
X164282689Y-26123234D01*
X164758879Y-26218472D01*
X163854117Y-26551805D02*
X163854117Y-25885139D01*
X163854117Y-26075615D02*
X163806498Y-25980377D01*
X163758879Y-25932758D01*
X163663641Y-25885139D01*
X163568403Y-25885139D01*
X162520784Y-26504186D02*
X162377927Y-26551805D01*
X162139832Y-26551805D01*
X162044594Y-26504186D01*
X161996975Y-26456567D01*
X161949356Y-26361329D01*
X161949356Y-26266091D01*
X161996975Y-26170853D01*
X162044594Y-26123234D01*
X162139832Y-26075615D01*
X162330308Y-26027996D01*
X162425546Y-25980377D01*
X162473165Y-25932758D01*
X162520784Y-25837520D01*
X162520784Y-25742282D01*
X162473165Y-25647044D01*
X162425546Y-25599425D01*
X162330308Y-25551805D01*
X162092213Y-25551805D01*
X161949356Y-25599425D01*
X161616022Y-25885139D02*
X161425546Y-26551805D01*
X161235070Y-26075615D01*
X161044594Y-26551805D01*
X160854117Y-25885139D01*
X160473165Y-26551805D02*
X160473165Y-25885139D01*
X160473165Y-25551805D02*
X160520784Y-25599425D01*
X160473165Y-25647044D01*
X160425546Y-25599425D01*
X160473165Y-25551805D01*
X160473165Y-25647044D01*
X160139832Y-25885139D02*
X159758879Y-25885139D01*
X159996975Y-25551805D02*
X159996975Y-26408948D01*
X159949356Y-26504186D01*
X159854117Y-26551805D01*
X159758879Y-26551805D01*
X158996975Y-26504186D02*
X159092213Y-26551805D01*
X159282689Y-26551805D01*
X159377927Y-26504186D01*
X159425546Y-26456567D01*
X159473165Y-26361329D01*
X159473165Y-26075615D01*
X159425546Y-25980377D01*
X159377927Y-25932758D01*
X159282689Y-25885139D01*
X159092213Y-25885139D01*
X158996975Y-25932758D01*
X158568403Y-26551805D02*
X158568403Y-25551805D01*
X158139832Y-26551805D02*
X158139832Y-26027996D01*
X158187451Y-25932758D01*
X158282689Y-25885139D01*
X158425546Y-25885139D01*
X158520784Y-25932758D01*
X158568403Y-25980377D01*
X93458212Y-54220804D02*
X93934402Y-54220804D01*
X93934402Y-53220804D01*
X78091212Y-54220804D02*
X78567402Y-54220804D01*
X78567402Y-53220804D01*
D11*
X94910736Y-22399424D02*
X92878736Y-22399424D01*
X94910736Y-52879424D02*
X94910736Y-22399424D01*
X92878736Y-52879424D02*
X94910736Y-52879424D01*
X92878736Y-22399424D02*
X92878736Y-52879424D01*
X77511736Y-22399424D02*
X79543736Y-22399424D01*
X77511736Y-52879424D02*
X77511736Y-22399424D01*
X79543736Y-52879424D02*
X77511736Y-52879424D01*
X79543736Y-22399424D02*
X79543736Y-52879424D01*
D10*
X94585116Y-55887804D02*
X94394640Y-55887804D01*
X94299402Y-55935424D01*
X94204164Y-56030662D01*
X94156545Y-56221138D01*
X94156545Y-56554471D01*
X94204164Y-56744947D01*
X94299402Y-56840185D01*
X94394640Y-56887804D01*
X94585116Y-56887804D01*
X94680355Y-56840185D01*
X94775593Y-56744947D01*
X94823212Y-56554471D01*
X94823212Y-56221138D01*
X94775593Y-56030662D01*
X94680355Y-55935424D01*
X94585116Y-55887804D01*
X93251783Y-56887804D02*
X93727974Y-56887804D01*
X93727974Y-55887804D01*
X92918450Y-56363995D02*
X92585116Y-56363995D01*
X92442259Y-56887804D02*
X92918450Y-56887804D01*
X92918450Y-55887804D01*
X92442259Y-55887804D01*
X92013688Y-56887804D02*
X92013688Y-55887804D01*
X91775593Y-55887804D01*
X91632736Y-55935424D01*
X91537497Y-56030662D01*
X91489878Y-56125900D01*
X91442259Y-56316376D01*
X91442259Y-56459233D01*
X91489878Y-56649709D01*
X91537497Y-56744947D01*
X91632736Y-56840185D01*
X91775593Y-56887804D01*
X92013688Y-56887804D01*
D12*
X90846736Y-57705424D02*
X90846736Y-55419424D01*
X80940736Y-57705424D02*
X80940736Y-55419424D01*
X90846736Y-57705424D02*
X80940736Y-57705424D01*
X80940736Y-55419424D02*
X90846736Y-55419424D01*
D13*
X83854069Y-37361328D02*
X87187402Y-37361328D01*
X87187402Y-32361328D01*
D10*
%TO.C,KEY4*%
X160621737Y-45849424D02*
X160621737Y-46549424D01*
X155626737Y-39749424D02*
X155601738Y-44349424D01*
X165201737Y-41949423D02*
X165201737Y-46549424D01*
X159401737Y-44374424D02*
X155626737Y-44374424D01*
X160326737Y-39724424D02*
X155626737Y-39724424D01*
X165176737Y-41924424D02*
X162626737Y-41924424D01*
X165176737Y-46574424D02*
X160626737Y-46574424D01*
X167701737Y-35499424D02*
X162651737Y-35545424D01*
X167701737Y-35453424D02*
X167701737Y-31545424D01*
X167701737Y-31545424D02*
X159076737Y-31545424D01*
X156801737Y-33499424D02*
X156801737Y-37444424D01*
X156801737Y-37453424D02*
X160411737Y-37453424D01*
X160621737Y-45799424D02*
G75*
G03*
X159401737Y-44379424I-1320000J100000D01*
G01*
X160331737Y-39749424D02*
G75*
G03*
X162701737Y-41919424I2270000J100000D01*
G01*
X160416738Y-37429423D02*
G75*
G02*
X162676737Y-35549424I2069999J-190000D01*
G01*
X156812737Y-33429424D02*
G75*
G02*
X159076737Y-31545424I2074000J-190000D01*
G01*
%TO.C,KEY8*%
X160621739Y-64849423D02*
X160621739Y-65549423D01*
X155626739Y-58749423D02*
X155601740Y-63349423D01*
X165201739Y-60949422D02*
X165201739Y-65549423D01*
X159401739Y-63374423D02*
X155626739Y-63374423D01*
X160326739Y-58724423D02*
X155626739Y-58724423D01*
X165176739Y-60924423D02*
X162626739Y-60924423D01*
X165176739Y-65574423D02*
X160626739Y-65574423D01*
X167701739Y-54499423D02*
X162651739Y-54545423D01*
X167701739Y-54453423D02*
X167701739Y-50545423D01*
X167701739Y-50545423D02*
X159076739Y-50545423D01*
X156801739Y-52499423D02*
X156801739Y-56444423D01*
X156801739Y-56453423D02*
X160411739Y-56453423D01*
X160621739Y-64799423D02*
G75*
G03*
X159401739Y-63379423I-1320000J100000D01*
G01*
X160331739Y-58749423D02*
G75*
G03*
X162701739Y-60919423I2270000J100000D01*
G01*
X160416740Y-56429422D02*
G75*
G02*
X162676739Y-54549423I2069999J-190000D01*
G01*
X156812739Y-52429423D02*
G75*
G02*
X159076739Y-50545423I2074000J-190000D01*
G01*
%TO.C,KEY7*%
X141621739Y-60099426D02*
X141621739Y-60799426D01*
X136626739Y-53999426D02*
X136601740Y-58599426D01*
X146201739Y-56199425D02*
X146201739Y-60799426D01*
X140401739Y-58624426D02*
X136626739Y-58624426D01*
X141326739Y-53974426D02*
X136626739Y-53974426D01*
X146176739Y-56174426D02*
X143626739Y-56174426D01*
X146176739Y-60824426D02*
X141626739Y-60824426D01*
X148701739Y-49749426D02*
X143651739Y-49795426D01*
X148701739Y-49703426D02*
X148701739Y-45795426D01*
X148701739Y-45795426D02*
X140076739Y-45795426D01*
X137801739Y-47749426D02*
X137801739Y-51694426D01*
X137801739Y-51703426D02*
X141411739Y-51703426D01*
X141621739Y-60049426D02*
G75*
G03*
X140401739Y-58629426I-1320000J100000D01*
G01*
X141331739Y-53999426D02*
G75*
G03*
X143701739Y-56169426I2270000J100000D01*
G01*
X141416740Y-51679425D02*
G75*
G02*
X143676739Y-49799426I2069999J-190000D01*
G01*
X137812739Y-47679426D02*
G75*
G02*
X140076739Y-45795426I2074000J-190000D01*
G01*
%TO.C,KEY6*%
X122621739Y-57719424D02*
X122621739Y-58419424D01*
X117626739Y-51619424D02*
X117601740Y-56219424D01*
X127201739Y-53819423D02*
X127201739Y-58419424D01*
X121401739Y-56244424D02*
X117626739Y-56244424D01*
X122326739Y-51594424D02*
X117626739Y-51594424D01*
X127176739Y-53794424D02*
X124626739Y-53794424D01*
X127176739Y-58444424D02*
X122626739Y-58444424D01*
X129701739Y-47369424D02*
X124651739Y-47415424D01*
X129701739Y-47323424D02*
X129701739Y-43415424D01*
X129701739Y-43415424D02*
X121076739Y-43415424D01*
X118801739Y-45369424D02*
X118801739Y-49314424D01*
X118801739Y-49323424D02*
X122411739Y-49323424D01*
X122621739Y-57669424D02*
G75*
G03*
X121401739Y-56249424I-1320000J100000D01*
G01*
X122331739Y-51619424D02*
G75*
G03*
X124701739Y-53789424I2270000J100000D01*
G01*
X122416740Y-49299423D02*
G75*
G02*
X124676739Y-47419424I2069999J-190000D01*
G01*
X118812739Y-45299424D02*
G75*
G02*
X121076739Y-43415424I2074000J-190000D01*
G01*
%TO.C,KEY5*%
X103621736Y-60099424D02*
X103621736Y-60799424D01*
X98626736Y-53999424D02*
X98601737Y-58599424D01*
X108201736Y-56199423D02*
X108201736Y-60799424D01*
X102401736Y-58624424D02*
X98626736Y-58624424D01*
X103326736Y-53974424D02*
X98626736Y-53974424D01*
X108176736Y-56174424D02*
X105626736Y-56174424D01*
X108176736Y-60824424D02*
X103626736Y-60824424D01*
X110701736Y-49749424D02*
X105651736Y-49795424D01*
X110701736Y-49703424D02*
X110701736Y-45795424D01*
X110701736Y-45795424D02*
X102076736Y-45795424D01*
X99801736Y-47749424D02*
X99801736Y-51694424D01*
X99801736Y-51703424D02*
X103411736Y-51703424D01*
X103621736Y-60049424D02*
G75*
G03*
X102401736Y-58629424I-1320000J100000D01*
G01*
X103331736Y-53999424D02*
G75*
G03*
X105701736Y-56169424I2270000J100000D01*
G01*
X103416737Y-51679423D02*
G75*
G02*
X105676736Y-49799424I2069999J-190000D01*
G01*
X99812736Y-47679424D02*
G75*
G02*
X102076736Y-45795424I2074000J-190000D01*
G01*
%TO.C,KEY3*%
X141621739Y-41099426D02*
X141621739Y-41799426D01*
X136626739Y-34999426D02*
X136601740Y-39599426D01*
X146201739Y-37199425D02*
X146201739Y-41799426D01*
X140401739Y-39624426D02*
X136626739Y-39624426D01*
X141326739Y-34974426D02*
X136626739Y-34974426D01*
X146176739Y-37174426D02*
X143626739Y-37174426D01*
X146176739Y-41824426D02*
X141626739Y-41824426D01*
X148701739Y-30749426D02*
X143651739Y-30795426D01*
X148701739Y-30703426D02*
X148701739Y-26795426D01*
X148701739Y-26795426D02*
X140076739Y-26795426D01*
X137801739Y-28749426D02*
X137801739Y-32694426D01*
X137801739Y-32703426D02*
X141411739Y-32703426D01*
X141621739Y-41049426D02*
G75*
G03*
X140401739Y-39629426I-1320000J100000D01*
G01*
X141331739Y-34999426D02*
G75*
G03*
X143701739Y-37169426I2270000J100000D01*
G01*
X141416740Y-32679425D02*
G75*
G02*
X143676739Y-30799426I2069999J-190000D01*
G01*
X137812739Y-28679426D02*
G75*
G02*
X140076739Y-26795426I2074000J-190000D01*
G01*
%TO.C,KEY2*%
X122621737Y-38719424D02*
X122621737Y-39419424D01*
X117626737Y-32619424D02*
X117601738Y-37219424D01*
X127201737Y-34819423D02*
X127201737Y-39419424D01*
X121401737Y-37244424D02*
X117626737Y-37244424D01*
X122326737Y-32594424D02*
X117626737Y-32594424D01*
X127176737Y-34794424D02*
X124626737Y-34794424D01*
X127176737Y-39444424D02*
X122626737Y-39444424D01*
X129701737Y-28369424D02*
X124651737Y-28415424D01*
X129701737Y-28323424D02*
X129701737Y-24415424D01*
X129701737Y-24415424D02*
X121076737Y-24415424D01*
X118801737Y-26369424D02*
X118801737Y-30314424D01*
X118801737Y-30323424D02*
X122411737Y-30323424D01*
X122621737Y-38669424D02*
G75*
G03*
X121401737Y-37249424I-1320000J100000D01*
G01*
X122331737Y-32619424D02*
G75*
G03*
X124701737Y-34789424I2270000J100000D01*
G01*
X122416738Y-30299423D02*
G75*
G02*
X124676737Y-28419424I2069999J-190000D01*
G01*
X118812737Y-26299424D02*
G75*
G02*
X121076737Y-24415424I2074000J-190000D01*
G01*
%TO.C,KEY1*%
X103621737Y-41099424D02*
X103621737Y-41799424D01*
X98626737Y-34999424D02*
X98601738Y-39599424D01*
X108201737Y-37199423D02*
X108201737Y-41799424D01*
X102401737Y-39624424D02*
X98626737Y-39624424D01*
X103326737Y-34974424D02*
X98626737Y-34974424D01*
X108176737Y-37174424D02*
X105626737Y-37174424D01*
X108176737Y-41824424D02*
X103626737Y-41824424D01*
X110701737Y-30749424D02*
X105651737Y-30795424D01*
X110701737Y-30703424D02*
X110701737Y-26795424D01*
X110701737Y-26795424D02*
X102076737Y-26795424D01*
X99801737Y-28749424D02*
X99801737Y-32694424D01*
X99801737Y-32703424D02*
X103411737Y-32703424D01*
X103621737Y-41049424D02*
G75*
G03*
X102401737Y-39629424I-1320000J100000D01*
G01*
X103331737Y-34999424D02*
G75*
G03*
X105701737Y-37169424I2270000J100000D01*
G01*
X103416738Y-32679423D02*
G75*
G02*
X105676737Y-30799424I2069999J-190000D01*
G01*
X99812737Y-28679424D02*
G75*
G02*
X102076737Y-26795424I2074000J-190000D01*
G01*
D11*
%TO.C,PUSH1*%
X84251736Y-59092424D02*
X84251736Y-59392424D01*
X87551736Y-59092424D02*
X84251736Y-59092424D01*
X87551736Y-59392424D02*
X87551736Y-59092424D01*
X84251736Y-61892424D02*
X84251736Y-61592424D01*
X87551736Y-61892424D02*
X84251736Y-61892424D01*
X87551736Y-61592424D02*
X87551736Y-61892424D01*
%TO.C,SW1*%
X166351737Y-21379424D02*
X166351737Y-22169424D01*
X159451737Y-22169424D02*
X159451737Y-21379424D01*
X161301737Y-23219424D02*
X163001737Y-23219424D01*
X160051737Y-20369424D02*
X165751737Y-20369424D01*
X162801737Y-19079424D02*
X162801737Y-20369424D01*
X161701737Y-18869424D02*
X162601737Y-18869424D01*
X161501737Y-20369424D02*
X161501737Y-19079424D01*
X162801737Y-19079424D02*
X162601737Y-18869424D01*
X161501737Y-19079424D02*
X161701737Y-18869424D01*
X164301737Y-23219424D02*
X164501737Y-23219424D01*
%TO.C,U1*%
D10*
X81150212Y-24031328D02*
X81150212Y-23231328D01*
X80959736Y-23231328D01*
X80845450Y-23269424D01*
X80769259Y-23345614D01*
X80731164Y-23421804D01*
X80693069Y-23574185D01*
X80693069Y-23688471D01*
X80731164Y-23840852D01*
X80769259Y-23917043D01*
X80845450Y-23993233D01*
X80959736Y-24031328D01*
X81150212Y-24031328D01*
X80426402Y-23231328D02*
X79931164Y-23231328D01*
X80197831Y-23536090D01*
X80083545Y-23536090D01*
X80007355Y-23574185D01*
X79969259Y-23612281D01*
X79931164Y-23688471D01*
X79931164Y-23878947D01*
X79969259Y-23955138D01*
X80007355Y-23993233D01*
X80083545Y-24031328D01*
X80312116Y-24031328D01*
X80388307Y-23993233D01*
X80426402Y-23955138D01*
X81150212Y-26571328D02*
X81150212Y-25771328D01*
X80959736Y-25771328D01*
X80845450Y-25809424D01*
X80769259Y-25885614D01*
X80731164Y-25961804D01*
X80693069Y-26114185D01*
X80693069Y-26228471D01*
X80731164Y-26380852D01*
X80769259Y-26457043D01*
X80845450Y-26533233D01*
X80959736Y-26571328D01*
X81150212Y-26571328D01*
X80388307Y-25847519D02*
X80350212Y-25809424D01*
X80274021Y-25771328D01*
X80083545Y-25771328D01*
X80007355Y-25809424D01*
X79969259Y-25847519D01*
X79931164Y-25923709D01*
X79931164Y-25999900D01*
X79969259Y-26114185D01*
X80426402Y-26571328D01*
X79931164Y-26571328D01*
X81150212Y-36731328D02*
X81150212Y-35931328D01*
X80959736Y-35931328D01*
X80845450Y-35969424D01*
X80769259Y-36045614D01*
X80731164Y-36121804D01*
X80693069Y-36274185D01*
X80693069Y-36388471D01*
X80731164Y-36540852D01*
X80769259Y-36617043D01*
X80845450Y-36693233D01*
X80959736Y-36731328D01*
X81150212Y-36731328D01*
X80197831Y-35931328D02*
X80121640Y-35931328D01*
X80045450Y-35969424D01*
X80007355Y-36007519D01*
X79969259Y-36083709D01*
X79931164Y-36236090D01*
X79931164Y-36426566D01*
X79969259Y-36578947D01*
X80007355Y-36655138D01*
X80045450Y-36693233D01*
X80121640Y-36731328D01*
X80197831Y-36731328D01*
X80274021Y-36693233D01*
X80312116Y-36655138D01*
X80350212Y-36578947D01*
X80388307Y-36426566D01*
X80388307Y-36236090D01*
X80350212Y-36083709D01*
X80312116Y-36007519D01*
X80274021Y-35969424D01*
X80197831Y-35931328D01*
X81150212Y-34191328D02*
X81150212Y-33391328D01*
X80959736Y-33391328D01*
X80845450Y-33429424D01*
X80769259Y-33505614D01*
X80731164Y-33581804D01*
X80693069Y-33734185D01*
X80693069Y-33848471D01*
X80731164Y-34000852D01*
X80769259Y-34077043D01*
X80845450Y-34153233D01*
X80959736Y-34191328D01*
X81150212Y-34191328D01*
X79931164Y-34191328D02*
X80388307Y-34191328D01*
X80159736Y-34191328D02*
X80159736Y-33391328D01*
X80235926Y-33505614D01*
X80312116Y-33581804D01*
X80388307Y-33619900D01*
X81550259Y-30889424D02*
X81626450Y-30851328D01*
X81740736Y-30851328D01*
X81855021Y-30889424D01*
X81931212Y-30965614D01*
X81969307Y-31041804D01*
X82007402Y-31194185D01*
X82007402Y-31308471D01*
X81969307Y-31460852D01*
X81931212Y-31537043D01*
X81855021Y-31613233D01*
X81740736Y-31651328D01*
X81664545Y-31651328D01*
X81550259Y-31613233D01*
X81512164Y-31575138D01*
X81512164Y-31308471D01*
X81664545Y-31308471D01*
X81169307Y-31651328D02*
X81169307Y-30851328D01*
X80712164Y-31651328D01*
X80712164Y-30851328D01*
X80331212Y-31651328D02*
X80331212Y-30851328D01*
X80140736Y-30851328D01*
X80026450Y-30889424D01*
X79950259Y-30965614D01*
X79912164Y-31041804D01*
X79874069Y-31194185D01*
X79874069Y-31308471D01*
X79912164Y-31460852D01*
X79950259Y-31537043D01*
X80026450Y-31613233D01*
X80140736Y-31651328D01*
X80331212Y-31651328D01*
X81550259Y-28349424D02*
X81626450Y-28311328D01*
X81740736Y-28311328D01*
X81855021Y-28349424D01*
X81931212Y-28425614D01*
X81969307Y-28501804D01*
X82007402Y-28654185D01*
X82007402Y-28768471D01*
X81969307Y-28920852D01*
X81931212Y-28997043D01*
X81855021Y-29073233D01*
X81740736Y-29111328D01*
X81664545Y-29111328D01*
X81550259Y-29073233D01*
X81512164Y-29035138D01*
X81512164Y-28768471D01*
X81664545Y-28768471D01*
X81169307Y-29111328D02*
X81169307Y-28311328D01*
X80712164Y-29111328D01*
X80712164Y-28311328D01*
X80331212Y-29111328D02*
X80331212Y-28311328D01*
X80140736Y-28311328D01*
X80026450Y-28349424D01*
X79950259Y-28425614D01*
X79912164Y-28501804D01*
X79874069Y-28654185D01*
X79874069Y-28768471D01*
X79912164Y-28920852D01*
X79950259Y-28997043D01*
X80026450Y-29073233D01*
X80140736Y-29111328D01*
X80331212Y-29111328D01*
X81150212Y-39271328D02*
X81150212Y-38471328D01*
X80959736Y-38471328D01*
X80845450Y-38509424D01*
X80769259Y-38585614D01*
X80731164Y-38661804D01*
X80693069Y-38814185D01*
X80693069Y-38928471D01*
X80731164Y-39080852D01*
X80769259Y-39157043D01*
X80845450Y-39233233D01*
X80959736Y-39271328D01*
X81150212Y-39271328D01*
X80007355Y-38737995D02*
X80007355Y-39271328D01*
X80197831Y-38433233D02*
X80388307Y-39004662D01*
X79893069Y-39004662D01*
X80693069Y-41735138D02*
X80731164Y-41773233D01*
X80845450Y-41811328D01*
X80921640Y-41811328D01*
X81035926Y-41773233D01*
X81112116Y-41697043D01*
X81150212Y-41620852D01*
X81188307Y-41468471D01*
X81188307Y-41354185D01*
X81150212Y-41201804D01*
X81112116Y-41125614D01*
X81035926Y-41049424D01*
X80921640Y-41011328D01*
X80845450Y-41011328D01*
X80731164Y-41049424D01*
X80693069Y-41087519D01*
X80007355Y-41011328D02*
X80159736Y-41011328D01*
X80235926Y-41049424D01*
X80274021Y-41087519D01*
X80350212Y-41201804D01*
X80388307Y-41354185D01*
X80388307Y-41658947D01*
X80350212Y-41735138D01*
X80312116Y-41773233D01*
X80235926Y-41811328D01*
X80083545Y-41811328D01*
X80007355Y-41773233D01*
X79969259Y-41735138D01*
X79931164Y-41658947D01*
X79931164Y-41468471D01*
X79969259Y-41392281D01*
X80007355Y-41354185D01*
X80083545Y-41316090D01*
X80235926Y-41316090D01*
X80312116Y-41354185D01*
X80350212Y-41392281D01*
X80388307Y-41468471D01*
X81150212Y-44351328D02*
X81150212Y-43551328D01*
X80959736Y-43551328D01*
X80845450Y-43589424D01*
X80769259Y-43665614D01*
X80731164Y-43741804D01*
X80693069Y-43894185D01*
X80693069Y-44008471D01*
X80731164Y-44160852D01*
X80769259Y-44237043D01*
X80845450Y-44313233D01*
X80959736Y-44351328D01*
X81150212Y-44351328D01*
X80426402Y-43551328D02*
X79893069Y-43551328D01*
X80235926Y-44351328D01*
X81112116Y-46472281D02*
X80845450Y-46472281D01*
X80731164Y-46891328D02*
X81112116Y-46891328D01*
X81112116Y-46091328D01*
X80731164Y-46091328D01*
X80045450Y-46091328D02*
X80197831Y-46091328D01*
X80274021Y-46129424D01*
X80312116Y-46167519D01*
X80388307Y-46281804D01*
X80426402Y-46434185D01*
X80426402Y-46738947D01*
X80388307Y-46815138D01*
X80350212Y-46853233D01*
X80274021Y-46891328D01*
X80121640Y-46891328D01*
X80045450Y-46853233D01*
X80007355Y-46815138D01*
X79969259Y-46738947D01*
X79969259Y-46548471D01*
X80007355Y-46472281D01*
X80045450Y-46434185D01*
X80121640Y-46396090D01*
X80274021Y-46396090D01*
X80350212Y-46434185D01*
X80388307Y-46472281D01*
X80426402Y-46548471D01*
X80883545Y-49012281D02*
X80769259Y-49050376D01*
X80731164Y-49088471D01*
X80693069Y-49164662D01*
X80693069Y-49278947D01*
X80731164Y-49355138D01*
X80769259Y-49393233D01*
X80845450Y-49431328D01*
X81150212Y-49431328D01*
X81150212Y-48631328D01*
X80883545Y-48631328D01*
X80807355Y-48669424D01*
X80769259Y-48707519D01*
X80731164Y-48783709D01*
X80731164Y-48859900D01*
X80769259Y-48936090D01*
X80807355Y-48974185D01*
X80883545Y-49012281D01*
X81150212Y-49012281D01*
X80007355Y-48897995D02*
X80007355Y-49431328D01*
X80197831Y-48593233D02*
X80388307Y-49164662D01*
X79893069Y-49164662D01*
X80883545Y-51552281D02*
X80769259Y-51590376D01*
X80731164Y-51628471D01*
X80693069Y-51704662D01*
X80693069Y-51818947D01*
X80731164Y-51895138D01*
X80769259Y-51933233D01*
X80845450Y-51971328D01*
X81150212Y-51971328D01*
X81150212Y-51171328D01*
X80883545Y-51171328D01*
X80807355Y-51209424D01*
X80769259Y-51247519D01*
X80731164Y-51323709D01*
X80731164Y-51399900D01*
X80769259Y-51476090D01*
X80807355Y-51514185D01*
X80883545Y-51552281D01*
X81150212Y-51552281D01*
X79969259Y-51171328D02*
X80350212Y-51171328D01*
X80388307Y-51552281D01*
X80350212Y-51514185D01*
X80274021Y-51476090D01*
X80083545Y-51476090D01*
X80007355Y-51514185D01*
X79969259Y-51552281D01*
X79931164Y-51628471D01*
X79931164Y-51818947D01*
X79969259Y-51895138D01*
X80007355Y-51933233D01*
X80083545Y-51971328D01*
X80274021Y-51971328D01*
X80350212Y-51933233D01*
X80388307Y-51895138D01*
X96250545Y-51552281D02*
X96136259Y-51590376D01*
X96098164Y-51628471D01*
X96060069Y-51704662D01*
X96060069Y-51818947D01*
X96098164Y-51895138D01*
X96136259Y-51933233D01*
X96212450Y-51971328D01*
X96517212Y-51971328D01*
X96517212Y-51171328D01*
X96250545Y-51171328D01*
X96174355Y-51209424D01*
X96136259Y-51247519D01*
X96098164Y-51323709D01*
X96098164Y-51399900D01*
X96136259Y-51476090D01*
X96174355Y-51514185D01*
X96250545Y-51552281D01*
X96517212Y-51552281D01*
X95374355Y-51171328D02*
X95526736Y-51171328D01*
X95602926Y-51209424D01*
X95641021Y-51247519D01*
X95717212Y-51361804D01*
X95755307Y-51514185D01*
X95755307Y-51818947D01*
X95717212Y-51895138D01*
X95679116Y-51933233D01*
X95602926Y-51971328D01*
X95450545Y-51971328D01*
X95374355Y-51933233D01*
X95336259Y-51895138D01*
X95298164Y-51818947D01*
X95298164Y-51628471D01*
X95336259Y-51552281D01*
X95374355Y-51514185D01*
X95450545Y-51476090D01*
X95602926Y-51476090D01*
X95679116Y-51514185D01*
X95717212Y-51552281D01*
X95755307Y-51628471D01*
X96250545Y-46472281D02*
X96136259Y-46510376D01*
X96098164Y-46548471D01*
X96060069Y-46624662D01*
X96060069Y-46738947D01*
X96098164Y-46815138D01*
X96136259Y-46853233D01*
X96212450Y-46891328D01*
X96517212Y-46891328D01*
X96517212Y-46091328D01*
X96250545Y-46091328D01*
X96174355Y-46129424D01*
X96136259Y-46167519D01*
X96098164Y-46243709D01*
X96098164Y-46319900D01*
X96136259Y-46396090D01*
X96174355Y-46434185D01*
X96250545Y-46472281D01*
X96517212Y-46472281D01*
X95793402Y-46091328D02*
X95298164Y-46091328D01*
X95564831Y-46396090D01*
X95450545Y-46396090D01*
X95374355Y-46434185D01*
X95336259Y-46472281D01*
X95298164Y-46548471D01*
X95298164Y-46738947D01*
X95336259Y-46815138D01*
X95374355Y-46853233D01*
X95450545Y-46891328D01*
X95679116Y-46891328D01*
X95755307Y-46853233D01*
X95793402Y-46815138D01*
X96250545Y-43932281D02*
X96136259Y-43970376D01*
X96098164Y-44008471D01*
X96060069Y-44084662D01*
X96060069Y-44198947D01*
X96098164Y-44275138D01*
X96136259Y-44313233D01*
X96212450Y-44351328D01*
X96517212Y-44351328D01*
X96517212Y-43551328D01*
X96250545Y-43551328D01*
X96174355Y-43589424D01*
X96136259Y-43627519D01*
X96098164Y-43703709D01*
X96098164Y-43779900D01*
X96136259Y-43856090D01*
X96174355Y-43894185D01*
X96250545Y-43932281D01*
X96517212Y-43932281D01*
X95298164Y-44351328D02*
X95755307Y-44351328D01*
X95526736Y-44351328D02*
X95526736Y-43551328D01*
X95602926Y-43665614D01*
X95679116Y-43741804D01*
X95755307Y-43779900D01*
X96193402Y-33772281D02*
X96460069Y-33772281D01*
X96460069Y-34191328D02*
X96460069Y-33391328D01*
X96079116Y-33391328D01*
X95431497Y-33657995D02*
X95431497Y-34191328D01*
X95621974Y-33353233D02*
X95812450Y-33924662D01*
X95317212Y-33924662D01*
X97374402Y-30851328D02*
X97107736Y-31651328D01*
X96841069Y-30851328D01*
X96117259Y-31575138D02*
X96155355Y-31613233D01*
X96269640Y-31651328D01*
X96345831Y-31651328D01*
X96460116Y-31613233D01*
X96536307Y-31537043D01*
X96574402Y-31460852D01*
X96612497Y-31308471D01*
X96612497Y-31194185D01*
X96574402Y-31041804D01*
X96536307Y-30965614D01*
X96460116Y-30889424D01*
X96345831Y-30851328D01*
X96269640Y-30851328D01*
X96155355Y-30889424D01*
X96117259Y-30927519D01*
X95317259Y-31575138D02*
X95355355Y-31613233D01*
X95469640Y-31651328D01*
X95545831Y-31651328D01*
X95660116Y-31613233D01*
X95736307Y-31537043D01*
X95774402Y-31460852D01*
X95812497Y-31308471D01*
X95812497Y-31194185D01*
X95774402Y-31041804D01*
X95736307Y-30965614D01*
X95660116Y-30889424D01*
X95545831Y-30851328D01*
X95469640Y-30851328D01*
X95355355Y-30889424D01*
X95317259Y-30927519D01*
X96745831Y-29081328D02*
X97012497Y-28700376D01*
X97202974Y-29081328D02*
X97202974Y-28281328D01*
X96898212Y-28281328D01*
X96822021Y-28319424D01*
X96783926Y-28357519D01*
X96745831Y-28433709D01*
X96745831Y-28547995D01*
X96783926Y-28624185D01*
X96822021Y-28662281D01*
X96898212Y-28700376D01*
X97202974Y-28700376D01*
X96441069Y-29043233D02*
X96326783Y-29081328D01*
X96136307Y-29081328D01*
X96060116Y-29043233D01*
X96022021Y-29005138D01*
X95983926Y-28928947D01*
X95983926Y-28852757D01*
X96022021Y-28776566D01*
X96060116Y-28738471D01*
X96136307Y-28700376D01*
X96288688Y-28662281D01*
X96364878Y-28624185D01*
X96402974Y-28586090D01*
X96441069Y-28509900D01*
X96441069Y-28433709D01*
X96402974Y-28357519D01*
X96364878Y-28319424D01*
X96288688Y-28281328D01*
X96098212Y-28281328D01*
X95983926Y-28319424D01*
X95755355Y-28281328D02*
X95298212Y-28281328D01*
X95526783Y-29081328D02*
X95526783Y-28281328D01*
X96917259Y-25809424D02*
X96993450Y-25771328D01*
X97107736Y-25771328D01*
X97222021Y-25809424D01*
X97298212Y-25885614D01*
X97336307Y-25961804D01*
X97374402Y-26114185D01*
X97374402Y-26228471D01*
X97336307Y-26380852D01*
X97298212Y-26457043D01*
X97222021Y-26533233D01*
X97107736Y-26571328D01*
X97031545Y-26571328D01*
X96917259Y-26533233D01*
X96879164Y-26495138D01*
X96879164Y-26228471D01*
X97031545Y-26228471D01*
X96536307Y-26571328D02*
X96536307Y-25771328D01*
X96079164Y-26571328D01*
X96079164Y-25771328D01*
X95698212Y-26571328D02*
X95698212Y-25771328D01*
X95507736Y-25771328D01*
X95393450Y-25809424D01*
X95317259Y-25885614D01*
X95279164Y-25961804D01*
X95241069Y-26114185D01*
X95241069Y-26228471D01*
X95279164Y-26380852D01*
X95317259Y-26457043D01*
X95393450Y-26533233D01*
X95507736Y-26571328D01*
X95698212Y-26571328D01*
X96860116Y-24031328D02*
X97126783Y-23650376D01*
X97317259Y-24031328D02*
X97317259Y-23231328D01*
X97012497Y-23231328D01*
X96936307Y-23269424D01*
X96898212Y-23307519D01*
X96860116Y-23383709D01*
X96860116Y-23497995D01*
X96898212Y-23574185D01*
X96936307Y-23612281D01*
X97012497Y-23650376D01*
X97317259Y-23650376D01*
X96555355Y-23802757D02*
X96174402Y-23802757D01*
X96631545Y-24031328D02*
X96364878Y-23231328D01*
X96098212Y-24031328D01*
X95907736Y-23231328D02*
X95717259Y-24031328D01*
X95564878Y-23459900D01*
X95412497Y-24031328D01*
X95222021Y-23231328D01*
X96193402Y-36312281D02*
X96460069Y-36312281D01*
X96460069Y-36731328D02*
X96460069Y-35931328D01*
X96079116Y-35931328D01*
X95393402Y-35931328D02*
X95774355Y-35931328D01*
X95812450Y-36312281D01*
X95774355Y-36274185D01*
X95698164Y-36236090D01*
X95507688Y-36236090D01*
X95431497Y-36274185D01*
X95393402Y-36312281D01*
X95355307Y-36388471D01*
X95355307Y-36578947D01*
X95393402Y-36655138D01*
X95431497Y-36693233D01*
X95507688Y-36731328D01*
X95698164Y-36731328D01*
X95774355Y-36693233D01*
X95812450Y-36655138D01*
X96193402Y-38852281D02*
X96460069Y-38852281D01*
X96460069Y-39271328D02*
X96460069Y-38471328D01*
X96079116Y-38471328D01*
X95431497Y-38471328D02*
X95583878Y-38471328D01*
X95660069Y-38509424D01*
X95698164Y-38547519D01*
X95774355Y-38661804D01*
X95812450Y-38814185D01*
X95812450Y-39118947D01*
X95774355Y-39195138D01*
X95736259Y-39233233D01*
X95660069Y-39271328D01*
X95507688Y-39271328D01*
X95431497Y-39233233D01*
X95393402Y-39195138D01*
X95355307Y-39118947D01*
X95355307Y-38928471D01*
X95393402Y-38852281D01*
X95431497Y-38814185D01*
X95507688Y-38776090D01*
X95660069Y-38776090D01*
X95736259Y-38814185D01*
X95774355Y-38852281D01*
X95812450Y-38928471D01*
X96193402Y-41392281D02*
X96460069Y-41392281D01*
X96460069Y-41811328D02*
X96460069Y-41011328D01*
X96079116Y-41011328D01*
X95850545Y-41011328D02*
X95317212Y-41011328D01*
X95660069Y-41811328D01*
X96250545Y-49012281D02*
X96136259Y-49050376D01*
X96098164Y-49088471D01*
X96060069Y-49164662D01*
X96060069Y-49278947D01*
X96098164Y-49355138D01*
X96136259Y-49393233D01*
X96212450Y-49431328D01*
X96517212Y-49431328D01*
X96517212Y-48631328D01*
X96250545Y-48631328D01*
X96174355Y-48669424D01*
X96136259Y-48707519D01*
X96098164Y-48783709D01*
X96098164Y-48859900D01*
X96136259Y-48936090D01*
X96174355Y-48974185D01*
X96250545Y-49012281D01*
X96517212Y-49012281D01*
X95755307Y-48707519D02*
X95717212Y-48669424D01*
X95641021Y-48631328D01*
X95450545Y-48631328D01*
X95374355Y-48669424D01*
X95336259Y-48707519D01*
X95298164Y-48783709D01*
X95298164Y-48859900D01*
X95336259Y-48974185D01*
X95793402Y-49431328D01*
X95298164Y-49431328D01*
%TD*%
%LPC*%
D14*
%TO.C,KEY4*%
G36*
X167401737Y-32069424D02*
G01*
X169801737Y-32069424D01*
X169801737Y-32519424D01*
X170451737Y-32519424D01*
X170451737Y-34019424D01*
X169801737Y-34019424D01*
X169801737Y-34469424D01*
X167401737Y-34469424D01*
X167401737Y-32069424D01*
G37*
G36*
X157251737Y-37059424D02*
G01*
X154751737Y-37059424D01*
X154751737Y-36559424D01*
X154051737Y-36559424D01*
X154051737Y-35059424D01*
X154751737Y-35059424D01*
X154751737Y-34559424D01*
X157251737Y-34559424D01*
X157251737Y-37059424D01*
G37*
D15*
X166711737Y-35809424D03*
X166711737Y-35809424D03*
X160361737Y-33269424D03*
D16*
X166726737Y-35769424D03*
D15*
X167901737Y-42049424D03*
D17*
X154801737Y-42049424D03*
D18*
X165701737Y-44249424D03*
D15*
X157901737Y-42049424D03*
X162901737Y-44249424D03*
D16*
X159076737Y-35769424D03*
D15*
X165441737Y-33269424D03*
D19*
X162901737Y-38349424D03*
D20*
X157401737Y-38349424D03*
X168401737Y-38349424D03*
D21*
X167981737Y-38349424D03*
X157821737Y-38349424D03*
D15*
X159091737Y-35809423D03*
%TD*%
D14*
%TO.C,KEY8*%
G36*
X167401739Y-51069423D02*
G01*
X169801739Y-51069423D01*
X169801739Y-51519423D01*
X170451739Y-51519423D01*
X170451739Y-53019423D01*
X169801739Y-53019423D01*
X169801739Y-53469423D01*
X167401739Y-53469423D01*
X167401739Y-51069423D01*
G37*
G36*
X157251739Y-56059423D02*
G01*
X154751739Y-56059423D01*
X154751739Y-55559423D01*
X154051739Y-55559423D01*
X154051739Y-54059423D01*
X154751739Y-54059423D01*
X154751739Y-53559423D01*
X157251739Y-53559423D01*
X157251739Y-56059423D01*
G37*
D15*
X166711739Y-54809423D03*
X166711739Y-54809423D03*
X160361739Y-52269423D03*
D16*
X166726739Y-54769423D03*
D15*
X167901739Y-61049423D03*
D17*
X154801739Y-61049423D03*
D18*
X165701739Y-63249423D03*
D15*
X157901739Y-61049423D03*
X162901739Y-63249423D03*
D16*
X159076739Y-54769423D03*
D15*
X165441739Y-52269423D03*
D19*
X162901739Y-57349423D03*
D20*
X157401739Y-57349423D03*
X168401739Y-57349423D03*
D21*
X167981739Y-57349423D03*
X157821739Y-57349423D03*
D15*
X159091739Y-54809422D03*
%TD*%
D14*
%TO.C,KEY7*%
G36*
X148401739Y-46319426D02*
G01*
X150801739Y-46319426D01*
X150801739Y-46769426D01*
X151451739Y-46769426D01*
X151451739Y-48269426D01*
X150801739Y-48269426D01*
X150801739Y-48719426D01*
X148401739Y-48719426D01*
X148401739Y-46319426D01*
G37*
G36*
X138251739Y-51309426D02*
G01*
X135751739Y-51309426D01*
X135751739Y-50809426D01*
X135051739Y-50809426D01*
X135051739Y-49309426D01*
X135751739Y-49309426D01*
X135751739Y-48809426D01*
X138251739Y-48809426D01*
X138251739Y-51309426D01*
G37*
D15*
X147711739Y-50059426D03*
X147711739Y-50059426D03*
X141361739Y-47519426D03*
D16*
X147726739Y-50019426D03*
D15*
X148901739Y-56299426D03*
D17*
X135801739Y-56299426D03*
D18*
X146701739Y-58499426D03*
D15*
X138901739Y-56299426D03*
X143901739Y-58499426D03*
D16*
X140076739Y-50019426D03*
D15*
X146441739Y-47519426D03*
D19*
X143901739Y-52599426D03*
D20*
X138401739Y-52599426D03*
X149401739Y-52599426D03*
D21*
X148981739Y-52599426D03*
X138821739Y-52599426D03*
D15*
X140091739Y-50059425D03*
%TD*%
D14*
%TO.C,KEY6*%
G36*
X129401739Y-43939424D02*
G01*
X131801739Y-43939424D01*
X131801739Y-44389424D01*
X132451739Y-44389424D01*
X132451739Y-45889424D01*
X131801739Y-45889424D01*
X131801739Y-46339424D01*
X129401739Y-46339424D01*
X129401739Y-43939424D01*
G37*
G36*
X119251739Y-48929424D02*
G01*
X116751739Y-48929424D01*
X116751739Y-48429424D01*
X116051739Y-48429424D01*
X116051739Y-46929424D01*
X116751739Y-46929424D01*
X116751739Y-46429424D01*
X119251739Y-46429424D01*
X119251739Y-48929424D01*
G37*
D15*
X128711739Y-47679424D03*
X128711739Y-47679424D03*
X122361739Y-45139424D03*
D16*
X128726739Y-47639424D03*
D15*
X129901739Y-53919424D03*
D17*
X116801739Y-53919424D03*
D18*
X127701739Y-56119424D03*
D15*
X119901739Y-53919424D03*
X124901739Y-56119424D03*
D16*
X121076739Y-47639424D03*
D15*
X127441739Y-45139424D03*
D19*
X124901739Y-50219424D03*
D20*
X119401739Y-50219424D03*
X130401739Y-50219424D03*
D21*
X129981739Y-50219424D03*
X119821739Y-50219424D03*
D15*
X121091739Y-47679423D03*
%TD*%
D14*
%TO.C,KEY5*%
G36*
X110401736Y-46319424D02*
G01*
X112801736Y-46319424D01*
X112801736Y-46769424D01*
X113451736Y-46769424D01*
X113451736Y-48269424D01*
X112801736Y-48269424D01*
X112801736Y-48719424D01*
X110401736Y-48719424D01*
X110401736Y-46319424D01*
G37*
G36*
X100251736Y-51309424D02*
G01*
X97751736Y-51309424D01*
X97751736Y-50809424D01*
X97051736Y-50809424D01*
X97051736Y-49309424D01*
X97751736Y-49309424D01*
X97751736Y-48809424D01*
X100251736Y-48809424D01*
X100251736Y-51309424D01*
G37*
D15*
X109711736Y-50059424D03*
X109711736Y-50059424D03*
X103361736Y-47519424D03*
D16*
X109726736Y-50019424D03*
D15*
X110901736Y-56299424D03*
D17*
X97801736Y-56299424D03*
D18*
X108701736Y-58499424D03*
D15*
X100901736Y-56299424D03*
X105901736Y-58499424D03*
D16*
X102076736Y-50019424D03*
D15*
X108441736Y-47519424D03*
D19*
X105901736Y-52599424D03*
D20*
X100401736Y-52599424D03*
X111401736Y-52599424D03*
D21*
X110981736Y-52599424D03*
X100821736Y-52599424D03*
D15*
X102091736Y-50059423D03*
%TD*%
D14*
%TO.C,KEY3*%
G36*
X148401739Y-27319426D02*
G01*
X150801739Y-27319426D01*
X150801739Y-27769426D01*
X151451739Y-27769426D01*
X151451739Y-29269426D01*
X150801739Y-29269426D01*
X150801739Y-29719426D01*
X148401739Y-29719426D01*
X148401739Y-27319426D01*
G37*
G36*
X138251739Y-32309426D02*
G01*
X135751739Y-32309426D01*
X135751739Y-31809426D01*
X135051739Y-31809426D01*
X135051739Y-30309426D01*
X135751739Y-30309426D01*
X135751739Y-29809426D01*
X138251739Y-29809426D01*
X138251739Y-32309426D01*
G37*
D15*
X147711739Y-31059426D03*
X147711739Y-31059426D03*
X141361739Y-28519426D03*
D16*
X147726739Y-31019426D03*
D15*
X148901739Y-37299426D03*
D17*
X135801739Y-37299426D03*
D18*
X146701739Y-39499426D03*
D15*
X138901739Y-37299426D03*
X143901739Y-39499426D03*
D16*
X140076739Y-31019426D03*
D15*
X146441739Y-28519426D03*
D19*
X143901739Y-33599426D03*
D20*
X138401739Y-33599426D03*
X149401739Y-33599426D03*
D21*
X148981739Y-33599426D03*
X138821739Y-33599426D03*
D15*
X140091739Y-31059425D03*
%TD*%
D14*
%TO.C,KEY2*%
G36*
X129401737Y-24939424D02*
G01*
X131801737Y-24939424D01*
X131801737Y-25389424D01*
X132451737Y-25389424D01*
X132451737Y-26889424D01*
X131801737Y-26889424D01*
X131801737Y-27339424D01*
X129401737Y-27339424D01*
X129401737Y-24939424D01*
G37*
G36*
X119251737Y-29929424D02*
G01*
X116751737Y-29929424D01*
X116751737Y-29429424D01*
X116051737Y-29429424D01*
X116051737Y-27929424D01*
X116751737Y-27929424D01*
X116751737Y-27429424D01*
X119251737Y-27429424D01*
X119251737Y-29929424D01*
G37*
D15*
X128711737Y-28679424D03*
X128711737Y-28679424D03*
X122361737Y-26139424D03*
D16*
X128726737Y-28639424D03*
D15*
X129901737Y-34919424D03*
D17*
X116801737Y-34919424D03*
D18*
X127701737Y-37119424D03*
D15*
X119901737Y-34919424D03*
X124901737Y-37119424D03*
D16*
X121076737Y-28639424D03*
D15*
X127441737Y-26139424D03*
D19*
X124901737Y-31219424D03*
D20*
X119401737Y-31219424D03*
X130401737Y-31219424D03*
D21*
X129981737Y-31219424D03*
X119821737Y-31219424D03*
D15*
X121091737Y-28679423D03*
%TD*%
D14*
%TO.C,KEY1*%
G36*
X110401737Y-27319424D02*
G01*
X112801737Y-27319424D01*
X112801737Y-27769424D01*
X113451737Y-27769424D01*
X113451737Y-29269424D01*
X112801737Y-29269424D01*
X112801737Y-29719424D01*
X110401737Y-29719424D01*
X110401737Y-27319424D01*
G37*
G36*
X100251737Y-32309424D02*
G01*
X97751737Y-32309424D01*
X97751737Y-31809424D01*
X97051737Y-31809424D01*
X97051737Y-30309424D01*
X97751737Y-30309424D01*
X97751737Y-29809424D01*
X100251737Y-29809424D01*
X100251737Y-32309424D01*
G37*
D15*
X109711737Y-31059424D03*
X109711737Y-31059424D03*
X103361737Y-28519424D03*
D16*
X109726737Y-31019424D03*
D15*
X110901737Y-37299424D03*
D17*
X97801737Y-37299424D03*
D18*
X108701737Y-39499424D03*
D15*
X100901737Y-37299424D03*
X105901737Y-39499424D03*
D16*
X102076737Y-31019424D03*
D15*
X108441737Y-28519424D03*
D19*
X105901737Y-33599424D03*
D20*
X100401737Y-33599424D03*
X111401737Y-33599424D03*
D21*
X110981737Y-33599424D03*
X100821737Y-33599424D03*
D15*
X102091737Y-31059423D03*
%TD*%
D22*
%TO.C,U1*%
X93640736Y-46529424D03*
X93640736Y-49069424D03*
X93640736Y-51609424D03*
X78400736Y-49069424D03*
X78400736Y-46529424D03*
X78400736Y-43989424D03*
X78400736Y-41449424D03*
X78400736Y-38909424D03*
X78400736Y-36369424D03*
X78400736Y-33829424D03*
X78400736Y-31289424D03*
X78400736Y-28749424D03*
X78400736Y-26209424D03*
X78400736Y-23669424D03*
X93640736Y-23669424D03*
X78400736Y-51609424D03*
X93640736Y-26209424D03*
X93640736Y-28749424D03*
X93640736Y-31289424D03*
X93640736Y-33829424D03*
X93640736Y-36369424D03*
X93640736Y-38909424D03*
X93640736Y-41449424D03*
X93640736Y-43989424D03*
%TD*%
%TO.C,U2*%
X76749736Y-42719424D03*
X76749736Y-40179424D03*
X76749736Y-37639424D03*
X76749736Y-35099424D03*
X76749736Y-32559424D03*
X76749736Y-30019424D03*
X76749736Y-27479424D03*
X76749736Y-24939424D03*
X91989736Y-50339424D03*
X76749736Y-22399424D03*
X91989736Y-22399424D03*
X91989736Y-24939424D03*
X91989736Y-27479424D03*
X91989736Y-30019424D03*
X91989736Y-32559424D03*
X91989736Y-35099424D03*
X91989736Y-37639424D03*
X91989736Y-40179424D03*
X91989736Y-42719424D03*
X91989736Y-45259424D03*
X91989736Y-47799424D03*
X76749736Y-50339424D03*
X76749736Y-47799424D03*
X76749736Y-45259424D03*
%TD*%
D23*
%TO.C,J2*%
X81081737Y-54281424D03*
X83621737Y-54281424D03*
X86161737Y-54281424D03*
D24*
X88701737Y-54281424D03*
%TD*%
D23*
%TO.C,J1*%
X107171737Y-20599424D03*
D24*
X104631737Y-20599424D03*
%TD*%
D25*
%TO.C,SW2*%
X161401737Y-21769424D03*
X164401737Y-21769424D03*
%TD*%
D26*
%TO.C,REF\u002A\u002A*%
X147401737Y-65599424D03*
%TD*%
%TO.C,REF\u002A\u002A*%
X98401736Y-65599424D03*
%TD*%
%TO.C,REF\u002A\u002A*%
X147401737Y-21599424D03*
%TD*%
%TO.C,REF\u002A\u002A*%
X98401736Y-21599424D03*
%TD*%
D27*
%TO.C,PUSH1*%
X84201736Y-60492424D03*
X87601736Y-60492424D03*
%TD*%
D28*
%TO.C,SW1*%
X159251737Y-22879424D03*
X166551737Y-22879424D03*
X166551737Y-20669424D03*
X159251737Y-20669424D03*
D29*
X165151737Y-23529424D03*
X163651737Y-23529424D03*
X160651737Y-23529424D03*
D25*
X164401737Y-21769424D03*
X161401737Y-21769424D03*
%TD*%
M02*
