M48
; DRILL file {KiCad 5.1.10} date Wed Sep  1 18:29:17 2021
; FORMAT={-:-/ absolute / inch / decimal}
; #@! TF.CreationDate,2021-09-01T18:29:17-05:00
; #@! TF.GenerationSoftware,Kicad,Pcbnew,5.1.10
; #@! TF.FileFunction,NonPlated,1,2,NPTH
FMAT,2
INCH
T1C0.0039
T2C0.0354
T3C0.0669
T4C0.0748
T5C0.0866
T6C0.1181
T7C0.1575
%
G90
G05
T1
X4.0188Y-1.9693
X4.0188Y-1.2212
X4.32Y-1.9693
X4.32Y-1.2212
X4.7668Y-1.1275
X4.7668Y-1.8756
X5.068Y-1.1275
X5.068Y-1.8756
X5.5148Y-1.2212
X5.5148Y-1.9693
X5.816Y-1.2212
X5.816Y-1.9693
X6.2629Y-1.4082
X6.2629Y-2.1563
X6.564Y-1.4082
X6.564Y-2.1563
T2
X6.3544Y-0.8571
X6.3544Y-0.8571
X6.4725Y-0.8571
X6.4725Y-0.8571
T3
X3.9694Y-2.0708
X3.9694Y-1.3228
X4.3694Y-2.0708
X4.3694Y-1.3228
X4.7174Y-1.2291
X4.7174Y-1.9771
X5.1174Y-1.2291
X5.1174Y-1.9771
X5.4654Y-1.3228
X5.4654Y-2.0708
X5.8654Y-1.3228
X5.8654Y-2.0708
X6.2135Y-1.5098
X6.2135Y-2.2579
X6.6135Y-1.5098
X6.6135Y-2.2579
T4
X3.9528Y-2.0708
X3.9528Y-1.3228
X4.3859Y-2.0708
X4.3859Y-1.3228
X4.7009Y-1.2291
X4.7009Y-1.9771
X5.1339Y-1.2291
X5.1339Y-1.9771
X5.4489Y-1.3228
X5.4489Y-2.0708
X5.882Y-1.3228
X5.882Y-2.0708
X6.1969Y-1.5098
X6.1969Y-2.2579
X6.63Y-1.5098
X6.63Y-2.2579
T5
X3.8741Y-0.8504
X3.8741Y-2.5827
X5.8032Y-0.8504
X5.8032Y-2.5827
T6
X3.9725Y-2.2165
X3.9725Y-1.4685
X4.0194Y-1.9708
X4.0194Y-1.2228
X4.0694Y-1.8708
X4.0694Y-1.1228
X4.1694Y-2.3031
X4.1694Y-1.5551
X4.2694Y-1.8708
X4.2694Y-1.1228
X4.3194Y-1.9708
X4.3194Y-1.9708
X4.3194Y-1.2228
X4.3194Y-1.2228
X4.3662Y-2.2165
X4.3662Y-1.4685
X4.7205Y-1.3748
X4.7205Y-2.1228
X4.7674Y-1.1291
X4.7674Y-1.8771
X4.8174Y-1.0291
X4.8174Y-1.7771
X4.9174Y-1.4614
X4.9174Y-2.2094
X5.0174Y-1.0291
X5.0174Y-1.7771
X5.0674Y-1.1291
X5.0674Y-1.1291
X5.0674Y-1.8771
X5.0674Y-1.8771
X5.1142Y-1.3748
X5.1142Y-2.1228
X5.4686Y-1.4685
X5.4686Y-2.2165
X5.5154Y-1.2228
X5.5154Y-1.9708
X5.5654Y-1.1228
X5.5654Y-1.8708
X5.6654Y-1.5551
X5.6654Y-2.3031
X5.7654Y-1.1228
X5.7654Y-1.8708
X5.8154Y-1.2228
X5.8154Y-1.2228
X5.8154Y-1.9708
X5.8154Y-1.9708
X5.8623Y-1.4685
X5.8623Y-2.2165
X6.2166Y-1.6555
X6.2166Y-2.4035
X6.2635Y-1.4098
X6.2635Y-2.1579
X6.3135Y-1.3098
X6.3135Y-2.0579
X6.4135Y-1.7421
X6.4135Y-2.4901
X6.5135Y-1.3098
X6.5135Y-2.0579
X6.5635Y-1.4098
X6.5635Y-1.4098
X6.5635Y-2.1579
X6.5635Y-2.1579
X6.6103Y-1.6555
X6.6103Y-2.4035
T7
X4.1694Y-2.0708
X4.1694Y-1.3228
X4.9174Y-1.2291
X4.9174Y-1.9771
X5.6654Y-1.3228
X5.6654Y-2.0708
X6.4135Y-1.5098
X6.4135Y-2.2579
T0
M30
