%TF.GenerationSoftware,KiCad,Pcbnew,5.1.10*%
%TF.CreationDate,2021-09-01T18:29:14-05:00*%
%TF.ProjectId,small-paintbrush-hotswap,736d616c-6c2d-4706-9169-6e7462727573,rev?*%
%TF.SameCoordinates,Original*%
%TF.FileFunction,Soldermask,Bot*%
%TF.FilePolarity,Negative*%
%FSLAX46Y46*%
G04 Gerber Fmt 4.6, Leading zero omitted, Abs format (unit mm)*
G04 Created by KiCad (PCBNEW 5.1.10) date 2021-09-01 18:29:14*
%MOMM*%
%LPD*%
G01*
G04 APERTURE LIST*
%ADD10C,0.100000*%
%ADD11C,3.000000*%
%ADD12C,0.100000*%
%ADD13R,2.000000X2.000000*%
%ADD14R,1.900000X2.000000*%
%ADD15C,4.000000*%
%ADD16C,1.900000*%
%ADD17C,1.700000*%
%ADD18C,1.752600*%
%ADD19O,1.700000X1.700000*%
%ADD20R,1.700000X1.700000*%
%ADD21C,0.900000*%
%ADD22C,2.200000*%
%ADD23R,0.900000X1.700000*%
%ADD24R,1.000000X0.800000*%
%ADD25R,0.700000X1.500000*%
G04 APERTURE END LIST*
D10*
%TO.C,KEY4*%
G36*
X167401737Y-32069424D02*
G01*
X169801737Y-32069424D01*
X169801737Y-32519424D01*
X170451737Y-32519424D01*
X170451737Y-34019424D01*
X169801737Y-34019424D01*
X169801737Y-34469424D01*
X167401737Y-34469424D01*
X167401737Y-32069424D01*
G37*
G36*
X157251737Y-37059424D02*
G01*
X154751737Y-37059424D01*
X154751737Y-36559424D01*
X154051737Y-36559424D01*
X154051737Y-35059424D01*
X154751737Y-35059424D01*
X154751737Y-34559424D01*
X157251737Y-34559424D01*
X157251737Y-37059424D01*
G37*
D11*
X166711737Y-35809424D03*
X166711737Y-35809424D03*
X160361737Y-33269424D03*
D12*
X166726737Y-35769424D03*
D11*
X167901737Y-42049424D03*
D13*
X154801737Y-42049424D03*
D14*
X165701737Y-44249424D03*
D11*
X157901737Y-42049424D03*
X162901737Y-44249424D03*
D12*
X159076737Y-35769424D03*
D11*
X165441737Y-33269424D03*
D15*
X162901737Y-38349424D03*
D16*
X157401737Y-38349424D03*
X168401737Y-38349424D03*
D17*
X167981737Y-38349424D03*
X157821737Y-38349424D03*
D11*
X159091737Y-35809423D03*
%TD*%
D10*
%TO.C,KEY8*%
G36*
X167401739Y-51069423D02*
G01*
X169801739Y-51069423D01*
X169801739Y-51519423D01*
X170451739Y-51519423D01*
X170451739Y-53019423D01*
X169801739Y-53019423D01*
X169801739Y-53469423D01*
X167401739Y-53469423D01*
X167401739Y-51069423D01*
G37*
G36*
X157251739Y-56059423D02*
G01*
X154751739Y-56059423D01*
X154751739Y-55559423D01*
X154051739Y-55559423D01*
X154051739Y-54059423D01*
X154751739Y-54059423D01*
X154751739Y-53559423D01*
X157251739Y-53559423D01*
X157251739Y-56059423D01*
G37*
D11*
X166711739Y-54809423D03*
X166711739Y-54809423D03*
X160361739Y-52269423D03*
D12*
X166726739Y-54769423D03*
D11*
X167901739Y-61049423D03*
D13*
X154801739Y-61049423D03*
D14*
X165701739Y-63249423D03*
D11*
X157901739Y-61049423D03*
X162901739Y-63249423D03*
D12*
X159076739Y-54769423D03*
D11*
X165441739Y-52269423D03*
D15*
X162901739Y-57349423D03*
D16*
X157401739Y-57349423D03*
X168401739Y-57349423D03*
D17*
X167981739Y-57349423D03*
X157821739Y-57349423D03*
D11*
X159091739Y-54809422D03*
%TD*%
D10*
%TO.C,KEY7*%
G36*
X148401739Y-46319426D02*
G01*
X150801739Y-46319426D01*
X150801739Y-46769426D01*
X151451739Y-46769426D01*
X151451739Y-48269426D01*
X150801739Y-48269426D01*
X150801739Y-48719426D01*
X148401739Y-48719426D01*
X148401739Y-46319426D01*
G37*
G36*
X138251739Y-51309426D02*
G01*
X135751739Y-51309426D01*
X135751739Y-50809426D01*
X135051739Y-50809426D01*
X135051739Y-49309426D01*
X135751739Y-49309426D01*
X135751739Y-48809426D01*
X138251739Y-48809426D01*
X138251739Y-51309426D01*
G37*
D11*
X147711739Y-50059426D03*
X147711739Y-50059426D03*
X141361739Y-47519426D03*
D12*
X147726739Y-50019426D03*
D11*
X148901739Y-56299426D03*
D13*
X135801739Y-56299426D03*
D14*
X146701739Y-58499426D03*
D11*
X138901739Y-56299426D03*
X143901739Y-58499426D03*
D12*
X140076739Y-50019426D03*
D11*
X146441739Y-47519426D03*
D15*
X143901739Y-52599426D03*
D16*
X138401739Y-52599426D03*
X149401739Y-52599426D03*
D17*
X148981739Y-52599426D03*
X138821739Y-52599426D03*
D11*
X140091739Y-50059425D03*
%TD*%
D10*
%TO.C,KEY6*%
G36*
X129401739Y-43939424D02*
G01*
X131801739Y-43939424D01*
X131801739Y-44389424D01*
X132451739Y-44389424D01*
X132451739Y-45889424D01*
X131801739Y-45889424D01*
X131801739Y-46339424D01*
X129401739Y-46339424D01*
X129401739Y-43939424D01*
G37*
G36*
X119251739Y-48929424D02*
G01*
X116751739Y-48929424D01*
X116751739Y-48429424D01*
X116051739Y-48429424D01*
X116051739Y-46929424D01*
X116751739Y-46929424D01*
X116751739Y-46429424D01*
X119251739Y-46429424D01*
X119251739Y-48929424D01*
G37*
D11*
X128711739Y-47679424D03*
X128711739Y-47679424D03*
X122361739Y-45139424D03*
D12*
X128726739Y-47639424D03*
D11*
X129901739Y-53919424D03*
D13*
X116801739Y-53919424D03*
D14*
X127701739Y-56119424D03*
D11*
X119901739Y-53919424D03*
X124901739Y-56119424D03*
D12*
X121076739Y-47639424D03*
D11*
X127441739Y-45139424D03*
D15*
X124901739Y-50219424D03*
D16*
X119401739Y-50219424D03*
X130401739Y-50219424D03*
D17*
X129981739Y-50219424D03*
X119821739Y-50219424D03*
D11*
X121091739Y-47679423D03*
%TD*%
D10*
%TO.C,KEY5*%
G36*
X110401736Y-46319424D02*
G01*
X112801736Y-46319424D01*
X112801736Y-46769424D01*
X113451736Y-46769424D01*
X113451736Y-48269424D01*
X112801736Y-48269424D01*
X112801736Y-48719424D01*
X110401736Y-48719424D01*
X110401736Y-46319424D01*
G37*
G36*
X100251736Y-51309424D02*
G01*
X97751736Y-51309424D01*
X97751736Y-50809424D01*
X97051736Y-50809424D01*
X97051736Y-49309424D01*
X97751736Y-49309424D01*
X97751736Y-48809424D01*
X100251736Y-48809424D01*
X100251736Y-51309424D01*
G37*
D11*
X109711736Y-50059424D03*
X109711736Y-50059424D03*
X103361736Y-47519424D03*
D12*
X109726736Y-50019424D03*
D11*
X110901736Y-56299424D03*
D13*
X97801736Y-56299424D03*
D14*
X108701736Y-58499424D03*
D11*
X100901736Y-56299424D03*
X105901736Y-58499424D03*
D12*
X102076736Y-50019424D03*
D11*
X108441736Y-47519424D03*
D15*
X105901736Y-52599424D03*
D16*
X100401736Y-52599424D03*
X111401736Y-52599424D03*
D17*
X110981736Y-52599424D03*
X100821736Y-52599424D03*
D11*
X102091736Y-50059423D03*
%TD*%
D10*
%TO.C,KEY3*%
G36*
X148401739Y-27319426D02*
G01*
X150801739Y-27319426D01*
X150801739Y-27769426D01*
X151451739Y-27769426D01*
X151451739Y-29269426D01*
X150801739Y-29269426D01*
X150801739Y-29719426D01*
X148401739Y-29719426D01*
X148401739Y-27319426D01*
G37*
G36*
X138251739Y-32309426D02*
G01*
X135751739Y-32309426D01*
X135751739Y-31809426D01*
X135051739Y-31809426D01*
X135051739Y-30309426D01*
X135751739Y-30309426D01*
X135751739Y-29809426D01*
X138251739Y-29809426D01*
X138251739Y-32309426D01*
G37*
D11*
X147711739Y-31059426D03*
X147711739Y-31059426D03*
X141361739Y-28519426D03*
D12*
X147726739Y-31019426D03*
D11*
X148901739Y-37299426D03*
D13*
X135801739Y-37299426D03*
D14*
X146701739Y-39499426D03*
D11*
X138901739Y-37299426D03*
X143901739Y-39499426D03*
D12*
X140076739Y-31019426D03*
D11*
X146441739Y-28519426D03*
D15*
X143901739Y-33599426D03*
D16*
X138401739Y-33599426D03*
X149401739Y-33599426D03*
D17*
X148981739Y-33599426D03*
X138821739Y-33599426D03*
D11*
X140091739Y-31059425D03*
%TD*%
D10*
%TO.C,KEY2*%
G36*
X129401737Y-24939424D02*
G01*
X131801737Y-24939424D01*
X131801737Y-25389424D01*
X132451737Y-25389424D01*
X132451737Y-26889424D01*
X131801737Y-26889424D01*
X131801737Y-27339424D01*
X129401737Y-27339424D01*
X129401737Y-24939424D01*
G37*
G36*
X119251737Y-29929424D02*
G01*
X116751737Y-29929424D01*
X116751737Y-29429424D01*
X116051737Y-29429424D01*
X116051737Y-27929424D01*
X116751737Y-27929424D01*
X116751737Y-27429424D01*
X119251737Y-27429424D01*
X119251737Y-29929424D01*
G37*
D11*
X128711737Y-28679424D03*
X128711737Y-28679424D03*
X122361737Y-26139424D03*
D12*
X128726737Y-28639424D03*
D11*
X129901737Y-34919424D03*
D13*
X116801737Y-34919424D03*
D14*
X127701737Y-37119424D03*
D11*
X119901737Y-34919424D03*
X124901737Y-37119424D03*
D12*
X121076737Y-28639424D03*
D11*
X127441737Y-26139424D03*
D15*
X124901737Y-31219424D03*
D16*
X119401737Y-31219424D03*
X130401737Y-31219424D03*
D17*
X129981737Y-31219424D03*
X119821737Y-31219424D03*
D11*
X121091737Y-28679423D03*
%TD*%
D10*
%TO.C,KEY1*%
G36*
X110401737Y-27319424D02*
G01*
X112801737Y-27319424D01*
X112801737Y-27769424D01*
X113451737Y-27769424D01*
X113451737Y-29269424D01*
X112801737Y-29269424D01*
X112801737Y-29719424D01*
X110401737Y-29719424D01*
X110401737Y-27319424D01*
G37*
G36*
X100251737Y-32309424D02*
G01*
X97751737Y-32309424D01*
X97751737Y-31809424D01*
X97051737Y-31809424D01*
X97051737Y-30309424D01*
X97751737Y-30309424D01*
X97751737Y-29809424D01*
X100251737Y-29809424D01*
X100251737Y-32309424D01*
G37*
D11*
X109711737Y-31059424D03*
X109711737Y-31059424D03*
X103361737Y-28519424D03*
D12*
X109726737Y-31019424D03*
D11*
X110901737Y-37299424D03*
D13*
X97801737Y-37299424D03*
D14*
X108701737Y-39499424D03*
D11*
X100901737Y-37299424D03*
X105901737Y-39499424D03*
D12*
X102076737Y-31019424D03*
D11*
X108441737Y-28519424D03*
D15*
X105901737Y-33599424D03*
D16*
X100401737Y-33599424D03*
X111401737Y-33599424D03*
D17*
X110981737Y-33599424D03*
X100821737Y-33599424D03*
D11*
X102091737Y-31059423D03*
%TD*%
D18*
%TO.C,U1*%
X93640736Y-46529424D03*
X93640736Y-49069424D03*
X93640736Y-51609424D03*
X78400736Y-49069424D03*
X78400736Y-46529424D03*
X78400736Y-43989424D03*
X78400736Y-41449424D03*
X78400736Y-38909424D03*
X78400736Y-36369424D03*
X78400736Y-33829424D03*
X78400736Y-31289424D03*
X78400736Y-28749424D03*
X78400736Y-26209424D03*
X78400736Y-23669424D03*
X93640736Y-23669424D03*
X78400736Y-51609424D03*
X93640736Y-26209424D03*
X93640736Y-28749424D03*
X93640736Y-31289424D03*
X93640736Y-33829424D03*
X93640736Y-36369424D03*
X93640736Y-38909424D03*
X93640736Y-41449424D03*
X93640736Y-43989424D03*
%TD*%
%TO.C,U2*%
X76749736Y-42719424D03*
X76749736Y-40179424D03*
X76749736Y-37639424D03*
X76749736Y-35099424D03*
X76749736Y-32559424D03*
X76749736Y-30019424D03*
X76749736Y-27479424D03*
X76749736Y-24939424D03*
X91989736Y-50339424D03*
X76749736Y-22399424D03*
X91989736Y-22399424D03*
X91989736Y-24939424D03*
X91989736Y-27479424D03*
X91989736Y-30019424D03*
X91989736Y-32559424D03*
X91989736Y-35099424D03*
X91989736Y-37639424D03*
X91989736Y-40179424D03*
X91989736Y-42719424D03*
X91989736Y-45259424D03*
X91989736Y-47799424D03*
X76749736Y-50339424D03*
X76749736Y-47799424D03*
X76749736Y-45259424D03*
%TD*%
D19*
%TO.C,J2*%
X81081737Y-54281424D03*
X83621737Y-54281424D03*
X86161737Y-54281424D03*
D20*
X88701737Y-54281424D03*
%TD*%
D19*
%TO.C,J1*%
X107171737Y-20599424D03*
D20*
X104631737Y-20599424D03*
%TD*%
D21*
%TO.C,SW2*%
X161401737Y-21769424D03*
X164401737Y-21769424D03*
%TD*%
D22*
%TO.C,REF\u002A\u002A*%
X147401737Y-65599424D03*
%TD*%
%TO.C,REF\u002A\u002A*%
X98401736Y-65599424D03*
%TD*%
%TO.C,REF\u002A\u002A*%
X147401737Y-21599424D03*
%TD*%
%TO.C,REF\u002A\u002A*%
X98401736Y-21599424D03*
%TD*%
D23*
%TO.C,PUSH1*%
X84201736Y-60492424D03*
X87601736Y-60492424D03*
%TD*%
D24*
%TO.C,SW1*%
X159251737Y-22879424D03*
X166551737Y-22879424D03*
X166551737Y-20669424D03*
X159251737Y-20669424D03*
D25*
X165151737Y-23529424D03*
X163651737Y-23529424D03*
X160651737Y-23529424D03*
D21*
X164401737Y-21769424D03*
X161401737Y-21769424D03*
%TD*%
M02*
