M48
; DRILL file {KiCad 5.1.10} date Wed Sep  1 18:29:17 2021
; FORMAT={-:-/ absolute / inch / decimal}
; #@! TF.CreationDate,2021-09-01T18:29:17-05:00
; #@! TF.GenerationSoftware,Kicad,Pcbnew,5.1.10
; #@! TF.FileFunction,Plated,1,2,PTH
FMAT,2
INCH
T1C0.0157
T2C0.0394
T3C0.0430
%
G90
G05
T1
X3.2757Y-2.3186
X3.2916Y-1.4319
X3.3566Y-1.2619
X3.3566Y-1.3669
X3.4922Y-2.3816
X3.7266Y-2.1819
X3.8977Y-1.3681
X3.8977Y-2.1161
X4.4528Y-1.3799
X4.4528Y-2.1279
X4.6457Y-1.2736
X4.6457Y-2.0216
X5.2005Y-1.2858
X5.2005Y-2.0338
X5.3938Y-1.3681
X5.3938Y-2.1161
X5.9489Y-1.3799
X5.9489Y-2.1279
X6.1418Y-1.5551
X6.1418Y-2.3031
X6.4135Y-0.9764
X6.502Y-0.9795
X6.6969Y-1.5669
X6.6969Y-2.3149
T2
X3.1922Y-2.1371
X3.2324Y-2.2158
X3.2922Y-2.1371
X3.3324Y-2.2158
X3.3922Y-2.1371
X3.4324Y-2.2158
X3.4922Y-2.1371
X3.5324Y-2.2158
X4.1194Y-0.811
X4.2194Y-0.811
T3
X3.0216Y-0.8819
X3.0216Y-0.9819
X3.0216Y-1.0819
X3.0216Y-1.1819
X3.0216Y-1.2819
X3.0216Y-1.3819
X3.0216Y-1.4819
X3.0216Y-1.5819
X3.0216Y-1.6819
X3.0216Y-1.7819
X3.0216Y-1.8819
X3.0216Y-1.9819
X3.0866Y-0.9319
X3.0866Y-1.0319
X3.0866Y-1.1319
X3.0866Y-1.2319
X3.0866Y-1.3319
X3.0866Y-1.4319
X3.0866Y-1.5319
X3.0866Y-1.6319
X3.0866Y-1.7319
X3.0866Y-1.8319
X3.0866Y-1.9319
X3.0866Y-2.0319
X3.6216Y-0.8819
X3.6216Y-0.9819
X3.6216Y-1.0819
X3.6216Y-1.1819
X3.6216Y-1.2819
X3.6216Y-1.3819
X3.6216Y-1.4819
X3.6216Y-1.5819
X3.6216Y-1.6819
X3.6216Y-1.7819
X3.6216Y-1.8819
X3.6216Y-1.9819
X3.6866Y-0.9319
X3.6866Y-1.0319
X3.6866Y-1.1319
X3.6866Y-1.2319
X3.6866Y-1.3319
X3.6866Y-1.4319
X3.6866Y-1.5319
X3.6866Y-1.6319
X3.6866Y-1.7319
X3.6866Y-1.8319
X3.6866Y-1.9319
X3.6866Y-2.0319
T0
M30
