M48
; DRILL file {KiCad 5.1.10} date Thu Jul  8 20:07:16 2021
; FORMAT={-:-/ absolute / inch / decimal}
; #@! TF.CreationDate,2021-07-08T20:07:16-05:00
; #@! TF.GenerationSoftware,Kicad,Pcbnew,5.1.10
; #@! TF.FileFunction,Plated,1,2,PTH
FMAT,2
INCH
T1C0.0157
T2C0.0394
T3C0.0430
T4C0.0500
%
G90
G05
T1
X3.1926Y-1.2811
X3.2757Y-2.2736
X3.3032Y-1.9823
X3.441Y-1.3819
X3.4922Y-2.3366
X3.5493Y-1.1358
X3.6733Y-2.1516
X4.1694Y-1.185
X4.1694Y-1.8543
X4.878Y-1.0913
X4.878Y-1.7606
X5.5867Y-1.185
X5.5867Y-1.8543
X6.2757Y-0.9764
X6.2953Y-2.0413
X6.2953Y-1.372
X6.3642Y-0.9795
T2
X3.1922Y-2.0571
X3.2324Y-2.1358
X3.2922Y-2.0571
X3.3324Y-2.1358
X3.3922Y-2.0571
X3.4324Y-2.1358
X3.4922Y-2.0571
X3.5324Y-2.1358
X4.0709Y-0.811
X4.1709Y-0.811
T3
X3.0229Y-0.8811
X3.0229Y-0.9811
X3.0229Y-1.0811
X3.0229Y-1.1811
X3.0229Y-1.2811
X3.0229Y-1.3811
X3.0229Y-1.4811
X3.0229Y-1.5811
X3.0229Y-1.6811
X3.0229Y-1.7811
X3.0229Y-1.8811
X3.0229Y-1.9811
X3.1016Y-0.8811
X3.1016Y-0.9811
X3.1016Y-1.0811
X3.1016Y-1.1811
X3.1016Y-1.2811
X3.1016Y-1.3811
X3.1016Y-1.4811
X3.1016Y-1.5811
X3.1016Y-1.6811
X3.1016Y-1.7811
X3.1016Y-1.8811
X3.1016Y-1.9811
X3.6229Y-0.8811
X3.6229Y-0.9811
X3.6229Y-1.0811
X3.6229Y-1.1811
X3.6229Y-1.2811
X3.6229Y-1.3811
X3.6229Y-1.4811
X3.6229Y-1.5811
X3.6229Y-1.6811
X3.6229Y-1.7811
X3.6229Y-1.8811
X3.6229Y-1.9811
X3.7016Y-0.8811
X3.7016Y-0.9811
X3.7016Y-1.0811
X3.7016Y-1.1811
X3.7016Y-1.2811
X3.7016Y-1.3811
X3.7016Y-1.4811
X3.7016Y-1.5811
X3.7016Y-1.6811
X3.7016Y-1.7811
X3.7016Y-1.8811
X3.7016Y-1.9811
T4
X3.9725Y-2.1417
X3.9725Y-1.4724
X4.1694Y-2.2244
X4.1694Y-1.5551
X4.3662Y-2.1417
X4.3662Y-1.4724
X4.6812Y-1.3787
X4.6812Y-2.048
X4.878Y-1.4614
X4.878Y-2.1307
X5.0749Y-1.3787
X5.0749Y-2.048
X5.3898Y-1.4724
X5.3898Y-2.1417
X5.5867Y-1.5551
X5.5867Y-2.2244
X5.7835Y-1.4724
X5.7835Y-2.1417
X6.0985Y-1.6594
X6.0985Y-2.3287
X6.2953Y-1.7421
X6.2953Y-2.4114
X6.4922Y-1.6594
X6.4922Y-2.3287
T0
M30
