%TF.GenerationSoftware,KiCad,Pcbnew,5.1.10*%
%TF.CreationDate,2021-07-08T20:07:14-05:00*%
%TF.ProjectId,small-paintbrush-hotswap,736d616c-6c2d-4706-9169-6e7462727573,rev?*%
%TF.SameCoordinates,Original*%
%TF.FileFunction,Soldermask,Top*%
%TF.FilePolarity,Negative*%
%FSLAX46Y46*%
G04 Gerber Fmt 4.6, Leading zero omitted, Abs format (unit mm)*
G04 Created by KiCad (PCBNEW 5.1.10) date 2021-07-08 20:07:14*
%MOMM*%
%LPD*%
G01*
G04 APERTURE LIST*
%ADD10C,2.032000*%
%ADD11R,2.600000X2.600000*%
%ADD12C,3.000000*%
%ADD13C,3.429000*%
%ADD14C,1.701800*%
%ADD15O,1.700000X1.700000*%
%ADD16R,1.700000X1.700000*%
%ADD17R,0.900000X1.700000*%
%ADD18R,1.000000X0.800000*%
%ADD19R,0.700000X1.500000*%
%ADD20C,0.900000*%
%ADD21C,1.752600*%
%ADD22R,1.752600X1.752600*%
%ADD23C,2.200000*%
G04 APERTURE END LIST*
D10*
%TO.C,KEY2*%
X118901737Y-35019424D03*
X128901737Y-35019424D03*
D11*
X115626737Y-27469424D03*
D10*
X123901737Y-37119424D03*
D11*
X127176737Y-25269424D03*
D12*
X128901737Y-27469424D03*
X123901737Y-25269424D03*
D13*
X123901737Y-31219424D03*
D12*
X118901737Y-27469424D03*
D14*
X129401737Y-31219424D03*
X118401737Y-31219424D03*
%TD*%
D10*
%TO.C,KEY3*%
X136901739Y-37399426D03*
X146901739Y-37399426D03*
D11*
X133626739Y-29849426D03*
D10*
X141901739Y-39499426D03*
D11*
X145176739Y-27649426D03*
D12*
X146901739Y-29849426D03*
X141901739Y-27649426D03*
D13*
X141901739Y-33599426D03*
D12*
X136901739Y-29849426D03*
D14*
X147401739Y-33599426D03*
X136401739Y-33599426D03*
%TD*%
D10*
%TO.C,KEY4*%
X154901737Y-42149424D03*
X164901737Y-42149424D03*
D11*
X151626737Y-34599424D03*
D10*
X159901737Y-44249424D03*
D11*
X163176737Y-32399424D03*
D12*
X164901737Y-34599424D03*
X159901737Y-32399424D03*
D13*
X159901737Y-38349424D03*
D12*
X154901737Y-34599424D03*
D14*
X165401737Y-38349424D03*
X154401737Y-38349424D03*
%TD*%
D10*
%TO.C,KEY6*%
X118901739Y-52019424D03*
X128901739Y-52019424D03*
D11*
X115626739Y-44469424D03*
D10*
X123901739Y-54119424D03*
D11*
X127176739Y-42269424D03*
D12*
X128901739Y-44469424D03*
X123901739Y-42269424D03*
D13*
X123901739Y-48219424D03*
D12*
X118901739Y-44469424D03*
D14*
X129401739Y-48219424D03*
X118401739Y-48219424D03*
%TD*%
D10*
%TO.C,KEY7*%
X136901739Y-54399426D03*
X146901739Y-54399426D03*
D11*
X133626739Y-46849426D03*
D10*
X141901739Y-56499426D03*
D11*
X145176739Y-44649426D03*
D12*
X146901739Y-46849426D03*
X141901739Y-44649426D03*
D13*
X141901739Y-50599426D03*
D12*
X136901739Y-46849426D03*
D14*
X147401739Y-50599426D03*
X136401739Y-50599426D03*
%TD*%
D10*
%TO.C,KEY8*%
X154901739Y-59149423D03*
X164901739Y-59149423D03*
D11*
X151626739Y-51599423D03*
D10*
X159901739Y-61249423D03*
D11*
X163176739Y-49399423D03*
D12*
X164901739Y-51599423D03*
X159901739Y-49399423D03*
D13*
X159901739Y-55349423D03*
D12*
X154901739Y-51599423D03*
D14*
X165401739Y-55349423D03*
X154401739Y-55349423D03*
%TD*%
D10*
%TO.C,KEY1*%
X100901737Y-37399424D03*
X110901737Y-37399424D03*
D11*
X97626737Y-29849424D03*
D10*
X105901737Y-39499424D03*
D11*
X109176737Y-27649424D03*
D12*
X110901737Y-29849424D03*
X105901737Y-27649424D03*
D13*
X105901737Y-33599424D03*
D12*
X100901737Y-29849424D03*
D14*
X111401737Y-33599424D03*
X100401737Y-33599424D03*
%TD*%
D10*
%TO.C,KEY5*%
X100901736Y-54399424D03*
X110901736Y-54399424D03*
D11*
X97626736Y-46849424D03*
D10*
X105901736Y-56499424D03*
D11*
X109176736Y-44649424D03*
D12*
X110901736Y-46849424D03*
X105901736Y-44649424D03*
D13*
X105901736Y-50599424D03*
D12*
X100901736Y-46849424D03*
D14*
X111401736Y-50599424D03*
X100401736Y-50599424D03*
%TD*%
D15*
%TO.C,J1*%
X105941736Y-20599424D03*
D16*
X103401736Y-20599424D03*
%TD*%
D17*
%TO.C,PUSH2*%
X83201736Y-59349424D03*
X86601736Y-59349424D03*
%TD*%
D18*
%TO.C,SW2*%
X163051737Y-22879425D03*
X155751737Y-22879425D03*
X155751737Y-20669425D03*
X163051737Y-20669425D03*
D19*
X157151737Y-23529425D03*
X158651737Y-23529425D03*
X161651737Y-23529425D03*
D20*
X157901737Y-21769425D03*
X160901737Y-21769425D03*
%TD*%
D15*
%TO.C,J2*%
X81081737Y-52249424D03*
X83621737Y-52249424D03*
X86161737Y-52249424D03*
D16*
X88701737Y-52249424D03*
%TD*%
D21*
%TO.C,U1*%
X94021737Y-22379424D03*
X78781737Y-50319424D03*
X94021737Y-24919424D03*
X94021737Y-27459424D03*
X94021737Y-29999424D03*
X94021737Y-32539424D03*
X94021737Y-35079424D03*
X94021737Y-37619424D03*
X94021737Y-40159424D03*
X94021737Y-42699424D03*
X94021737Y-45239424D03*
X94021737Y-47779424D03*
X94021737Y-50319424D03*
X78781737Y-47779424D03*
X78781737Y-45239424D03*
X78781737Y-42699424D03*
X78781737Y-40159424D03*
X78781737Y-37619424D03*
X78781737Y-35079424D03*
X78781737Y-32539424D03*
X78781737Y-29999424D03*
X78781737Y-27459424D03*
X78781737Y-24919424D03*
D22*
X78781737Y-22379424D03*
%TD*%
D23*
%TO.C,REF\u002A\u002A*%
X166901736Y-65599424D03*
%TD*%
%TO.C,REF\u002A\u002A*%
X75901736Y-65599424D03*
%TD*%
%TO.C,REF\u002A\u002A*%
X166901733Y-21599422D03*
%TD*%
%TO.C,REF\u002A\u002A*%
X98401736Y-21599424D03*
%TD*%
D20*
%TO.C,SW1*%
X160901737Y-21769425D03*
X157901737Y-21769425D03*
%TD*%
D15*
%TO.C,J3*%
X89721739Y-54249424D03*
X87181739Y-54249424D03*
X84641739Y-54249424D03*
D16*
X82101739Y-54249424D03*
%TD*%
D21*
%TO.C,U2*%
X76781736Y-22379424D03*
X92021736Y-50319424D03*
X76781736Y-24919424D03*
X76781736Y-27459424D03*
X76781736Y-29999424D03*
X76781736Y-32539424D03*
X76781736Y-35079424D03*
X76781736Y-37619424D03*
X76781736Y-40159424D03*
X76781736Y-42699424D03*
X76781736Y-45239424D03*
X76781736Y-47779424D03*
X76781736Y-50319424D03*
X92021736Y-47779424D03*
X92021736Y-45239424D03*
X92021736Y-42699424D03*
X92021736Y-40159424D03*
X92021736Y-37619424D03*
X92021736Y-35079424D03*
X92021736Y-32539424D03*
X92021736Y-29999424D03*
X92021736Y-27459424D03*
X92021736Y-24919424D03*
D22*
X92021736Y-22379424D03*
%TD*%
M02*
