%TF.GenerationSoftware,KiCad,Pcbnew,5.1.10*%
%TF.CreationDate,2021-09-01T18:29:14-05:00*%
%TF.ProjectId,small-paintbrush-hotswap,736d616c-6c2d-4706-9169-6e7462727573,rev?*%
%TF.SameCoordinates,Original*%
%TF.FileFunction,Copper,L1,Top*%
%TF.FilePolarity,Positive*%
%FSLAX46Y46*%
G04 Gerber Fmt 4.6, Leading zero omitted, Abs format (unit mm)*
G04 Created by KiCad (PCBNEW 5.1.10) date 2021-09-01 18:29:14*
%MOMM*%
%LPD*%
G01*
G04 APERTURE LIST*
%TA.AperFunction,SMDPad,CuDef*%
%ADD10C,0.100000*%
%TD*%
%TA.AperFunction,SMDPad,CuDef*%
%ADD11R,1.800000X2.000000*%
%TD*%
%TA.AperFunction,SMDPad,CuDef*%
%ADD12R,2.000000X2.000000*%
%TD*%
%TA.AperFunction,ComponentPad*%
%ADD13C,1.752600*%
%TD*%
%TA.AperFunction,ComponentPad*%
%ADD14O,1.700000X1.700000*%
%TD*%
%TA.AperFunction,ComponentPad*%
%ADD15R,1.700000X1.700000*%
%TD*%
%TA.AperFunction,SMDPad,CuDef*%
%ADD16R,0.900000X1.700000*%
%TD*%
%TA.AperFunction,SMDPad,CuDef*%
%ADD17R,1.000000X0.800000*%
%TD*%
%TA.AperFunction,SMDPad,CuDef*%
%ADD18R,0.700000X1.500000*%
%TD*%
%TA.AperFunction,ViaPad*%
%ADD19C,0.800000*%
%TD*%
%TA.AperFunction,Conductor*%
%ADD20C,0.254000*%
%TD*%
%TA.AperFunction,Conductor*%
%ADD21C,0.250000*%
%TD*%
%TA.AperFunction,Conductor*%
%ADD22C,0.381000*%
%TD*%
%TA.AperFunction,Conductor*%
%ADD23C,0.508000*%
%TD*%
G04 APERTURE END LIST*
%TA.AperFunction,SMDPad,CuDef*%
D10*
%TO.P,KEY4,1*%
%TO.N,GND*%
G36*
X158401737Y-34469424D02*
G01*
X156001737Y-34469424D01*
X156001737Y-34019424D01*
X155351737Y-34019424D01*
X155351737Y-32519424D01*
X156001737Y-32519424D01*
X156001737Y-32069424D01*
X158401737Y-32069424D01*
X158401737Y-34469424D01*
G37*
%TD.AperFunction*%
%TA.AperFunction,SMDPad,CuDef*%
%TO.P,KEY4,2*%
%TO.N,R1C4*%
G36*
X168551737Y-34559423D02*
G01*
X171051737Y-34559423D01*
X171051737Y-35059423D01*
X171751737Y-35059423D01*
X171751737Y-36559423D01*
X171051737Y-36559423D01*
X171051737Y-37059423D01*
X168551737Y-37059423D01*
X168551737Y-34559423D01*
G37*
%TD.AperFunction*%
D11*
%TO.P,KEY4,1*%
%TO.N,GND*%
X160101737Y-44249424D03*
D12*
%TO.P,KEY4,2*%
%TO.N,R1C4*%
X171001737Y-42049424D03*
%TD*%
%TA.AperFunction,SMDPad,CuDef*%
D10*
%TO.P,KEY8,1*%
%TO.N,GND*%
G36*
X158401739Y-53469423D02*
G01*
X156001739Y-53469423D01*
X156001739Y-53019423D01*
X155351739Y-53019423D01*
X155351739Y-51519423D01*
X156001739Y-51519423D01*
X156001739Y-51069423D01*
X158401739Y-51069423D01*
X158401739Y-53469423D01*
G37*
%TD.AperFunction*%
%TA.AperFunction,SMDPad,CuDef*%
%TO.P,KEY8,2*%
%TO.N,R2C4*%
G36*
X168551739Y-53559422D02*
G01*
X171051739Y-53559422D01*
X171051739Y-54059422D01*
X171751739Y-54059422D01*
X171751739Y-55559422D01*
X171051739Y-55559422D01*
X171051739Y-56059422D01*
X168551739Y-56059422D01*
X168551739Y-53559422D01*
G37*
%TD.AperFunction*%
D11*
%TO.P,KEY8,1*%
%TO.N,GND*%
X160101739Y-63249423D03*
D12*
%TO.P,KEY8,2*%
%TO.N,R2C4*%
X171001739Y-61049423D03*
%TD*%
%TA.AperFunction,SMDPad,CuDef*%
D10*
%TO.P,KEY7,1*%
%TO.N,GND*%
G36*
X139401739Y-48719426D02*
G01*
X137001739Y-48719426D01*
X137001739Y-48269426D01*
X136351739Y-48269426D01*
X136351739Y-46769426D01*
X137001739Y-46769426D01*
X137001739Y-46319426D01*
X139401739Y-46319426D01*
X139401739Y-48719426D01*
G37*
%TD.AperFunction*%
%TA.AperFunction,SMDPad,CuDef*%
%TO.P,KEY7,2*%
%TO.N,R2C3*%
G36*
X149551739Y-48809425D02*
G01*
X152051739Y-48809425D01*
X152051739Y-49309425D01*
X152751739Y-49309425D01*
X152751739Y-50809425D01*
X152051739Y-50809425D01*
X152051739Y-51309425D01*
X149551739Y-51309425D01*
X149551739Y-48809425D01*
G37*
%TD.AperFunction*%
D11*
%TO.P,KEY7,1*%
%TO.N,GND*%
X141101739Y-58499426D03*
D12*
%TO.P,KEY7,2*%
%TO.N,R2C3*%
X152001739Y-56299426D03*
%TD*%
%TA.AperFunction,SMDPad,CuDef*%
D10*
%TO.P,KEY6,1*%
%TO.N,GND*%
G36*
X120401739Y-46339424D02*
G01*
X118001739Y-46339424D01*
X118001739Y-45889424D01*
X117351739Y-45889424D01*
X117351739Y-44389424D01*
X118001739Y-44389424D01*
X118001739Y-43939424D01*
X120401739Y-43939424D01*
X120401739Y-46339424D01*
G37*
%TD.AperFunction*%
%TA.AperFunction,SMDPad,CuDef*%
%TO.P,KEY6,2*%
%TO.N,R2C2*%
G36*
X130551739Y-46429423D02*
G01*
X133051739Y-46429423D01*
X133051739Y-46929423D01*
X133751739Y-46929423D01*
X133751739Y-48429423D01*
X133051739Y-48429423D01*
X133051739Y-48929423D01*
X130551739Y-48929423D01*
X130551739Y-46429423D01*
G37*
%TD.AperFunction*%
D11*
%TO.P,KEY6,1*%
%TO.N,GND*%
X122101739Y-56119424D03*
D12*
%TO.P,KEY6,2*%
%TO.N,R2C2*%
X133001739Y-53919424D03*
%TD*%
%TA.AperFunction,SMDPad,CuDef*%
D10*
%TO.P,KEY5,1*%
%TO.N,GND*%
G36*
X101401736Y-48719424D02*
G01*
X99001736Y-48719424D01*
X99001736Y-48269424D01*
X98351736Y-48269424D01*
X98351736Y-46769424D01*
X99001736Y-46769424D01*
X99001736Y-46319424D01*
X101401736Y-46319424D01*
X101401736Y-48719424D01*
G37*
%TD.AperFunction*%
%TA.AperFunction,SMDPad,CuDef*%
%TO.P,KEY5,2*%
%TO.N,R2C1*%
G36*
X111551736Y-48809423D02*
G01*
X114051736Y-48809423D01*
X114051736Y-49309423D01*
X114751736Y-49309423D01*
X114751736Y-50809423D01*
X114051736Y-50809423D01*
X114051736Y-51309423D01*
X111551736Y-51309423D01*
X111551736Y-48809423D01*
G37*
%TD.AperFunction*%
D11*
%TO.P,KEY5,1*%
%TO.N,GND*%
X103101736Y-58499424D03*
D12*
%TO.P,KEY5,2*%
%TO.N,R2C1*%
X114001736Y-56299424D03*
%TD*%
%TA.AperFunction,SMDPad,CuDef*%
D10*
%TO.P,KEY3,1*%
%TO.N,GND*%
G36*
X139401739Y-29719426D02*
G01*
X137001739Y-29719426D01*
X137001739Y-29269426D01*
X136351739Y-29269426D01*
X136351739Y-27769426D01*
X137001739Y-27769426D01*
X137001739Y-27319426D01*
X139401739Y-27319426D01*
X139401739Y-29719426D01*
G37*
%TD.AperFunction*%
%TA.AperFunction,SMDPad,CuDef*%
%TO.P,KEY3,2*%
%TO.N,R1C3*%
G36*
X149551739Y-29809425D02*
G01*
X152051739Y-29809425D01*
X152051739Y-30309425D01*
X152751739Y-30309425D01*
X152751739Y-31809425D01*
X152051739Y-31809425D01*
X152051739Y-32309425D01*
X149551739Y-32309425D01*
X149551739Y-29809425D01*
G37*
%TD.AperFunction*%
D11*
%TO.P,KEY3,1*%
%TO.N,GND*%
X141101739Y-39499426D03*
D12*
%TO.P,KEY3,2*%
%TO.N,R1C3*%
X152001739Y-37299426D03*
%TD*%
%TA.AperFunction,SMDPad,CuDef*%
D10*
%TO.P,KEY2,1*%
%TO.N,GND*%
G36*
X120401737Y-27339424D02*
G01*
X118001737Y-27339424D01*
X118001737Y-26889424D01*
X117351737Y-26889424D01*
X117351737Y-25389424D01*
X118001737Y-25389424D01*
X118001737Y-24939424D01*
X120401737Y-24939424D01*
X120401737Y-27339424D01*
G37*
%TD.AperFunction*%
%TA.AperFunction,SMDPad,CuDef*%
%TO.P,KEY2,2*%
%TO.N,R1C2*%
G36*
X130551737Y-27429423D02*
G01*
X133051737Y-27429423D01*
X133051737Y-27929423D01*
X133751737Y-27929423D01*
X133751737Y-29429423D01*
X133051737Y-29429423D01*
X133051737Y-29929423D01*
X130551737Y-29929423D01*
X130551737Y-27429423D01*
G37*
%TD.AperFunction*%
D11*
%TO.P,KEY2,1*%
%TO.N,GND*%
X122101737Y-37119424D03*
D12*
%TO.P,KEY2,2*%
%TO.N,R1C2*%
X133001737Y-34919424D03*
%TD*%
%TA.AperFunction,SMDPad,CuDef*%
D10*
%TO.P,KEY1,1*%
%TO.N,GND*%
G36*
X101401737Y-29719424D02*
G01*
X99001737Y-29719424D01*
X99001737Y-29269424D01*
X98351737Y-29269424D01*
X98351737Y-27769424D01*
X99001737Y-27769424D01*
X99001737Y-27319424D01*
X101401737Y-27319424D01*
X101401737Y-29719424D01*
G37*
%TD.AperFunction*%
%TA.AperFunction,SMDPad,CuDef*%
%TO.P,KEY1,2*%
%TO.N,R1C1*%
G36*
X111551737Y-29809423D02*
G01*
X114051737Y-29809423D01*
X114051737Y-30309423D01*
X114751737Y-30309423D01*
X114751737Y-31809423D01*
X114051737Y-31809423D01*
X114051737Y-32309423D01*
X111551737Y-32309423D01*
X111551737Y-29809423D01*
G37*
%TD.AperFunction*%
D11*
%TO.P,KEY1,1*%
%TO.N,GND*%
X103101737Y-39499424D03*
D12*
%TO.P,KEY1,2*%
%TO.N,R1C1*%
X114001737Y-37299424D03*
%TD*%
D13*
%TO.P,U1,15*%
%TO.N,R2C2*%
X93640736Y-46529424D03*
%TO.P,U1,14*%
%TO.N,R2C3*%
X93640736Y-49069424D03*
%TO.P,U1,13*%
%TO.N,R2C4*%
X93640736Y-51609424D03*
%TO.P,U1,11*%
%TO.N,Net-(U1-Pad11)*%
X78400736Y-49069424D03*
%TO.P,U1,10*%
%TO.N,Net-(U1-Pad10)*%
X78400736Y-46529424D03*
%TO.P,U1,9*%
%TO.N,Net-(U1-Pad9)*%
X78400736Y-43989424D03*
%TO.P,U1,8*%
%TO.N,Net-(U1-Pad8)*%
X78400736Y-41449424D03*
%TO.P,U1,7*%
%TO.N,Net-(U1-Pad7)*%
X78400736Y-38909424D03*
%TO.P,U1,6*%
%TO.N,SCL*%
X78400736Y-36369424D03*
%TO.P,U1,5*%
%TO.N,SDA*%
X78400736Y-33829424D03*
%TO.P,U1,4*%
%TO.N,GND*%
X78400736Y-31289424D03*
%TO.P,U1,3*%
X78400736Y-28749424D03*
%TO.P,U1,2*%
%TO.N,Net-(U1-Pad2)*%
X78400736Y-26209424D03*
%TO.P,U1,1*%
%TO.N,Net-(U1-Pad1)*%
X78400736Y-23669424D03*
%TO.P,U1,24*%
%TO.N,Net-(U1-Pad24)*%
X93640736Y-23669424D03*
%TO.P,U1,12*%
%TO.N,Net-(U1-Pad12)*%
X78400736Y-51609424D03*
%TO.P,U1,23*%
%TO.N,GND*%
X93640736Y-26209424D03*
%TO.P,U1,22*%
%TO.N,RST*%
X93640736Y-28749424D03*
%TO.P,U1,21*%
%TO.N,VCC*%
X93640736Y-31289424D03*
%TO.P,U1,20*%
%TO.N,R1C1*%
X93640736Y-33829424D03*
%TO.P,U1,19*%
%TO.N,R1C2*%
X93640736Y-36369424D03*
%TO.P,U1,18*%
%TO.N,R1C3*%
X93640736Y-38909424D03*
%TO.P,U1,17*%
%TO.N,R1C4*%
X93640736Y-41449424D03*
%TO.P,U1,16*%
%TO.N,R2C1*%
X93640736Y-43989424D03*
%TD*%
%TO.P,U2,16*%
%TO.N,R2C1*%
X76749736Y-42719424D03*
%TO.P,U2,17*%
%TO.N,R1C4*%
X76749736Y-40179424D03*
%TO.P,U2,18*%
%TO.N,R1C3*%
X76749736Y-37639424D03*
%TO.P,U2,19*%
%TO.N,R1C2*%
X76749736Y-35099424D03*
%TO.P,U2,20*%
%TO.N,R1C1*%
X76749736Y-32559424D03*
%TO.P,U2,21*%
%TO.N,VCC*%
X76749736Y-30019424D03*
%TO.P,U2,22*%
%TO.N,RST*%
X76749736Y-27479424D03*
%TO.P,U2,23*%
%TO.N,GND*%
X76749736Y-24939424D03*
%TO.P,U2,12*%
%TO.N,Net-(U2-Pad12)*%
X91989736Y-50339424D03*
%TO.P,U2,24*%
%TO.N,Net-(U2-Pad24)*%
X76749736Y-22399424D03*
%TO.P,U2,1*%
%TO.N,Net-(U2-Pad1)*%
X91989736Y-22399424D03*
%TO.P,U2,2*%
%TO.N,Net-(U2-Pad2)*%
X91989736Y-24939424D03*
%TO.P,U2,3*%
%TO.N,GND*%
X91989736Y-27479424D03*
%TO.P,U2,4*%
X91989736Y-30019424D03*
%TO.P,U2,5*%
%TO.N,SDA*%
X91989736Y-32559424D03*
%TO.P,U2,6*%
%TO.N,SCL*%
X91989736Y-35099424D03*
%TO.P,U2,7*%
%TO.N,Net-(U2-Pad7)*%
X91989736Y-37639424D03*
%TO.P,U2,8*%
%TO.N,Net-(U2-Pad8)*%
X91989736Y-40179424D03*
%TO.P,U2,9*%
%TO.N,Net-(U2-Pad9)*%
X91989736Y-42719424D03*
%TO.P,U2,10*%
%TO.N,Net-(U2-Pad10)*%
X91989736Y-45259424D03*
%TO.P,U2,11*%
%TO.N,Net-(U2-Pad11)*%
X91989736Y-47799424D03*
%TO.P,U2,13*%
%TO.N,R2C4*%
X76749736Y-50339424D03*
%TO.P,U2,14*%
%TO.N,R2C3*%
X76749736Y-47799424D03*
%TO.P,U2,15*%
%TO.N,R2C2*%
X76749736Y-45259424D03*
%TD*%
D14*
%TO.P,J2,4*%
%TO.N,SDA*%
X81081737Y-54281424D03*
%TO.P,J2,3*%
%TO.N,SCL*%
X83621737Y-54281424D03*
%TO.P,J2,2*%
%TO.N,VCC*%
X86161737Y-54281424D03*
D15*
%TO.P,J2,1*%
%TO.N,GND*%
X88701737Y-54281424D03*
%TD*%
D14*
%TO.P,J3,4*%
%TO.N,SDA*%
X89721739Y-56281424D03*
%TO.P,J3,3*%
%TO.N,SCL*%
X87181739Y-56281424D03*
%TO.P,J3,2*%
%TO.N,VCC*%
X84641739Y-56281424D03*
D15*
%TO.P,J3,1*%
%TO.N,GND*%
X82101739Y-56281424D03*
%TD*%
D14*
%TO.P,J1,2*%
%TO.N,Net-(J1-Pad2)*%
X107171737Y-20599424D03*
D15*
%TO.P,J1,1*%
%TO.N,Net-(J1-Pad1)*%
X104631737Y-20599424D03*
%TD*%
D16*
%TO.P,PUSH2,2*%
%TO.N,GND*%
X83201736Y-60492424D03*
%TO.P,PUSH2,1*%
%TO.N,RST*%
X86601736Y-60492424D03*
%TD*%
D17*
%TO.P,SW2,*%
%TO.N,*%
X166551737Y-22879424D03*
X159251737Y-22879424D03*
X159251737Y-20669424D03*
X166551737Y-20669424D03*
D18*
%TO.P,SW2,3*%
%TO.N,Net-(SW2-Pad3)*%
X160651737Y-23529424D03*
%TO.P,SW2,2*%
%TO.N,Net-(J1-Pad2)*%
X162151737Y-23529424D03*
%TO.P,SW2,1*%
%TO.N,Net-(J1-Pad1)*%
X165151737Y-23529424D03*
%TD*%
D19*
%TO.N,GND*%
X118001739Y-32349422D03*
X118001739Y-51349422D03*
X99001739Y-34749422D03*
X99001739Y-53749422D03*
X137001739Y-53749422D03*
X137001739Y-34749422D03*
X156001739Y-39499422D03*
X83201736Y-58892424D03*
X156001739Y-58499422D03*
%TO.N,R1C1*%
X113101739Y-35049426D03*
%TO.N,R1C2*%
X132091739Y-32659426D03*
%TO.N,R1C3*%
X151101739Y-35049426D03*
%TO.N,R1C4*%
X170101739Y-39799426D03*
%TO.N,R2C1*%
X113101739Y-54049426D03*
%TO.N,R2C2*%
X132091739Y-51659426D03*
%TO.N,R2C3*%
X151101739Y-54049426D03*
%TO.N,R2C4*%
X170101739Y-58799426D03*
%TO.N,Net-(J1-Pad2)*%
X162901739Y-24799424D03*
%TO.N,Net-(J1-Pad1)*%
X165151737Y-24879443D03*
%TO.N,SDA*%
X85258736Y-32051424D03*
%TO.N,SCL*%
X83607736Y-36369424D03*
X85258736Y-34718424D03*
%TO.N,RST*%
X88701736Y-60492424D03*
X94656736Y-55419424D03*
%TD*%
D20*
%TO.N,GND*%
X83201736Y-58892424D02*
X83201736Y-60492424D01*
D21*
X118001739Y-27319423D02*
X119201739Y-26119423D01*
X118001739Y-35700425D02*
X118001739Y-27319423D01*
X119400737Y-37099423D02*
X118001739Y-35700425D01*
X122101739Y-37099423D02*
X119400737Y-37099423D01*
X118001739Y-46319423D02*
X119201739Y-45119423D01*
X118001739Y-54700425D02*
X118001739Y-46319423D01*
X119400737Y-56099423D02*
X118001739Y-54700425D01*
X122101739Y-56099423D02*
X119400737Y-56099423D01*
X99001739Y-29719423D02*
X100201739Y-28519423D01*
X99001739Y-38100425D02*
X99001739Y-29719423D01*
X100400737Y-39499423D02*
X99001739Y-38100425D01*
X103101739Y-39499423D02*
X100400737Y-39499423D01*
X99001739Y-48719423D02*
X100201739Y-47519423D01*
X99001739Y-57100425D02*
X99001739Y-48719423D01*
X100400737Y-58499423D02*
X99001739Y-57100425D01*
X103101739Y-58499423D02*
X100400737Y-58499423D01*
X137001739Y-48719423D02*
X138201739Y-47519423D01*
X137001739Y-57100425D02*
X137001739Y-48719423D01*
X138400737Y-58499423D02*
X137001739Y-57100425D01*
X141101739Y-58499423D02*
X138400737Y-58499423D01*
X137001739Y-29719423D02*
X138201739Y-28519423D01*
X137001739Y-38100425D02*
X137001739Y-29719423D01*
X138400737Y-39499423D02*
X137001739Y-38100425D01*
X141101739Y-39499423D02*
X138400737Y-39499423D01*
X156001739Y-34469423D02*
X157201739Y-33269423D01*
X156001739Y-42850425D02*
X156001739Y-34469423D01*
X157400737Y-44249423D02*
X156001739Y-42850425D01*
X160101739Y-44249423D02*
X157400737Y-44249423D01*
D22*
X79667537Y-27482623D02*
X78400736Y-28749424D01*
X79667537Y-25601359D02*
X79667537Y-27482623D01*
X79005602Y-24939424D02*
X79667537Y-25601359D01*
X76749736Y-24939424D02*
X79005602Y-24939424D01*
X78400736Y-28749424D02*
X78400736Y-31289424D01*
X91989736Y-30019424D02*
X91989736Y-27479424D01*
X92370736Y-27479424D02*
X93640736Y-26209424D01*
X91989736Y-27479424D02*
X92370736Y-27479424D01*
X79670736Y-27479424D02*
X79667537Y-27482623D01*
X91989736Y-27479424D02*
X79670736Y-27479424D01*
D21*
X156001739Y-53469423D02*
X157201739Y-52269423D01*
X156001739Y-61850425D02*
X156001739Y-53469423D01*
X157400737Y-63249423D02*
X156001739Y-61850425D01*
X160101739Y-63249423D02*
X157400737Y-63249423D01*
D22*
X100201737Y-28519424D02*
X100201737Y-26269424D01*
X100261737Y-26209424D02*
X93640736Y-26209424D01*
X100201737Y-26269424D02*
X100261737Y-26209424D01*
X119131737Y-26209424D02*
X100261737Y-26209424D01*
X121741737Y-23599424D02*
X119131737Y-26209424D01*
X131151737Y-23599424D02*
X121741737Y-23599424D01*
X133901737Y-26349424D02*
X131151737Y-23599424D01*
X157201737Y-33269424D02*
X150281737Y-26349424D01*
X138201739Y-26399426D02*
X138151737Y-26349424D01*
X138201739Y-28519426D02*
X138201739Y-26399426D01*
X138151737Y-26349424D02*
X133901737Y-26349424D01*
X150281737Y-26349424D02*
X138151737Y-26349424D01*
X157201739Y-52269423D02*
X149781740Y-44849424D01*
X134401737Y-44849424D02*
X132401737Y-42849424D01*
X121491739Y-42849424D02*
X119201739Y-45139424D01*
X132401737Y-42849424D02*
X121491739Y-42849424D01*
X138201739Y-44899426D02*
X138151737Y-44849424D01*
X138201739Y-47519426D02*
X138201739Y-44899426D01*
X138151737Y-44849424D02*
X134401737Y-44849424D01*
X149781740Y-44849424D02*
X138151737Y-44849424D01*
D21*
%TO.N,R1C1*%
X112801739Y-31059422D02*
X113101739Y-31359422D01*
X113101739Y-35049426D02*
X113101739Y-36399423D01*
X113101739Y-36399423D02*
X114001739Y-37299423D01*
X113101739Y-31359422D02*
X113101739Y-35049426D01*
X85512736Y-33829424D02*
X93640736Y-33829424D01*
X84242736Y-32559424D02*
X85512736Y-33829424D01*
X76749736Y-32559424D02*
X84242736Y-32559424D01*
X93640736Y-33829424D02*
X101660736Y-41849424D01*
X109451737Y-41849424D02*
X114001737Y-37299424D01*
X101660736Y-41849424D02*
X109451737Y-41849424D01*
%TO.N,R1C2*%
X131791739Y-28669422D02*
X132091739Y-28969422D01*
X132091739Y-28969422D02*
X132091739Y-32659426D01*
X132091739Y-32659426D02*
X132091739Y-34009423D01*
X132091739Y-34009423D02*
X132991739Y-34909423D01*
X84242736Y-35099424D02*
X76749736Y-35099424D01*
X85512736Y-36369424D02*
X84242736Y-35099424D01*
X93640736Y-36369424D02*
X85512736Y-36369424D01*
X93640736Y-36369424D02*
X99620736Y-42349424D01*
X99620736Y-42349424D02*
X113401737Y-42349424D01*
X113401737Y-42349424D02*
X116401737Y-39349424D01*
X128571737Y-39349424D02*
X133001737Y-34919424D01*
X116401737Y-39349424D02*
X128571737Y-39349424D01*
%TO.N,R1C3*%
X150801739Y-31059422D02*
X151101739Y-31359422D01*
X151101739Y-35049426D02*
X151101739Y-36399423D01*
X151101739Y-36399423D02*
X152001739Y-37299423D01*
X151101739Y-31359422D02*
X151101739Y-35049426D01*
X85512736Y-38909424D02*
X93640736Y-38909424D01*
X84242736Y-37639424D02*
X85512736Y-38909424D01*
X76749736Y-37639424D02*
X84242736Y-37639424D01*
X93640736Y-38909424D02*
X97580736Y-42849424D01*
X97580736Y-42849424D02*
X113651737Y-42849424D01*
X113651737Y-42849424D02*
X114901737Y-41599424D01*
X147701741Y-41599424D02*
X152001739Y-37299426D01*
X114901737Y-41599424D02*
X147701741Y-41599424D01*
%TO.N,R1C4*%
X169801739Y-35809422D02*
X170101739Y-36109422D01*
X170101739Y-36109422D02*
X170101739Y-39799426D01*
X170101739Y-39799426D02*
X170101739Y-41149423D01*
X170101739Y-41149423D02*
X171001739Y-42049423D01*
X93640736Y-41449424D02*
X94290736Y-42099424D01*
X84242736Y-40179424D02*
X76749736Y-40179424D01*
X85512736Y-41449424D02*
X84242736Y-40179424D01*
X93640736Y-41449424D02*
X85512736Y-41449424D01*
X93640736Y-41449424D02*
X95540736Y-43349424D01*
X113788147Y-43349424D02*
X115038147Y-42099424D01*
X95540736Y-43349424D02*
X113788147Y-43349424D01*
X115038147Y-42099424D02*
X152651737Y-42099424D01*
X152651737Y-42099424D02*
X157401737Y-46849424D01*
X166201737Y-46849424D02*
X171001737Y-42049424D01*
X157401737Y-46849424D02*
X166201737Y-46849424D01*
%TO.N,R2C1*%
X112801739Y-50059422D02*
X113101739Y-50359422D01*
X113101739Y-54049426D02*
X113101739Y-55399423D01*
X113101739Y-55399423D02*
X114001739Y-56299423D01*
X113101739Y-50359422D02*
X113101739Y-54049426D01*
D20*
X93640736Y-43989424D02*
X95311737Y-43989424D01*
D21*
X85512736Y-43989424D02*
X93640736Y-43989424D01*
X84242736Y-42719424D02*
X85512736Y-43989424D01*
X76749736Y-42719424D02*
X84242736Y-42719424D01*
X112801736Y-48809423D02*
X112801736Y-50059423D01*
X107981737Y-43989424D02*
X112801736Y-48809423D01*
X95311737Y-43989424D02*
X107981737Y-43989424D01*
%TO.N,R2C2*%
X131791739Y-47669422D02*
X132091739Y-47969422D01*
X132091739Y-53009423D02*
X132991739Y-53909423D01*
X132091739Y-51659426D02*
X132091739Y-53009423D01*
X132091739Y-47969422D02*
X132091739Y-51659426D01*
X93640736Y-46588424D02*
X93640736Y-46529424D01*
X84242736Y-45259424D02*
X76749736Y-45259424D01*
X85512736Y-46529424D02*
X84242736Y-45259424D01*
X93640736Y-46529424D02*
X85512736Y-46529424D01*
X98151737Y-57099424D02*
X101901737Y-60849424D01*
X126071739Y-60849424D02*
X133001739Y-53919424D01*
X98151737Y-51040425D02*
X98151737Y-57099424D01*
X101901737Y-60849424D02*
X126071739Y-60849424D01*
X93640736Y-46529424D02*
X98151737Y-51040425D01*
%TO.N,R2C3*%
X150801739Y-50059422D02*
X151101739Y-50359422D01*
X151101739Y-55399423D02*
X152001739Y-56299423D01*
X151101739Y-54049426D02*
X151101739Y-55399423D01*
X151101739Y-50359422D02*
X151101739Y-54049426D01*
D20*
X93640736Y-49069424D02*
X95401736Y-50830424D01*
D21*
X85512736Y-49069424D02*
X93640736Y-49069424D01*
X84242736Y-47799424D02*
X85512736Y-49069424D01*
X76749736Y-47799424D02*
X84242736Y-47799424D01*
X146951741Y-61349424D02*
X152001739Y-56299426D01*
X101651737Y-61349424D02*
X146951741Y-61349424D01*
X97401737Y-57099424D02*
X101651737Y-61349424D01*
X97401737Y-52830425D02*
X97401737Y-57099424D01*
X95401736Y-50830424D02*
X97401737Y-52830425D01*
D20*
%TO.N,R2C4*%
X94001735Y-51149425D02*
X94001736Y-51149424D01*
D21*
X84242736Y-50339424D02*
X76749736Y-50339424D01*
X85512736Y-51609424D02*
X84242736Y-50339424D01*
X93640736Y-51609424D02*
X85512736Y-51609424D01*
X170101739Y-60149423D02*
X171001739Y-61049423D01*
X170101739Y-58799426D02*
X170101739Y-60149423D01*
X170101739Y-55109422D02*
X170101739Y-58799426D01*
X169801739Y-54809422D02*
X170101739Y-55109422D01*
D20*
X96651737Y-54620425D02*
X93640736Y-51609424D01*
X96651737Y-56849424D02*
X96651737Y-54620425D01*
D21*
X96651737Y-57099424D02*
X96651737Y-56849424D01*
X101401737Y-61849424D02*
X96651737Y-57099424D01*
X154401737Y-61849424D02*
X101401737Y-61849424D01*
X158401737Y-65849424D02*
X154401737Y-61849424D01*
X166201738Y-65849424D02*
X158401737Y-65849424D01*
X171001739Y-61049423D02*
X166201738Y-65849424D01*
D22*
%TO.N,Net-(U1-Pad2)*%
X78400736Y-26209424D02*
X78019736Y-26209424D01*
%TO.N,VCC*%
X84641739Y-55801422D02*
X86161737Y-54281424D01*
X84641739Y-56281424D02*
X84641739Y-55801422D01*
D23*
%TO.N,Net-(J1-Pad2)*%
X162151739Y-24049424D02*
X162901739Y-24799424D01*
X162151739Y-23529424D02*
X162151739Y-24049424D01*
X133901736Y-20599424D02*
X107171737Y-20599424D01*
X151401737Y-24349424D02*
X137651736Y-24349424D01*
X137651736Y-24349424D02*
X133901736Y-20599424D01*
X152451737Y-25399424D02*
X151401737Y-24349424D01*
X162301739Y-25399424D02*
X152451737Y-25399424D01*
X162901739Y-24799424D02*
X162301739Y-25399424D01*
%TO.N,Net-(J1-Pad1)*%
X164231756Y-25799424D02*
X165151737Y-24879443D01*
X165151737Y-23529423D02*
X165151737Y-24879443D01*
X150651736Y-25349424D02*
X151701736Y-26399424D01*
X137151736Y-25349424D02*
X150651736Y-25349424D01*
X133401736Y-21599424D02*
X137151736Y-25349424D01*
X116531756Y-21599424D02*
X133401736Y-21599424D01*
X107131737Y-23099424D02*
X115031756Y-23099424D01*
X115031756Y-23099424D02*
X116531756Y-21599424D01*
X104631737Y-20599424D02*
X107131737Y-23099424D01*
X163631756Y-26399424D02*
X165151737Y-24879443D01*
X151701736Y-26399424D02*
X163631756Y-26399424D01*
D21*
%TO.N,SDA*%
X88546738Y-57456425D02*
X89721739Y-56281424D01*
X80991738Y-57456425D02*
X88546738Y-57456425D01*
X80231738Y-56696425D02*
X80991738Y-57456425D01*
X80231738Y-55131423D02*
X80231738Y-56696425D01*
X81081737Y-54281424D02*
X80231738Y-55131423D01*
X85766736Y-32559424D02*
X85258736Y-32051424D01*
X91989736Y-32559424D02*
X85766736Y-32559424D01*
%TO.N,SCL*%
X92009736Y-35079424D02*
X91989736Y-35099424D01*
X83607736Y-36369424D02*
X78400736Y-36369424D01*
X91608736Y-34718424D02*
X91989736Y-35099424D01*
X85258736Y-34718424D02*
X91608736Y-34718424D01*
%TO.N,RST*%
X86601736Y-60492424D02*
X88701736Y-60492424D01*
X89583736Y-60492424D02*
X94656736Y-55419424D01*
X88701736Y-60492424D02*
X89583736Y-60492424D01*
D20*
%TO.N,Net-(U2-Pad8)*%
X91989736Y-40179424D02*
X92009737Y-40159423D01*
D21*
%TO.N,Net-(U2-Pad7)*%
X92009736Y-37619424D02*
X91989736Y-37639424D01*
%TO.N,Net-(U2-Pad2)*%
X92009736Y-24919424D02*
X91989736Y-24939424D01*
%TO.N,Net-(U2-Pad9)*%
X92009736Y-42699424D02*
X91989736Y-42719424D01*
%TD*%
M02*
