%TF.GenerationSoftware,KiCad,Pcbnew,5.1.8*%
%TF.CreationDate,2021-02-04T11:53:21-06:00*%
%TF.ProjectId,small-paintbrush,736d616c-6c2d-4706-9169-6e7462727573,rev?*%
%TF.SameCoordinates,Original*%
%TF.FileFunction,Legend,Bot*%
%TF.FilePolarity,Positive*%
%FSLAX46Y46*%
G04 Gerber Fmt 4.6, Leading zero omitted, Abs format (unit mm)*
G04 Created by KiCad (PCBNEW 5.1.8) date 2021-02-04 11:53:21*
%MOMM*%
%LPD*%
G01*
G04 APERTURE LIST*
%ADD10C,0.381000*%
%ADD11C,0.150000*%
%ADD12C,0.120000*%
G04 APERTURE END LIST*
D10*
%TO.C,U1*%
X71150000Y-29760000D02*
X68610000Y-29760000D01*
X86390000Y-27220000D02*
X68610000Y-27220000D01*
X68610000Y-27220000D02*
X68610000Y-60240000D01*
X68610000Y-60240000D02*
X86390000Y-60240000D01*
X86390000Y-60240000D02*
X86390000Y-27220000D01*
D11*
G36*
X83344635Y-35649030D02*
G01*
X83344635Y-35749030D01*
X83844635Y-35749030D01*
X83844635Y-35649030D01*
X83344635Y-35649030D01*
G37*
X83344635Y-35649030D02*
X83344635Y-35749030D01*
X83844635Y-35749030D01*
X83844635Y-35649030D01*
X83344635Y-35649030D01*
G36*
X83344635Y-35649030D02*
G01*
X83344635Y-35949030D01*
X83444635Y-35949030D01*
X83444635Y-35649030D01*
X83344635Y-35649030D01*
G37*
X83344635Y-35649030D02*
X83344635Y-35949030D01*
X83444635Y-35949030D01*
X83444635Y-35649030D01*
X83344635Y-35649030D01*
G36*
X83344635Y-36249030D02*
G01*
X83344635Y-36449030D01*
X83444635Y-36449030D01*
X83444635Y-36249030D01*
X83344635Y-36249030D01*
G37*
X83344635Y-36249030D02*
X83344635Y-36449030D01*
X83444635Y-36449030D01*
X83444635Y-36249030D01*
X83344635Y-36249030D01*
G36*
X83744635Y-35649030D02*
G01*
X83744635Y-36449030D01*
X83844635Y-36449030D01*
X83844635Y-35649030D01*
X83744635Y-35649030D01*
G37*
X83744635Y-35649030D02*
X83744635Y-36449030D01*
X83844635Y-36449030D01*
X83844635Y-35649030D01*
X83744635Y-35649030D01*
G36*
X83544635Y-36049030D02*
G01*
X83544635Y-36149030D01*
X83644635Y-36149030D01*
X83644635Y-36049030D01*
X83544635Y-36049030D01*
G37*
X83544635Y-36049030D02*
X83544635Y-36149030D01*
X83644635Y-36149030D01*
X83644635Y-36049030D01*
X83544635Y-36049030D01*
D10*
X71150000Y-29760000D02*
X71150000Y-32300000D01*
X71150000Y-32300000D02*
X68610000Y-32300000D01*
D12*
%TO.C,R3*%
X87727064Y-24235000D02*
X87272936Y-24235000D01*
X87727064Y-22765000D02*
X87272936Y-22765000D01*
%TO.C,PUSH1*%
X98150000Y-24900000D02*
X98150000Y-24600000D01*
X94850000Y-24900000D02*
X98150000Y-24900000D01*
X94850000Y-24600000D02*
X94850000Y-24900000D01*
X98150000Y-22100000D02*
X98150000Y-22400000D01*
X94850000Y-22100000D02*
X98150000Y-22100000D01*
X94850000Y-22400000D02*
X94850000Y-22100000D01*
%TO.C,SW1*%
X80950000Y-22780000D02*
X80950000Y-23570000D01*
X74050000Y-23570000D02*
X74050000Y-22780000D01*
X75900000Y-24620000D02*
X77600000Y-24620000D01*
X74650000Y-21770000D02*
X80350000Y-21770000D01*
X77400000Y-20480000D02*
X77400000Y-21770000D01*
X76300000Y-20270000D02*
X77200000Y-20270000D01*
X76100000Y-21770000D02*
X76100000Y-20480000D01*
X77400000Y-20480000D02*
X77200000Y-20270000D01*
X76100000Y-20480000D02*
X76300000Y-20270000D01*
X78900000Y-24620000D02*
X79100000Y-24620000D01*
%TO.C,U1*%
D11*
X83073333Y-36413809D02*
X82959047Y-36451904D01*
X82768571Y-36451904D01*
X82692380Y-36413809D01*
X82654285Y-36375714D01*
X82616190Y-36299523D01*
X82616190Y-36223333D01*
X82654285Y-36147142D01*
X82692380Y-36109047D01*
X82768571Y-36070952D01*
X82920952Y-36032857D01*
X82997142Y-35994761D01*
X83035238Y-35956666D01*
X83073333Y-35880476D01*
X83073333Y-35804285D01*
X83035238Y-35728095D01*
X82997142Y-35690000D01*
X82920952Y-35651904D01*
X82730476Y-35651904D01*
X82616190Y-35690000D01*
X82387619Y-35651904D02*
X81930476Y-35651904D01*
X82159047Y-36451904D02*
X82159047Y-35651904D01*
X76118604Y-30591904D02*
X75661461Y-30591904D01*
X75890032Y-31391904D02*
X75890032Y-30591904D01*
X75470985Y-30591904D02*
X74937651Y-31391904D01*
X74937651Y-30591904D02*
X75470985Y-31391904D01*
X74480508Y-30591904D02*
X74404318Y-30591904D01*
X74328128Y-30630000D01*
X74290032Y-30668095D01*
X74251937Y-30744285D01*
X74213842Y-30896666D01*
X74213842Y-31087142D01*
X74251937Y-31239523D01*
X74290032Y-31315714D01*
X74328128Y-31353809D01*
X74404318Y-31391904D01*
X74480508Y-31391904D01*
X74556699Y-31353809D01*
X74594794Y-31315714D01*
X74632889Y-31239523D01*
X74670985Y-31087142D01*
X74670985Y-30896666D01*
X74632889Y-30744285D01*
X74594794Y-30668095D01*
X74556699Y-30630000D01*
X74480508Y-30591904D01*
X73299556Y-30553809D02*
X73985270Y-31582380D01*
X73032889Y-31391904D02*
X73032889Y-30591904D01*
X72842413Y-30591904D01*
X72728128Y-30630000D01*
X72651937Y-30706190D01*
X72613842Y-30782380D01*
X72575747Y-30934761D01*
X72575747Y-31049047D01*
X72613842Y-31201428D01*
X72651937Y-31277619D01*
X72728128Y-31353809D01*
X72842413Y-31391904D01*
X73032889Y-31391904D01*
X72309080Y-30591904D02*
X71813842Y-30591904D01*
X72080508Y-30896666D01*
X71966223Y-30896666D01*
X71890032Y-30934761D01*
X71851937Y-30972857D01*
X71813842Y-31049047D01*
X71813842Y-31239523D01*
X71851937Y-31315714D01*
X71890032Y-31353809D01*
X71966223Y-31391904D01*
X72194794Y-31391904D01*
X72270985Y-31353809D01*
X72309080Y-31315714D01*
X83284809Y-56372857D02*
X83170523Y-56410952D01*
X83132428Y-56449047D01*
X83094333Y-56525238D01*
X83094333Y-56639523D01*
X83132428Y-56715714D01*
X83170523Y-56753809D01*
X83246714Y-56791904D01*
X83551476Y-56791904D01*
X83551476Y-55991904D01*
X83284809Y-55991904D01*
X83208619Y-56030000D01*
X83170523Y-56068095D01*
X83132428Y-56144285D01*
X83132428Y-56220476D01*
X83170523Y-56296666D01*
X83208619Y-56334761D01*
X83284809Y-56372857D01*
X83551476Y-56372857D01*
X82789571Y-56068095D02*
X82751476Y-56030000D01*
X82675285Y-55991904D01*
X82484809Y-55991904D01*
X82408619Y-56030000D01*
X82370523Y-56068095D01*
X82332428Y-56144285D01*
X82332428Y-56220476D01*
X82370523Y-56334761D01*
X82827666Y-56791904D01*
X82332428Y-56791904D01*
X83227666Y-48752857D02*
X83494333Y-48752857D01*
X83494333Y-49171904D02*
X83494333Y-48371904D01*
X83113380Y-48371904D01*
X82884809Y-48371904D02*
X82351476Y-48371904D01*
X82694333Y-49171904D01*
X83227666Y-46212857D02*
X83494333Y-46212857D01*
X83494333Y-46631904D02*
X83494333Y-45831904D01*
X83113380Y-45831904D01*
X82465761Y-45831904D02*
X82618142Y-45831904D01*
X82694333Y-45870000D01*
X82732428Y-45908095D01*
X82808619Y-46022380D01*
X82846714Y-46174761D01*
X82846714Y-46479523D01*
X82808619Y-46555714D01*
X82770523Y-46593809D01*
X82694333Y-46631904D01*
X82541952Y-46631904D01*
X82465761Y-46593809D01*
X82427666Y-46555714D01*
X82389571Y-46479523D01*
X82389571Y-46289047D01*
X82427666Y-46212857D01*
X82465761Y-46174761D01*
X82541952Y-46136666D01*
X82694333Y-46136666D01*
X82770523Y-46174761D01*
X82808619Y-46212857D01*
X82846714Y-46289047D01*
X83227666Y-43672857D02*
X83494333Y-43672857D01*
X83494333Y-44091904D02*
X83494333Y-43291904D01*
X83113380Y-43291904D01*
X82427666Y-43291904D02*
X82808619Y-43291904D01*
X82846714Y-43672857D01*
X82808619Y-43634761D01*
X82732428Y-43596666D01*
X82541952Y-43596666D01*
X82465761Y-43634761D01*
X82427666Y-43672857D01*
X82389571Y-43749047D01*
X82389571Y-43939523D01*
X82427666Y-44015714D01*
X82465761Y-44053809D01*
X82541952Y-44091904D01*
X82732428Y-44091904D01*
X82808619Y-44053809D01*
X82846714Y-44015714D01*
X83513380Y-31391904D02*
X83780047Y-31010952D01*
X83970523Y-31391904D02*
X83970523Y-30591904D01*
X83665761Y-30591904D01*
X83589571Y-30630000D01*
X83551476Y-30668095D01*
X83513380Y-30744285D01*
X83513380Y-30858571D01*
X83551476Y-30934761D01*
X83589571Y-30972857D01*
X83665761Y-31010952D01*
X83970523Y-31010952D01*
X83208619Y-31163333D02*
X82827666Y-31163333D01*
X83284809Y-31391904D02*
X83018142Y-30591904D01*
X82751476Y-31391904D01*
X82561000Y-30591904D02*
X82370523Y-31391904D01*
X82218142Y-30820476D01*
X82065761Y-31391904D01*
X81875285Y-30591904D01*
X83570523Y-33170000D02*
X83646714Y-33131904D01*
X83761000Y-33131904D01*
X83875285Y-33170000D01*
X83951476Y-33246190D01*
X83989571Y-33322380D01*
X84027666Y-33474761D01*
X84027666Y-33589047D01*
X83989571Y-33741428D01*
X83951476Y-33817619D01*
X83875285Y-33893809D01*
X83761000Y-33931904D01*
X83684809Y-33931904D01*
X83570523Y-33893809D01*
X83532428Y-33855714D01*
X83532428Y-33589047D01*
X83684809Y-33589047D01*
X83189571Y-33931904D02*
X83189571Y-33131904D01*
X82732428Y-33931904D01*
X82732428Y-33131904D01*
X82351476Y-33931904D02*
X82351476Y-33131904D01*
X82161000Y-33131904D01*
X82046714Y-33170000D01*
X81970523Y-33246190D01*
X81932428Y-33322380D01*
X81894333Y-33474761D01*
X81894333Y-33589047D01*
X81932428Y-33741428D01*
X81970523Y-33817619D01*
X82046714Y-33893809D01*
X82161000Y-33931904D01*
X82351476Y-33931904D01*
X84027666Y-38211904D02*
X83761000Y-39011904D01*
X83494333Y-38211904D01*
X82770523Y-38935714D02*
X82808619Y-38973809D01*
X82922904Y-39011904D01*
X82999095Y-39011904D01*
X83113380Y-38973809D01*
X83189571Y-38897619D01*
X83227666Y-38821428D01*
X83265761Y-38669047D01*
X83265761Y-38554761D01*
X83227666Y-38402380D01*
X83189571Y-38326190D01*
X83113380Y-38250000D01*
X82999095Y-38211904D01*
X82922904Y-38211904D01*
X82808619Y-38250000D01*
X82770523Y-38288095D01*
X81970523Y-38935714D02*
X82008619Y-38973809D01*
X82122904Y-39011904D01*
X82199095Y-39011904D01*
X82313380Y-38973809D01*
X82389571Y-38897619D01*
X82427666Y-38821428D01*
X82465761Y-38669047D01*
X82465761Y-38554761D01*
X82427666Y-38402380D01*
X82389571Y-38326190D01*
X82313380Y-38250000D01*
X82199095Y-38211904D01*
X82122904Y-38211904D01*
X82008619Y-38250000D01*
X81970523Y-38288095D01*
X83227666Y-41132857D02*
X83494333Y-41132857D01*
X83494333Y-41551904D02*
X83494333Y-40751904D01*
X83113380Y-40751904D01*
X82465761Y-41018571D02*
X82465761Y-41551904D01*
X82656238Y-40713809D02*
X82846714Y-41285238D01*
X82351476Y-41285238D01*
X83284809Y-51292857D02*
X83170523Y-51330952D01*
X83132428Y-51369047D01*
X83094333Y-51445238D01*
X83094333Y-51559523D01*
X83132428Y-51635714D01*
X83170523Y-51673809D01*
X83246714Y-51711904D01*
X83551476Y-51711904D01*
X83551476Y-50911904D01*
X83284809Y-50911904D01*
X83208619Y-50950000D01*
X83170523Y-50988095D01*
X83132428Y-51064285D01*
X83132428Y-51140476D01*
X83170523Y-51216666D01*
X83208619Y-51254761D01*
X83284809Y-51292857D01*
X83551476Y-51292857D01*
X82332428Y-51711904D02*
X82789571Y-51711904D01*
X82561000Y-51711904D02*
X82561000Y-50911904D01*
X82637190Y-51026190D01*
X82713380Y-51102380D01*
X82789571Y-51140476D01*
X83284809Y-53832857D02*
X83170523Y-53870952D01*
X83132428Y-53909047D01*
X83094333Y-53985238D01*
X83094333Y-54099523D01*
X83132428Y-54175714D01*
X83170523Y-54213809D01*
X83246714Y-54251904D01*
X83551476Y-54251904D01*
X83551476Y-53451904D01*
X83284809Y-53451904D01*
X83208619Y-53490000D01*
X83170523Y-53528095D01*
X83132428Y-53604285D01*
X83132428Y-53680476D01*
X83170523Y-53756666D01*
X83208619Y-53794761D01*
X83284809Y-53832857D01*
X83551476Y-53832857D01*
X82827666Y-53451904D02*
X82332428Y-53451904D01*
X82599095Y-53756666D01*
X82484809Y-53756666D01*
X82408619Y-53794761D01*
X82370523Y-53832857D01*
X82332428Y-53909047D01*
X82332428Y-54099523D01*
X82370523Y-54175714D01*
X82408619Y-54213809D01*
X82484809Y-54251904D01*
X82713380Y-54251904D01*
X82789571Y-54213809D01*
X82827666Y-54175714D01*
X83284809Y-58912857D02*
X83170523Y-58950952D01*
X83132428Y-58989047D01*
X83094333Y-59065238D01*
X83094333Y-59179523D01*
X83132428Y-59255714D01*
X83170523Y-59293809D01*
X83246714Y-59331904D01*
X83551476Y-59331904D01*
X83551476Y-58531904D01*
X83284809Y-58531904D01*
X83208619Y-58570000D01*
X83170523Y-58608095D01*
X83132428Y-58684285D01*
X83132428Y-58760476D01*
X83170523Y-58836666D01*
X83208619Y-58874761D01*
X83284809Y-58912857D01*
X83551476Y-58912857D01*
X82408619Y-58531904D02*
X82561000Y-58531904D01*
X82637190Y-58570000D01*
X82675285Y-58608095D01*
X82751476Y-58722380D01*
X82789571Y-58874761D01*
X82789571Y-59179523D01*
X82751476Y-59255714D01*
X82713380Y-59293809D01*
X82637190Y-59331904D01*
X82484809Y-59331904D01*
X82408619Y-59293809D01*
X82370523Y-59255714D01*
X82332428Y-59179523D01*
X82332428Y-58989047D01*
X82370523Y-58912857D01*
X82408619Y-58874761D01*
X82484809Y-58836666D01*
X82637190Y-58836666D01*
X82713380Y-58874761D01*
X82751476Y-58912857D01*
X82789571Y-58989047D01*
X72362809Y-58912857D02*
X72248523Y-58950952D01*
X72210428Y-58989047D01*
X72172333Y-59065238D01*
X72172333Y-59179523D01*
X72210428Y-59255714D01*
X72248523Y-59293809D01*
X72324714Y-59331904D01*
X72629476Y-59331904D01*
X72629476Y-58531904D01*
X72362809Y-58531904D01*
X72286619Y-58570000D01*
X72248523Y-58608095D01*
X72210428Y-58684285D01*
X72210428Y-58760476D01*
X72248523Y-58836666D01*
X72286619Y-58874761D01*
X72362809Y-58912857D01*
X72629476Y-58912857D01*
X71448523Y-58531904D02*
X71829476Y-58531904D01*
X71867571Y-58912857D01*
X71829476Y-58874761D01*
X71753285Y-58836666D01*
X71562809Y-58836666D01*
X71486619Y-58874761D01*
X71448523Y-58912857D01*
X71410428Y-58989047D01*
X71410428Y-59179523D01*
X71448523Y-59255714D01*
X71486619Y-59293809D01*
X71562809Y-59331904D01*
X71753285Y-59331904D01*
X71829476Y-59293809D01*
X71867571Y-59255714D01*
X72362809Y-56372857D02*
X72248523Y-56410952D01*
X72210428Y-56449047D01*
X72172333Y-56525238D01*
X72172333Y-56639523D01*
X72210428Y-56715714D01*
X72248523Y-56753809D01*
X72324714Y-56791904D01*
X72629476Y-56791904D01*
X72629476Y-55991904D01*
X72362809Y-55991904D01*
X72286619Y-56030000D01*
X72248523Y-56068095D01*
X72210428Y-56144285D01*
X72210428Y-56220476D01*
X72248523Y-56296666D01*
X72286619Y-56334761D01*
X72362809Y-56372857D01*
X72629476Y-56372857D01*
X71486619Y-56258571D02*
X71486619Y-56791904D01*
X71677095Y-55953809D02*
X71867571Y-56525238D01*
X71372333Y-56525238D01*
X72591380Y-53832857D02*
X72324714Y-53832857D01*
X72210428Y-54251904D02*
X72591380Y-54251904D01*
X72591380Y-53451904D01*
X72210428Y-53451904D01*
X71524714Y-53451904D02*
X71677095Y-53451904D01*
X71753285Y-53490000D01*
X71791380Y-53528095D01*
X71867571Y-53642380D01*
X71905666Y-53794761D01*
X71905666Y-54099523D01*
X71867571Y-54175714D01*
X71829476Y-54213809D01*
X71753285Y-54251904D01*
X71600904Y-54251904D01*
X71524714Y-54213809D01*
X71486619Y-54175714D01*
X71448523Y-54099523D01*
X71448523Y-53909047D01*
X71486619Y-53832857D01*
X71524714Y-53794761D01*
X71600904Y-53756666D01*
X71753285Y-53756666D01*
X71829476Y-53794761D01*
X71867571Y-53832857D01*
X71905666Y-53909047D01*
X72629476Y-51711904D02*
X72629476Y-50911904D01*
X72439000Y-50911904D01*
X72324714Y-50950000D01*
X72248523Y-51026190D01*
X72210428Y-51102380D01*
X72172333Y-51254761D01*
X72172333Y-51369047D01*
X72210428Y-51521428D01*
X72248523Y-51597619D01*
X72324714Y-51673809D01*
X72439000Y-51711904D01*
X72629476Y-51711904D01*
X71905666Y-50911904D02*
X71372333Y-50911904D01*
X71715190Y-51711904D01*
X72172333Y-49095714D02*
X72210428Y-49133809D01*
X72324714Y-49171904D01*
X72400904Y-49171904D01*
X72515190Y-49133809D01*
X72591380Y-49057619D01*
X72629476Y-48981428D01*
X72667571Y-48829047D01*
X72667571Y-48714761D01*
X72629476Y-48562380D01*
X72591380Y-48486190D01*
X72515190Y-48410000D01*
X72400904Y-48371904D01*
X72324714Y-48371904D01*
X72210428Y-48410000D01*
X72172333Y-48448095D01*
X71486619Y-48371904D02*
X71639000Y-48371904D01*
X71715190Y-48410000D01*
X71753285Y-48448095D01*
X71829476Y-48562380D01*
X71867571Y-48714761D01*
X71867571Y-49019523D01*
X71829476Y-49095714D01*
X71791380Y-49133809D01*
X71715190Y-49171904D01*
X71562809Y-49171904D01*
X71486619Y-49133809D01*
X71448523Y-49095714D01*
X71410428Y-49019523D01*
X71410428Y-48829047D01*
X71448523Y-48752857D01*
X71486619Y-48714761D01*
X71562809Y-48676666D01*
X71715190Y-48676666D01*
X71791380Y-48714761D01*
X71829476Y-48752857D01*
X71867571Y-48829047D01*
X72629476Y-46631904D02*
X72629476Y-45831904D01*
X72439000Y-45831904D01*
X72324714Y-45870000D01*
X72248523Y-45946190D01*
X72210428Y-46022380D01*
X72172333Y-46174761D01*
X72172333Y-46289047D01*
X72210428Y-46441428D01*
X72248523Y-46517619D01*
X72324714Y-46593809D01*
X72439000Y-46631904D01*
X72629476Y-46631904D01*
X71486619Y-46098571D02*
X71486619Y-46631904D01*
X71677095Y-45793809D02*
X71867571Y-46365238D01*
X71372333Y-46365238D01*
X72648523Y-35710000D02*
X72724714Y-35671904D01*
X72839000Y-35671904D01*
X72953285Y-35710000D01*
X73029476Y-35786190D01*
X73067571Y-35862380D01*
X73105666Y-36014761D01*
X73105666Y-36129047D01*
X73067571Y-36281428D01*
X73029476Y-36357619D01*
X72953285Y-36433809D01*
X72839000Y-36471904D01*
X72762809Y-36471904D01*
X72648523Y-36433809D01*
X72610428Y-36395714D01*
X72610428Y-36129047D01*
X72762809Y-36129047D01*
X72267571Y-36471904D02*
X72267571Y-35671904D01*
X71810428Y-36471904D01*
X71810428Y-35671904D01*
X71429476Y-36471904D02*
X71429476Y-35671904D01*
X71239000Y-35671904D01*
X71124714Y-35710000D01*
X71048523Y-35786190D01*
X71010428Y-35862380D01*
X70972333Y-36014761D01*
X70972333Y-36129047D01*
X71010428Y-36281428D01*
X71048523Y-36357619D01*
X71124714Y-36433809D01*
X71239000Y-36471904D01*
X71429476Y-36471904D01*
X72648523Y-38250000D02*
X72724714Y-38211904D01*
X72839000Y-38211904D01*
X72953285Y-38250000D01*
X73029476Y-38326190D01*
X73067571Y-38402380D01*
X73105666Y-38554761D01*
X73105666Y-38669047D01*
X73067571Y-38821428D01*
X73029476Y-38897619D01*
X72953285Y-38973809D01*
X72839000Y-39011904D01*
X72762809Y-39011904D01*
X72648523Y-38973809D01*
X72610428Y-38935714D01*
X72610428Y-38669047D01*
X72762809Y-38669047D01*
X72267571Y-39011904D02*
X72267571Y-38211904D01*
X71810428Y-39011904D01*
X71810428Y-38211904D01*
X71429476Y-39011904D02*
X71429476Y-38211904D01*
X71239000Y-38211904D01*
X71124714Y-38250000D01*
X71048523Y-38326190D01*
X71010428Y-38402380D01*
X70972333Y-38554761D01*
X70972333Y-38669047D01*
X71010428Y-38821428D01*
X71048523Y-38897619D01*
X71124714Y-38973809D01*
X71239000Y-39011904D01*
X71429476Y-39011904D01*
X72629476Y-41551904D02*
X72629476Y-40751904D01*
X72439000Y-40751904D01*
X72324714Y-40790000D01*
X72248523Y-40866190D01*
X72210428Y-40942380D01*
X72172333Y-41094761D01*
X72172333Y-41209047D01*
X72210428Y-41361428D01*
X72248523Y-41437619D01*
X72324714Y-41513809D01*
X72439000Y-41551904D01*
X72629476Y-41551904D01*
X71410428Y-41551904D02*
X71867571Y-41551904D01*
X71639000Y-41551904D02*
X71639000Y-40751904D01*
X71715190Y-40866190D01*
X71791380Y-40942380D01*
X71867571Y-40980476D01*
X72629476Y-44091904D02*
X72629476Y-43291904D01*
X72439000Y-43291904D01*
X72324714Y-43330000D01*
X72248523Y-43406190D01*
X72210428Y-43482380D01*
X72172333Y-43634761D01*
X72172333Y-43749047D01*
X72210428Y-43901428D01*
X72248523Y-43977619D01*
X72324714Y-44053809D01*
X72439000Y-44091904D01*
X72629476Y-44091904D01*
X71677095Y-43291904D02*
X71600904Y-43291904D01*
X71524714Y-43330000D01*
X71486619Y-43368095D01*
X71448523Y-43444285D01*
X71410428Y-43596666D01*
X71410428Y-43787142D01*
X71448523Y-43939523D01*
X71486619Y-44015714D01*
X71524714Y-44053809D01*
X71600904Y-44091904D01*
X71677095Y-44091904D01*
X71753285Y-44053809D01*
X71791380Y-44015714D01*
X71829476Y-43939523D01*
X71867571Y-43787142D01*
X71867571Y-43596666D01*
X71829476Y-43444285D01*
X71791380Y-43368095D01*
X71753285Y-43330000D01*
X71677095Y-43291904D01*
X72629476Y-33931904D02*
X72629476Y-33131904D01*
X72439000Y-33131904D01*
X72324714Y-33170000D01*
X72248523Y-33246190D01*
X72210428Y-33322380D01*
X72172333Y-33474761D01*
X72172333Y-33589047D01*
X72210428Y-33741428D01*
X72248523Y-33817619D01*
X72324714Y-33893809D01*
X72439000Y-33931904D01*
X72629476Y-33931904D01*
X71867571Y-33208095D02*
X71829476Y-33170000D01*
X71753285Y-33131904D01*
X71562809Y-33131904D01*
X71486619Y-33170000D01*
X71448523Y-33208095D01*
X71410428Y-33284285D01*
X71410428Y-33360476D01*
X71448523Y-33474761D01*
X71905666Y-33931904D01*
X71410428Y-33931904D01*
%TD*%
M02*
