%TF.GenerationSoftware,KiCad,Pcbnew,5.1.8*%
%TF.CreationDate,2021-02-04T11:53:21-06:00*%
%TF.ProjectId,small-paintbrush,736d616c-6c2d-4706-9169-6e7462727573,rev?*%
%TF.SameCoordinates,Original*%
%TF.FileFunction,Legend,Top*%
%TF.FilePolarity,Positive*%
%FSLAX46Y46*%
G04 Gerber Fmt 4.6, Leading zero omitted, Abs format (unit mm)*
G04 Created by KiCad (PCBNEW 5.1.8) date 2021-02-04 11:53:21*
%MOMM*%
%LPD*%
G01*
G04 APERTURE LIST*
%ADD10C,0.381000*%
%ADD11C,0.150000*%
%ADD12C,0.120000*%
G04 APERTURE END LIST*
D10*
%TO.C,U1*%
X71150000Y-29760000D02*
X68610000Y-29760000D01*
X68610000Y-27220000D02*
X68610000Y-29760000D01*
X86390000Y-27220000D02*
X68610000Y-27220000D01*
X86390000Y-29760000D02*
X86390000Y-27220000D01*
D11*
G36*
X82431568Y-36239360D02*
G01*
X82431568Y-36439360D01*
X82331568Y-36439360D01*
X82331568Y-36239360D01*
X82431568Y-36239360D01*
G37*
X82431568Y-36239360D02*
X82431568Y-36439360D01*
X82331568Y-36439360D01*
X82331568Y-36239360D01*
X82431568Y-36239360D01*
G36*
X82031568Y-35639360D02*
G01*
X82031568Y-36439360D01*
X81931568Y-36439360D01*
X81931568Y-35639360D01*
X82031568Y-35639360D01*
G37*
X82031568Y-35639360D02*
X82031568Y-36439360D01*
X81931568Y-36439360D01*
X81931568Y-35639360D01*
X82031568Y-35639360D01*
G36*
X82431568Y-35639360D02*
G01*
X82431568Y-35739360D01*
X81931568Y-35739360D01*
X81931568Y-35639360D01*
X82431568Y-35639360D01*
G37*
X82431568Y-35639360D02*
X82431568Y-35739360D01*
X81931568Y-35739360D01*
X81931568Y-35639360D01*
X82431568Y-35639360D01*
G36*
X82231568Y-36039360D02*
G01*
X82231568Y-36139360D01*
X82131568Y-36139360D01*
X82131568Y-36039360D01*
X82231568Y-36039360D01*
G37*
X82231568Y-36039360D02*
X82231568Y-36139360D01*
X82131568Y-36139360D01*
X82131568Y-36039360D01*
X82231568Y-36039360D01*
G36*
X82431568Y-35639360D02*
G01*
X82431568Y-35939360D01*
X82331568Y-35939360D01*
X82331568Y-35639360D01*
X82431568Y-35639360D01*
G37*
X82431568Y-35639360D02*
X82431568Y-35939360D01*
X82331568Y-35939360D01*
X82331568Y-35639360D01*
X82431568Y-35639360D01*
D10*
X71150000Y-32300000D02*
X68610000Y-32300000D01*
X71150000Y-29760000D02*
X71150000Y-32300000D01*
X86390000Y-60240000D02*
X86390000Y-29760000D01*
X68610000Y-60240000D02*
X86390000Y-60240000D01*
X68610000Y-29760000D02*
X68610000Y-60240000D01*
D12*
%TO.C,R2*%
X84420000Y-22130000D02*
X84420000Y-22460000D01*
X90960000Y-22130000D02*
X84420000Y-22130000D01*
X90960000Y-22460000D02*
X90960000Y-22130000D01*
X84420000Y-24870000D02*
X84420000Y-24540000D01*
X90960000Y-24870000D02*
X84420000Y-24870000D01*
X90960000Y-24540000D02*
X90960000Y-24870000D01*
%TO.C,PUSH2*%
X98150000Y-22100000D02*
X98150000Y-22400000D01*
X94850000Y-22100000D02*
X98150000Y-22100000D01*
X94850000Y-22400000D02*
X94850000Y-22100000D01*
X98150000Y-24900000D02*
X98150000Y-24600000D01*
X94850000Y-24900000D02*
X98150000Y-24900000D01*
X94850000Y-24600000D02*
X94850000Y-24900000D01*
%TO.C,SW2*%
X74050000Y-22780000D02*
X74050000Y-23570000D01*
X80950000Y-23570000D02*
X80950000Y-22780000D01*
X79100000Y-24620000D02*
X77400000Y-24620000D01*
X80350000Y-21770000D02*
X74650000Y-21770000D01*
X77600000Y-20480000D02*
X77600000Y-21770000D01*
X78700000Y-20270000D02*
X77800000Y-20270000D01*
X78900000Y-21770000D02*
X78900000Y-20480000D01*
X77600000Y-20480000D02*
X77800000Y-20270000D01*
X78900000Y-20480000D02*
X78700000Y-20270000D01*
X76100000Y-24620000D02*
X75900000Y-24620000D01*
%TO.C,J1*%
X105830000Y-22170000D02*
X105830000Y-23500000D01*
X104500000Y-22170000D02*
X105830000Y-22170000D01*
X103230000Y-22170000D02*
X103230000Y-24830000D01*
X103230000Y-24830000D02*
X100630000Y-24830000D01*
X103230000Y-22170000D02*
X100630000Y-22170000D01*
X100630000Y-22170000D02*
X100630000Y-24830000D01*
%TO.C,R1*%
X87727064Y-22765000D02*
X87272936Y-22765000D01*
X87727064Y-24235000D02*
X87272936Y-24235000D01*
%TO.C,U1*%
D11*
X71737651Y-30591904D02*
X72194794Y-30591904D01*
X71966223Y-31391904D02*
X71966223Y-30591904D01*
X72385270Y-30591904D02*
X72918604Y-31391904D01*
X72918604Y-30591904D02*
X72385270Y-31391904D01*
X73375747Y-30591904D02*
X73451937Y-30591904D01*
X73528128Y-30630000D01*
X73566223Y-30668095D01*
X73604318Y-30744285D01*
X73642413Y-30896666D01*
X73642413Y-31087142D01*
X73604318Y-31239523D01*
X73566223Y-31315714D01*
X73528128Y-31353809D01*
X73451937Y-31391904D01*
X73375747Y-31391904D01*
X73299556Y-31353809D01*
X73261461Y-31315714D01*
X73223366Y-31239523D01*
X73185270Y-31087142D01*
X73185270Y-30896666D01*
X73223366Y-30744285D01*
X73261461Y-30668095D01*
X73299556Y-30630000D01*
X73375747Y-30591904D01*
X74556699Y-30553809D02*
X73870985Y-31582380D01*
X74823366Y-31391904D02*
X74823366Y-30591904D01*
X75013842Y-30591904D01*
X75128128Y-30630000D01*
X75204318Y-30706190D01*
X75242413Y-30782380D01*
X75280508Y-30934761D01*
X75280508Y-31049047D01*
X75242413Y-31201428D01*
X75204318Y-31277619D01*
X75128128Y-31353809D01*
X75013842Y-31391904D01*
X74823366Y-31391904D01*
X75547175Y-30591904D02*
X76042413Y-30591904D01*
X75775747Y-30896666D01*
X75890032Y-30896666D01*
X75966223Y-30934761D01*
X76004318Y-30972857D01*
X76042413Y-31049047D01*
X76042413Y-31239523D01*
X76004318Y-31315714D01*
X75966223Y-31353809D01*
X75890032Y-31391904D01*
X75661461Y-31391904D01*
X75585270Y-31353809D01*
X75547175Y-31315714D01*
X71448523Y-33931904D02*
X71448523Y-33131904D01*
X71639000Y-33131904D01*
X71753285Y-33170000D01*
X71829476Y-33246190D01*
X71867571Y-33322380D01*
X71905666Y-33474761D01*
X71905666Y-33589047D01*
X71867571Y-33741428D01*
X71829476Y-33817619D01*
X71753285Y-33893809D01*
X71639000Y-33931904D01*
X71448523Y-33931904D01*
X72210428Y-33208095D02*
X72248523Y-33170000D01*
X72324714Y-33131904D01*
X72515190Y-33131904D01*
X72591380Y-33170000D01*
X72629476Y-33208095D01*
X72667571Y-33284285D01*
X72667571Y-33360476D01*
X72629476Y-33474761D01*
X72172333Y-33931904D01*
X72667571Y-33931904D01*
X71448523Y-44091904D02*
X71448523Y-43291904D01*
X71639000Y-43291904D01*
X71753285Y-43330000D01*
X71829476Y-43406190D01*
X71867571Y-43482380D01*
X71905666Y-43634761D01*
X71905666Y-43749047D01*
X71867571Y-43901428D01*
X71829476Y-43977619D01*
X71753285Y-44053809D01*
X71639000Y-44091904D01*
X71448523Y-44091904D01*
X72400904Y-43291904D02*
X72477095Y-43291904D01*
X72553285Y-43330000D01*
X72591380Y-43368095D01*
X72629476Y-43444285D01*
X72667571Y-43596666D01*
X72667571Y-43787142D01*
X72629476Y-43939523D01*
X72591380Y-44015714D01*
X72553285Y-44053809D01*
X72477095Y-44091904D01*
X72400904Y-44091904D01*
X72324714Y-44053809D01*
X72286619Y-44015714D01*
X72248523Y-43939523D01*
X72210428Y-43787142D01*
X72210428Y-43596666D01*
X72248523Y-43444285D01*
X72286619Y-43368095D01*
X72324714Y-43330000D01*
X72400904Y-43291904D01*
X71448523Y-41551904D02*
X71448523Y-40751904D01*
X71639000Y-40751904D01*
X71753285Y-40790000D01*
X71829476Y-40866190D01*
X71867571Y-40942380D01*
X71905666Y-41094761D01*
X71905666Y-41209047D01*
X71867571Y-41361428D01*
X71829476Y-41437619D01*
X71753285Y-41513809D01*
X71639000Y-41551904D01*
X71448523Y-41551904D01*
X72667571Y-41551904D02*
X72210428Y-41551904D01*
X72439000Y-41551904D02*
X72439000Y-40751904D01*
X72362809Y-40866190D01*
X72286619Y-40942380D01*
X72210428Y-40980476D01*
X71429476Y-38250000D02*
X71353285Y-38211904D01*
X71239000Y-38211904D01*
X71124714Y-38250000D01*
X71048523Y-38326190D01*
X71010428Y-38402380D01*
X70972333Y-38554761D01*
X70972333Y-38669047D01*
X71010428Y-38821428D01*
X71048523Y-38897619D01*
X71124714Y-38973809D01*
X71239000Y-39011904D01*
X71315190Y-39011904D01*
X71429476Y-38973809D01*
X71467571Y-38935714D01*
X71467571Y-38669047D01*
X71315190Y-38669047D01*
X71810428Y-39011904D02*
X71810428Y-38211904D01*
X72267571Y-39011904D01*
X72267571Y-38211904D01*
X72648523Y-39011904D02*
X72648523Y-38211904D01*
X72839000Y-38211904D01*
X72953285Y-38250000D01*
X73029476Y-38326190D01*
X73067571Y-38402380D01*
X73105666Y-38554761D01*
X73105666Y-38669047D01*
X73067571Y-38821428D01*
X73029476Y-38897619D01*
X72953285Y-38973809D01*
X72839000Y-39011904D01*
X72648523Y-39011904D01*
X71429476Y-35710000D02*
X71353285Y-35671904D01*
X71239000Y-35671904D01*
X71124714Y-35710000D01*
X71048523Y-35786190D01*
X71010428Y-35862380D01*
X70972333Y-36014761D01*
X70972333Y-36129047D01*
X71010428Y-36281428D01*
X71048523Y-36357619D01*
X71124714Y-36433809D01*
X71239000Y-36471904D01*
X71315190Y-36471904D01*
X71429476Y-36433809D01*
X71467571Y-36395714D01*
X71467571Y-36129047D01*
X71315190Y-36129047D01*
X71810428Y-36471904D02*
X71810428Y-35671904D01*
X72267571Y-36471904D01*
X72267571Y-35671904D01*
X72648523Y-36471904D02*
X72648523Y-35671904D01*
X72839000Y-35671904D01*
X72953285Y-35710000D01*
X73029476Y-35786190D01*
X73067571Y-35862380D01*
X73105666Y-36014761D01*
X73105666Y-36129047D01*
X73067571Y-36281428D01*
X73029476Y-36357619D01*
X72953285Y-36433809D01*
X72839000Y-36471904D01*
X72648523Y-36471904D01*
X71448523Y-46631904D02*
X71448523Y-45831904D01*
X71639000Y-45831904D01*
X71753285Y-45870000D01*
X71829476Y-45946190D01*
X71867571Y-46022380D01*
X71905666Y-46174761D01*
X71905666Y-46289047D01*
X71867571Y-46441428D01*
X71829476Y-46517619D01*
X71753285Y-46593809D01*
X71639000Y-46631904D01*
X71448523Y-46631904D01*
X72591380Y-46098571D02*
X72591380Y-46631904D01*
X72400904Y-45793809D02*
X72210428Y-46365238D01*
X72705666Y-46365238D01*
X71905666Y-49095714D02*
X71867571Y-49133809D01*
X71753285Y-49171904D01*
X71677095Y-49171904D01*
X71562809Y-49133809D01*
X71486619Y-49057619D01*
X71448523Y-48981428D01*
X71410428Y-48829047D01*
X71410428Y-48714761D01*
X71448523Y-48562380D01*
X71486619Y-48486190D01*
X71562809Y-48410000D01*
X71677095Y-48371904D01*
X71753285Y-48371904D01*
X71867571Y-48410000D01*
X71905666Y-48448095D01*
X72591380Y-48371904D02*
X72439000Y-48371904D01*
X72362809Y-48410000D01*
X72324714Y-48448095D01*
X72248523Y-48562380D01*
X72210428Y-48714761D01*
X72210428Y-49019523D01*
X72248523Y-49095714D01*
X72286619Y-49133809D01*
X72362809Y-49171904D01*
X72515190Y-49171904D01*
X72591380Y-49133809D01*
X72629476Y-49095714D01*
X72667571Y-49019523D01*
X72667571Y-48829047D01*
X72629476Y-48752857D01*
X72591380Y-48714761D01*
X72515190Y-48676666D01*
X72362809Y-48676666D01*
X72286619Y-48714761D01*
X72248523Y-48752857D01*
X72210428Y-48829047D01*
X71448523Y-51711904D02*
X71448523Y-50911904D01*
X71639000Y-50911904D01*
X71753285Y-50950000D01*
X71829476Y-51026190D01*
X71867571Y-51102380D01*
X71905666Y-51254761D01*
X71905666Y-51369047D01*
X71867571Y-51521428D01*
X71829476Y-51597619D01*
X71753285Y-51673809D01*
X71639000Y-51711904D01*
X71448523Y-51711904D01*
X72172333Y-50911904D02*
X72705666Y-50911904D01*
X72362809Y-51711904D01*
X71486619Y-53832857D02*
X71753285Y-53832857D01*
X71867571Y-54251904D02*
X71486619Y-54251904D01*
X71486619Y-53451904D01*
X71867571Y-53451904D01*
X72553285Y-53451904D02*
X72400904Y-53451904D01*
X72324714Y-53490000D01*
X72286619Y-53528095D01*
X72210428Y-53642380D01*
X72172333Y-53794761D01*
X72172333Y-54099523D01*
X72210428Y-54175714D01*
X72248523Y-54213809D01*
X72324714Y-54251904D01*
X72477095Y-54251904D01*
X72553285Y-54213809D01*
X72591380Y-54175714D01*
X72629476Y-54099523D01*
X72629476Y-53909047D01*
X72591380Y-53832857D01*
X72553285Y-53794761D01*
X72477095Y-53756666D01*
X72324714Y-53756666D01*
X72248523Y-53794761D01*
X72210428Y-53832857D01*
X72172333Y-53909047D01*
X71715190Y-56372857D02*
X71829476Y-56410952D01*
X71867571Y-56449047D01*
X71905666Y-56525238D01*
X71905666Y-56639523D01*
X71867571Y-56715714D01*
X71829476Y-56753809D01*
X71753285Y-56791904D01*
X71448523Y-56791904D01*
X71448523Y-55991904D01*
X71715190Y-55991904D01*
X71791380Y-56030000D01*
X71829476Y-56068095D01*
X71867571Y-56144285D01*
X71867571Y-56220476D01*
X71829476Y-56296666D01*
X71791380Y-56334761D01*
X71715190Y-56372857D01*
X71448523Y-56372857D01*
X72591380Y-56258571D02*
X72591380Y-56791904D01*
X72400904Y-55953809D02*
X72210428Y-56525238D01*
X72705666Y-56525238D01*
X71715190Y-58912857D02*
X71829476Y-58950952D01*
X71867571Y-58989047D01*
X71905666Y-59065238D01*
X71905666Y-59179523D01*
X71867571Y-59255714D01*
X71829476Y-59293809D01*
X71753285Y-59331904D01*
X71448523Y-59331904D01*
X71448523Y-58531904D01*
X71715190Y-58531904D01*
X71791380Y-58570000D01*
X71829476Y-58608095D01*
X71867571Y-58684285D01*
X71867571Y-58760476D01*
X71829476Y-58836666D01*
X71791380Y-58874761D01*
X71715190Y-58912857D01*
X71448523Y-58912857D01*
X72629476Y-58531904D02*
X72248523Y-58531904D01*
X72210428Y-58912857D01*
X72248523Y-58874761D01*
X72324714Y-58836666D01*
X72515190Y-58836666D01*
X72591380Y-58874761D01*
X72629476Y-58912857D01*
X72667571Y-58989047D01*
X72667571Y-59179523D01*
X72629476Y-59255714D01*
X72591380Y-59293809D01*
X72515190Y-59331904D01*
X72324714Y-59331904D01*
X72248523Y-59293809D01*
X72210428Y-59255714D01*
X82637190Y-58912857D02*
X82751476Y-58950952D01*
X82789571Y-58989047D01*
X82827666Y-59065238D01*
X82827666Y-59179523D01*
X82789571Y-59255714D01*
X82751476Y-59293809D01*
X82675285Y-59331904D01*
X82370523Y-59331904D01*
X82370523Y-58531904D01*
X82637190Y-58531904D01*
X82713380Y-58570000D01*
X82751476Y-58608095D01*
X82789571Y-58684285D01*
X82789571Y-58760476D01*
X82751476Y-58836666D01*
X82713380Y-58874761D01*
X82637190Y-58912857D01*
X82370523Y-58912857D01*
X83513380Y-58531904D02*
X83361000Y-58531904D01*
X83284809Y-58570000D01*
X83246714Y-58608095D01*
X83170523Y-58722380D01*
X83132428Y-58874761D01*
X83132428Y-59179523D01*
X83170523Y-59255714D01*
X83208619Y-59293809D01*
X83284809Y-59331904D01*
X83437190Y-59331904D01*
X83513380Y-59293809D01*
X83551476Y-59255714D01*
X83589571Y-59179523D01*
X83589571Y-58989047D01*
X83551476Y-58912857D01*
X83513380Y-58874761D01*
X83437190Y-58836666D01*
X83284809Y-58836666D01*
X83208619Y-58874761D01*
X83170523Y-58912857D01*
X83132428Y-58989047D01*
X82637190Y-53832857D02*
X82751476Y-53870952D01*
X82789571Y-53909047D01*
X82827666Y-53985238D01*
X82827666Y-54099523D01*
X82789571Y-54175714D01*
X82751476Y-54213809D01*
X82675285Y-54251904D01*
X82370523Y-54251904D01*
X82370523Y-53451904D01*
X82637190Y-53451904D01*
X82713380Y-53490000D01*
X82751476Y-53528095D01*
X82789571Y-53604285D01*
X82789571Y-53680476D01*
X82751476Y-53756666D01*
X82713380Y-53794761D01*
X82637190Y-53832857D01*
X82370523Y-53832857D01*
X83094333Y-53451904D02*
X83589571Y-53451904D01*
X83322904Y-53756666D01*
X83437190Y-53756666D01*
X83513380Y-53794761D01*
X83551476Y-53832857D01*
X83589571Y-53909047D01*
X83589571Y-54099523D01*
X83551476Y-54175714D01*
X83513380Y-54213809D01*
X83437190Y-54251904D01*
X83208619Y-54251904D01*
X83132428Y-54213809D01*
X83094333Y-54175714D01*
X82637190Y-51292857D02*
X82751476Y-51330952D01*
X82789571Y-51369047D01*
X82827666Y-51445238D01*
X82827666Y-51559523D01*
X82789571Y-51635714D01*
X82751476Y-51673809D01*
X82675285Y-51711904D01*
X82370523Y-51711904D01*
X82370523Y-50911904D01*
X82637190Y-50911904D01*
X82713380Y-50950000D01*
X82751476Y-50988095D01*
X82789571Y-51064285D01*
X82789571Y-51140476D01*
X82751476Y-51216666D01*
X82713380Y-51254761D01*
X82637190Y-51292857D01*
X82370523Y-51292857D01*
X83589571Y-51711904D02*
X83132428Y-51711904D01*
X83361000Y-51711904D02*
X83361000Y-50911904D01*
X83284809Y-51026190D01*
X83208619Y-51102380D01*
X83132428Y-51140476D01*
X82694333Y-41132857D02*
X82427666Y-41132857D01*
X82427666Y-41551904D02*
X82427666Y-40751904D01*
X82808619Y-40751904D01*
X83456238Y-41018571D02*
X83456238Y-41551904D01*
X83265761Y-40713809D02*
X83075285Y-41285238D01*
X83570523Y-41285238D01*
X81894333Y-38211904D02*
X82161000Y-39011904D01*
X82427666Y-38211904D01*
X83151476Y-38935714D02*
X83113380Y-38973809D01*
X82999095Y-39011904D01*
X82922904Y-39011904D01*
X82808619Y-38973809D01*
X82732428Y-38897619D01*
X82694333Y-38821428D01*
X82656238Y-38669047D01*
X82656238Y-38554761D01*
X82694333Y-38402380D01*
X82732428Y-38326190D01*
X82808619Y-38250000D01*
X82922904Y-38211904D01*
X82999095Y-38211904D01*
X83113380Y-38250000D01*
X83151476Y-38288095D01*
X83951476Y-38935714D02*
X83913380Y-38973809D01*
X83799095Y-39011904D01*
X83722904Y-39011904D01*
X83608619Y-38973809D01*
X83532428Y-38897619D01*
X83494333Y-38821428D01*
X83456238Y-38669047D01*
X83456238Y-38554761D01*
X83494333Y-38402380D01*
X83532428Y-38326190D01*
X83608619Y-38250000D01*
X83722904Y-38211904D01*
X83799095Y-38211904D01*
X83913380Y-38250000D01*
X83951476Y-38288095D01*
X82699786Y-36403809D02*
X82814072Y-36441904D01*
X83004548Y-36441904D01*
X83080739Y-36403809D01*
X83118834Y-36365714D01*
X83156929Y-36289523D01*
X83156929Y-36213333D01*
X83118834Y-36137142D01*
X83080739Y-36099047D01*
X83004548Y-36060952D01*
X82852167Y-36022857D01*
X82775977Y-35984761D01*
X82737881Y-35946666D01*
X82699786Y-35870476D01*
X82699786Y-35794285D01*
X82737881Y-35718095D01*
X82775977Y-35680000D01*
X82852167Y-35641904D01*
X83042643Y-35641904D01*
X83156929Y-35680000D01*
X83385500Y-35641904D02*
X83842643Y-35641904D01*
X83614072Y-36441904D02*
X83614072Y-35641904D01*
X82351476Y-33170000D02*
X82275285Y-33131904D01*
X82161000Y-33131904D01*
X82046714Y-33170000D01*
X81970523Y-33246190D01*
X81932428Y-33322380D01*
X81894333Y-33474761D01*
X81894333Y-33589047D01*
X81932428Y-33741428D01*
X81970523Y-33817619D01*
X82046714Y-33893809D01*
X82161000Y-33931904D01*
X82237190Y-33931904D01*
X82351476Y-33893809D01*
X82389571Y-33855714D01*
X82389571Y-33589047D01*
X82237190Y-33589047D01*
X82732428Y-33931904D02*
X82732428Y-33131904D01*
X83189571Y-33931904D01*
X83189571Y-33131904D01*
X83570523Y-33931904D02*
X83570523Y-33131904D01*
X83761000Y-33131904D01*
X83875285Y-33170000D01*
X83951476Y-33246190D01*
X83989571Y-33322380D01*
X84027666Y-33474761D01*
X84027666Y-33589047D01*
X83989571Y-33741428D01*
X83951476Y-33817619D01*
X83875285Y-33893809D01*
X83761000Y-33931904D01*
X83570523Y-33931904D01*
X82408619Y-31391904D02*
X82141952Y-31010952D01*
X81951476Y-31391904D02*
X81951476Y-30591904D01*
X82256238Y-30591904D01*
X82332428Y-30630000D01*
X82370523Y-30668095D01*
X82408619Y-30744285D01*
X82408619Y-30858571D01*
X82370523Y-30934761D01*
X82332428Y-30972857D01*
X82256238Y-31010952D01*
X81951476Y-31010952D01*
X82713380Y-31163333D02*
X83094333Y-31163333D01*
X82637190Y-31391904D02*
X82903857Y-30591904D01*
X83170523Y-31391904D01*
X83361000Y-30591904D02*
X83551476Y-31391904D01*
X83703857Y-30820476D01*
X83856238Y-31391904D01*
X84046714Y-30591904D01*
X82694333Y-43672857D02*
X82427666Y-43672857D01*
X82427666Y-44091904D02*
X82427666Y-43291904D01*
X82808619Y-43291904D01*
X83494333Y-43291904D02*
X83113380Y-43291904D01*
X83075285Y-43672857D01*
X83113380Y-43634761D01*
X83189571Y-43596666D01*
X83380047Y-43596666D01*
X83456238Y-43634761D01*
X83494333Y-43672857D01*
X83532428Y-43749047D01*
X83532428Y-43939523D01*
X83494333Y-44015714D01*
X83456238Y-44053809D01*
X83380047Y-44091904D01*
X83189571Y-44091904D01*
X83113380Y-44053809D01*
X83075285Y-44015714D01*
X82694333Y-46212857D02*
X82427666Y-46212857D01*
X82427666Y-46631904D02*
X82427666Y-45831904D01*
X82808619Y-45831904D01*
X83456238Y-45831904D02*
X83303857Y-45831904D01*
X83227666Y-45870000D01*
X83189571Y-45908095D01*
X83113380Y-46022380D01*
X83075285Y-46174761D01*
X83075285Y-46479523D01*
X83113380Y-46555714D01*
X83151476Y-46593809D01*
X83227666Y-46631904D01*
X83380047Y-46631904D01*
X83456238Y-46593809D01*
X83494333Y-46555714D01*
X83532428Y-46479523D01*
X83532428Y-46289047D01*
X83494333Y-46212857D01*
X83456238Y-46174761D01*
X83380047Y-46136666D01*
X83227666Y-46136666D01*
X83151476Y-46174761D01*
X83113380Y-46212857D01*
X83075285Y-46289047D01*
X82694333Y-48752857D02*
X82427666Y-48752857D01*
X82427666Y-49171904D02*
X82427666Y-48371904D01*
X82808619Y-48371904D01*
X83037190Y-48371904D02*
X83570523Y-48371904D01*
X83227666Y-49171904D01*
X82637190Y-56372857D02*
X82751476Y-56410952D01*
X82789571Y-56449047D01*
X82827666Y-56525238D01*
X82827666Y-56639523D01*
X82789571Y-56715714D01*
X82751476Y-56753809D01*
X82675285Y-56791904D01*
X82370523Y-56791904D01*
X82370523Y-55991904D01*
X82637190Y-55991904D01*
X82713380Y-56030000D01*
X82751476Y-56068095D01*
X82789571Y-56144285D01*
X82789571Y-56220476D01*
X82751476Y-56296666D01*
X82713380Y-56334761D01*
X82637190Y-56372857D01*
X82370523Y-56372857D01*
X83132428Y-56068095D02*
X83170523Y-56030000D01*
X83246714Y-55991904D01*
X83437190Y-55991904D01*
X83513380Y-56030000D01*
X83551476Y-56068095D01*
X83589571Y-56144285D01*
X83589571Y-56220476D01*
X83551476Y-56334761D01*
X83094333Y-56791904D01*
X83589571Y-56791904D01*
%TD*%
M02*
