M48
; DRILL file {KiCad 5.1.8} date Thu Feb  4 11:55:22 2021
; FORMAT={-:-/ absolute / inch / decimal}
; #@! TF.CreationDate,2021-02-04T11:55:22-06:00
; #@! TF.GenerationSoftware,Kicad,Pcbnew,5.1.8
; #@! TF.FileFunction,Plated,1,2,PTH
FMAT,2
INCH
T1C0.0157
T2C0.0315
T3C0.0394
T4C0.0430
T5C0.0500
%
G90
G05
T1
X3.0512Y-1.063
X3.0709Y-1.1024
X3.8189Y-1.2402
X3.8189Y-1.9094
X3.9173Y-0.9252
X4.5276Y-1.2402
X4.5276Y-1.9094
X5.2362Y-1.2402
X5.2362Y-1.9094
X5.9449Y-1.2402
X5.9449Y-1.9094
T2
X3.3024Y-0.9252
X3.6024Y-0.9252
T3
X2.9016Y-2.4173
X3.0016Y-2.4173
X3.1016Y-2.4173
X3.2016Y-2.4173
X4.0142Y-0.9252
X4.1142Y-0.9252
X2.9008Y-2.5157
X3.0008Y-2.5157
X3.1008Y-2.5157
X3.2008Y-2.5157
T4
X2.7512Y-1.2217
X2.7512Y-1.3217
X2.7512Y-1.4217
X2.7512Y-1.5217
X2.7512Y-1.6217
X2.7512Y-1.7217
X2.7512Y-1.8217
X2.7512Y-1.9217
X2.7512Y-2.0217
X2.7512Y-2.1217
X2.7512Y-2.2217
X2.7512Y-2.3217
X3.3512Y-1.2217
X3.3512Y-1.3217
X3.3512Y-1.4217
X3.3512Y-1.5217
X3.3512Y-1.6217
X3.3512Y-1.7217
X3.3512Y-1.8217
X3.3512Y-1.9217
X3.3512Y-2.0217
X3.3512Y-2.1217
X3.3512Y-2.2217
X3.3512Y-2.3217
T5
X3.622Y-2.1969
X3.8189Y-2.2795
X4.0157Y-2.1969
X5.0394Y-2.1969
X5.2362Y-2.2795
X5.4331Y-2.1969
X5.748Y-2.1969
X5.9449Y-2.2795
X6.1417Y-2.1969
X4.3307Y-2.1969
X4.5276Y-2.2795
X4.7244Y-2.1969
X5.748Y-1.5276
X5.9449Y-1.6102
X6.1417Y-1.5276
X3.622Y-1.5276
X3.8189Y-1.6102
X4.0157Y-1.5276
X4.3307Y-1.5276
X4.5276Y-1.6102
X4.7244Y-1.5276
X5.0394Y-1.5276
X5.2362Y-1.6102
X5.4331Y-1.5276
T0
M30
