%TF.GenerationSoftware,KiCad,Pcbnew,5.1.8*%
%TF.CreationDate,2021-02-04T11:55:25-06:00*%
%TF.ProjectId,small-paintbrush-hotswap,736d616c-6c2d-4706-9169-6e7462727573,rev?*%
%TF.SameCoordinates,Original*%
%TF.FileFunction,Copper,L1,Top*%
%TF.FilePolarity,Positive*%
%FSLAX46Y46*%
G04 Gerber Fmt 4.6, Leading zero omitted, Abs format (unit mm)*
G04 Created by KiCad (PCBNEW 5.1.8) date 2021-02-04 11:55:25*
%MOMM*%
%LPD*%
G01*
G04 APERTURE LIST*
%TA.AperFunction,SMDPad,CuDef*%
%ADD10R,2.600000X2.600000*%
%TD*%
%TA.AperFunction,ComponentPad*%
%ADD11C,2.032000*%
%TD*%
%TA.AperFunction,ComponentPad*%
%ADD12C,1.752600*%
%TD*%
%TA.AperFunction,ComponentPad*%
%ADD13R,1.752600X1.752600*%
%TD*%
%TA.AperFunction,ComponentPad*%
%ADD14O,1.700000X1.700000*%
%TD*%
%TA.AperFunction,ComponentPad*%
%ADD15R,1.700000X1.700000*%
%TD*%
%TA.AperFunction,ComponentPad*%
%ADD16O,1.600000X1.600000*%
%TD*%
%TA.AperFunction,ComponentPad*%
%ADD17C,1.600000*%
%TD*%
%TA.AperFunction,SMDPad,CuDef*%
%ADD18R,0.900000X1.700000*%
%TD*%
%TA.AperFunction,SMDPad,CuDef*%
%ADD19R,1.000000X0.800000*%
%TD*%
%TA.AperFunction,SMDPad,CuDef*%
%ADD20R,0.700000X1.500000*%
%TD*%
%TA.AperFunction,ViaPad*%
%ADD21C,0.800000*%
%TD*%
%TA.AperFunction,Conductor*%
%ADD22C,0.508000*%
%TD*%
%TA.AperFunction,Conductor*%
%ADD23C,0.254000*%
%TD*%
G04 APERTURE END LIST*
D10*
%TO.P,KEY3,1*%
%TO.N,GND*%
X136275000Y-29050000D03*
D11*
%TO.P,KEY3,2*%
%TO.N,R1C3*%
X138000000Y-38800000D03*
%TO.P,KEY3,1*%
%TO.N,GND*%
X133000000Y-40900000D03*
D10*
%TO.P,KEY3,2*%
%TO.N,R1C3*%
X124725000Y-31250000D03*
D11*
X128000000Y-38800000D03*
%TD*%
D10*
%TO.P,KEY8,1*%
%TO.N,GND*%
X154275000Y-46050000D03*
D11*
%TO.P,KEY8,2*%
%TO.N,R2C4*%
X156000000Y-55800000D03*
%TO.P,KEY8,1*%
%TO.N,GND*%
X151000000Y-57900000D03*
D10*
%TO.P,KEY8,2*%
%TO.N,R2C4*%
X142725000Y-48250000D03*
D11*
X146000000Y-55800000D03*
%TD*%
D10*
%TO.P,KEY7,1*%
%TO.N,GND*%
X136275000Y-46050000D03*
D11*
%TO.P,KEY7,2*%
%TO.N,R2C3*%
X138000000Y-55800000D03*
%TO.P,KEY7,1*%
%TO.N,GND*%
X133000000Y-57900000D03*
D10*
%TO.P,KEY7,2*%
%TO.N,R2C3*%
X124725000Y-48250000D03*
D11*
X128000000Y-55800000D03*
%TD*%
D10*
%TO.P,KEY6,1*%
%TO.N,GND*%
X118275000Y-46050000D03*
D11*
%TO.P,KEY6,2*%
%TO.N,R2C2*%
X120000000Y-55800000D03*
%TO.P,KEY6,1*%
%TO.N,GND*%
X115000000Y-57900000D03*
D10*
%TO.P,KEY6,2*%
%TO.N,R2C2*%
X106725000Y-48250000D03*
D11*
X110000000Y-55800000D03*
%TD*%
D10*
%TO.P,KEY5,1*%
%TO.N,GND*%
X100275000Y-46050000D03*
D11*
%TO.P,KEY5,2*%
%TO.N,R2C1*%
X102000000Y-55800000D03*
%TO.P,KEY5,1*%
%TO.N,GND*%
X97000000Y-57900000D03*
D10*
%TO.P,KEY5,2*%
%TO.N,R2C1*%
X88725000Y-48250000D03*
D11*
X92000000Y-55800000D03*
%TD*%
D10*
%TO.P,KEY4,1*%
%TO.N,GND*%
X154275000Y-29050000D03*
D11*
%TO.P,KEY4,2*%
%TO.N,R1C4*%
X156000000Y-38800000D03*
%TO.P,KEY4,1*%
%TO.N,GND*%
X151000000Y-40900000D03*
D10*
%TO.P,KEY4,2*%
%TO.N,R1C4*%
X142725000Y-31250000D03*
D11*
X146000000Y-38800000D03*
%TD*%
D10*
%TO.P,KEY2,1*%
%TO.N,GND*%
X118275000Y-29050000D03*
D11*
%TO.P,KEY2,2*%
%TO.N,R1C2*%
X120000000Y-38800000D03*
%TO.P,KEY2,1*%
%TO.N,GND*%
X115000000Y-40900000D03*
D10*
%TO.P,KEY2,2*%
%TO.N,R1C2*%
X106725000Y-31250000D03*
D11*
X110000000Y-38800000D03*
%TD*%
D10*
%TO.P,KEY1,1*%
%TO.N,GND*%
X100275000Y-29050000D03*
D11*
%TO.P,KEY1,2*%
%TO.N,R1C1*%
X102000000Y-38800000D03*
%TO.P,KEY1,1*%
%TO.N,GND*%
X97000000Y-40900000D03*
D10*
%TO.P,KEY1,2*%
%TO.N,R1C1*%
X88725000Y-31250000D03*
D11*
X92000000Y-38800000D03*
%TD*%
D12*
%TO.P,U1,24*%
%TO.N,Net-(U1-Pad24)*%
X85120000Y-31030000D03*
%TO.P,U1,12*%
%TO.N,Net-(U1-Pad12)*%
X69880000Y-58970000D03*
%TO.P,U1,23*%
%TO.N,GND*%
X85120000Y-33570000D03*
%TO.P,U1,22*%
%TO.N,Net-(PUSH1-Pad1)*%
X85120000Y-36110000D03*
%TO.P,U1,21*%
%TO.N,VCC*%
X85120000Y-38650000D03*
%TO.P,U1,20*%
%TO.N,R1C1*%
X85120000Y-41190000D03*
%TO.P,U1,19*%
%TO.N,R1C2*%
X85120000Y-43730000D03*
%TO.P,U1,18*%
%TO.N,R1C3*%
X85120000Y-46270000D03*
%TO.P,U1,17*%
%TO.N,R1C4*%
X85120000Y-48810000D03*
%TO.P,U1,16*%
%TO.N,R2C1*%
X85120000Y-51350000D03*
%TO.P,U1,15*%
%TO.N,R2C2*%
X85120000Y-53890000D03*
%TO.P,U1,14*%
%TO.N,R2C3*%
X85120000Y-56430000D03*
%TO.P,U1,13*%
%TO.N,R2C4*%
X85120000Y-58970000D03*
%TO.P,U1,11*%
%TO.N,Net-(U1-Pad11)*%
X69880000Y-56430000D03*
%TO.P,U1,10*%
%TO.N,Net-(U1-Pad10)*%
X69880000Y-53890000D03*
%TO.P,U1,9*%
%TO.N,Net-(U1-Pad9)*%
X69880000Y-51350000D03*
%TO.P,U1,8*%
%TO.N,Net-(U1-Pad8)*%
X69880000Y-48810000D03*
%TO.P,U1,7*%
%TO.N,Net-(U1-Pad7)*%
X69880000Y-46270000D03*
%TO.P,U1,6*%
%TO.N,SCL*%
X69880000Y-43730000D03*
%TO.P,U1,5*%
%TO.N,SDA*%
X69880000Y-41190000D03*
%TO.P,U1,4*%
%TO.N,GND*%
X69880000Y-38650000D03*
%TO.P,U1,3*%
X69880000Y-36110000D03*
%TO.P,U1,2*%
%TO.N,Net-(U1-Pad2)*%
X69880000Y-33570000D03*
D13*
%TO.P,U1,1*%
%TO.N,Net-(U1-Pad1)*%
X69880000Y-31030000D03*
%TD*%
D14*
%TO.P,J3,4*%
%TO.N,SDA*%
X81320000Y-61400000D03*
%TO.P,J3,3*%
%TO.N,SCL*%
X78780000Y-61400000D03*
%TO.P,J3,2*%
%TO.N,VCC*%
X76240000Y-61400000D03*
D15*
%TO.P,J3,1*%
%TO.N,GND*%
X73700000Y-61400000D03*
%TD*%
D14*
%TO.P,J2,4*%
%TO.N,SDA*%
X73680000Y-63900000D03*
%TO.P,J2,3*%
%TO.N,SCL*%
X76220000Y-63900000D03*
%TO.P,J2,2*%
%TO.N,VCC*%
X78760000Y-63900000D03*
D15*
%TO.P,J2,1*%
%TO.N,GND*%
X81300000Y-63900000D03*
%TD*%
D16*
%TO.P,R2,2*%
%TO.N,VCC*%
X83880000Y-23500000D03*
D17*
%TO.P,R2,1*%
%TO.N,Net-(PUSH1-Pad1)*%
X91500000Y-23500000D03*
%TD*%
D18*
%TO.P,PUSH2,2*%
%TO.N,GND*%
X98200000Y-23500000D03*
%TO.P,PUSH2,1*%
%TO.N,Net-(PUSH1-Pad1)*%
X94800000Y-23500000D03*
%TD*%
D19*
%TO.P,SW2,*%
%TO.N,*%
X81150000Y-24280000D03*
X73850000Y-24280000D03*
X73850000Y-22070000D03*
X81150000Y-22070000D03*
D20*
%TO.P,SW2,3*%
%TO.N,Net-(SW2-Pad3)*%
X75250000Y-24930000D03*
%TO.P,SW2,2*%
%TO.N,Net-(J1-Pad2)*%
X76750000Y-24930000D03*
%TO.P,SW2,1*%
%TO.N,Net-(J1-Pad1)*%
X79750000Y-24930000D03*
%TD*%
D14*
%TO.P,J1,2*%
%TO.N,Net-(J1-Pad2)*%
X101960000Y-23500000D03*
D15*
%TO.P,J1,1*%
%TO.N,Net-(J1-Pad1)*%
X104500000Y-23500000D03*
%TD*%
%TO.P,R1,2*%
%TO.N,VCC*%
%TA.AperFunction,SMDPad,CuDef*%
G36*
G01*
X87100000Y-23049998D02*
X87100000Y-23950002D01*
G75*
G02*
X86850002Y-24200000I-249998J0D01*
G01*
X86324998Y-24200000D01*
G75*
G02*
X86075000Y-23950002I0J249998D01*
G01*
X86075000Y-23049998D01*
G75*
G02*
X86324998Y-22800000I249998J0D01*
G01*
X86850002Y-22800000D01*
G75*
G02*
X87100000Y-23049998I0J-249998D01*
G01*
G37*
%TD.AperFunction*%
%TO.P,R1,1*%
%TO.N,Net-(PUSH1-Pad1)*%
%TA.AperFunction,SMDPad,CuDef*%
G36*
G01*
X88925000Y-23049998D02*
X88925000Y-23950002D01*
G75*
G02*
X88675002Y-24200000I-249998J0D01*
G01*
X88149998Y-24200000D01*
G75*
G02*
X87900000Y-23950002I0J249998D01*
G01*
X87900000Y-23049998D01*
G75*
G02*
X88149998Y-22800000I249998J0D01*
G01*
X88675002Y-22800000D01*
G75*
G02*
X88925000Y-23049998I0J-249998D01*
G01*
G37*
%TD.AperFunction*%
%TD*%
D21*
%TO.N,GND*%
X151000000Y-31500000D03*
X133000000Y-31500000D03*
X115000000Y-31500000D03*
X97000000Y-31500000D03*
X97000000Y-48500000D03*
X115000000Y-48500000D03*
X133000000Y-48500000D03*
X151000000Y-48500000D03*
X99500000Y-23500000D03*
%TO.N,Net-(J1-Pad2)*%
X77500006Y-27000006D03*
%TO.N,Net-(J1-Pad1)*%
X78000000Y-28000000D03*
%TD*%
D22*
%TO.N,GND*%
X151000000Y-31500000D02*
X151825000Y-31500000D01*
X151825000Y-31500000D02*
X154275000Y-29050000D01*
X133000000Y-31500000D02*
X133825000Y-31500000D01*
X133825000Y-31500000D02*
X136275000Y-29050000D01*
X115000000Y-31500000D02*
X115825000Y-31500000D01*
X115825000Y-31500000D02*
X118275000Y-29050000D01*
X97000000Y-31500000D02*
X97825000Y-31500000D01*
X97825000Y-31500000D02*
X100275000Y-29050000D01*
X97000000Y-48500000D02*
X97825000Y-48500000D01*
X97825000Y-48500000D02*
X100275000Y-46050000D01*
X115000000Y-48500000D02*
X115825000Y-48500000D01*
X115825000Y-48500000D02*
X118275000Y-46050000D01*
X133000000Y-48500000D02*
X133825000Y-48500000D01*
X133825000Y-48500000D02*
X136275000Y-46050000D01*
X99500000Y-46825000D02*
X100275000Y-46050000D01*
X99500000Y-55400000D02*
X99500000Y-46825000D01*
X97000000Y-57900000D02*
X99500000Y-55400000D01*
X151825000Y-48500000D02*
X154275000Y-46050000D01*
X151000000Y-48500000D02*
X151825000Y-48500000D01*
X99500000Y-23500000D02*
X98200000Y-23500000D01*
X100275000Y-24275000D02*
X100275000Y-29050000D01*
X99500000Y-23500000D02*
X100275000Y-24275000D01*
X118275000Y-26500000D02*
X118275000Y-29050000D01*
X100275000Y-26500000D02*
X118275000Y-26500000D01*
X100275000Y-29050000D02*
X100275000Y-26500000D01*
X136275000Y-26500000D02*
X136275000Y-29050000D01*
X118275000Y-26500000D02*
X136275000Y-26500000D01*
X151725000Y-26500000D02*
X154275000Y-29050000D01*
X136275000Y-26500000D02*
X151725000Y-26500000D01*
%TO.N,R1C1*%
X88725000Y-35525000D02*
X92000000Y-38800000D01*
X88725000Y-31250000D02*
X88725000Y-35525000D01*
D23*
X87510000Y-38800000D02*
X85120000Y-41190000D01*
X92000000Y-38800000D02*
X87510000Y-38800000D01*
D22*
%TO.N,R1C2*%
X106725000Y-35525000D02*
X110000000Y-38800000D01*
X106725000Y-31250000D02*
X106725000Y-35525000D01*
D23*
X110000000Y-38800000D02*
X106300000Y-42500000D01*
X86350000Y-42500000D02*
X85120000Y-43730000D01*
X106300000Y-42500000D02*
X86350000Y-42500000D01*
D22*
%TO.N,R1C3*%
X124725000Y-35525000D02*
X128000000Y-38800000D01*
X124725000Y-31250000D02*
X124725000Y-35525000D01*
D23*
X128000000Y-38800000D02*
X123800000Y-43000000D01*
X88390000Y-43000000D02*
X85120000Y-46270000D01*
X123800000Y-43000000D02*
X88390000Y-43000000D01*
D22*
%TO.N,R1C4*%
X142725000Y-35525000D02*
X146000000Y-38800000D01*
X142725000Y-31250000D02*
X142725000Y-35525000D01*
D23*
X85120000Y-48380000D02*
X85120000Y-48810000D01*
X90000000Y-43500000D02*
X85120000Y-48380000D01*
X141300000Y-43500000D02*
X90000000Y-43500000D01*
X146000000Y-38800000D02*
X141300000Y-43500000D01*
D22*
%TO.N,R2C1*%
X88725000Y-52525000D02*
X92000000Y-55800000D01*
X88725000Y-48250000D02*
X88725000Y-52525000D01*
D23*
X86295000Y-52525000D02*
X85120000Y-51350000D01*
X88725000Y-52525000D02*
X86295000Y-52525000D01*
D22*
%TO.N,R2C2*%
X106725000Y-52525000D02*
X110000000Y-55800000D01*
X106725000Y-48250000D02*
X106725000Y-52525000D01*
D23*
X85120000Y-53890000D02*
X90730000Y-59500000D01*
X106300000Y-59500000D02*
X110000000Y-55800000D01*
X90730000Y-59500000D02*
X106300000Y-59500000D01*
D22*
%TO.N,R2C3*%
X124725000Y-52525000D02*
X128000000Y-55800000D01*
X124725000Y-48250000D02*
X124725000Y-52525000D01*
D23*
X85120000Y-56430000D02*
X88690000Y-60000000D01*
X123800000Y-60000000D02*
X128000000Y-55800000D01*
X88690000Y-60000000D02*
X123800000Y-60000000D01*
D22*
%TO.N,R2C4*%
X142725000Y-52525000D02*
X146000000Y-55800000D01*
X142725000Y-48250000D02*
X142725000Y-52525000D01*
D23*
X85120000Y-58970000D02*
X86650000Y-60500000D01*
X141300000Y-60500000D02*
X146000000Y-55800000D01*
X86650000Y-60500000D02*
X141300000Y-60500000D01*
D22*
%TO.N,Net-(PUSH1-Pad1)*%
X88412500Y-23500000D02*
X91500000Y-23500000D01*
X91500000Y-23500000D02*
X94800000Y-23500000D01*
X88412500Y-24587500D02*
X88412500Y-23500000D01*
X83500000Y-29500000D02*
X88412500Y-24587500D01*
X83500000Y-34490000D02*
X83500000Y-29500000D01*
X85120000Y-36110000D02*
X83500000Y-34490000D01*
%TO.N,VCC*%
X86587500Y-23500000D02*
X83880000Y-23500000D01*
X83880000Y-23500000D02*
X82500000Y-24880000D01*
X82500000Y-36030000D02*
X85120000Y-38650000D01*
X82500000Y-24880000D02*
X82500000Y-36030000D01*
%TO.N,Net-(J1-Pad2)*%
X76750000Y-24930000D02*
X76750000Y-26250000D01*
X76750000Y-26250000D02*
X77500006Y-27000006D01*
%TO.N,Net-(J1-Pad1)*%
X79750000Y-24930000D02*
X79750000Y-26250000D01*
X79750000Y-26250000D02*
X78000000Y-28000000D01*
%TO.N,SDA*%
X82400000Y-61400000D02*
X81320000Y-61400000D01*
X83500000Y-62500000D02*
X82400000Y-61400000D01*
X83500000Y-64500000D02*
X83500000Y-62500000D01*
X82500000Y-65500000D02*
X83500000Y-64500000D01*
X75280000Y-65500000D02*
X82500000Y-65500000D01*
X73680000Y-63900000D02*
X75280000Y-65500000D01*
X81320000Y-52630000D02*
X69880000Y-41190000D01*
X81320000Y-61400000D02*
X81320000Y-52630000D01*
%TO.N,SCL*%
X76280000Y-63900000D02*
X78780000Y-61400000D01*
X76220000Y-63900000D02*
X76280000Y-63900000D01*
X78780000Y-52630000D02*
X69880000Y-43730000D01*
X78780000Y-61400000D02*
X78780000Y-52630000D01*
%TD*%
M02*
